<svg width="387" height="376" viewBox="0 0 387 376" fill="none" xmlns="http://www.w3.org/2000/svg">
<path d="M267.1 58.7988H206.147V130.63H267.1V58.7988Z" fill="#EBEBEB"/>
<path d="M260.134 65.3563H213.113V124.072H260.134V65.3563Z" fill="white"/>
<path d="M214.948 65.3563H213.113V124.072H214.948V65.3563Z" fill="#DBDBDB"/>
<path d="M268.934 58.7988H267.1V130.63H268.934V58.7988Z" fill="#DBDBDB"/>
<path d="M239.955 73.4553H228.872V105.551H239.955V73.4553Z" fill="#DBDBDB"/>
<path d="M253.98 111.401H223.686V94.9249H254.019L253.98 111.401ZM224.421 110.649H253.206V95.6769H224.46L224.421 110.649Z" fill="#EBEBEB"/>
<path d="M345.498 134.698H284.546V206.529H345.498V134.698Z" fill="#EBEBEB"/>
<path d="M338.532 141.248H291.512V199.964H338.532V141.248Z" fill="white"/>
<path d="M293.346 141.248H291.512V199.964H293.346V141.248Z" fill="#DBDBDB"/>
<path d="M347.325 134.698H345.49V206.529H347.325V134.698Z" fill="#DBDBDB"/>
<path d="M319.964 156.431H310.467V179.765H319.964V156.431Z" fill="#EBEBEB"/>
<path d="M330.351 187.068H304.035V170.23H330.351V187.068ZM304.809 186.316H329.577V170.982H304.809V186.316Z" fill="#DBDBDB"/>
<path d="M71.6647 245.949L61.5098 246.152L56.3549 246.242C54.6289 246.242 52.8952 246.242 51.1691 246.28H50.8286V245.949L50.7821 237.534V237.151H51.1691L61.4169 237.196C64.838 237.196 68.2513 237.278 71.6647 237.316H71.8814V237.519C71.8814 238.94 71.8117 240.362 71.7808 241.768L71.6647 245.949ZM71.6647 245.949L71.5563 241.693C71.5563 240.294 71.4712 238.91 71.4557 237.534L71.6647 237.737C68.2513 237.775 64.838 237.858 61.4169 237.858L51.1691 237.91L51.5561 237.534V245.949L51.2078 245.611C52.8952 245.611 54.5825 245.611 56.2775 245.648L61.3705 245.738L71.6647 245.949Z" fill="#EBEBEB"/>
<path d="M60.2327 256.56L50.0778 256.763L44.923 256.853C43.1969 256.853 41.4632 256.853 39.7372 256.891H39.3966V256.56L39.3502 248.16V247.776H39.7372L49.9849 247.821C53.3983 247.821 56.8193 247.904 60.2327 247.942H60.4494V248.16C60.4494 249.581 60.3875 251.002 60.3488 252.409L60.2327 256.56ZM60.2327 256.56L60.1243 252.303C60.0856 250.905 60.0392 249.521 60.0237 248.145L60.2327 248.348C56.8193 248.385 53.3983 248.468 49.9849 248.468L39.7372 248.513L40.1242 248.145L40.0855 256.56L39.7372 256.221C41.4245 256.221 43.1118 256.221 44.8069 256.221L49.8998 256.312L60.2327 256.56Z" fill="#EBEBEB"/>
<path d="M254.336 152.273L244.174 152.483L239.019 152.566C237.301 152.603 235.567 152.566 233.841 152.611H233.5V152.273L233.462 143.858V143.482H233.849L244.096 143.534C247.51 143.534 250.931 143.617 254.344 143.655H254.561V143.858C254.561 145.286 254.499 146.708 254.46 148.114L254.336 152.273ZM254.336 152.273L254.228 148.024C254.228 146.625 254.143 145.234 254.127 143.858L254.336 144.068C250.923 144.068 247.502 144.181 244.089 144.189L233.841 144.234L234.228 143.858L234.181 152.273L233.841 151.942C235.528 151.942 237.216 151.942 238.903 151.942L243.996 152.024L254.336 152.273Z" fill="#EBEBEB"/>
<path d="M242.904 162.883L232.742 163.094L227.556 163.184C225.838 163.184 224.104 163.184 222.378 163.229H222.03V162.891V154.476V154.1H222.417L232.664 154.152C236.078 154.152 239.491 154.235 242.912 154.273H243.121V154.476C243.121 155.905 243.052 157.326 243.021 158.732L242.904 162.883ZM242.904 162.883L242.796 158.634C242.757 157.236 242.703 155.844 242.688 154.468L242.904 154.679C239.483 154.716 236.07 154.792 232.657 154.799L222.409 154.844L222.796 154.468L222.75 162.883L222.409 162.552C224.096 162.552 225.784 162.552 227.471 162.59L232.564 162.673L242.904 162.883Z" fill="#EBEBEB"/>
<path d="M231.511 152.273L221.356 152.483L216.201 152.566C214.475 152.603 212.749 152.566 211.016 152.611H210.675V152.273L210.629 143.858V143.482H211.016L221.263 143.534C224.684 143.534 228.098 143.617 231.511 143.655H231.728V143.858C231.728 145.286 231.658 146.708 231.627 148.114L231.511 152.273ZM231.511 152.273L231.403 148.024C231.403 146.625 231.318 145.234 231.302 143.858L231.511 144.068C228.098 144.068 224.684 144.181 221.263 144.189L211.016 144.234L211.403 143.858L211.364 152.273L211.016 151.942C212.711 151.942 214.39 151.942 216.085 151.942L221.178 152.024L231.511 152.273Z" fill="#EBEBEB"/>
<path d="M347.263 256.56L337.1 256.763L331.945 256.853C330.227 256.853 328.493 256.853 326.767 256.891H326.419V256.56L326.38 248.16V247.776H326.767L337.015 247.821C340.428 247.821 343.85 247.904 347.263 247.942H347.472V248.16C347.472 249.581 347.41 251.002 347.371 252.409L347.263 256.56ZM347.263 256.56L347.155 252.303C347.155 250.905 347.062 249.521 347.054 248.145L347.263 248.348C343.85 248.385 340.428 248.468 337.015 248.468L326.767 248.513L327.154 248.145L327.108 256.56L326.767 256.221C328.455 256.221 330.142 256.221 331.829 256.221L336.922 256.312L347.263 256.56Z" fill="#EBEBEB"/>
<path d="M335.831 50.7525L325.668 50.9555L320.513 51.0457C318.795 51.0457 317.061 51.0457 315.335 51.0833H315.018V50.7449V42.3301V41.9465H315.413L325.661 41.9917C329.074 41.9917 332.487 42.0744 335.908 42.112H336.117V42.315C336.117 43.7438 336.048 45.1576 336.017 46.5638L335.831 50.7525ZM335.831 50.7525L335.723 46.4961C335.684 45.0974 335.63 43.7137 335.614 42.3376L335.831 42.5406C332.41 42.5406 328.996 42.6609 325.583 42.6609L315.335 42.7136L315.722 42.3376L315.676 50.7525L315.335 50.4141C317.023 50.4141 318.702 50.4141 320.397 50.4592L325.49 50.5419L335.831 50.7525Z" fill="#EBEBEB"/>
<path d="M347.263 61.3632L337.1 61.5663L331.945 61.6565C330.227 61.6565 328.493 61.6565 326.767 61.6941H326.419V61.3632L326.38 52.9483V52.5648H326.767L337.015 52.6099C340.428 52.6099 343.85 52.6927 347.263 52.7303H347.472V52.9333C347.472 54.3546 347.41 55.7759 347.371 57.1821L347.263 61.3632ZM347.263 61.3632L347.155 57.1069C347.155 55.7082 347.062 54.3245 347.054 52.9483L347.263 53.1514C343.85 53.1514 340.428 53.2717 337.015 53.2717L326.767 53.3243L327.154 52.9483L327.108 61.3632L326.767 61.0248C328.455 61.0248 330.142 61.0248 331.829 61.0699L336.922 61.1527L347.263 61.3632Z" fill="#EBEBEB"/>
<path d="M71.6647 50.7525L61.5098 50.9555L56.3549 51.0458C54.6289 51.0458 52.8952 51.0458 51.1691 51.0834H50.8286V50.745L50.7821 42.3376V41.9541H51.1691L61.4169 41.9992C64.838 41.9992 68.2513 42.0819 71.6647 42.1195H71.8814V42.3226C71.8814 43.7514 71.8117 45.1651 71.7808 46.5714L71.6647 50.7525ZM71.6647 50.7525L71.5563 46.4962C71.5563 45.0975 71.4712 43.7138 71.4557 42.3376L71.6647 42.5407C68.2513 42.5407 64.838 42.661 61.4169 42.661L51.1691 42.7136L51.5561 42.3376V50.7525L51.1691 50.384C52.8565 50.384 54.5438 50.384 56.2388 50.4291L61.3318 50.5119L71.6647 50.7525Z" fill="#EBEBEB"/>
<path d="M193.5 350.454C281.332 350.454 352.534 341.542 352.534 330.549C352.534 319.556 281.332 310.644 193.5 310.644C105.668 310.644 34.4662 319.556 34.4662 330.549C34.4662 341.542 105.668 350.454 193.5 350.454Z" fill="#EBEBEB"/>
<path d="M310.01 233.218C321.922 244.551 323.942 262.08 321.411 277.428C321.349 277.781 320.792 277.684 320.792 277.353C320.792 273.863 320.9 270.397 320.893 266.945C320.831 266.787 320.777 266.637 320.707 266.479C317.611 264.283 314.739 261.801 312.967 258.402C310.978 254.605 310.196 250.311 308.679 246.37C308.532 245.987 308.95 246.1 309.228 246.295C316.473 251.484 318.78 257.071 320.838 264.539C320.794 260.634 320.372 256.741 319.577 252.913C318.029 245.829 314.933 238.805 309.677 233.549C309.499 233.323 309.809 233.022 310.01 233.218Z" fill="#263238"/>
<path d="M307.773 234.541C305.73 234.609 304.445 237.79 302.843 238.715C302.675 238.846 302.482 238.942 302.274 238.996C302.066 239.05 301.849 239.062 301.636 239.03C301.423 238.998 301.22 238.924 301.039 238.811C300.857 238.699 300.702 238.551 300.583 238.377C299.035 236.226 301.171 233.579 303.214 232.097C301.752 232.684 300.544 233.707 298.965 234C298.764 234.063 298.551 234.084 298.34 234.06C298.13 234.037 297.928 233.969 297.746 233.863C297.565 233.757 297.409 233.614 297.29 233.444C297.17 233.275 297.09 233.082 297.053 232.879C296.357 229.954 300.149 228.653 302.727 228.593C301.473 227.743 297.866 225.442 299.786 224.307C301.705 223.171 305.978 226.465 307.324 227.548C309.352 229.149 311.767 231.533 311.86 234.03C311.976 236.948 309.352 235.15 307.773 234.541Z" fill="#6A3093"/>
<path opacity="0.1" d="M307.773 234.541C305.73 234.609 304.445 237.79 302.843 238.715C302.675 238.846 302.482 238.942 302.274 238.996C302.066 239.05 301.849 239.062 301.636 239.03C301.423 238.998 301.22 238.924 301.039 238.811C300.857 238.699 300.702 238.551 300.583 238.377C299.035 236.226 301.171 233.579 303.214 232.097C301.752 232.684 300.544 233.707 298.965 234C298.764 234.063 298.551 234.084 298.34 234.06C298.13 234.037 297.928 233.969 297.746 233.863C297.565 233.757 297.409 233.614 297.29 233.444C297.17 233.275 297.09 233.082 297.053 232.879C296.357 229.954 300.149 228.653 302.727 228.593C301.473 227.743 297.866 225.442 299.786 224.307C301.705 223.171 305.978 226.465 307.324 227.548C309.352 229.149 311.767 231.533 311.86 234.03C311.976 236.948 309.352 235.15 307.773 234.541Z" fill="black"/>
<path d="M308.369 235.03C305.745 233.872 300.714 235.542 300.289 234.579C299.422 232.616 303.439 231.27 305.614 231.007C303.617 230.481 299.786 229.646 299.902 227.773C300.041 225.517 305.776 227.45 308.679 229.616C312.332 232.338 312.309 234.962 311.705 235.489C310.877 236.211 308.826 235.226 308.369 235.03Z" fill="#6A3093"/>
<path d="M337.139 232.097C324.794 242.979 322.108 260.418 324.02 275.856C324.066 276.202 324.623 276.127 324.639 275.804C324.778 272.314 324.801 268.848 324.948 265.396L325.15 264.937C328.346 262.862 331.295 260.485 333.199 257.154C335.335 253.432 336.295 249.175 337.959 245.265C338.122 244.889 337.696 244.987 337.418 245.167C329.972 250.093 327.448 255.59 325.08 262.975C325.275 259.073 325.848 255.198 326.79 251.401C328.633 244.378 332 237.474 337.441 232.413C337.474 232.372 337.491 232.321 337.489 232.269C337.487 232.217 337.466 232.168 337.429 232.13C337.393 232.092 337.343 232.067 337.29 232.061C337.237 232.056 337.183 232.068 337.139 232.097Z" fill="#263238"/>
<path d="M339.329 233.504C341.373 233.646 342.526 236.873 344.089 237.858C344.252 237.995 344.443 238.098 344.649 238.16C344.856 238.221 345.073 238.24 345.287 238.215C345.501 238.191 345.708 238.123 345.894 238.016C346.079 237.909 346.24 237.765 346.365 237.594C348.029 235.511 345.963 232.782 343.981 231.233C345.413 231.864 346.589 232.932 348.145 233.286C348.344 233.357 348.556 233.386 348.767 233.371C348.979 233.356 349.184 233.296 349.37 233.197C349.556 233.098 349.717 232.961 349.844 232.796C349.97 232.631 350.059 232.441 350.103 232.24C350.916 229.345 347.193 227.901 344.6 227.728C345.893 226.931 349.577 224.72 347.696 223.555C345.815 222.389 341.458 225.48 340.034 226.518C337.952 228.022 335.444 230.33 335.25 232.827C335.034 235.752 337.727 234.053 339.329 233.504Z" fill="#6A3093"/>
<path opacity="0.1" d="M339.329 233.504C341.373 233.646 342.526 236.873 344.089 237.858C344.252 237.995 344.443 238.098 344.649 238.16C344.856 238.221 345.073 238.24 345.287 238.215C345.501 238.191 345.708 238.123 345.894 238.016C346.079 237.909 346.24 237.765 346.365 237.594C348.029 235.511 345.963 232.782 343.981 231.233C345.413 231.864 346.589 232.932 348.145 233.286C348.344 233.357 348.556 233.386 348.767 233.371C348.979 233.356 349.184 233.296 349.37 233.197C349.556 233.098 349.717 232.961 349.844 232.796C349.97 232.631 350.059 232.441 350.103 232.24C350.916 229.345 347.193 227.901 344.6 227.728C345.893 226.931 349.577 224.72 347.696 223.555C345.815 222.389 341.458 225.48 340.034 226.518C337.952 228.022 335.444 230.33 335.25 232.827C335.034 235.752 337.727 234.053 339.329 233.504Z" fill="black"/>
<path d="M338.71 233.97C341.38 232.909 346.342 234.759 346.806 233.812C347.75 231.887 343.788 230.39 341.628 230.052C343.64 229.601 347.503 228.901 347.456 227.044C347.402 224.788 341.597 226.502 338.617 228.548C334.856 231.135 334.747 233.759 335.359 234.308C336.164 235.053 338.277 234.143 338.71 233.97Z" fill="#6A3093"/>
<path d="M324.515 260.839C323.677 266.658 322.397 272.409 320.684 278.045C320.66 278.156 320.592 278.254 320.494 278.317C320.396 278.38 320.276 278.402 320.161 278.379C320.046 278.356 319.945 278.29 319.881 278.195C319.816 278.1 319.793 277.983 319.817 277.872C320.629 272.57 322.139 267.344 322.913 262.08C323.796 256.716 324.112 251.278 323.857 245.852C323.338 236.918 320.846 227.412 314.84 220.419C314.708 220.253 314.987 220.02 315.126 220.178C327.139 233.782 325.227 250.469 325.188 251.965C326.883 246.333 328.64 239.873 335.072 234.135C335.351 233.887 335.568 234.008 335.521 234.429C334.368 244.874 331.38 250.333 325.142 255.921C325.003 257.56 324.786 259.207 324.515 260.839Z" fill="#263238"/>
<path d="M314.739 221.968C312.58 221.035 309.6 223.713 307.464 223.893C306.326 223.991 305.49 223.562 305.297 222.389C304.763 219.381 308.393 217.704 311.272 217.17C309.453 217.057 307.665 217.531 305.854 217.065C305.612 217.032 305.38 216.949 305.174 216.822C304.968 216.695 304.792 216.526 304.658 216.327C304.525 216.128 304.437 215.904 304.4 215.669C304.363 215.435 304.379 215.195 304.445 214.967C305.219 211.59 309.863 212.094 312.549 213.297C311.69 211.793 309.151 207.642 311.721 207.402C314.29 207.161 316.999 212.666 317.866 214.463C319.136 217.11 320.405 220.765 319.205 223.397C317.851 226.518 316.063 223.344 314.739 221.968Z" fill="#6A3093"/>
<path opacity="0.1" d="M314.739 221.968C312.58 221.035 309.6 223.713 307.464 223.893C306.326 223.991 305.49 223.562 305.297 222.389C304.763 219.381 308.393 217.704 311.272 217.17C309.453 217.057 307.665 217.531 305.854 217.065C305.612 217.032 305.38 216.949 305.174 216.822C304.968 216.695 304.792 216.526 304.658 216.327C304.525 216.128 304.437 215.904 304.4 215.669C304.363 215.435 304.379 215.195 304.445 214.967C305.219 211.59 309.863 212.094 312.549 213.297C311.69 211.793 309.151 207.642 311.721 207.402C314.29 207.161 316.999 212.666 317.866 214.463C319.136 217.11 320.405 220.765 319.205 223.397C317.851 226.518 316.063 223.344 314.739 221.968Z" fill="black"/>
<path d="M315.103 222.773C312.982 220.291 306.899 219.554 306.953 218.343C307.069 215.884 311.937 216.456 314.329 217.253C312.526 215.749 308.989 212.982 310.08 211.094C311.411 208.793 316.341 213.636 318.23 217.298C320.614 221.915 319.229 224.63 318.323 224.878C317.092 225.224 315.451 223.179 315.103 222.773Z" fill="#6A3093"/>
<path d="M332.417 263.952L337.719 303.282H305.475C306.14 299.8 312.139 263.907 312.139 263.907L332.417 263.952Z" fill="#6A3093"/>
<path d="M54.6134 85.1715H42.0901V108.739H54.6134V85.1715Z" fill="#263238"/>
<path d="M54.6134 85.1716L77.6941 75.749V118.169L54.6134 108.739V85.1716Z" fill="#37474F"/>
<path d="M82.5393 101.249C78.4689 101.249 74.4898 100.077 71.1053 97.8794C67.7209 95.6823 65.083 92.5594 63.5253 88.9056C61.9676 85.2519 61.56 81.2314 62.3541 77.3527C63.1482 73.4739 65.1084 69.911 67.9866 67.1145C70.8649 64.3181 74.532 62.4137 78.5243 61.6422C82.5165 60.8706 86.6546 61.2666 90.4152 62.78C94.1758 64.2935 97.3901 66.8563 99.6515 70.1446C101.913 73.4329 103.12 77.2989 103.12 81.2536C103.114 86.555 100.944 91.6375 97.0853 95.3861C93.227 99.1347 87.9958 101.243 82.5393 101.249ZM82.5393 65.0179C79.2343 65.0179 76.0035 65.9702 73.2554 67.7542C70.5073 69.5382 68.3655 72.0738 67.1007 75.0405C65.8359 78.0072 65.505 81.2716 66.1498 84.421C66.7946 87.5705 68.3861 90.4634 70.7231 92.734C73.0602 95.0046 76.0377 96.5509 79.2793 97.1773C82.5208 97.8038 85.8808 97.4823 88.9342 96.2534C91.9877 95.0246 94.5976 92.9436 96.4338 90.2737C98.2699 87.6037 99.25 84.4647 99.25 81.2536C99.2439 76.9495 97.4813 72.8233 94.3488 69.7799C91.2163 66.7364 86.9694 65.0239 82.5393 65.0179Z" fill="#6A3093"/>
<path d="M94.3382 67.1358L68.0076 92.718L70.7441 95.3767L97.0747 69.7945L94.3382 67.1358Z" fill="#6A3093"/>
<path d="M34.4043 303.312L74.1802 303.131L113.956 303.063L193.5 302.936L273.044 303.063L312.82 303.131L352.596 303.312L312.82 303.5L273.044 303.56L193.5 303.688L113.956 303.56L74.1802 303.492L34.4043 303.312Z" fill="#263238"/>
<path d="M256.047 70.6881C256.05 76.5309 254.382 82.2595 251.228 87.2343C248.074 92.2091 243.559 96.2341 238.186 98.8598C232.814 101.486 226.796 102.609 220.805 102.104C214.814 101.599 209.085 99.4857 204.259 96.0004L188.361 99.9409L194.978 85.5626C192.651 81.3361 191.345 76.6494 191.162 71.8591C190.978 67.0688 191.921 62.3009 193.919 57.9178C195.917 53.5348 198.917 49.6521 202.692 46.5648C206.466 43.4776 210.915 41.2671 215.701 40.1014C220.487 38.9357 225.483 38.8455 230.31 39.8377C235.137 40.8299 239.668 42.8783 243.558 45.8273C247.448 48.7762 250.594 52.548 252.758 56.8559C254.923 61.1638 256.047 65.8944 256.047 70.6881Z" fill="white"/>
<path d="M256.124 70.688C256.101 76.5499 254.483 82.3015 251.434 87.3599L250.861 88.3074C250.675 88.6232 250.435 88.909 250.219 89.2098L248.895 90.9921C247.933 92.1284 246.899 93.2058 245.799 94.2181L244.979 94.9701C244.714 95.2433 244.427 95.4948 244.12 95.7221L242.324 97.0908C241.72 97.542 241.055 97.8954 240.412 98.294L239.445 98.8881C239.12 99.0685 238.771 99.2189 238.431 99.3919C237.75 99.7152 237.068 100.061 236.38 100.369L234.236 101.121C233.524 101.386 232.795 101.602 232.053 101.768C231.279 101.934 230.59 102.182 229.832 102.287C228.331 102.553 226.813 102.713 225.288 102.768C223.767 102.871 222.24 102.854 220.722 102.716C214.638 102.145 208.844 99.9187 204.003 96.2937L204.336 96.3538C201.681 96.9705 199.019 97.5796 196.364 98.2263L188.399 100.151L187.927 100.264L188.128 99.8356L191.41 92.6314C192.502 90.2325 193.593 87.8261 194.653 85.4122V85.698C192.22 81.4389 190.829 76.6928 190.588 71.8273C190.346 66.9619 191.26 62.1077 193.26 57.6408C195.303 53.1634 198.343 49.1823 202.161 45.9848C206.002 42.7922 210.563 40.5227 215.474 39.3597C220.356 38.1201 225.47 38.0188 230.4 39.0643C235.329 40.1098 239.935 42.2724 243.841 45.3757C247.718 48.4296 250.819 52.3099 252.904 56.7159C255.008 61.0912 256.107 65.8589 256.124 70.688ZM255.97 70.688C255.932 65.9352 254.759 61.2556 252.543 57.0183C250.327 52.781 247.128 49.1018 243.199 46.2706C239.33 43.4657 234.876 41.5198 230.149 40.5704C225.435 39.6315 220.563 39.7421 215.9 40.8938L214.158 41.33L212.478 41.9391C211.352 42.3332 210.256 42.8031 209.197 43.3453C208.934 43.4807 208.655 43.586 208.423 43.7288L207.649 44.18L206.101 45.0749C205.598 45.3908 205.133 45.7592 204.646 46.0976C204.158 46.436 203.663 46.7669 203.221 47.158C199.535 50.1728 196.585 53.9461 194.584 58.2048C192.579 62.496 191.601 67.1725 191.723 71.8833C191.845 76.5941 193.064 81.2169 195.288 85.4047L195.365 85.5476L195.296 85.6904C194.16 88.0718 193.038 90.4606 191.929 92.857L188.577 100.016L188.299 99.7002L196.232 97.6773C198.887 97.0156 201.519 96.3012 204.158 95.6018L204.336 95.5567L204.491 95.6695C206.889 97.3363 209.508 98.6796 212.277 99.6626C215.043 100.618 217.927 101.217 220.853 101.445C222.311 101.561 223.776 101.561 225.234 101.445C226.695 101.376 228.148 101.206 229.584 100.933C232.461 100.403 235.251 99.4996 237.881 98.2488C238.206 98.0909 238.547 97.9556 238.872 97.7826L239.816 97.2412C240.435 96.8652 241.101 96.5493 241.697 96.1357L243.493 94.8949C243.796 94.6928 244.083 94.4691 244.352 94.2257L245.188 93.5188C246.295 92.5792 247.342 91.5746 248.322 90.5108L249.685 88.8188C249.909 88.5255 250.157 88.2623 250.35 87.954L250.946 87.044C254.198 82.1719 255.942 76.4949 255.97 70.688Z" fill="#263238"/>
<path d="M218.33 89.4354L203.786 75.1324L208.678 70.4399L217.169 78.7946L234.824 51.9106L240.613 55.4977L218.33 89.4354Z" fill="#6A3093"/>
<path d="M190.899 196.648L181.929 196.212C181.557 191.933 180.613 184.932 178.655 181.172C178.655 181.172 180.203 190.624 179.073 196.076L171.193 195.693C170.814 189.737 169.506 178.916 165.094 171.095C165.28 171.907 168.484 186.616 167.076 195.49L97.6633 192.106C95.3413 177.75 98.507 162.409 97.1215 165.726C93.4218 174.569 91.928 185.473 91.4094 191.798L83.6694 191.422C83.6451 187.825 84.0424 184.237 84.8536 180.728C86.1152 176.066 81.6415 185.24 80.8211 191.256L75.9062 191.008C75.9062 191.008 75.9758 170.704 84.3582 156.679C95.4884 137.984 89.9233 130.585 95.1942 109.777C101.162 86.1039 135.063 58.7687 165.876 90.5783C168.368 93.1426 184.243 98.7375 181.758 128.93C180.357 145.993 176.549 154.867 182.145 163.943C189.111 175.254 191.697 187.481 190.899 196.648Z" fill="#263238"/>
<path d="M72.8876 188C72.4329 180.678 73.5179 173.342 76.0764 166.44C77.3073 162.967 78.8267 159.597 80.6198 156.363C81.479 154.747 82.5316 153.16 83.4372 151.626C84.3639 150.108 85.1762 148.527 85.8675 146.896C88.6772 140.346 89.8149 133.172 91.123 126.05C91.7654 122.478 92.462 118.891 93.445 115.357C94.3626 111.818 95.684 108.391 97.3847 105.137C94.6834 111.905 93.8475 119.132 92.8335 126.298C92.3614 129.893 91.8196 133.495 91.0998 137.097C90.3783 140.721 89.308 144.271 87.9032 147.7C87.1524 149.417 86.2782 151.081 85.287 152.679C84.3118 154.265 83.352 155.739 82.4465 157.318C80.6316 160.435 79.0436 163.672 77.6941 167.004C76.331 170.343 75.2363 173.78 74.4201 177.284C73.9866 179.029 73.6461 180.803 73.4061 182.593C73.1662 184.383 72.9572 186.21 72.8876 188Z" fill="#263238"/>
<path d="M181.735 128.938C181.735 131.848 181.371 134.743 181.263 137.631C181.155 140.519 181.031 143.391 181.147 146.249C181.252 149.092 181.602 151.922 182.192 154.709C182.323 155.408 182.532 156.085 182.695 156.769L182.827 157.288L182.974 157.717C183.09 158.01 183.237 158.319 183.384 158.627C184.018 159.875 184.754 161.139 185.474 162.387C186.89 164.951 188.275 167.568 189.444 170.275C190.624 172.988 191.584 175.787 192.316 178.645C193.048 181.5 193.501 184.416 193.67 187.353C193.811 190.274 193.647 193.202 193.183 196.091C193.27 190.33 192.429 184.59 190.69 179.081C188.894 173.618 186.507 168.354 183.57 163.379C182.873 162.101 182.153 160.838 181.48 159.477C181.317 159.131 181.155 158.777 181.008 158.394C180.938 158.198 180.861 157.98 180.806 157.785L180.675 157.243C180.512 156.491 180.296 155.799 180.187 155.062C179.655 152.151 179.414 149.197 179.467 146.241C179.527 143.313 179.785 140.391 180.241 137.496C180.683 134.646 181.255 131.803 181.735 128.938Z" fill="#263238"/>
<path d="M130.999 182.21C141.835 193.256 197.463 245.535 221.759 240.655C251.171 234.744 283.555 221.855 296.906 209.492C304.383 202.559 270.141 163.018 262.618 168.425C250.753 176.953 222.184 191.136 217.161 193.091C212.138 195.046 169.599 173.772 144.792 165.44C122.447 157.92 123.376 174.419 130.999 182.21Z" fill="#FFC4C0"/>
<path d="M321.473 191.76C314.298 201.047 291.976 214.463 285.312 215.688C278.648 216.914 253.872 180.781 256.124 174.366C258.377 167.952 284.995 138.503 296.806 135.555C308.617 132.608 328.904 182.104 321.473 191.76Z" fill="#FFC4C0"/>
<path d="M259.762 168.576C259.762 168.576 263.988 154.04 263.106 140.752C262.332 129.592 259.963 113.093 266.124 112.477C278.787 111.221 284.762 152.333 284.762 152.333C284.762 152.333 284.399 170.899 271.968 173.223C264.174 174.72 259.762 168.576 259.762 168.576Z" fill="#FFC4C0"/>
<path d="M279.577 143.632C278.95 149.753 286.736 146.971 286.736 146.971C286.736 146.971 276.519 153.603 278.377 160.153C280.188 166.47 289.476 162.785 290.142 162.537C289.608 162.891 280.381 169.215 282.951 175.622C285.629 182.27 294.298 177.021 294.855 176.675C294.453 177.164 289.29 183.736 292.378 188.165C297.696 195.776 311.372 179.337 319.02 178.863C319.02 178.863 321.342 191.369 321.473 191.722C321.473 191.722 334.809 176.336 333.578 166.35C333.422 164.895 332.76 163.535 331.7 162.496C330.64 161.456 329.246 160.8 327.75 160.635C327.75 160.635 332.611 156.123 330.753 151.032C329.794 148.422 324.631 147.587 324.631 147.587C324.631 147.587 328.369 143.827 326.427 139.391C324.879 135.841 319.948 135.555 319.948 135.555C319.948 135.555 321.821 130.291 319.035 127.201C313.47 120.891 280.962 130.532 279.577 143.632Z" fill="#FFC4C0"/>
<path d="M319.174 135.405C319.194 135.4 319.21 135.388 319.222 135.373C319.234 135.357 319.241 135.338 319.241 135.319C319.241 135.299 319.234 135.28 319.222 135.265C319.21 135.249 319.194 135.238 319.174 135.232C307.688 135.871 295.281 139.985 286.31 147.091C286.016 147.317 286.31 147.888 286.659 147.693C297.324 142.128 307.278 137.947 319.174 135.405Z" fill="#263238"/>
<path d="M324.77 147.482C324.902 147.482 324.856 147.241 324.716 147.257C312.889 148.009 299.043 152.987 289.7 162.349C289.375 162.673 289.422 163.274 289.817 162.936C296.519 157.168 314.035 149.716 324.77 147.482Z" fill="#263238"/>
<path d="M294.43 177.555C303.718 168.907 314.979 164.019 327.255 160.642C327.417 160.597 327.332 160.379 327.193 160.386C320.722 160.454 313.129 163.394 307.417 166.199C302.071 168.692 297.488 172.497 294.12 177.239C293.988 177.427 294.236 177.743 294.43 177.555Z" fill="#263238"/>
<path d="M286.527 146.926C286.171 147.204 286.984 147.4 286.643 147.678C285.196 148.896 277.146 156.98 279.135 160.462C280.73 163.282 285.73 163.146 287.649 162.364L292.425 160.394L288.625 163.936C286.93 165.455 285.502 167.233 284.399 169.2C283.346 171.133 282.851 173.328 283.57 175.178C283.86 176.103 284.468 176.902 285.293 177.441C286.117 177.981 287.108 178.228 288.098 178.141C290.314 177.91 292.432 177.134 294.252 175.885L299.399 172.607L295.668 177.307C294.624 178.617 293.757 180.052 293.091 181.578C292.4 182.997 292.156 184.582 292.386 186.135C292.518 186.831 292.849 187.478 293.342 187.999C293.835 188.521 294.47 188.896 295.173 189.083C296.62 189.414 298.354 188.948 299.948 188.331C303.191 187.068 306.202 185.112 309.283 183.315C310.831 182.405 312.379 181.488 313.927 180.638C315.475 179.788 317.177 178.961 319.004 178.856C317.216 179.141 315.699 180.157 314.182 181.059C312.665 181.961 311.225 183.029 309.763 184.067C306.855 186.217 303.745 188.095 300.475 189.677C298.779 190.376 296.914 191.076 294.77 190.737C293.714 190.518 292.746 190.005 291.986 189.259C291.226 188.514 290.706 187.569 290.49 186.541C290.139 184.622 290.387 182.645 291.202 180.864C291.918 179.153 292.86 177.54 294.004 176.066L295.405 177.495C293.28 179.011 290.781 179.958 288.16 180.239C286.704 180.352 285.251 179.973 284.05 179.164C282.898 178.335 282.032 177.187 281.566 175.87C280.575 173.216 281.403 170.433 282.611 168.29C283.86 166.142 285.463 164.206 287.355 162.56L288.354 164.064C285.9 164.981 280.327 165.718 277.285 161.65C274.182 155.769 284.53 148.182 286.527 146.926Z" fill="#263238"/>
<path d="M286.736 146.978C285.454 147.172 284.148 147.172 282.866 146.978C282.346 146.915 281.853 146.719 281.437 146.41C281.021 146.101 280.696 145.69 280.498 145.219C280.218 144.128 280.269 142.981 280.645 141.917C281.001 140.722 281.419 139.489 281.929 138.233C280.849 139.113 279.971 140.205 279.352 141.436C278.593 142.772 278.407 144.344 278.833 145.813C279.131 146.568 279.664 147.215 280.357 147.663C281.051 148.11 281.871 148.336 282.703 148.309C284.16 148.296 285.573 147.829 286.736 146.978Z" fill="#263238"/>
<path d="M253.988 172.065L295.784 217.937C295.784 217.937 233.748 247.476 213.531 242.979C193.314 238.482 151.611 207.868 133.314 186.007C115.016 164.147 126.085 158.085 151.541 166.267C176.998 174.449 212.927 190.384 216.557 190.211C220.188 190.038 253.988 172.065 253.988 172.065Z" fill="#6A3093"/>
<path d="M134.049 175.216C134.049 175.65 133.917 176.075 133.668 176.436C133.42 176.797 133.067 177.079 132.654 177.245C132.241 177.411 131.786 177.454 131.348 177.37C130.91 177.285 130.507 177.076 130.191 176.769C129.875 176.462 129.66 176.07 129.572 175.644C129.485 175.218 129.53 174.777 129.701 174.376C129.872 173.975 130.162 173.632 130.533 173.39C130.905 173.149 131.342 173.02 131.789 173.02C132.086 173.019 132.38 173.075 132.655 173.185C132.93 173.295 133.179 173.457 133.389 173.661C133.599 173.865 133.766 174.108 133.879 174.375C133.992 174.641 134.05 174.927 134.049 175.216ZM153.252 173.013C152.805 173.011 152.367 173.139 151.994 173.379C151.622 173.619 151.331 173.962 151.158 174.363C150.986 174.764 150.94 175.206 151.027 175.632C151.113 176.059 151.328 176.451 151.643 176.759C151.959 177.066 152.362 177.276 152.8 177.362C153.239 177.447 153.694 177.404 154.107 177.238C154.521 177.072 154.874 176.791 155.123 176.429C155.372 176.068 155.504 175.643 155.504 175.209C155.504 174.627 155.267 174.07 154.845 173.658C154.423 173.247 153.85 173.015 153.252 173.013ZM172.935 173.862C172.719 174.132 172.571 174.447 172.504 174.782C172.436 175.117 172.449 175.463 172.544 175.792C172.638 176.121 172.81 176.424 173.046 176.677C173.283 176.929 173.577 177.125 173.905 177.248C174.233 177.37 174.586 177.416 174.936 177.383C175.285 177.349 175.622 177.236 175.919 177.053C176.216 176.871 176.465 176.623 176.645 176.33C176.826 176.037 176.934 175.707 176.96 175.366L172.935 173.862ZM174.715 207.372C174.268 207.372 173.831 207.5 173.459 207.742C173.088 207.983 172.798 208.326 172.627 208.727C172.456 209.128 172.411 209.57 172.498 209.996C172.586 210.422 172.801 210.813 173.117 211.12C173.433 211.427 173.836 211.636 174.274 211.721C174.713 211.806 175.167 211.762 175.58 211.596C175.993 211.43 176.346 211.148 176.594 210.787C176.843 210.426 176.975 210.002 176.975 209.567C176.976 209.279 176.919 208.994 176.806 208.728C176.693 208.461 176.527 208.219 176.318 208.015C176.109 207.811 175.86 207.649 175.586 207.539C175.313 207.428 175.019 207.372 174.723 207.372H174.715ZM196.186 207.372C195.738 207.37 195.301 207.498 194.928 207.738C194.555 207.978 194.264 208.321 194.092 208.722C193.92 209.123 193.874 209.565 193.96 209.991C194.047 210.418 194.261 210.81 194.577 211.117C194.893 211.425 195.296 211.635 195.734 211.721C196.173 211.806 196.628 211.763 197.041 211.597C197.455 211.431 197.808 211.149 198.057 210.788C198.305 210.427 198.438 210.002 198.438 209.567C198.438 208.988 198.202 208.431 197.782 208.02C197.361 207.609 196.79 207.376 196.194 207.372H196.186ZM217.649 207.372C217.202 207.372 216.765 207.5 216.393 207.742C216.021 207.983 215.732 208.326 215.561 208.727C215.39 209.128 215.345 209.57 215.432 209.996C215.519 210.422 215.735 210.813 216.051 211.12C216.367 211.427 216.769 211.636 217.208 211.721C217.646 211.806 218.101 211.762 218.514 211.596C218.927 211.43 219.28 211.148 219.528 210.787C219.776 210.426 219.909 210.002 219.909 209.567C219.909 208.986 219.672 208.429 219.25 208.017C218.827 207.606 218.255 207.374 217.657 207.372H217.649ZM239.112 207.372C238.665 207.372 238.228 207.5 237.856 207.742C237.485 207.983 237.195 208.326 237.024 208.727C236.853 209.128 236.808 209.57 236.895 209.996C236.982 210.422 237.198 210.813 237.514 211.12C237.83 211.427 238.232 211.636 238.671 211.721C239.109 211.806 239.564 211.762 239.977 211.596C240.39 211.43 240.743 211.148 240.991 210.787C241.239 210.426 241.372 210.002 241.372 209.567C241.373 209.279 241.315 208.994 241.203 208.728C241.09 208.461 240.924 208.219 240.715 208.015C240.506 207.811 240.257 207.649 239.983 207.539C239.709 207.428 239.416 207.372 239.12 207.372H239.112ZM260.583 207.372C260.135 207.37 259.698 207.498 259.325 207.738C258.952 207.978 258.661 208.321 258.489 208.722C258.317 209.123 258.271 209.565 258.357 209.991C258.444 210.418 258.658 210.81 258.974 211.117C259.29 211.425 259.692 211.635 260.131 211.721C260.57 211.806 261.025 211.763 261.438 211.597C261.851 211.431 262.205 211.149 262.453 210.788C262.702 210.427 262.835 210.002 262.835 209.567C262.835 208.988 262.599 208.431 262.178 208.02C261.758 207.609 261.187 207.376 260.59 207.372H260.583ZM282.046 207.372C281.599 207.372 281.162 207.5 280.79 207.742C280.418 207.983 280.129 208.326 279.958 208.727C279.786 209.128 279.742 209.57 279.829 209.996C279.916 210.422 280.131 210.813 280.447 211.12C280.764 211.427 281.166 211.636 281.605 211.721C282.043 211.806 282.497 211.762 282.91 211.596C283.323 211.43 283.676 211.148 283.925 210.787C284.173 210.426 284.306 210.002 284.306 209.567C284.307 209.279 284.249 208.994 284.136 208.728C284.024 208.461 283.858 208.219 283.649 208.015C283.439 207.811 283.191 207.649 282.917 207.539C282.643 207.428 282.35 207.372 282.053 207.372H282.046ZM142.524 190.572C142.077 190.572 141.64 190.701 141.268 190.942C140.896 191.184 140.606 191.527 140.436 191.929C140.265 192.331 140.22 192.773 140.308 193.199C140.396 193.625 140.612 194.016 140.929 194.323C141.246 194.63 141.649 194.838 142.088 194.922C142.527 195.006 142.982 194.962 143.395 194.794C143.807 194.627 144.16 194.344 144.407 193.982C144.655 193.62 144.786 193.195 144.784 192.76C144.784 192.472 144.726 192.187 144.612 191.921C144.499 191.655 144.332 191.413 144.122 191.21C143.912 191.007 143.663 190.846 143.389 190.736C143.115 190.627 142.821 190.571 142.524 190.572ZM163.995 190.572C163.547 190.57 163.109 190.698 162.737 190.939C162.364 191.18 162.073 191.522 161.901 191.924C161.729 192.325 161.683 192.768 161.77 193.194C161.857 193.621 162.073 194.013 162.389 194.32C162.706 194.628 163.109 194.837 163.548 194.922C163.987 195.006 164.443 194.962 164.856 194.795C165.269 194.628 165.622 194.345 165.87 193.983C166.118 193.621 166.249 193.195 166.247 192.76C166.247 192.18 166.01 191.623 165.588 191.213C165.165 190.802 164.592 190.572 163.995 190.572ZM185.458 190.572C185.011 190.572 184.574 190.701 184.202 190.942C183.83 191.184 183.54 191.527 183.369 191.929C183.199 192.331 183.154 192.773 183.242 193.199C183.33 193.625 183.546 194.016 183.863 194.323C184.18 194.63 184.583 194.838 185.022 194.922C185.461 195.006 185.916 194.962 186.328 194.794C186.741 194.627 187.094 194.344 187.341 193.982C187.589 193.62 187.72 193.195 187.718 192.76C187.718 192.472 187.66 192.187 187.546 191.921C187.432 191.655 187.266 191.413 187.056 191.21C186.846 191.007 186.597 190.846 186.322 190.736C186.048 190.627 185.755 190.571 185.458 190.572ZM206.921 190.572C206.474 190.572 206.037 190.701 205.665 190.942C205.293 191.184 205.003 191.527 204.832 191.929C204.662 192.331 204.617 192.773 204.705 193.199C204.793 193.625 205.009 194.016 205.326 194.323C205.643 194.63 206.046 194.838 206.485 194.922C206.924 195.006 207.379 194.962 207.791 194.794C208.204 194.627 208.557 194.344 208.804 193.982C209.052 193.62 209.183 193.195 209.181 192.76C209.181 192.472 209.123 192.187 209.009 191.921C208.895 191.655 208.729 191.413 208.519 191.21C208.309 191.007 208.06 190.846 207.785 190.736C207.511 190.627 207.218 190.571 206.921 190.572ZM228.392 190.572C227.944 190.57 227.506 190.698 227.133 190.939C226.761 191.18 226.47 191.522 226.298 191.924C226.126 192.325 226.08 192.768 226.167 193.194C226.254 193.621 226.47 194.013 226.786 194.32C227.103 194.628 227.506 194.837 227.945 194.922C228.384 195.006 228.839 194.962 229.253 194.795C229.666 194.628 230.019 194.345 230.267 193.983C230.514 193.621 230.646 193.195 230.644 192.76C230.644 192.18 230.407 191.623 229.985 191.213C229.562 190.802 228.989 190.572 228.392 190.572ZM249.855 190.572C249.408 190.572 248.97 190.701 248.599 190.942C248.227 191.184 247.937 191.527 247.766 191.929C247.595 192.331 247.551 192.773 247.639 193.199C247.727 193.625 247.943 194.016 248.26 194.323C248.576 194.63 248.98 194.838 249.419 194.922C249.858 195.006 250.312 194.962 250.725 194.794C251.138 194.627 251.49 194.344 251.738 193.982C251.985 193.62 252.117 193.195 252.115 192.76C252.115 192.472 252.057 192.187 251.943 191.921C251.829 191.655 251.663 191.413 251.453 191.21C251.243 191.007 250.993 190.846 250.719 190.736C250.445 190.627 250.151 190.571 249.855 190.572ZM270.877 190.617C270.489 190.693 270.129 190.868 269.833 191.122C269.536 191.377 269.314 191.703 269.189 192.067C269.063 192.432 269.039 192.822 269.118 193.199C269.197 193.575 269.376 193.925 269.639 194.213C269.901 194.5 270.237 194.716 270.612 194.838C270.987 194.959 271.389 194.983 271.777 194.905C272.164 194.828 272.524 194.653 272.82 194.398C273.116 194.143 273.337 193.817 273.462 193.452L270.877 190.617ZM217.657 241.753C217.171 241.752 216.698 241.903 216.308 242.183C215.918 242.463 215.631 242.858 215.489 243.31C216.939 243.458 218.399 243.499 219.855 243.43C219.738 242.949 219.457 242.52 219.058 242.213C218.659 241.906 218.166 241.738 217.657 241.738V241.753ZM185.458 224.946C184.859 224.946 184.284 225.177 183.86 225.589C183.436 226.001 183.198 226.559 183.198 227.142C183.196 227.63 183.365 228.105 183.678 228.488C184.08 228.743 184.452 229.007 184.878 229.24C185.06 229.285 185.247 229.308 185.435 229.307C185.742 229.325 186.05 229.281 186.34 229.179C186.629 229.077 186.894 228.918 187.118 228.713C187.342 228.508 187.52 228.26 187.642 227.985C187.764 227.711 187.827 227.415 187.827 227.115C187.827 226.816 187.764 226.52 187.642 226.245C187.52 225.971 187.342 225.723 187.118 225.518C186.894 225.313 186.629 225.154 186.34 225.052C186.05 224.949 185.742 224.906 185.435 224.923L185.458 224.946ZM206.921 224.946C206.474 224.946 206.037 225.075 205.666 225.316C205.294 225.557 205.004 225.9 204.833 226.301C204.662 226.703 204.617 227.144 204.705 227.57C204.792 227.996 205.007 228.387 205.323 228.694C205.639 229.001 206.042 229.211 206.48 229.295C206.919 229.38 207.373 229.337 207.786 229.17C208.199 229.004 208.552 228.723 208.8 228.362C209.049 228 209.181 227.576 209.181 227.142C209.184 226.852 209.128 226.564 209.016 226.296C208.903 226.027 208.737 225.783 208.527 225.577C208.317 225.371 208.067 225.208 207.791 225.097C207.515 224.986 207.22 224.93 206.921 224.931V224.946ZM228.392 224.946C227.943 224.946 227.505 225.076 227.132 225.319C226.76 225.562 226.47 225.907 226.3 226.31C226.131 226.714 226.088 227.157 226.179 227.584C226.269 228.011 226.488 228.402 226.808 228.708C227.128 229.013 227.534 229.219 227.975 229.3C228.416 229.38 228.872 229.331 229.284 229.159C229.696 228.987 230.046 228.7 230.29 228.334C230.534 227.968 230.66 227.54 230.652 227.104C230.646 226.526 230.405 225.973 229.982 225.566C229.559 225.159 228.987 224.931 228.392 224.931V224.946ZM249.855 224.946C249.408 224.946 248.971 225.075 248.599 225.316C248.228 225.557 247.938 225.9 247.767 226.301C247.596 226.703 247.551 227.144 247.638 227.57C247.725 227.996 247.941 228.387 248.257 228.694C248.573 229.001 248.976 229.211 249.414 229.295C249.852 229.38 250.307 229.337 250.72 229.17C251.133 229.004 251.486 228.723 251.734 228.362C251.982 228 252.115 227.576 252.115 227.142C252.118 226.852 252.062 226.564 251.95 226.296C251.837 226.027 251.671 225.783 251.461 225.577C251.251 225.371 251 225.208 250.725 225.097C250.449 224.986 250.153 224.93 249.855 224.931V224.946ZM271.326 224.946C270.826 224.948 270.341 225.111 269.947 225.409C269.553 225.707 269.272 226.124 269.147 226.594C269.022 227.064 269.061 227.56 269.258 228.006C269.455 228.453 269.798 228.823 270.234 229.059L273.493 227.736C273.548 227.542 273.577 227.342 273.578 227.142C273.581 226.852 273.525 226.565 273.413 226.297C273.301 226.029 273.136 225.785 272.927 225.58C272.717 225.374 272.468 225.211 272.193 225.099C271.918 224.988 271.623 224.931 271.326 224.931V224.946Z" fill="white"/>
<path d="M283.176 223.344C281.024 220.336 278.238 217.584 275.792 214.771C273.346 211.959 270.614 209.033 267.982 206.213C262.866 200.716 257.549 195.385 252.239 190.068C249.143 186.97 245.931 183.999 242.804 180.939C242.688 180.826 242.494 181.006 242.595 181.127C247.657 186.849 252.657 192.61 257.843 198.22C263.028 203.83 268.121 209.184 273.462 214.485C275.01 215.989 276.558 217.493 278.106 218.997C279.637 220.606 281.257 222.133 282.959 223.57C282.99 223.597 283.031 223.612 283.073 223.611C283.115 223.61 283.155 223.592 283.183 223.562C283.212 223.532 283.227 223.492 283.226 223.451C283.225 223.411 283.206 223.372 283.176 223.344Z" fill="#263238"/>
<path d="M239.731 239.692C229.135 242.7 219.506 244.302 213.531 242.971C193.322 238.459 151.611 207.86 133.321 186.007C120.403 170.531 122.137 162.981 133.283 162.77C158.716 180.578 209.855 217.839 239.731 239.692Z" fill="#263238"/>
<path d="M198.833 303.394L186.766 247.897C186.766 247.897 198.91 229.849 189.421 214.222C184.63 206.304 159.8 177.299 145.233 166.846C128.097 154.551 111.649 165.869 105.256 174.291C92.4465 191.166 79.7142 230.841 75.3102 303.409L198.833 303.394Z" fill="#6A3093"/>
<path d="M112.586 175.216C112.586 175.65 112.453 176.075 112.205 176.436C111.957 176.797 111.604 177.079 111.191 177.245C110.778 177.411 110.323 177.454 109.885 177.37C109.447 177.285 109.044 177.076 108.728 176.769C108.412 176.462 108.196 176.07 108.109 175.644C108.022 175.218 108.067 174.777 108.238 174.376C108.409 173.975 108.699 173.632 109.07 173.39C109.442 173.149 109.879 173.02 110.326 173.02C110.623 173.019 110.917 173.075 111.192 173.185C111.467 173.295 111.716 173.457 111.926 173.661C112.136 173.865 112.303 174.108 112.416 174.375C112.529 174.641 112.587 174.927 112.586 175.216ZM131.789 173.02C131.342 173.02 130.905 173.149 130.533 173.39C130.162 173.632 129.872 173.975 129.701 174.376C129.53 174.777 129.485 175.218 129.572 175.644C129.66 176.07 129.875 176.462 130.191 176.769C130.507 177.076 130.91 177.285 131.348 177.37C131.786 177.454 132.241 177.411 132.654 177.245C133.067 177.079 133.42 176.797 133.668 176.436C133.917 176.075 134.049 175.65 134.049 175.216C134.051 174.927 133.994 174.64 133.881 174.372C133.769 174.105 133.602 173.861 133.392 173.656C133.182 173.451 132.932 173.289 132.657 173.179C132.382 173.068 132.087 173.012 131.789 173.013V173.02ZM155.489 175.532C155.43 175.93 155.259 176.305 154.995 176.615C154.732 176.925 154.386 177.159 153.995 177.291C153.604 177.423 153.183 177.449 152.778 177.364C152.374 177.28 152 177.089 151.7 176.813C151.399 176.537 151.182 176.186 151.072 175.798C150.963 175.41 150.965 175 151.079 174.613C151.193 174.227 151.414 173.878 151.718 173.605C152.022 173.332 152.397 173.145 152.803 173.065L155.489 175.532ZM89.9852 207.672C89.5828 208.996 89.1854 210.357 88.7933 211.756H88.8629C89.3609 211.758 89.8455 211.599 90.241 211.305C90.6365 211.012 90.9205 210.599 91.0488 210.131C91.177 209.664 91.1422 209.168 90.9498 208.722C90.7574 208.276 90.4182 207.904 89.9852 207.665V207.672ZM110.326 207.379C109.879 207.379 109.442 207.508 109.07 207.749C108.699 207.99 108.409 208.333 108.238 208.735C108.067 209.136 108.022 209.577 108.109 210.003C108.196 210.429 108.412 210.821 108.728 211.128C109.044 211.435 109.447 211.644 109.885 211.729C110.323 211.813 110.778 211.77 111.191 211.604C111.604 211.437 111.957 211.156 112.205 210.795C112.453 210.434 112.586 210.009 112.586 209.575C112.587 209.286 112.529 209 112.416 208.732C112.303 208.465 112.137 208.222 111.927 208.017C111.717 207.813 111.467 207.65 111.193 207.539C110.918 207.429 110.623 207.372 110.326 207.372V207.379ZM131.789 207.379C131.342 207.379 130.905 207.508 130.533 207.749C130.162 207.99 129.872 208.333 129.701 208.735C129.53 209.136 129.485 209.577 129.572 210.003C129.66 210.429 129.875 210.821 130.191 211.128C130.507 211.435 130.91 211.644 131.348 211.729C131.786 211.813 132.241 211.77 132.654 211.604C133.067 211.437 133.42 211.156 133.668 210.795C133.917 210.434 134.049 210.009 134.049 209.575C134.051 209.286 133.994 208.999 133.881 208.731C133.769 208.463 133.602 208.22 133.392 208.015C133.182 207.81 132.932 207.648 132.657 207.537C132.382 207.427 132.087 207.371 131.789 207.372V207.379ZM153.26 207.379C152.812 207.378 152.375 207.505 152.002 207.746C151.629 207.986 151.338 208.328 151.166 208.729C150.994 209.131 150.948 209.572 151.034 209.999C151.121 210.425 151.335 210.817 151.651 211.125C151.967 211.433 152.37 211.643 152.808 211.728C153.247 211.813 153.702 211.77 154.115 211.604C154.529 211.438 154.882 211.157 155.131 210.796C155.379 210.434 155.512 210.01 155.512 209.575C155.513 209.286 155.455 209 155.342 208.732C155.229 208.465 155.063 208.222 154.853 208.017C154.643 207.813 154.393 207.65 154.119 207.539C153.844 207.429 153.549 207.372 153.252 207.372L153.26 207.379ZM174.723 207.379C174.276 207.379 173.839 207.508 173.467 207.749C173.095 207.99 172.806 208.333 172.635 208.735C172.464 209.136 172.419 209.577 172.506 210.003C172.593 210.429 172.809 210.821 173.125 211.128C173.441 211.435 173.843 211.644 174.282 211.729C174.72 211.813 175.175 211.77 175.588 211.604C176.001 211.437 176.354 211.156 176.602 210.795C176.85 210.434 176.983 210.009 176.983 209.575C176.985 209.286 176.928 208.999 176.815 208.731C176.702 208.463 176.536 208.22 176.326 208.015C176.116 207.81 175.866 207.648 175.591 207.537C175.315 207.427 175.02 207.371 174.723 207.372V207.379ZM99.5906 190.579C99.1432 190.579 98.706 190.708 98.3341 190.95C97.9623 191.192 97.6726 191.535 97.5018 191.937C97.331 192.338 97.2867 192.78 97.3745 193.206C97.4623 193.633 97.6784 194.024 97.9952 194.331C98.3121 194.637 98.7155 194.846 99.1544 194.93C99.5933 195.014 100.048 194.969 100.461 194.802C100.874 194.634 101.226 194.352 101.474 193.99C101.721 193.628 101.852 193.202 101.851 192.768C101.852 192.479 101.794 192.193 101.681 191.926C101.567 191.659 101.401 191.417 101.191 191.213C100.981 191.009 100.731 190.847 100.457 190.737C100.182 190.627 99.8877 190.571 99.5906 190.572V190.579ZM121.061 190.579C120.614 190.578 120.176 190.706 119.803 190.946C119.43 191.187 119.139 191.53 118.967 191.931C118.795 192.333 118.75 192.775 118.837 193.202C118.924 193.628 119.139 194.02 119.455 194.328C119.772 194.635 120.175 194.845 120.615 194.929C121.054 195.014 121.509 194.97 121.922 194.803C122.335 194.635 122.688 194.353 122.936 193.99C123.184 193.628 123.315 193.203 123.314 192.768C123.315 192.48 123.257 192.194 123.144 191.928C123.032 191.662 122.866 191.42 122.657 191.216C122.447 191.011 122.199 190.85 121.925 190.739C121.651 190.629 121.358 190.572 121.061 190.572V190.579ZM142.524 190.579C142.077 190.579 141.64 190.708 141.268 190.95C140.896 191.192 140.606 191.535 140.436 191.937C140.265 192.338 140.22 192.78 140.308 193.206C140.396 193.633 140.612 194.024 140.929 194.331C141.246 194.637 141.649 194.846 142.088 194.93C142.527 195.014 142.982 194.969 143.395 194.802C143.807 194.634 144.16 194.352 144.407 193.99C144.655 193.628 144.786 193.202 144.784 192.768C144.785 192.479 144.728 192.193 144.614 191.926C144.501 191.659 144.335 191.417 144.125 191.213C143.915 191.009 143.665 190.847 143.39 190.737C143.116 190.627 142.821 190.571 142.524 190.572V190.579ZM163.995 190.579C163.547 190.578 163.109 190.706 162.737 190.946C162.364 191.187 162.073 191.53 161.901 191.931C161.729 192.333 161.683 192.775 161.77 193.202C161.857 193.628 162.073 194.02 162.389 194.328C162.706 194.635 163.109 194.845 163.548 194.929C163.987 195.014 164.443 194.97 164.856 194.803C165.269 194.635 165.622 194.353 165.87 193.99C166.118 193.628 166.249 193.203 166.247 192.768C166.248 192.48 166.191 192.194 166.078 191.928C165.965 191.662 165.8 191.42 165.59 191.216C165.381 191.011 165.133 190.85 164.859 190.739C164.585 190.629 164.292 190.572 163.995 190.572V190.579ZM88.8629 241.715C88.4153 241.714 87.9772 241.842 87.6044 242.082C87.2315 242.323 86.9407 242.666 86.7686 243.067C86.5966 243.469 86.5512 243.911 86.6382 244.338C86.7251 244.764 86.9405 245.156 87.2571 245.464C87.5736 245.771 87.977 245.981 88.4162 246.065C88.8553 246.15 89.3104 246.106 89.7237 245.939C90.137 245.771 90.4899 245.489 90.7376 245.126C90.9854 244.764 91.1168 244.339 91.1153 243.904C91.1092 243.327 90.8692 242.776 90.4474 242.371C90.0257 241.965 89.4563 241.738 88.8629 241.738V241.715ZM110.326 241.715C109.879 241.715 109.441 241.844 109.07 242.086C108.698 242.328 108.408 242.671 108.237 243.073C108.066 243.474 108.022 243.916 108.11 244.342C108.198 244.769 108.414 245.16 108.731 245.467C109.047 245.773 109.451 245.982 109.89 246.066C110.329 246.15 110.783 246.105 111.196 245.938C111.609 245.77 111.962 245.488 112.209 245.126C112.456 244.764 112.588 244.338 112.586 243.904C112.58 243.326 112.339 242.774 111.915 242.368C111.492 241.963 110.921 241.736 110.326 241.738V241.715ZM131.789 241.715C131.342 241.715 130.904 241.844 130.533 242.086C130.161 242.328 129.871 242.671 129.7 243.073C129.529 243.474 129.485 243.916 129.573 244.342C129.661 244.769 129.877 245.16 130.194 245.467C130.51 245.773 130.914 245.982 131.353 246.066C131.792 246.15 132.246 246.105 132.659 245.938C133.072 245.77 133.425 245.488 133.672 245.126C133.919 244.764 134.051 244.338 134.049 243.904C134.043 243.326 133.802 242.774 133.378 242.368C132.955 241.963 132.384 241.736 131.789 241.738V241.715ZM153.26 241.715C152.812 241.714 152.374 241.842 152.001 242.082C151.628 242.323 151.337 242.666 151.165 243.067C150.993 243.469 150.948 243.911 151.035 244.338C151.122 244.764 151.337 245.156 151.654 245.464C151.97 245.771 152.374 245.981 152.813 246.065C153.252 246.15 153.707 246.106 154.12 245.939C154.534 245.771 154.887 245.489 155.134 245.126C155.382 244.764 155.514 244.339 155.512 243.904C155.506 243.326 155.265 242.774 154.841 242.368C154.418 241.963 153.847 241.736 153.252 241.738L153.26 241.715ZM174.723 241.715C174.275 241.715 173.838 241.844 173.466 242.086C173.094 242.328 172.805 242.671 172.634 243.073C172.463 243.474 172.419 243.916 172.507 244.342C172.595 244.769 172.811 245.16 173.127 245.467C173.444 245.773 173.848 245.982 174.287 246.066C174.726 246.15 175.18 246.105 175.593 245.938C176.006 245.77 176.358 245.488 176.606 245.126C176.853 244.764 176.984 244.338 176.983 243.904C176.977 243.326 176.736 242.774 176.312 242.368C175.889 241.963 175.317 241.736 174.723 241.738V241.715ZM99.5906 224.908C99.1436 224.908 98.7066 225.037 98.3349 225.278C97.9633 225.52 97.6736 225.863 97.5025 226.264C97.3315 226.665 97.2867 227.107 97.3739 227.532C97.4611 227.958 97.6764 228.35 97.9925 228.657C98.3085 228.964 98.7112 229.173 99.1497 229.258C99.5881 229.342 100.042 229.299 100.455 229.133C100.868 228.967 101.221 228.685 101.47 228.324C101.718 227.963 101.851 227.538 101.851 227.104C101.847 226.525 101.606 225.971 101.183 225.564C100.759 225.156 100.187 224.929 99.5906 224.931V224.908ZM121.061 224.908C120.614 224.907 120.176 225.034 119.804 225.275C119.431 225.515 119.14 225.857 118.968 226.259C118.796 226.66 118.75 227.101 118.836 227.528C118.922 227.954 119.137 228.346 119.453 228.654C119.769 228.962 120.171 229.172 120.61 229.257C121.048 229.342 121.503 229.299 121.917 229.133C122.33 228.967 122.684 228.686 122.932 228.325C123.181 227.964 123.314 227.539 123.314 227.104C123.308 226.527 123.068 225.975 122.646 225.569C122.225 225.162 121.655 224.933 121.061 224.931V224.908ZM142.524 224.908C142.077 224.908 141.64 225.037 141.269 225.278C140.897 225.52 140.607 225.863 140.436 226.264C140.265 226.665 140.22 227.107 140.308 227.532C140.395 227.958 140.61 228.35 140.926 228.657C141.242 228.964 141.645 229.173 142.083 229.258C142.522 229.342 142.976 229.299 143.389 229.133C143.802 228.967 144.155 228.685 144.404 228.324C144.652 227.963 144.784 227.538 144.784 227.104C144.778 226.526 144.537 225.973 144.114 225.566C143.691 225.159 143.12 224.931 142.524 224.931V224.908ZM163.995 224.908C163.548 224.907 163.11 225.034 162.737 225.275C162.365 225.515 162.074 225.857 161.902 226.259C161.729 226.66 161.683 227.101 161.77 227.528C161.856 227.954 162.071 228.346 162.387 228.654C162.702 228.962 163.105 229.172 163.544 229.257C163.982 229.342 164.437 229.299 164.85 229.133C165.264 228.967 165.617 228.686 165.866 228.325C166.115 227.964 166.247 227.539 166.247 227.104C166.241 226.527 166.002 225.975 165.58 225.569C165.159 225.162 164.589 224.933 163.995 224.931V224.908ZM185.458 224.908C185.011 224.908 184.574 225.037 184.202 225.278C183.831 225.52 183.541 225.863 183.37 226.264C183.199 226.665 183.154 227.107 183.241 227.532C183.329 227.958 183.544 228.35 183.86 228.657C184.176 228.964 184.579 229.173 185.017 229.258C185.456 229.342 185.91 229.299 186.323 229.133C186.736 228.967 187.089 228.685 187.337 228.324C187.586 227.963 187.718 227.538 187.718 227.104C187.712 226.526 187.471 225.973 187.048 225.566C186.625 225.159 186.054 224.931 185.458 224.931V224.908ZM88.8629 276.044C88.4153 276.043 87.9772 276.17 87.6044 276.411C87.2315 276.652 86.9407 276.995 86.7686 277.396C86.5966 277.798 86.5512 278.24 86.6382 278.667C86.7251 279.093 86.9405 279.485 87.2571 279.793C87.5736 280.1 87.977 280.31 88.4162 280.394C88.8553 280.479 89.3104 280.434 89.7237 280.267C90.137 280.1 90.4899 279.818 90.7376 279.455C90.9854 279.093 91.1168 278.667 91.1153 278.233C91.1011 277.661 90.8576 277.118 90.4367 276.719C90.0159 276.32 89.451 276.097 88.8629 276.097V276.044ZM110.326 276.044C109.879 276.044 109.441 276.173 109.07 276.415C108.698 276.656 108.408 277 108.237 277.402C108.066 277.803 108.022 278.245 108.11 278.671C108.198 279.097 108.414 279.489 108.731 279.795C109.047 280.102 109.451 280.311 109.89 280.395C110.329 280.479 110.783 280.434 111.196 280.267C111.609 280.099 111.962 279.817 112.209 279.455C112.456 279.092 112.588 278.667 112.586 278.233C112.572 277.66 112.327 277.116 111.905 276.716C111.482 276.317 110.915 276.095 110.326 276.097V276.044ZM131.789 276.044C131.342 276.044 130.904 276.173 130.533 276.415C130.161 276.656 129.871 277 129.7 277.402C129.529 277.803 129.485 278.245 129.573 278.671C129.661 279.097 129.877 279.489 130.194 279.795C130.51 280.102 130.914 280.311 131.353 280.395C131.792 280.479 132.246 280.434 132.659 280.267C133.072 280.099 133.425 279.817 133.672 279.455C133.919 279.092 134.051 278.667 134.049 278.233C134.035 277.66 133.79 277.116 133.368 276.716C132.945 276.317 132.378 276.095 131.789 276.097V276.044ZM153.26 276.044C152.812 276.043 152.374 276.17 152.001 276.411C151.628 276.652 151.337 276.995 151.165 277.396C150.993 277.798 150.948 278.24 151.035 278.667C151.122 279.093 151.337 279.485 151.654 279.793C151.97 280.1 152.374 280.31 152.813 280.394C153.252 280.479 153.707 280.434 154.12 280.267C154.534 280.1 154.887 279.818 155.134 279.455C155.382 279.093 155.514 278.667 155.512 278.233C155.498 277.66 155.253 277.116 154.831 276.716C154.408 276.317 153.841 276.095 153.252 276.097L153.26 276.044ZM174.723 276.044C174.275 276.044 173.838 276.173 173.466 276.415C173.094 276.656 172.805 277 172.634 277.402C172.463 277.803 172.419 278.245 172.507 278.671C172.595 279.097 172.811 279.489 173.127 279.795C173.444 280.102 173.848 280.311 174.287 280.395C174.726 280.479 175.18 280.434 175.593 280.267C176.006 280.099 176.358 279.817 176.606 279.455C176.853 279.092 176.984 278.667 176.983 278.233C176.969 277.66 176.724 277.116 176.302 276.716C175.879 276.317 175.312 276.095 174.723 276.097V276.044ZM79.4201 259.688C79.2421 260.959 79.0796 262.238 78.917 263.538C79.3014 263.398 79.6389 263.158 79.8934 262.844C80.1479 262.531 80.3097 262.156 80.3615 261.76C80.4132 261.365 80.3529 260.962 80.187 260.597C80.0212 260.232 79.756 259.918 79.4201 259.688ZM99.5906 259.29C99.1436 259.29 98.7066 259.418 98.3349 259.66C97.9633 259.901 97.6736 260.244 97.5025 260.645C97.3315 261.046 97.2867 261.488 97.3739 261.914C97.4611 262.34 97.6764 262.731 97.9925 263.038C98.3085 263.345 98.7112 263.554 99.1497 263.639C99.5881 263.724 100.042 263.68 100.455 263.514C100.868 263.348 101.221 263.067 101.47 262.705C101.718 262.344 101.851 261.92 101.851 261.486C101.852 261.197 101.794 260.911 101.681 260.644C101.567 260.377 101.401 260.135 101.191 259.931C100.981 259.727 100.731 259.565 100.457 259.455C100.182 259.345 99.8877 259.289 99.5906 259.29ZM121.061 259.29C120.614 259.288 120.176 259.416 119.804 259.656C119.431 259.896 119.14 260.239 118.968 260.64C118.796 261.041 118.75 261.483 118.836 261.909C118.922 262.336 119.137 262.728 119.453 263.036C119.769 263.343 120.171 263.553 120.61 263.639C121.048 263.724 121.503 263.681 121.917 263.515C122.33 263.349 122.684 263.067 122.932 262.706C123.181 262.345 123.314 261.92 123.314 261.486C123.314 260.904 123.077 260.347 122.654 259.935C122.232 259.524 121.659 259.292 121.061 259.29ZM142.524 259.29C142.077 259.29 141.64 259.418 141.269 259.66C140.897 259.901 140.607 260.244 140.436 260.645C140.265 261.046 140.22 261.488 140.308 261.914C140.395 262.34 140.61 262.731 140.926 263.038C141.242 263.345 141.645 263.554 142.083 263.639C142.522 263.724 142.976 263.68 143.389 263.514C143.802 263.348 144.155 263.067 144.404 262.705C144.652 262.344 144.784 261.92 144.784 261.486C144.784 260.903 144.546 260.345 144.122 259.933C143.699 259.521 143.124 259.29 142.524 259.29ZM163.995 259.29C163.548 259.288 163.11 259.416 162.737 259.656C162.365 259.896 162.074 260.239 161.902 260.64C161.729 261.041 161.683 261.483 161.77 261.909C161.856 262.336 162.071 262.728 162.387 263.036C162.702 263.343 163.105 263.553 163.544 263.639C163.982 263.724 164.437 263.681 164.85 263.515C165.264 263.349 165.617 263.067 165.866 262.706C166.115 262.345 166.247 261.92 166.247 261.486C166.247 260.904 166.01 260.347 165.588 259.935C165.166 259.524 164.593 259.292 163.995 259.29ZM185.458 259.29C185.011 259.29 184.574 259.418 184.202 259.66C183.831 259.901 183.541 260.244 183.37 260.645C183.199 261.046 183.154 261.488 183.241 261.914C183.329 262.34 183.544 262.731 183.86 263.038C184.176 263.345 184.579 263.554 185.017 263.639C185.456 263.724 185.91 263.68 186.323 263.514C186.736 263.348 187.089 263.067 187.337 262.705C187.586 262.344 187.718 261.92 187.718 261.486C187.718 260.903 187.48 260.345 187.056 259.933C186.632 259.521 186.058 259.29 185.458 259.29ZM78.1276 293.656C77.6799 293.655 77.2419 293.782 76.869 294.023C76.4962 294.264 76.2053 294.607 76.0333 295.008C75.8612 295.41 75.8158 295.852 75.9028 296.278C75.9898 296.705 76.2052 297.097 76.5217 297.405C76.8382 297.712 77.2417 297.921 77.6808 298.006C78.1199 298.09 78.575 298.046 78.9883 297.879C79.4016 297.712 79.7545 297.429 80.0022 297.067C80.25 296.705 80.3814 296.279 80.3799 295.844C80.3799 295.264 80.1426 294.707 79.7202 294.297C79.2978 293.887 78.7249 293.656 78.1276 293.656ZM99.5906 293.656C99.1432 293.656 98.706 293.785 98.3341 294.027C97.9623 294.268 97.6726 294.612 97.5018 295.013C97.331 295.415 97.2867 295.857 97.3745 296.283C97.4623 296.709 97.6784 297.1 97.9952 297.407C98.3121 297.714 98.7155 297.923 99.1544 298.006C99.5933 298.09 100.048 298.046 100.461 297.878C100.874 297.711 101.226 297.428 101.474 297.066C101.721 296.704 101.852 296.279 101.851 295.844C101.851 295.556 101.792 295.271 101.678 295.005C101.565 294.739 101.398 294.498 101.188 294.294C100.978 294.091 100.729 293.93 100.455 293.82C100.181 293.711 99.887 293.655 99.5906 293.656ZM121.061 293.656C120.614 293.655 120.176 293.782 119.803 294.023C119.43 294.264 119.139 294.607 118.967 295.008C118.795 295.41 118.75 295.852 118.837 296.278C118.924 296.705 119.139 297.097 119.455 297.405C119.772 297.712 120.175 297.921 120.615 298.006C121.054 298.09 121.509 298.046 121.922 297.879C122.335 297.712 122.688 297.429 122.936 297.067C123.184 296.705 123.315 296.279 123.314 295.844C123.314 295.264 123.076 294.707 122.654 294.297C122.232 293.887 121.659 293.656 121.061 293.656ZM142.524 293.656C142.077 293.656 141.64 293.785 141.268 294.027C140.896 294.268 140.606 294.612 140.436 295.013C140.265 295.415 140.22 295.857 140.308 296.283C140.396 296.709 140.612 297.1 140.929 297.407C141.246 297.714 141.649 297.923 142.088 298.006C142.527 298.09 142.982 298.046 143.395 297.878C143.807 297.711 144.16 297.428 144.407 297.066C144.655 296.704 144.786 296.279 144.784 295.844C144.784 295.556 144.726 295.271 144.612 295.005C144.499 294.739 144.332 294.498 144.122 294.294C143.912 294.091 143.663 293.93 143.389 293.82C143.115 293.711 142.821 293.655 142.524 293.656ZM163.995 293.656C163.547 293.655 163.109 293.782 162.737 294.023C162.364 294.264 162.073 294.607 161.901 295.008C161.729 295.41 161.683 295.852 161.77 296.278C161.857 296.705 162.073 297.097 162.389 297.405C162.706 297.712 163.109 297.921 163.548 298.006C163.987 298.09 164.443 298.046 164.856 297.879C165.269 297.712 165.622 297.429 165.87 297.067C166.118 296.705 166.249 296.279 166.247 295.844C166.247 295.264 166.01 294.707 165.588 294.297C165.165 293.887 164.592 293.656 163.995 293.656ZM185.458 293.656C185.011 293.656 184.574 293.785 184.202 294.027C183.83 294.268 183.54 294.612 183.369 295.013C183.199 295.415 183.154 295.857 183.242 296.283C183.33 296.709 183.546 297.1 183.863 297.407C184.18 297.714 184.583 297.923 185.022 298.006C185.461 298.09 185.916 298.046 186.328 297.878C186.741 297.711 187.094 297.428 187.341 297.066C187.588 296.704 187.72 296.279 187.718 295.844C187.718 295.556 187.66 295.271 187.546 295.005C187.432 294.739 187.266 294.498 187.056 294.294C186.846 294.091 186.597 293.93 186.322 293.82C186.048 293.711 185.755 293.655 185.458 293.656Z" fill="white"/>
<path d="M147.687 248.16C153.431 247.211 159.238 246.673 165.063 246.551C167.958 246.551 170.837 246.641 173.724 246.806C175.164 246.897 176.596 246.934 178.043 246.964C179.552 247.036 181.065 246.93 182.548 246.649C182.575 246.643 182.603 246.647 182.626 246.661C182.649 246.675 182.666 246.698 182.672 246.724C182.678 246.75 182.673 246.777 182.659 246.799C182.644 246.822 182.621 246.838 182.594 246.844C181.235 247.259 179.849 247.588 178.446 247.829C177.074 248.015 175.69 248.11 174.305 248.115C171.371 248.16 168.43 248.077 165.497 248.115C159.568 248.115 153.647 248.19 147.733 248.641C147.462 248.641 147.408 248.198 147.687 248.16Z" fill="#263238"/>
<path d="M135.133 256.522C139.626 254.867 144.213 253.461 148.871 252.311C151.193 251.74 153.515 251.311 155.922 250.935C157.06 250.754 158.198 250.597 159.336 250.446C160.473 250.296 161.859 250.288 163.113 250.115C163.237 250.115 163.291 250.288 163.159 250.311C161.983 250.514 160.837 250.905 159.684 251.168L156.185 251.973C153.863 252.507 151.541 253.071 149.219 253.589C144.575 254.627 139.931 255.703 135.287 256.898C134.978 256.958 134.9 256.605 135.133 256.522Z" fill="#263238"/>
<path d="M100.279 181.149C73.917 220.268 46.4787 297.04 57.1367 309.456C69.0021 323.262 105.651 268.487 104.916 265.84C104.366 263.847 111.944 218.982 117.965 186.248C123.987 153.513 106.812 171.456 100.279 181.149Z" fill="#FFC4C0"/>
<path d="M105.264 265.839C105.744 261.102 116.425 201.807 119.134 183.187C121.843 164.568 114.869 160.326 100.14 179.78C85.4109 199.235 56.9122 260.192 53.7543 290.167C50.7047 319.066 65.1166 316.238 81.5331 299.98C94.9698 286.67 105.264 265.839 105.264 265.839Z" fill="#6A3093"/>
<path d="M112.586 175.216C112.586 175.65 112.453 176.075 112.205 176.436C111.957 176.797 111.604 177.078 111.191 177.245C110.778 177.411 110.323 177.454 109.885 177.37C109.447 177.285 109.044 177.076 108.728 176.769C108.412 176.461 108.197 176.07 108.109 175.644C108.022 175.218 108.067 174.777 108.238 174.376C108.409 173.974 108.699 173.631 109.07 173.39C109.442 173.149 109.879 173.02 110.326 173.02C110.623 173.019 110.917 173.075 111.192 173.185C111.467 173.295 111.716 173.457 111.926 173.661C112.136 173.865 112.303 174.108 112.416 174.374C112.529 174.641 112.587 174.927 112.586 175.216ZM88.8629 207.379C88.4156 207.377 87.9779 207.505 87.6052 207.745C87.2325 207.986 86.9416 208.328 86.7694 208.729C86.5971 209.13 86.5513 209.572 86.6376 209.999C86.7239 210.425 86.9386 210.817 87.2543 211.125C87.5701 211.433 87.9728 211.642 88.4114 211.728C88.85 211.813 89.3049 211.77 89.7183 211.604C90.1317 211.438 90.4852 211.157 90.7338 210.795C90.9825 210.434 91.1153 210.009 91.1153 209.575C91.1163 209.286 91.0588 209.001 90.9462 208.734C90.8336 208.467 90.6679 208.224 90.4588 208.02C90.2496 207.815 90.0011 207.653 89.7272 207.541C89.4534 207.43 89.1597 207.372 88.8629 207.371V207.379ZM110.326 207.379C109.879 207.379 109.442 207.508 109.07 207.749C108.699 207.99 108.409 208.333 108.238 208.734C108.067 209.136 108.022 209.577 108.109 210.003C108.197 210.429 108.412 210.82 108.728 211.127C109.044 211.435 109.447 211.644 109.885 211.728C110.323 211.813 110.778 211.77 111.191 211.603C111.604 211.437 111.957 211.156 112.205 210.795C112.453 210.434 112.586 210.009 112.586 209.575C112.587 209.286 112.529 208.999 112.416 208.732C112.303 208.465 112.137 208.222 111.927 208.017C111.717 207.812 111.467 207.65 111.193 207.539C110.918 207.428 110.623 207.371 110.326 207.371V207.379ZM99.5906 190.579C99.1432 190.579 98.706 190.708 98.3341 190.95C97.9623 191.191 97.6726 191.535 97.5018 191.937C97.331 192.338 97.2867 192.78 97.3745 193.206C97.4623 193.632 97.6784 194.024 97.9952 194.33C98.3121 194.637 98.7155 194.846 99.1544 194.93C99.5933 195.014 100.048 194.969 100.461 194.802C100.874 194.634 101.226 194.352 101.474 193.99C101.721 193.627 101.852 193.202 101.851 192.768C101.852 192.479 101.794 192.193 101.681 191.926C101.567 191.659 101.401 191.417 101.191 191.213C100.981 191.009 100.731 190.847 100.457 190.737C100.182 190.627 99.8877 190.571 99.5906 190.572V190.579ZM68.0501 241.828C67.498 243.187 66.9587 244.548 66.4324 245.911C66.7317 246.052 67.0599 246.124 67.3922 246.122C67.9324 246.12 68.454 245.93 68.8624 245.586C69.2709 245.243 69.5392 244.769 69.6187 244.249C69.6983 243.73 69.5838 243.201 69.296 242.756C69.0083 242.312 68.5662 241.983 68.0501 241.828ZM88.8629 241.738C88.4153 241.736 87.9772 241.864 87.6044 242.105C87.2315 242.345 86.9407 242.688 86.7686 243.09C86.5966 243.491 86.5512 243.934 86.6382 244.36C86.7251 244.787 86.9405 245.179 87.2571 245.486C87.5736 245.794 87.9771 246.003 88.4162 246.088C88.8553 246.172 89.3104 246.128 89.7237 245.961C90.137 245.794 90.4899 245.511 90.7376 245.149C90.9854 244.787 91.1168 244.361 91.1153 243.926C91.1153 243.346 90.878 242.789 90.4556 242.379C90.0332 241.968 89.4603 241.738 88.8629 241.738ZM108.066 243.926C108.066 244.458 108.267 244.972 108.631 245.37C108.817 244.28 109.01 243.167 109.211 242.024C108.864 242.214 108.575 242.49 108.374 242.824C108.173 243.159 108.066 243.539 108.066 243.926ZM78.1276 224.931C77.6802 224.929 77.2425 225.057 76.8698 225.297C76.4971 225.537 76.2063 225.88 76.034 226.281C75.8618 226.682 75.8159 227.124 75.9022 227.55C75.9886 227.977 76.2032 228.369 76.519 228.676C76.8347 228.984 77.2374 229.194 77.676 229.279C78.1147 229.365 78.5695 229.322 78.9829 229.156C79.3963 228.99 79.7498 228.708 79.9985 228.347C80.2471 227.986 80.3799 227.561 80.3799 227.126C80.3799 226.545 80.1428 225.988 79.7207 225.576C79.2985 225.165 78.7256 224.933 78.1276 224.931ZM99.5906 224.931C99.1436 224.931 98.7066 225.059 98.3349 225.301C97.9633 225.542 97.6736 225.885 97.5025 226.286C97.3315 226.687 97.2867 227.129 97.3739 227.555C97.4611 227.981 97.6764 228.372 97.9925 228.679C98.3085 228.986 98.7112 229.195 99.1497 229.28C99.5881 229.365 100.042 229.321 100.455 229.155C100.868 228.989 101.221 228.707 101.47 228.346C101.718 227.985 101.851 227.561 101.851 227.126C101.852 226.838 101.794 226.552 101.681 226.285C101.567 226.018 101.401 225.776 101.191 225.572C100.981 225.367 100.731 225.206 100.457 225.096C100.182 224.986 99.8877 224.93 99.5906 224.931ZM67.3922 276.067C66.9465 276.068 66.5112 276.198 66.1411 276.439C65.771 276.68 65.4825 277.022 65.312 277.422C65.1414 277.822 65.0964 278.262 65.1826 278.687C65.2689 279.112 65.4824 279.503 65.7965 279.81C66.1106 280.117 66.5111 280.327 66.9478 280.414C67.3844 280.5 67.8377 280.46 68.2506 280.297C68.6635 280.134 69.0176 279.856 69.2684 279.498C69.5192 279.14 69.6554 278.718 69.66 278.285C69.66 277.996 69.6012 277.711 69.4871 277.444C69.3729 277.178 69.2056 276.936 68.9948 276.732C68.784 276.529 68.5339 276.368 68.2589 276.259C67.9838 276.15 67.6893 276.095 67.3922 276.097V276.067ZM88.8629 276.067C88.4153 276.065 87.9772 276.193 87.6044 276.434C87.2315 276.674 86.9407 277.017 86.7686 277.419C86.5966 277.82 86.5512 278.262 86.6382 278.689C86.7251 279.116 86.9405 279.508 87.2571 279.815C87.5736 280.123 87.9771 280.332 88.4162 280.416C88.8553 280.501 89.3104 280.457 89.7237 280.29C90.137 280.123 90.4899 279.84 90.7376 279.478C90.9854 279.115 91.1168 278.69 91.1153 278.255C91.1071 277.68 90.8662 277.131 90.4447 276.727C90.0232 276.323 89.455 276.097 88.8629 276.097V276.067ZM78.1276 259.289C77.6802 259.288 77.2425 259.415 76.8698 259.656C76.4971 259.896 76.2063 260.239 76.034 260.64C75.8618 261.041 75.8159 261.483 75.9022 261.909C75.9886 262.336 76.2032 262.727 76.519 263.035C76.8347 263.343 77.2374 263.553 77.676 263.638C78.1147 263.724 78.5695 263.681 78.9829 263.515C79.3963 263.349 79.7498 263.067 79.9985 262.706C80.2471 262.345 80.3799 261.92 80.3799 261.485C80.3799 260.904 80.1428 260.347 79.7207 259.935C79.2985 259.524 78.7256 259.291 78.1276 259.289ZM99.5906 259.289C99.1436 259.289 98.7066 259.418 98.3349 259.66C97.9633 259.901 97.6736 260.244 97.5025 260.645C97.3315 261.046 97.2867 261.488 97.3739 261.914C97.4611 262.34 97.6764 262.731 97.9925 263.038C98.3085 263.345 98.7112 263.554 99.1497 263.639C99.5881 263.724 100.042 263.68 100.455 263.514C100.868 263.348 101.221 263.066 101.47 262.705C101.718 262.344 101.851 261.92 101.851 261.485C101.852 261.197 101.794 260.911 101.681 260.644C101.567 260.377 101.401 260.134 101.191 259.93C100.981 259.726 100.731 259.565 100.457 259.455C100.182 259.345 99.8877 259.288 99.5906 259.289ZM67.3922 310.425C67.0325 310.426 66.6781 310.51 66.3589 310.671C66.0397 310.832 65.7649 311.065 65.5578 311.35C66.2995 311.092 67.0257 310.793 67.7327 310.456C67.6195 310.444 67.5054 310.444 67.3922 310.456V310.425ZM56.6568 293.656C56.2095 293.656 55.7722 293.785 55.4004 294.026C55.0285 294.268 54.7389 294.611 54.568 295.013C54.3972 295.415 54.3529 295.857 54.4407 296.283C54.5286 296.709 54.7446 297.1 55.0614 297.407C55.3783 297.714 55.7817 297.922 56.2206 298.006C56.6596 298.09 57.1142 298.046 57.5271 297.878C57.9399 297.711 58.2923 297.428 58.5398 297.066C58.7872 296.704 58.9184 296.279 58.9169 295.844C58.9169 295.556 58.8584 295.271 58.7447 295.005C58.631 294.739 58.4644 294.497 58.2544 294.294C58.0445 294.091 57.7953 293.93 57.5211 293.82C57.2469 293.711 56.9532 293.655 56.6568 293.656ZM78.1276 293.656C77.6799 293.654 77.2419 293.782 76.869 294.023C76.4962 294.263 76.2053 294.606 76.0333 295.008C75.8612 295.409 75.8158 295.852 75.9028 296.278C75.9898 296.705 76.2052 297.097 76.5217 297.404C76.8383 297.712 77.2417 297.921 77.6808 298.006C78.1199 298.09 78.575 298.046 78.9883 297.879C79.4016 297.712 79.7545 297.429 80.0022 297.067C80.25 296.705 80.3814 296.279 80.3799 295.844C80.3799 295.264 80.1426 294.707 79.7202 294.297C79.2978 293.886 78.7249 293.656 78.1276 293.656Z" fill="white"/>
<path d="M103.894 273.495C104.544 267.9 105.292 262.318 106.139 256.748C106.967 251.183 107.88 245.626 108.809 240.076C109.738 234.526 110.752 228.976 111.82 223.449C112.888 217.922 114.018 212.395 115.256 206.905C114.606 212.505 113.858 218.088 113.012 223.652C112.184 229.225 111.27 234.782 110.341 240.332C109.413 245.881 108.399 251.424 107.331 256.958C106.262 262.493 105.132 267.998 103.894 273.495Z" fill="#263238"/>
<path d="M113.29 219.817C113.619 218.366 114.08 216.947 114.668 215.576C115.23 214.196 115.887 212.854 116.634 211.56C116.542 212.305 116.379 213.04 116.146 213.756C115.93 214.47 115.659 215.162 115.372 215.854C114.822 217.242 114.124 218.57 113.29 219.817Z" fill="#263238"/>
<path d="M57.1367 309.455C66.742 318.359 87.462 316.359 140.094 316.081C147.377 316.043 160.922 266.035 153.144 265.697C143.345 265.253 105.218 265.621 102.431 265.99C78.948 269.096 50.6196 303.417 57.1367 309.455Z" fill="#FFC4C0"/>
<path d="M142.54 265.456C142.54 265.456 164.645 264.403 176.433 267.344C192.215 271.284 204.181 280.992 208.941 285.392C218.872 294.498 236.411 323.202 228.779 329.549C221.875 335.302 205.474 305.079 205.474 305.079C205.474 305.079 227.432 333.211 217.811 338.648C208.191 344.085 191.178 307.891 191.178 307.891C191.178 307.891 213.067 337.287 202.231 341.363C194.042 344.446 176.766 312.569 176.766 312.569C176.766 312.569 195.396 337.956 187.114 341.483C177.966 345.371 160.117 316.915 160.117 316.915C137.517 322.428 124.428 316.073 115.674 310.471C113.584 309.117 142.54 265.456 142.54 265.456Z" fill="#FFC4C0"/>
<path d="M198.523 294.821C201.224 298.033 203.988 301.266 206.387 304.703C208.786 308.139 211.031 311.659 213.121 315.298C218.167 324.217 219.893 330.572 219.746 330.196C216.178 321.172 207.788 308.749 205.389 305.312C202.989 301.875 200.783 298.333 198.384 294.904C198.33 294.822 198.461 294.784 198.523 294.821Z" fill="#263238"/>
<path d="M185.597 303.011C188.864 307.26 192.269 311.358 195.342 315.75C198.415 320.141 200.915 324.526 203.655 329.083C203.872 329.436 203.608 329.429 203.376 329.083C200.451 324.638 197.393 320.736 194.406 316.299C191.418 311.862 188.624 307.35 185.489 303.056C185.488 303.043 185.491 303.031 185.498 303.02C185.504 303.009 185.514 303 185.526 302.995C185.538 302.99 185.552 302.989 185.565 302.992C185.577 302.995 185.589 303.001 185.597 303.011Z" fill="#263238"/>
<path d="M173.206 308.102C178.539 314.343 182.679 321.54 186.573 328.692C186.766 329.045 186.426 329 186.209 328.646C181.898 321.721 178.562 316.261 172.981 308.282C172.888 308.154 173.09 307.966 173.206 308.102Z" fill="#263238"/>
<path d="M147.014 264.546L112.609 321.232C112.609 321.232 65.6739 320.013 56.7497 310.125C50.875 303.62 78.4604 267.208 104.676 265.689L147.014 264.546Z" fill="#6A3093"/>
<path d="M91.1153 278.285C91.1168 278.72 90.9854 279.146 90.7376 279.508C90.4899 279.87 90.137 280.153 89.7237 280.32C89.3104 280.487 88.8553 280.531 88.4162 280.447C87.977 280.362 87.5736 280.153 87.2571 279.845C86.9405 279.538 86.7251 279.146 86.6382 278.719C86.5512 278.292 86.5966 277.85 86.7686 277.449C86.9407 277.047 87.2315 276.704 87.6044 276.464C87.9772 276.223 88.4153 276.095 88.8629 276.097C89.4603 276.097 90.0332 276.327 90.4556 276.738C90.878 277.148 91.1153 277.705 91.1153 278.285ZM110.326 276.097C109.879 276.097 109.441 276.226 109.07 276.467C108.698 276.709 108.408 277.052 108.237 277.454C108.066 277.856 108.022 278.298 108.11 278.724C108.198 279.15 108.414 279.541 108.731 279.848C109.047 280.155 109.451 280.363 109.89 280.447C110.329 280.531 110.783 280.486 111.196 280.319C111.609 280.152 111.962 279.869 112.209 279.507C112.456 279.145 112.588 278.72 112.586 278.285C112.586 277.997 112.528 277.712 112.414 277.446C112.3 277.18 112.134 276.938 111.924 276.735C111.714 276.532 111.464 276.371 111.19 276.261C110.916 276.152 110.622 276.096 110.326 276.097ZM131.789 276.097C131.342 276.097 130.904 276.226 130.533 276.467C130.161 276.709 129.871 277.052 129.7 277.454C129.529 277.856 129.485 278.298 129.573 278.724C129.661 279.15 129.877 279.541 130.194 279.848C130.51 280.155 130.914 280.363 131.353 280.447C131.792 280.531 132.246 280.486 132.659 280.319C133.072 280.152 133.425 279.869 133.672 279.507C133.919 279.145 134.051 278.72 134.049 278.285C134.049 277.997 133.991 277.712 133.877 277.446C133.763 277.18 133.597 276.938 133.387 276.735C133.177 276.532 132.927 276.371 132.653 276.261C132.379 276.152 132.085 276.096 131.789 276.097ZM67.3922 310.456C66.9455 310.457 66.5093 310.587 66.1387 310.829C65.768 311.071 65.4795 311.415 65.3097 311.816C65.1398 312.218 65.0961 312.659 65.1842 313.084C65.2723 313.51 65.4881 313.9 65.8045 314.207C66.1209 314.513 66.5236 314.721 66.9618 314.806C67.4 314.89 67.8541 314.846 68.2666 314.679C68.6791 314.513 69.0316 314.232 69.2796 313.871C69.5276 313.51 69.66 313.085 69.66 312.651C69.661 312.362 69.603 312.076 69.4893 311.808C69.3756 311.541 69.2085 311.298 68.9976 311.094C68.7867 310.89 68.5362 310.728 68.2607 310.619C67.9851 310.509 67.6899 310.454 67.3922 310.456ZM88.8629 310.456C88.4156 310.454 87.9779 310.582 87.6052 310.822C87.2325 311.062 86.9416 311.405 86.7694 311.806C86.5971 312.207 86.5513 312.649 86.6376 313.075C86.7239 313.502 86.9386 313.894 87.2543 314.201C87.5701 314.509 87.9728 314.719 88.4114 314.804C88.85 314.89 89.3049 314.847 89.7183 314.681C90.1317 314.515 90.4852 314.233 90.7338 313.872C90.9825 313.511 91.1153 313.086 91.1153 312.651C91.1153 312.07 90.8782 311.513 90.4561 311.101C90.0339 310.69 89.461 310.458 88.8629 310.456ZM110.326 310.456C109.879 310.456 109.442 310.584 109.07 310.826C108.699 311.067 108.409 311.41 108.238 311.811C108.067 312.212 108.022 312.654 108.109 313.08C108.196 313.506 108.412 313.897 108.728 314.204C109.044 314.511 109.447 314.72 109.885 314.805C110.323 314.89 110.778 314.846 111.191 314.68C111.604 314.514 111.957 314.232 112.205 313.871C112.453 313.51 112.586 313.086 112.586 312.651C112.586 312.069 112.348 311.511 111.924 311.099C111.5 310.687 110.925 310.456 110.326 310.456ZM78.1276 293.656C77.6799 293.654 77.2419 293.782 76.869 294.023C76.4962 294.264 76.2053 294.606 76.0333 295.008C75.8612 295.409 75.8158 295.852 75.9028 296.278C75.9898 296.705 76.2052 297.097 76.5217 297.404C76.8383 297.712 77.2417 297.921 77.6808 298.006C78.1199 298.09 78.575 298.046 78.9883 297.879C79.4016 297.712 79.7545 297.429 80.0022 297.067C80.25 296.705 80.3814 296.279 80.3799 295.844C80.3799 295.264 80.1426 294.707 79.7202 294.297C79.2978 293.886 78.7249 293.656 78.1276 293.656ZM99.5906 293.656C99.1432 293.656 98.706 293.785 98.3341 294.026C97.9623 294.268 97.6726 294.612 97.5018 295.013C97.331 295.415 97.2867 295.857 97.3745 296.283C97.4623 296.709 97.6784 297.1 97.9952 297.407C98.3121 297.714 98.7155 297.922 99.1544 298.006C99.5933 298.09 100.048 298.046 100.461 297.878C100.874 297.711 101.226 297.428 101.474 297.066C101.721 296.704 101.852 296.279 101.851 295.844C101.851 295.556 101.792 295.271 101.678 295.005C101.565 294.739 101.398 294.497 101.188 294.294C100.978 294.091 100.729 293.93 100.455 293.82C100.181 293.711 99.887 293.655 99.5906 293.656ZM121.061 293.656C120.614 293.654 120.176 293.782 119.803 294.023C119.43 294.264 119.139 294.606 118.967 295.008C118.795 295.409 118.75 295.852 118.837 296.278C118.924 296.705 119.139 297.097 119.455 297.404C119.772 297.712 120.175 297.921 120.615 298.006C121.054 298.09 121.509 298.046 121.922 297.879C122.335 297.712 122.688 297.429 122.936 297.067C123.184 296.705 123.315 296.279 123.314 295.844C123.314 295.264 123.076 294.707 122.654 294.297C122.232 293.886 121.659 293.656 121.061 293.656Z" fill="white"/>
<path d="M75.852 279.451C79.3582 275.751 89.5363 266.734 104.676 265.644C104.807 265.644 104.854 265.84 104.722 265.862C93.5534 267.712 79.722 276.33 76.0145 279.609C75.9216 279.699 75.7901 279.541 75.852 279.451Z" fill="#263238"/>
<path d="M98.8088 315.569C102.253 309.14 106.038 302.898 109.846 296.664C113.654 290.43 117.454 284.173 121.456 278.029C123.701 274.555 125.922 271.073 128.29 267.674C128.352 267.584 128.523 267.674 128.468 267.765C125.04 274.187 121.27 280.451 117.509 286.7C113.747 292.949 109.908 299.191 106.007 305.38C103.809 308.889 101.533 312.343 99.1803 315.742C99.0255 315.908 98.7082 315.757 98.8088 315.569Z" fill="#263238"/>
<path d="M146.967 263.907C144.075 263.649 141.169 263.578 138.267 263.696C135.365 263.696 132.462 263.824 129.56 263.937C123.786 264.163 111.526 263.997 101.201 266.043C101.084 266.043 101.781 266.494 101.897 266.464C106.758 265.245 143.407 265.155 146.348 264.787C146.267 264.992 146.202 265.203 146.154 265.418C146.154 265.569 146.301 265.719 146.433 265.591C146.743 265.283 146.944 264.937 147.207 264.606C147.262 264.552 147.301 264.484 147.319 264.41C147.336 264.335 147.333 264.258 147.308 264.185C147.283 264.113 147.238 264.048 147.178 263.999C147.118 263.95 147.045 263.918 146.967 263.907Z" fill="#263238"/>
<path d="M117.462 170.305C117.934 172.606 129.552 186.797 140.21 184.924C147.71 183.601 143.492 169.079 143.492 169.079L149.003 148.663L122.973 131.329C122.973 131.329 117.284 169.328 117.462 170.305Z" fill="#FFC4C0"/>
<path d="M120.992 144.677C122.948 149.868 125.983 154.612 129.907 158.614C133.831 162.617 138.561 165.793 143.801 167.944L149.01 148.67L122.981 131.329L120.992 144.677Z" fill="#263238"/>
<path d="M177.122 116.831C181.898 151.092 161.286 157.724 153.662 158.717C146.75 159.612 123.081 161.808 114.676 128.208C106.27 94.6091 121.185 81.6296 136.89 78.7645C152.594 75.8994 172.339 82.5621 177.122 116.831Z" fill="#FFC4C0"/>
<path d="M168.144 111.973C167.322 111.898 166.505 111.777 165.698 111.612C164.819 111.605 163.968 111.317 163.275 110.792C163.093 110.585 162.986 110.326 162.971 110.054C162.956 109.782 163.033 109.513 163.19 109.288C163.925 108.363 165.117 108.265 166.286 108.401C167.435 108.498 168.506 109.008 169.289 109.83C169.456 110.029 169.559 110.271 169.586 110.526C169.613 110.781 169.562 111.039 169.441 111.266C169.319 111.494 169.131 111.682 168.901 111.808C168.67 111.933 168.407 111.991 168.144 111.973Z" fill="#263238"/>
<path d="M143.608 114.033C144.414 113.865 145.21 113.654 145.992 113.402C146.869 113.299 147.686 112.915 148.314 112.311C148.473 112.086 148.55 111.816 148.533 111.544C148.517 111.271 148.407 111.012 148.221 110.807C147.377 109.965 146.185 110.01 145.071 110.266C143.943 110.491 142.942 111.116 142.261 112.018C142.119 112.231 142.044 112.48 142.044 112.734C142.044 112.988 142.12 113.237 142.262 113.45C142.405 113.663 142.607 113.831 142.846 113.935C143.085 114.038 143.35 114.073 143.608 114.033Z" fill="#263238"/>
<path d="M149.312 121.365C149.312 121.283 149.134 121.493 149.15 121.591C149.421 123.937 149.336 126.674 147.199 127.607C147.137 127.607 147.153 127.75 147.199 127.735C149.885 127.186 149.962 123.554 149.312 121.365Z" fill="#263238"/>
<path d="M146.936 119.079C143.004 119.079 143.345 126.727 146.99 126.704C150.636 126.682 150.233 119.057 146.936 119.079Z" fill="#263238"/>
<path d="M145.411 119.568C144.746 120.027 144.103 120.816 143.283 120.929C142.331 121.064 141.565 120.29 140.907 119.553C140.837 119.47 140.775 119.553 140.775 119.643C140.822 121.147 141.464 122.584 143.097 122.734C144.583 122.869 145.582 121.531 145.891 120.049C145.945 119.748 145.682 119.357 145.411 119.568Z" fill="#263238"/>
<path d="M163.314 120.41C163.314 120.32 163.507 120.515 163.507 120.613C163.507 122.982 163.933 125.689 166.162 126.396C166.232 126.396 166.232 126.539 166.162 126.531C163.461 126.253 162.942 122.659 163.314 120.41Z" fill="#263238"/>
<path d="M165.412 117.876C169.282 117.455 169.901 125.065 166.286 125.456C162.672 125.847 162.138 118.222 165.412 117.876Z" fill="#263238"/>
<path d="M167.083 118.259C167.741 118.613 168.407 119.305 169.15 119.297C170.017 119.297 170.59 118.425 171.077 117.598C171.124 117.507 171.193 117.598 171.201 117.665C171.356 119.124 170.977 120.673 169.552 121.057C168.26 121.403 167.23 120.222 166.735 118.801C166.642 118.538 166.828 118.109 167.083 118.259Z" fill="#263238"/>
<path d="M151.441 140.774C152.021 141.331 152.602 142.09 153.492 142.166C154.397 142.155 155.289 141.955 156.108 141.579C156.125 141.571 156.144 141.569 156.162 141.572C156.181 141.576 156.197 141.585 156.21 141.599C156.222 141.612 156.23 141.63 156.231 141.648C156.232 141.666 156.227 141.684 156.216 141.699C155.868 142.165 155.396 142.529 154.85 142.754C154.305 142.98 153.707 143.057 153.12 142.978C152.624 142.85 152.178 142.583 151.838 142.21C151.498 141.836 151.279 141.374 151.209 140.88C151.17 140.744 151.356 140.692 151.441 140.774Z" fill="#263238"/>
<path d="M161.139 131.705C161.139 131.705 161.836 135.202 161.913 136.864C161.913 137.022 161.511 137.12 160.93 137.18C160.93 137.18 160.884 137.18 160.86 137.18C159.403 137.518 157.877 137.46 156.451 137.013C155.025 136.566 153.752 135.747 152.772 134.646C152.648 134.488 152.857 134.307 153.02 134.397C155.342 135.901 157.888 136.172 160.582 136.074C160.675 135.608 159.173 130.126 159.444 130.058C160.373 129.931 162.254 130.449 163.384 130.713C162.145 123.381 159.699 116.297 158.569 108.98C158.566 108.927 158.581 108.875 158.613 108.832C158.644 108.789 158.689 108.757 158.741 108.742C158.794 108.727 158.849 108.73 158.9 108.75C158.95 108.77 158.992 108.806 159.018 108.852C162.114 116.094 163.74 124.501 165.21 132.036C165.442 133.014 161.843 131.953 161.139 131.705Z" fill="#263238"/>
<path d="M160.651 136.398C159.801 137.831 158.586 139.027 157.122 139.872C156.304 140.304 155.368 140.477 154.444 140.368C152.432 140.113 152.122 138.383 152.315 136.856C152.412 136.042 152.606 135.242 152.896 134.473C155.205 135.898 157.921 136.573 160.651 136.398Z" fill="#263238"/>
<path d="M157.122 139.872C156.304 140.303 155.368 140.477 154.444 140.368C152.432 140.112 152.122 138.383 152.315 136.856C154.413 136.781 156.658 137.902 157.122 139.872Z" fill="#FF9BBC"/>
<path d="M115.852 129.795C123.592 126.11 123.778 118.199 123.778 118.199C129.889 115.487 135.144 111.24 139.003 105.897C138.778 106.649 137.168 111.717 136.255 114.296C158.531 109.89 165.156 93.1953 165.156 93.1953C172.525 100.091 174.049 104.558 175.141 106.776C175.141 106.776 175.071 93.4811 167.865 84.6902C159.049 73.9291 129.862 71.455 116.634 85.8859C102.385 101.452 115.852 129.795 115.852 129.795Z" fill="#263238"/>
<path d="M153.182 110.439C149.624 112.402 145.784 113.839 141.789 114.702C141.789 114.702 141.75 114.665 141.789 114.657C148.046 112.894 153.675 109.473 158.043 104.776C159.89 102.77 161.471 100.547 162.749 98.1585C164.088 95.6618 165.381 92.6839 165.574 89.8865C165.583 89.8477 165.604 89.8129 165.636 89.788C165.668 89.763 165.707 89.7494 165.748 89.7494C165.789 89.7494 165.829 89.763 165.86 89.788C165.892 89.8129 165.914 89.8477 165.922 89.8865C165.713 92.8945 165.497 95.6468 164.297 98.4593C163.157 101.144 161.517 103.601 159.459 105.709C157.619 107.569 155.516 109.167 153.213 110.454" fill="#263238"/>
<path d="M120.744 127.727C120.744 127.727 112.439 117.304 107.524 120.207C102.609 123.11 109.235 138.488 115.264 140.353C116.016 140.638 116.818 140.774 117.625 140.752C118.431 140.73 119.225 140.551 119.959 140.226C120.693 139.9 121.353 139.435 121.898 138.858C122.444 138.28 122.865 137.602 123.136 136.864L120.744 127.727Z" fill="#FFC4C0"/>
<path d="M109.498 124.584C109.477 124.584 109.458 124.592 109.443 124.606C109.429 124.62 109.42 124.639 109.42 124.659C109.42 124.679 109.429 124.698 109.443 124.712C109.458 124.726 109.477 124.734 109.498 124.734C113.732 126.178 116.1 129.81 117.818 133.608C116.51 132.179 114.792 131.442 112.803 132.961C112.702 133.036 112.803 133.194 112.927 133.172C113.645 132.912 114.429 132.874 115.17 133.064C115.911 133.254 116.574 133.662 117.067 134.232C117.881 135.194 118.587 136.238 119.173 137.345C119.389 137.691 120.047 137.465 119.885 137.059C119.875 137.028 119.862 136.998 119.846 136.969C119.676 131.833 115.21 124.832 109.498 124.584Z" fill="#263238"/>
<path opacity="0.1" d="M171.379 143.925C171.379 143.925 163.84 148.798 158.624 149.663C153.407 150.528 142.501 147.64 142.501 147.64C141.038 142.692 141.41 136.36 141.41 136.36C141.41 136.36 153.732 133.472 158.546 132.841C162.246 132.374 172.795 133.044 172.795 133.044C172.607 136.7 172.133 140.338 171.379 143.925Z" fill="white"/>
<g opacity="0.2">
<path d="M156.031 133.232L142.238 146.64C141.981 145.577 141.793 144.5 141.673 143.414L151.162 134.194C152.873 133.856 154.568 133.488 156.031 133.232Z" fill="white"/>
<path d="M170.891 132.923L153.639 149.693C153.066 149.64 152.478 149.573 151.89 149.498L169.049 132.833L170.891 132.923Z" fill="white"/>
<path d="M172.006 140.504C171.859 141.399 171.72 142.188 171.604 142.76L168.887 145.399C167.741 146.053 166.286 146.836 164.738 147.55L172.006 140.504Z" fill="white"/>
<path d="M172.795 133.142C172.795 133.457 172.795 133.781 172.757 134.119L156.596 149.828C156.286 149.828 155.969 149.828 155.636 149.828L172.795 133.142Z" fill="white"/>
<path d="M147.834 134.901L141.495 141.06C141.495 140.744 141.479 140.444 141.448 140.158L146.572 135.18L147.834 134.901Z" fill="white"/>
</g>
</svg>
