<svg width="500" height="500" viewBox="0 0 500 500" fill="none" xmlns="http://www.w3.org/2000/svg">
<path d="M298.66 471.25C298.66 473.99 281.22 476.2 259.66 476.2C238.1 476.2 220.66 473.99 220.66 471.25C220.66 468.51 238.1 466.25 259.66 466.25C281.22 466.25 298.66 468.51 298.66 471.25Z" fill="#E0E0E0"/>
<path d="M183 150.18C186.222 148.235 189.69 146.729 193.31 145.7L195.43 135.49L212.68 135.19L215.16 145.31C218.816 146.208 222.334 147.594 225.62 149.43L234.34 143.72L246.75 155.72L241.34 164.63C243.289 167.85 244.795 171.318 245.82 174.94L256 177L256.3 194.25L246.18 196.73C245.28 200.385 243.895 203.903 242.06 207.19L247.77 215.91L235.77 228.31L226.86 222.91C223.634 224.855 220.164 226.361 216.54 227.39L214.42 237.6L197.18 237.9L194.69 227.78C191.038 226.872 187.521 225.486 184.23 223.66L175.52 229.37L163.11 217.37L168.51 208.46C166.565 205.238 165.059 201.77 164.03 198.15L153.82 196.03L153.52 178.78L163.65 176.3C164.55 172.647 165.933 169.129 167.76 165.84L162.05 157.12L174.05 144.72L182.96 150.12L183 150.18ZM192.19 173.18C189.649 175.812 187.945 179.139 187.295 182.74C186.644 186.34 187.076 190.053 188.535 193.408C189.995 196.764 192.417 199.611 195.494 201.59C198.572 203.568 202.167 204.59 205.825 204.526C209.484 204.462 213.041 203.314 216.047 201.228C219.053 199.142 221.373 196.212 222.713 192.807C224.054 189.403 224.355 185.677 223.578 182.102C222.802 178.526 220.982 175.261 218.35 172.72C214.824 169.311 210.09 167.441 205.186 167.522C200.282 167.603 195.612 169.627 192.2 173.15L192.19 173.18Z" fill="#F5F5F5"/>
<path d="M284.43 180.26C287.142 179.322 289.967 178.75 292.83 178.56L296.04 171.29L308.94 173.81L309.18 181.75C311.764 183.004 314.169 184.598 316.33 186.49L323.73 183.61L331.08 194.52L325.63 200.3C326.567 203.012 327.139 205.837 327.33 208.7L334.6 211.91L332.09 224.81L324.14 225.05C322.889 227.633 321.298 230.038 319.41 232.2L322.28 239.61L311.38 247L305.59 241.56C302.879 242.499 300.053 243.068 297.19 243.25L293.99 250.53L281.08 248L280.84 240C278.258 238.752 275.856 237.161 273.7 235.27L266.29 238.14L259 227.25L264.44 221.47C263.503 218.758 262.931 215.933 262.74 213.07L255.47 209.86L257.94 197L265.88 196.76C267.134 194.181 268.725 191.78 270.61 189.62L267.74 182.21L278.65 174.87L284.43 180.31V180.26ZM287.63 198.85C285.315 200.408 283.514 202.619 282.454 205.201C281.395 207.783 281.126 210.622 281.68 213.357C282.234 216.092 283.587 218.602 285.568 220.568C287.548 222.535 290.068 223.87 292.807 224.404C295.547 224.939 298.383 224.649 300.957 223.571C303.532 222.493 305.729 220.676 307.271 218.35C308.813 216.023 309.63 213.292 309.619 210.501C309.608 207.71 308.77 204.985 307.21 202.67C305.119 199.568 301.883 197.423 298.211 196.706C294.539 195.99 290.733 196.761 287.63 198.85Z" fill="#EBEBEB"/>
<path d="M329.64 41.07C329.64 41.07 329.73 41.07 329.88 41.24C330.03 41.41 330.25 41.55 330.55 41.77C331.423 42.4456 332.342 43.0604 333.3 43.61C334.807 44.477 336.407 45.1713 338.07 45.68C340.273 46.3445 342.57 46.6451 344.87 46.57C347.661 46.404 350.439 46.0701 353.19 45.57C356.373 45.0206 359.618 44.9163 362.83 45.26C366.386 45.6843 369.847 46.6982 373.07 48.26C380.065 51.645 385.434 57.6645 388 65C389.194 68.3766 389.724 71.9523 389.56 75.53C389.44 78.94 388.96 82.13 388.88 85.14C388.733 87.9289 389.096 90.7211 389.95 93.38C390.67 95.5685 391.73 97.6303 393.09 99.49C394.106 100.903 395.288 102.189 396.61 103.32C397.14 103.8 397.61 104.16 398.1 104.5C398.59 104.84 398.93 105.08 399.25 105.28L399.99 105.72C400.15 105.83 400.24 105.88 400.24 105.89C400.146 105.852 400.055 105.805 399.97 105.75L399.22 105.34C398.89 105.15 398.5 104.88 398.04 104.58C397.58 104.28 397.04 103.9 396.52 103.42C393.379 100.773 391.027 97.3139 389.72 93.42C388.839 90.7389 388.46 87.9186 388.6 85.1C388.67 82.1 389.14 78.86 389.25 75.48C389.399 71.9423 388.87 68.4086 387.69 65.07C385.155 57.8196 379.846 51.8711 372.93 48.53C369.745 46.9783 366.326 45.9646 362.81 45.53C359.622 45.1824 356.402 45.2766 353.24 45.81C350.48 46.3131 347.691 46.6471 344.89 46.81C342.561 46.857 340.239 46.5191 338.02 45.81C335.293 44.9542 332.75 43.5977 330.52 41.81C330.22 41.57 330.01 41.37 329.87 41.25L329.64 41.07Z" fill="#E0E0E0"/>
<path d="M346.75 19C347.881 20.0117 348.946 21.0939 349.94 22.24C351.129 23.5659 352.215 24.98 353.19 26.47C354.518 28.435 355.489 30.6183 356.06 32.92C356.211 33.5785 356.314 34.2468 356.37 34.92C356.37 35.62 356.37 36.32 356.37 37.03C356.37 38.46 356.31 39.94 356.28 41.48C356.22 44.55 356.12 47.84 356.17 51.29C356.23 54.8917 356.907 58.4566 358.17 61.83C359.529 65.4552 361.627 68.7584 364.33 71.53C367.057 74.2823 370.374 76.3785 374.03 77.66C377.426 78.877 381.065 79.2611 384.64 78.78C388.05 78.32 391.2 77.31 394.24 76.78C395.707 76.4971 397.196 76.3531 398.69 76.35C400.068 76.3685 401.441 76.5192 402.79 76.8C405.104 77.309 407.321 78.1833 409.36 79.39C410.897 80.2993 412.309 81.4053 413.56 82.68C414.356 83.477 415.079 84.3438 415.72 85.27L416.19 86L416.35 86.26C416.286 86.1832 416.226 86.1031 416.17 86.02C416.04 85.85 415.88 85.61 415.66 85.31C413.94 82.9755 411.762 81.0157 409.26 79.55C407.258 78.3654 405.081 77.5047 402.81 77C401.477 76.7291 400.12 76.5885 398.76 76.58C397.283 76.5887 395.81 76.7326 394.36 77.01C391.36 77.55 388.2 78.58 384.76 79.01C381.144 79.5304 377.456 79.1842 374 78C370.293 76.7056 366.931 74.5816 364.17 71.79C361.433 68.9854 359.311 65.6409 357.94 61.97C356.663 58.5623 355.986 54.9589 355.94 51.32C355.89 47.85 356 44.57 356.08 41.49C356.08 39.96 356.15 38.49 356.18 37.05C356.18 36.33 356.18 35.64 356.18 34.96C356.127 34.2877 356.03 33.6196 355.89 32.96C355.334 30.6807 354.387 28.5152 353.09 26.56C352.134 25.069 351.068 23.6517 349.9 22.32C348.9 21.21 348.16 20.39 347.62 19.84L347.01 19.21L346.75 19Z" fill="#E0E0E0"/>
<path d="M356.28 35.88C356.35 35.94 354.35 38.45 351.81 41.49C349.27 44.53 347.15 46.94 347.08 46.88C347.01 46.82 349.01 44.31 351.55 41.27C354.09 38.23 356.21 35.82 356.28 35.88Z" fill="#E0E0E0"/>
<path d="M354.56 29.51C354.63 29.58 351.14 33.22 346.77 37.66C342.4 42.1 338.77 45.66 338.77 45.56C338.77 45.46 342.19 41.85 346.56 37.42C350.93 32.99 354.49 29.44 354.56 29.51Z" fill="#E0E0E0"/>
<path d="M351 23.6C351.07 23.66 346.83 28.01 341.54 33.3C336.25 38.59 331.91 42.83 331.84 42.76C331.77 42.69 336.01 38.35 341.3 33.06C346.59 27.77 350.93 23.53 351 23.6Z" fill="#E0E0E0"/>
<path d="M389 69.36C389.06 69.43 386.59 71.65 383.48 74.36C380.37 77.07 377.81 79.14 377.74 79.07C377.67 79 380.15 76.78 383.26 74.07C386.37 71.36 388.9 69.28 389 69.36Z" fill="#E0E0E0"/>
<path d="M385.67 60.6C385.499 60.8356 385.305 61.0534 385.09 61.25C384.71 61.65 384.14 62.25 383.43 62.9C382 64.28 380 66.15 377.73 68.15C375.46 70.15 373.34 71.89 371.79 73.15C371.01 73.76 370.38 74.25 369.93 74.58C369.716 74.7734 369.477 74.9382 369.22 75.07C369.409 74.8523 369.62 74.6546 369.85 74.48L371.64 72.96C373.15 71.68 375.23 69.96 377.5 67.96C379.77 65.96 381.8 64.13 383.26 62.8L385 61.15C385.204 60.9442 385.428 60.7599 385.67 60.6Z" fill="#E0E0E0"/>
<path d="M380.61 53.88C380.389 54.1112 380.148 54.3221 379.89 54.51L377.89 56.17C376.17 57.57 373.82 59.52 371.28 61.75C368.74 63.98 366.51 66.07 364.9 67.59L363 69.39C362.781 69.6294 362.536 69.8441 362.27 70.03C362.454 69.7653 362.665 69.5206 362.9 69.3C363.32 68.85 363.95 68.2 364.73 67.42C366.3 65.85 368.52 63.73 371.06 61.49C373.6 59.25 375.98 57.33 377.74 55.98C378.62 55.31 379.34 54.77 379.85 54.41C380.087 54.2107 380.341 54.0333 380.61 53.88Z" fill="#E0E0E0"/>
<path d="M372.24 49.32C372.088 49.5192 371.913 49.7003 371.72 49.86L370.23 51.23C368.97 52.39 367.23 53.99 365.35 55.79C363.47 57.59 361.79 59.25 360.58 60.46L359.14 61.89C358.977 62.0781 358.788 62.243 358.58 62.38C358.714 62.1691 358.868 61.9715 359.04 61.79C359.36 61.43 359.82 60.92 360.41 60.29C361.57 59.04 363.23 57.35 365.11 55.54C366.99 53.73 368.77 52.16 370.11 51.05C370.76 50.5 371.29 50.05 371.67 49.76C371.845 49.5947 372.036 49.4473 372.24 49.32Z" fill="#E0E0E0"/>
<path d="M365.75 45.74C364.314 47.3099 362.795 48.802 361.2 50.21C359.682 51.7034 358.083 53.1122 356.41 54.43C357.862 52.8746 359.394 51.396 361 50C362.508 48.4982 364.094 47.0763 365.75 45.74Z" fill="#E0E0E0"/>
<path d="M401.45 76.49C401.321 76.6775 401.17 76.8488 401 77L399.66 78.24C398.47 79.35 396.94 80.76 395.24 82.32C393.54 83.88 392.04 85.32 390.86 86.44L389.52 87.68C389.363 87.8389 389.188 87.9798 389 88.1C389 88.1 389.13 87.9 389.43 87.58C389.73 87.26 390.15 86.81 390.69 86.26C391.77 85.16 393.29 83.67 395.01 82.07C396.73 80.47 398.33 79.07 399.5 78.07C400.09 77.57 400.57 77.18 400.91 76.91C401.068 76.7437 401.25 76.6022 401.45 76.49Z" fill="#E0E0E0"/>
<path d="M409.61 79.57C409.67 79.63 405.61 83.57 400.48 88.31C395.35 93.05 391.19 96.87 391.12 96.8C391.05 96.73 395.12 92.8 400.25 88.06C405.38 83.32 409.54 79.5 409.61 79.57Z" fill="#E0E0E0"/>
<path d="M415.22 82.71C415.29 82.77 410.89 87.23 405.4 92.71C399.91 98.19 395.4 102.49 395.33 102.42C395.26 102.35 399.66 97.9 405.16 92.42C410.66 86.94 415.16 82.64 415.22 82.71Z" fill="#E0E0E0"/>
<path d="M423 377.09L423.19 376.69L423.3 376.47C423.3 376.38 423.36 376.28 423.4 376.18C423.491 375.94 423.558 375.693 423.6 375.44C423.6 375.3 423.66 375.15 423.68 374.99V374.49C423.695 374.304 423.695 374.116 423.68 373.93C423.68 373.73 423.68 373.53 423.68 373.32C423.567 372.354 423.332 371.406 422.98 370.5C421.981 368.017 420.605 365.703 418.9 363.64C416.685 360.883 414.225 358.333 411.55 356.02C408.321 353.195 404.895 350.602 401.3 348.26C397.184 345.559 392.883 343.149 388.43 341.05C386.08 339.95 383.62 338.92 381.06 337.99C378.448 337.032 375.775 336.247 373.06 335.64C370.263 334.977 367.394 334.665 364.52 334.71C363.054 334.739 361.6 334.992 360.21 335.46C359.517 335.702 358.861 336.039 358.26 336.46C357.667 336.898 357.161 337.444 356.77 338.07C356.414 338.719 356.177 339.427 356.07 340.16C355.995 340.89 356.015 341.626 356.13 342.35C356.398 343.792 356.884 345.184 357.57 346.48C358.916 349.012 360.576 351.363 362.51 353.48C364.36 355.551 366.341 357.502 368.44 359.32C370.44 361.11 372.58 362.76 374.69 364.32C378.682 367.202 382.873 369.798 387.23 372.09C391.025 374.102 394.959 375.843 399 377.3C402.329 378.505 405.759 379.409 409.25 380C411.889 380.489 414.586 380.574 417.25 380.25C418.215 380.118 419.16 379.862 420.06 379.49C420.26 379.42 420.43 379.31 420.61 379.23C420.778 379.151 420.939 379.057 421.09 378.95L421.52 378.67L421.87 378.38C422.07 378.221 422.254 378.044 422.42 377.85C422.49 377.77 422.56 377.7 422.62 377.62L422.76 377.42L423.03 377.05L422.78 377.43L422.64 377.64L422.44 377.87C422.275 378.065 422.095 378.245 421.9 378.41L421.54 378.7L421.12 378.99C420.963 379.093 420.799 379.187 420.63 379.27C420.45 379.35 420.28 379.46 420.08 379.54C419.178 379.919 418.23 380.178 417.26 380.31C414.598 380.654 411.899 380.579 409.26 380.09C405.765 379.511 402.331 378.614 399 377.41C394.955 375.959 391.018 374.221 387.22 372.21C382.854 369.926 378.657 367.332 374.66 364.45C372.55 362.92 370.45 361.27 368.39 359.45C366.285 357.631 364.301 355.677 362.45 353.6C360.494 351.466 358.814 349.094 357.45 346.54C356.76 345.227 356.271 343.818 356 342.36C355.88 341.616 355.86 340.859 355.94 340.11C356.042 339.358 356.287 338.631 356.66 337.97C357.061 337.323 357.58 336.756 358.19 336.3C358.811 335.882 359.483 335.545 360.19 335.3C361.598 334.834 363.067 334.581 364.55 334.55C367.438 334.503 370.32 334.816 373.13 335.48C375.846 336.093 378.518 336.885 381.13 337.85C383.69 338.78 386.13 339.85 388.51 340.92C392.969 343.025 397.274 345.445 401.39 348.16C404.988 350.505 408.414 353.105 411.64 355.94C414.316 358.263 416.776 360.823 418.99 363.59C420.69 365.666 422.062 367.989 423.06 370.48C423.406 371.394 423.634 372.348 423.74 373.32C423.74 373.53 423.74 373.74 423.74 373.94C423.755 374.126 423.755 374.314 423.74 374.5C423.74 374.68 423.74 374.85 423.74 375.01C423.74 375.17 423.68 375.32 423.65 375.46C423.605 375.713 423.534 375.961 423.44 376.2C423.44 376.3 423.38 376.4 423.34 376.48L423.22 376.71L423 377.09Z" fill="#E0E0E0"/>
<path d="M428.42 349.92C428.42 349.92 428.37 349.78 428.29 349.49C428.29 349.42 428.29 349.34 428.22 349.25L428.11 348.97C428.017 348.734 427.903 348.506 427.77 348.29C427.69 348.17 427.62 348.03 427.53 347.9L427.22 347.5C427.111 347.348 426.987 347.208 426.85 347.08C426.717 346.927 426.573 346.783 426.42 346.65C425.688 345.998 424.874 345.444 424 345C421.605 343.815 419.041 343.006 416.4 342.6C412.907 342.021 409.37 341.757 405.83 341.81C401.542 341.841 397.261 342.175 393.02 342.81C388.151 343.53 383.339 344.593 378.62 345.99C376.13 346.74 373.62 347.6 371.08 348.61C368.5 349.631 365.988 350.817 363.56 352.16C361.029 353.531 358.678 355.21 356.56 357.16C355.489 358.159 354.572 359.312 353.84 360.58C353.492 361.227 353.23 361.916 353.06 362.63C352.897 363.352 352.887 364.101 353.03 364.828C353.173 365.554 353.466 366.243 353.89 366.85C354.322 367.447 354.829 367.985 355.4 368.45C356.558 369.349 357.846 370.068 359.22 370.58C361.919 371.573 364.73 372.228 367.59 372.53C370.348 372.844 373.124 372.981 375.9 372.94C378.62 372.94 381.28 372.75 383.9 372.48C388.792 371.995 393.644 371.166 398.42 370C402.589 368.956 406.679 367.62 410.66 366C413.952 364.701 417.118 363.104 420.12 361.23C422.408 359.848 424.469 358.121 426.23 356.11C426.866 355.374 427.401 354.557 427.82 353.68C427.911 353.495 427.991 353.304 428.06 353.11C428.132 352.941 428.192 352.767 428.24 352.59L428.37 352.09C428.37 351.94 428.42 351.78 428.44 351.64C428.485 351.389 428.501 351.134 428.49 350.88C428.495 350.78 428.495 350.68 428.49 350.58V350.33C428.49 350.04 428.44 349.88 428.44 349.88L428.5 350.33V350.58V350.88C428.528 351.133 428.528 351.387 428.5 351.64C428.5 351.79 428.5 351.94 428.44 352.1C428.38 352.26 428.35 352.42 428.31 352.6C428.262 352.781 428.202 352.958 428.13 353.13C428.065 353.324 427.988 353.515 427.9 353.7C427.478 354.579 426.947 355.402 426.32 356.15C424.559 358.176 422.495 359.917 420.2 361.31C417.2 363.195 414.033 364.802 410.74 366.11C406.755 367.728 402.662 369.065 398.49 370.11C393.706 371.306 388.844 372.165 383.94 372.68C381.35 372.95 378.69 373.11 375.94 373.14C373.157 373.191 370.374 373.054 367.61 372.73C364.734 372.421 361.908 371.749 359.2 370.73C357.809 370.209 356.504 369.481 355.33 368.57C354.744 368.096 354.226 367.544 353.79 366.93C353.364 366.299 353.062 365.594 352.9 364.85C352.76 364.103 352.76 363.337 352.9 362.59C353.074 361.858 353.343 361.152 353.7 360.49C354.437 359.202 355.364 358.032 356.45 357.02C358.567 355.069 360.918 353.39 363.45 352.02C365.887 350.683 368.409 349.507 371 348.5C373.53 347.5 376.06 346.62 378.55 345.88C383.285 344.481 388.114 343.422 393 342.71C397.247 342.069 401.535 341.735 405.83 341.71C409.374 341.66 412.916 341.935 416.41 342.53C419.06 342.945 421.63 343.764 424.03 344.96C424.901 345.412 425.711 345.973 426.44 346.63C426.6 346.76 426.73 346.93 426.87 347.06C426.999 347.196 427.119 347.339 427.23 347.49C427.34 347.63 427.45 347.77 427.54 347.9C427.63 348.03 427.7 348.17 427.78 348.3C427.914 348.514 428.025 348.742 428.11 348.98C428.152 349.075 428.189 349.171 428.22 349.27L428.29 349.51C428.38 349.78 428.42 349.92 428.42 349.92Z" fill="#E0E0E0"/>
<path d="M408.44 321.41L408.02 321.24L407.79 321.15L407.5 321.07C407.256 320.994 407.005 320.944 406.75 320.92L406.29 320.87H405.78C405.597 320.856 405.413 320.856 405.23 320.87C405.025 320.879 404.821 320.902 404.62 320.94C403.665 321.125 402.735 321.424 401.85 321.83C399.448 323.004 397.239 324.539 395.3 326.38C392.698 328.778 390.322 331.409 388.2 334.24C385.616 337.657 383.276 341.253 381.2 345C378.785 349.289 376.677 353.744 374.89 358.33C373.96 360.75 373.09 363.28 372.34 365.89C371.57 368.556 370.969 371.268 370.54 374.01C370.074 376.849 369.963 379.734 370.21 382.6C370.329 384.056 370.666 385.485 371.21 386.84C371.504 387.515 371.887 388.147 372.35 388.72C372.834 389.279 373.417 389.743 374.07 390.09C374.735 390.407 375.455 390.593 376.19 390.64C376.926 390.67 377.663 390.6 378.38 390.43C379.792 390.065 381.141 389.488 382.38 388.72C384.82 387.198 387.061 385.377 389.05 383.3C391 381.319 392.82 379.215 394.5 377C396.14 374.83 397.64 372.62 399.02 370.42C401.616 366.236 403.915 361.876 405.9 357.37C407.645 353.451 409.112 349.415 410.29 345.29C411.269 341.891 411.938 338.41 412.29 334.89C412.6 332.224 412.499 329.526 411.99 326.89C411.793 325.936 411.474 325.012 411.04 324.14C410.95 323.958 410.85 323.781 410.74 323.61C410.651 323.444 410.547 323.287 410.43 323.14L410.12 322.74C410.02 322.61 409.91 322.51 409.81 322.4C409.639 322.213 409.448 322.046 409.24 321.9C409.15 321.83 409.08 321.76 409 321.71L408.79 321.58L408.41 321.35L408.8 321.57L409.01 321.69C409.09 321.74 409.17 321.81 409.26 321.88C409.468 322.026 409.659 322.193 409.83 322.38C409.93 322.48 410.05 322.59 410.15 322.71L410.47 323.12C410.586 323.264 410.69 323.418 410.78 323.58C410.892 323.75 410.992 323.927 411.08 324.11C411.534 324.982 411.87 325.91 412.08 326.87C412.598 329.504 412.709 332.202 412.41 334.87C412.059 338.4 411.389 341.891 410.41 345.3C409.238 349.432 407.775 353.475 406.03 357.4C404.051 361.915 401.752 366.283 399.15 370.47C397.78 372.68 396.28 374.89 394.63 377.06C392.963 379.291 391.149 381.409 389.2 383.4C387.203 385.49 384.952 387.321 382.5 388.85C381.238 389.629 379.866 390.212 378.43 390.58C377.697 390.753 376.943 390.827 376.19 390.8C375.419 390.77 374.664 390.577 373.974 390.232C373.284 389.887 372.676 389.399 372.19 388.8C371.712 388.218 371.318 387.572 371.02 386.88C370.454 385.508 370.1 384.058 369.97 382.58C369.721 379.704 369.835 376.808 370.31 373.96C370.731 371.209 371.335 368.49 372.12 365.82C372.87 363.2 373.73 360.67 374.67 358.24C376.468 353.684 378.583 349.26 381 345C383.099 341.25 385.459 337.651 388.06 334.23C390.197 331.402 392.583 328.771 395.19 326.37C397.146 324.532 399.372 323.004 401.79 321.84C402.675 321.429 403.61 321.134 404.57 320.96C404.78 320.96 404.99 320.96 405.18 320.89C405.366 320.876 405.554 320.876 405.74 320.89H406.26L406.71 320.94C406.964 320.975 407.214 321.029 407.46 321.1L407.75 321.19L407.99 321.28L408.44 321.41Z" fill="#E0E0E0"/>
<path d="M355.65 380.54C355.883 380.699 356.063 380.924 356.168 381.185C356.274 381.447 356.3 381.733 356.242 382.009C356.185 382.286 356.048 382.539 355.848 382.737C355.647 382.935 355.392 383.069 355.116 383.123C354.839 383.177 354.553 383.148 354.292 383.04C354.032 382.932 353.81 382.749 353.653 382.514C353.496 382.28 353.413 382.005 353.412 381.723C353.412 381.441 353.494 381.165 353.65 380.93C353.754 380.771 353.889 380.634 354.046 380.528C354.204 380.422 354.381 380.348 354.568 380.312C354.754 380.276 354.946 380.277 355.132 380.316C355.318 380.355 355.494 380.432 355.65 380.54Z" fill="#E0E0E0"/>
<path d="M426.08 321.45C426.136 321.727 426.108 322.015 426.001 322.277C425.893 322.539 425.71 322.763 425.475 322.92C425.24 323.078 424.963 323.162 424.68 323.163C424.397 323.163 424.121 323.079 423.885 322.923C423.65 322.766 423.466 322.542 423.357 322.281C423.249 322.019 423.221 321.732 423.276 321.454C423.331 321.176 423.467 320.921 423.667 320.721C423.867 320.521 424.122 320.385 424.4 320.33C424.771 320.256 425.157 320.333 425.471 320.543C425.786 320.753 426.005 321.079 426.08 321.45Z" fill="#E0E0E0"/>
<path d="M365.41 383.39C365.419 383.437 365.419 383.485 365.41 383.531C365.4 383.578 365.382 383.622 365.356 383.662C365.329 383.701 365.295 383.735 365.256 383.761C365.216 383.788 365.172 383.806 365.125 383.815C365.078 383.824 365.03 383.824 364.984 383.815C364.937 383.805 364.893 383.787 364.854 383.761C364.814 383.734 364.78 383.7 364.754 383.661C364.728 383.621 364.709 383.577 364.7 383.53C364.681 383.436 364.701 383.338 364.755 383.258C364.808 383.179 364.891 383.124 364.985 383.105C365.079 383.086 365.177 383.106 365.257 383.159C365.336 383.213 365.391 383.296 365.41 383.39Z" fill="#E0E0E0"/>
<path d="M365.22 342.63C365.239 342.724 365.219 342.822 365.166 342.902C365.112 342.981 365.029 343.036 364.935 343.055C364.841 343.074 364.743 343.054 364.664 343.001C364.584 342.947 364.529 342.864 364.51 342.77C364.5 342.723 364.499 342.674 364.509 342.626C364.518 342.579 364.537 342.533 364.564 342.493C364.591 342.453 364.626 342.419 364.666 342.393C364.707 342.366 364.752 342.348 364.8 342.34C364.847 342.331 364.895 342.332 364.941 342.342C364.987 342.352 365.031 342.371 365.07 342.398C365.109 342.425 365.143 342.459 365.168 342.499C365.194 342.539 365.212 342.583 365.22 342.63Z" fill="#E0E0E0"/>
<path d="M424.57 350.69C424.579 350.737 424.578 350.785 424.568 350.831C424.558 350.877 424.539 350.921 424.512 350.96C424.485 350.999 424.451 351.033 424.411 351.058C424.371 351.084 424.327 351.102 424.28 351.11C424.234 351.12 424.186 351.121 424.14 351.112C424.094 351.104 424.05 351.086 424.01 351.059C423.971 351.033 423.938 351 423.912 350.96C423.886 350.921 423.868 350.876 423.86 350.83C423.85 350.783 423.849 350.735 423.858 350.688C423.866 350.641 423.884 350.596 423.91 350.556C423.936 350.516 423.97 350.482 424.009 350.455C424.049 350.428 424.093 350.41 424.14 350.4C424.187 350.39 424.236 350.389 424.284 350.399C424.331 350.408 424.377 350.426 424.417 350.454C424.457 350.481 424.491 350.516 424.517 350.556C424.544 350.597 424.562 350.642 424.57 350.69Z" fill="#E0E0E0"/>
<path d="M426.22 333.11C426.23 333.156 426.231 333.204 426.222 333.25C426.214 333.296 426.196 333.34 426.169 333.38C426.143 333.419 426.11 333.452 426.07 333.478C426.031 333.504 425.986 333.522 425.94 333.53C425.893 333.54 425.845 333.541 425.798 333.533C425.751 333.524 425.706 333.506 425.666 333.48C425.626 333.454 425.592 333.42 425.565 333.381C425.538 333.341 425.52 333.297 425.51 333.25C425.5 333.203 425.499 333.154 425.509 333.106C425.518 333.059 425.537 333.013 425.564 332.973C425.591 332.933 425.626 332.899 425.666 332.873C425.707 332.846 425.752 332.828 425.8 332.82C425.847 332.811 425.895 332.812 425.941 332.822C425.987 332.832 426.031 332.851 426.07 332.878C426.109 332.905 426.143 332.939 426.168 332.979C426.194 333.019 426.212 333.063 426.22 333.11Z" fill="#E0E0E0"/>
<path d="M396.808 360.536C398.568 357.124 397.228 352.933 393.817 351.173C390.406 349.414 386.214 350.754 384.454 354.165C382.695 357.576 384.035 361.768 387.446 363.527C390.858 365.287 395.049 363.947 396.808 360.536Z" fill="#E0E0E0"/>
<path d="M345.64 134.81C342.609 126.855 337.965 119.613 332 113.54C321.69 103 309.94 93.69 296.65 87.15C283.36 80.61 261.65 74.81 245.88 74.9C237.72 74.58 233.6 75.09 226.18 77.96C221.55 79.75 217.66 83.88 217.34 88.77C217.04 93.3 219.84 98.87 223.58 101.51C239.66 112.85 251.84 113.44 267.44 118.43C283.04 123.42 299.08 130.81 307.49 144.69C312.06 152.21 314.66 161.85 322.58 165.84C330.26 169.72 340.38 165.96 345.09 158.84C349.8 151.72 348.68 142.76 345.64 134.81Z" fill="#F5F5F5"/>
<path d="M131.84 277.09C131.84 277.09 131.45 277.32 130.67 277.74C129.89 278.16 128.74 278.74 127.26 279.64C122.906 282.115 118.705 284.85 114.68 287.83C108.292 292.516 102.35 297.782 96.93 303.56C93.5502 307.17 90.3784 310.97 87.43 314.94C84.0948 319.365 81.2042 324.108 78.8 329.1C77.5406 331.797 76.4681 334.576 75.59 337.42C74.7067 340.396 74.1106 343.45 73.81 346.54C73.532 349.761 73.7036 353.006 74.32 356.18C74.6413 357.818 75.0859 359.429 75.65 361C76.2424 362.58 76.9579 364.112 77.79 365.58C81.4145 371.661 86.5915 376.669 92.79 380.09C99.3892 383.67 106.57 386.053 114 387.13C117.8 387.76 121.67 388.19 125.61 388.49C127.61 388.66 129.61 388.72 131.55 388.81L137.55 389.07C139.55 389.2 141.55 389.15 143.63 389.15H149.77C151.83 389.15 153.9 389.01 155.97 388.94L162.23 388.65C179.508 387.512 196.66 384.937 213.51 380.95C248.21 372.89 279.92 360.33 307.84 347.3C321.84 340.83 334.91 334.07 345.93 325.91C351.264 322.004 356.18 317.557 360.6 312.64L362.16 310.86C362.67 310.27 363.16 309.63 363.62 309.03L365.05 307.2L366.36 305.31C368.11 302.903 369.607 300.323 370.83 297.61C373.206 292.615 374.403 287.141 374.33 281.61C374.234 276.647 372.253 271.906 368.79 268.35C365.65 265.397 361.703 263.444 357.45 262.74C353.891 262.108 350.249 262.108 346.69 262.74C343.846 263.24 341.049 263.979 338.33 264.95C335.96 265.77 334 266.58 332.41 267.25L328.82 268.79L327.6 269.31L328.8 268.74C329.6 268.38 330.8 267.83 332.37 267.15C333.94 266.47 335.91 265.64 338.28 264.8C341.001 263.81 343.801 263.054 346.65 262.54C350.235 261.88 353.909 261.863 357.5 262.49C361.804 263.173 365.808 265.123 369 268.09C372.534 271.692 374.561 276.505 374.67 281.55C374.767 287.148 373.569 292.692 371.17 297.75C369.949 300.488 368.448 303.092 366.69 305.52L365.38 307.42L364 309.26C363.51 309.87 363.05 310.51 362.53 311.11L360.97 312.9C356.54 317.843 351.611 322.313 346.26 326.24C335.21 334.45 322.1 341.24 308.12 347.72C280.19 360.79 248.45 373.37 213.7 381.45C178.95 389.53 144.61 391.83 113.98 387.6C106.501 386.499 99.2758 384.082 92.64 380.46C86.3662 376.997 81.1269 371.927 77.46 365.77C76.6117 364.281 75.886 362.726 75.29 361.12C74.7227 359.536 74.2747 357.911 73.95 356.26C73.3323 353.049 73.164 349.767 73.45 346.51C73.7587 343.393 74.3648 340.312 75.26 337.31C76.1497 334.449 77.2356 331.652 78.51 328.94C80.9315 323.93 83.8459 319.173 87.21 314.74C94.9228 304.384 104.157 295.254 114.6 287.66C118.644 284.696 122.869 281.988 127.25 279.55C130.21 277.87 131.84 277.09 131.84 277.09Z" fill="#E0E0E0"/>
<path d="M422.24 188.57L409.73 234.57L371.73 245.07C371.113 245.277 370.594 245.705 370.275 246.272C369.955 246.839 369.857 247.505 370 248.14L411.58 237.45L413 237L462.29 223.8L467.8 202L474.91 176.4C475.053 176.066 475.102 175.699 475.052 175.339C475.003 174.979 474.856 174.64 474.627 174.357C474.399 174.074 474.098 173.859 473.757 173.735C473.416 173.61 473.047 173.581 472.69 173.65L423.56 187.14C423.234 187.241 422.94 187.426 422.708 187.678C422.476 187.929 422.315 188.237 422.24 188.57Z" fill="#EBEBEB"/>
<path d="M424.8 190.06L413.42 231.98L458.08 219.72L468.07 178.4L424.8 190.06Z" fill="#FAFAFA"/>
<path d="M472.69 173.65C472.703 173.729 472.703 173.811 472.69 173.89C472.64 174.08 472.59 174.31 472.53 174.6C472.37 175.25 472.15 176.16 471.88 177.31C471.28 179.7 470.43 183.11 469.38 187.31C467.21 195.85 464.2 207.69 460.79 221.06V221.21H460.64L453.49 223.14L415 233.41L403.32 236.46L400.14 237.27L399.31 237.46L399.02 237.51C399.106 237.467 399.197 237.434 399.29 237.41L400.11 237.17L403.27 236.27L414.9 233.05L453.35 222.63L460.51 220.71L460.32 220.9C463.79 207.54 466.86 195.71 469.08 187.19C470.19 182.97 471.08 179.58 471.73 177.19C472.04 176.05 472.29 175.19 472.47 174.5C472.55 174.22 472.61 173.99 472.67 173.81C472.73 173.63 472.69 173.65 472.69 173.65Z" fill="#E0E0E0"/>
<g opacity="0.3">
<path d="M118.06 351.07C117.523 351.359 116.912 351.482 116.305 351.423C115.699 351.365 115.123 351.127 114.651 350.741C114.179 350.355 113.832 349.838 113.655 349.254C113.477 348.671 113.477 348.048 113.654 347.465C113.83 346.881 114.176 346.363 114.648 345.976C115.119 345.59 115.694 345.351 116.301 345.292C116.908 345.233 117.519 345.355 118.056 345.643C118.594 345.931 119.033 346.372 119.32 346.91C119.703 347.629 119.785 348.471 119.549 349.25C119.313 350.03 118.777 350.684 118.06 351.07Z" fill="white"/>
</g>
<g opacity="0.3">
<path d="M123.83 343C123.517 343.165 123.163 343.234 122.811 343.198C122.46 343.162 122.127 343.023 121.854 342.798C121.581 342.573 121.381 342.272 121.279 341.934C121.177 341.595 121.178 341.234 121.281 340.896C121.384 340.558 121.585 340.258 121.858 340.034C122.131 339.809 122.465 339.671 122.817 339.636C123.169 339.601 123.523 339.671 123.835 339.838C124.147 340.004 124.403 340.259 124.57 340.57C124.79 340.991 124.836 341.482 124.698 341.937C124.559 342.391 124.248 342.773 123.83 343Z" fill="white"/>
</g>
<g opacity="0.3">
<path d="M131.23 335C131.14 335.22 129.58 334.61 126.97 334.36C123.607 333.989 120.209 334.609 117.194 336.144C114.179 337.679 111.678 340.062 110 343C108.67 345.26 108.25 346.88 108 346.82C107.75 346.76 107.89 345.05 109.06 342.52C109.755 341.041 110.668 339.676 111.77 338.47C113.122 336.976 114.731 335.736 116.52 334.81C118.321 333.909 120.268 333.333 122.27 333.11C123.894 332.928 125.536 332.992 127.14 333.3C129.85 333.88 131.3 334.86 131.23 335Z" fill="white"/>
</g>
<g opacity="0.3">
<path d="M80.6 99.6C80.6 99.66 80.12 99.49 79.6 98.86C78.8874 97.909 78.511 96.7482 78.53 95.56C78.5259 94.7414 78.6681 93.9286 78.95 93.16C79.2684 92.2986 79.7024 91.4845 80.24 90.74C81.4853 89.1428 82.842 87.6357 84.3 86.23C90.23 80.16 95.24 75.45 95.51 75.71C95.78 75.97 91.18 81.09 85.25 87.16C83.8407 88.5207 82.5054 89.9561 81.25 91.46C80.7467 92.1101 80.3236 92.8186 79.99 93.57C79.719 94.2062 79.5502 94.8812 79.49 95.57C79.3927 96.6027 79.5867 97.642 80.05 98.57C80.36 99.21 80.67 99.52 80.6 99.6Z" fill="white"/>
</g>
<path d="M107.31 86.34C107.065 86.347 106.82 86.3269 106.58 86.28C106.11 86.28 105.44 86.13 104.58 85.96C103.6 85.7527 102.652 85.4164 101.76 84.96C101.234 84.683 100.741 84.3476 100.29 83.96C99.8194 83.5506 99.3876 83.0987 99 82.61C98.22 81.61 97.61 80.51 97 79.61C96.4504 78.8101 95.775 78.1043 95 77.52C94.4722 77.1286 93.8698 76.8496 93.23 76.7C92.78 76.6 92.52 76.6 92.52 76.57C92.52 76.54 92.58 76.57 92.71 76.57C92.8899 76.5589 93.0702 76.5589 93.25 76.57C93.9191 76.6926 94.5536 76.9587 95.11 77.35C95.9287 77.9237 96.6424 78.6341 97.22 79.45C97.89 80.34 98.51 81.45 99.28 82.45C99.6458 82.9445 100.061 83.4002 100.52 83.81C100.948 84.1985 101.422 84.5343 101.93 84.81C102.799 85.2535 103.719 85.5893 104.67 85.81C105.49 86 106.16 86.12 106.62 86.21C106.852 86.2396 107.083 86.283 107.31 86.34Z" fill="#FAFAFA"/>
<path d="M143.54 46.9C143.095 44.9139 142.005 43.1311 140.44 41.83C137.934 39.3322 134.711 37.6787 131.22 37.1C129.365 36.8439 127.476 36.9689 125.671 37.4676C123.866 37.9662 122.181 38.8279 120.72 40C119.311 41.1238 118.156 42.5339 117.332 44.137C116.508 45.7402 116.034 47.4999 115.94 49.3C115.6 51.66 118.06 53.65 120.43 53.77C122.8 53.89 125.04 52.77 127.17 51.7C129.3 50.63 131.65 49.64 133.99 50.08C136.33 50.52 138.59 52.42 140.9 51.73C142.83 51.2 143.85 48.89 143.54 46.9Z" fill="#F5F5F5"/>
<path d="M159.23 43C159.09 41.15 157.66 38.22 154.23 38.65C152.83 38.65 151.32 40.38 150.96 41.74C150.798 42.4247 150.827 43.1409 151.046 43.8096C151.265 44.4784 151.664 45.0738 152.2 45.53C152.751 45.9802 153.399 46.2982 154.092 46.4594C154.785 46.6206 155.507 46.6208 156.2 46.46C157.83 46.11 159.36 44.67 159.23 43Z" fill="#F5F5F5"/>
<path d="M29.15 192.48L28.63 193.87C28.4712 194.301 28.4043 194.76 28.4336 195.218C28.4629 195.676 28.5877 196.123 28.8 196.53L57.09 250.68C57.2958 251.074 57.579 251.422 57.9227 251.704C58.2663 251.986 58.6634 252.195 59.09 252.32L60.69 252.75C61.0508 252.851 61.4264 252.888 61.8 252.86L94.8 250.26C95.5879 250.196 96.3259 249.849 96.8774 249.282C97.4289 248.716 97.7567 247.969 97.8 247.18C97.831 246.583 97.6997 245.988 97.42 245.46L67.42 189.52C67.1191 188.961 66.662 188.502 66.1044 188.198C65.5468 187.894 64.9129 187.759 64.28 187.81L32 190.36C31.3712 190.401 30.7677 190.623 30.2621 190.999C29.7565 191.375 29.3703 191.89 29.15 192.48Z" fill="#E0E0E0"/>
<path d="M31.22 191.71L61.24 247.83L95.25 245.15L65.46 189.02L31.22 191.71Z" fill="#FAFAFA"/>
<path d="M64.7 234.29C65.6114 233.919 66.6121 233.824 67.5768 234.019C68.5415 234.214 69.4272 234.689 70.123 235.385C70.8189 236.081 71.2938 236.967 71.4884 237.932C71.6829 238.897 71.5884 239.897 71.2168 240.809C70.8451 241.72 70.2128 242.501 69.399 243.055C68.5852 243.608 67.6262 243.909 66.6421 243.92C65.658 243.931 64.6926 243.651 63.8668 243.116C63.041 242.58 62.3917 241.813 62 240.91C61.735 240.299 61.5947 239.641 61.5873 238.975C61.58 238.309 61.7058 237.649 61.9573 237.032C62.2088 236.415 62.581 235.855 63.052 235.384C63.523 234.913 64.0833 234.541 64.7 234.29Z" fill="#E0E0E0"/>
<path d="M66.73 236.57L66.6 237.48C66.5897 237.534 66.5992 237.59 66.6268 237.638C66.6543 237.686 66.698 237.722 66.75 237.74L66.92 237.81C66.92 237.81 67.23 237.9 67.13 238.18C67.03 238.46 66.55 239.63 66.55 239.63C66.55 239.63 66.42 239.97 66.17 239.85L65.92 239.75C65.8761 239.735 65.8288 239.734 65.7842 239.746C65.7396 239.759 65.6998 239.785 65.67 239.82L65.04 240.61C65.0067 240.651 64.9886 240.702 64.9886 240.755C64.9886 240.808 65.0067 240.859 65.04 240.9L65.28 241.12C65.319 241.167 65.3712 241.202 65.43 241.22C65.5867 241.266 65.7533 241.266 65.91 241.22C66.3467 240.966 66.727 240.626 67.0279 240.22C67.3288 239.814 67.5438 239.352 67.66 238.86C68.2 237.29 67.66 236.7 67.57 236.55C67.4594 236.432 67.3105 236.358 67.15 236.34H67C66.9672 236.337 66.9341 236.341 66.9027 236.351C66.8713 236.361 66.8423 236.377 66.8172 236.399C66.7921 236.42 66.7715 236.446 66.7565 236.476C66.7415 236.505 66.7325 236.537 66.73 236.57Z" fill="white"/>
<path d="M77.9 240.71C77.1578 240.063 76.6232 239.211 76.3631 238.262C76.1031 237.312 76.1292 236.307 76.4383 235.372C76.7473 234.437 77.3254 233.614 78.1002 233.007C78.875 232.399 79.812 232.034 80.7936 231.956C81.7751 231.879 82.7577 232.094 83.6179 232.573C84.4782 233.052 85.1779 233.774 85.6293 234.649C86.0806 235.524 86.2636 236.513 86.1552 237.491C86.0468 238.47 85.6519 239.395 85.02 240.15C84.5932 240.66 84.0689 241.08 83.4778 241.385C82.8867 241.69 82.2407 241.874 81.5777 241.926C80.9146 241.978 80.2478 241.897 79.6163 241.688C78.9849 241.48 78.4014 241.147 77.9 240.71Z" fill="#E0E0E0"/>
<path d="M79 237.88L79.88 237.59C79.9327 237.574 79.9784 237.541 80.0093 237.495C80.0403 237.45 80.0547 237.395 80.05 237.34V237.16C80.0412 237.121 80.0402 237.081 80.047 237.042C80.0538 237.003 80.0683 236.965 80.0897 236.932C80.1111 236.898 80.139 236.869 80.1716 236.847C80.2043 236.824 80.2411 236.808 80.28 236.8C80.49 236.8 81.84 236.68 81.84 236.68C81.84 236.68 82.2 236.68 82.21 236.93V237.19C82.2136 237.236 82.2322 237.279 82.2629 237.314C82.2936 237.348 82.3348 237.371 82.38 237.38L83.38 237.6C83.4315 237.61 83.4851 237.602 83.5309 237.576C83.5768 237.551 83.6119 237.509 83.63 237.46L83.73 237.15C83.7448 237.091 83.7448 237.029 83.73 236.97C83.6988 236.813 83.6302 236.665 83.53 236.54C83.1085 236.258 82.6337 236.066 82.1349 235.975C81.6361 235.883 81.124 235.895 80.63 236.01C78.99 236.22 78.63 236.95 78.63 237.12C78.5804 237.273 78.5804 237.437 78.63 237.59L78.72 237.75C78.7454 237.8 78.7868 237.84 78.8376 237.863C78.8883 237.887 78.9455 237.893 79 237.88Z" fill="white"/>
<path d="M63.38 212.67C64.65 211.78 65.03 209.99 64.16 208.07C63.03 205.56 60.16 203.8 57.82 204.13C55.48 204.46 54.47 206.78 55.61 209.28C56.052 210.228 56.7009 211.066 57.5091 211.73C58.3172 212.395 59.2641 212.87 60.28 213.12C54.17 215.12 57.75 222.12 57.75 222.12L74.49 220.81C74.49 220.81 70.33 212.69 63.38 212.67Z" fill="#EBEBEB"/>
<path d="M83.13 226.52C83.13 226.79 77.13 227.47 69.68 228.06C62.23 228.65 56.17 228.91 56.15 228.65C56.13 228.39 62.15 227.65 69.6 227.11C77.05 226.57 83.11 226.26 83.13 226.52Z" fill="#EBEBEB"/>
<path d="M91.12 418.38L92.21 420.2C93.4318 422.264 95.2236 423.93 97.37 425L99.28 425.94L97.46 427C95.4124 428.226 93.7629 430.018 92.71 432.16L91.76 434.06L90.67 432.24C89.4381 430.197 87.6477 428.549 85.51 427.49L83.6 426.55L85.43 425.45C87.4701 424.219 89.1177 422.433 90.18 420.3L91.12 418.38Z" fill="#EBEBEB"/>
<path d="M443.85 60.61L444.94 62.43C446.172 64.4729 447.962 66.1211 450.1 67.18L452 68.12L450.18 69.21C448.137 70.4419 446.489 72.2323 445.43 74.37L444.49 76.28L443.4 74.46C442.174 72.4124 440.382 70.7628 438.24 69.71L436.33 68.77L438.15 67.67C440.198 66.4438 441.847 64.6519 442.9 62.51L443.85 60.61Z" fill="#EBEBEB"/>
<path d="M456.38 88.86L457.33 90.44C458.4 92.2153 459.954 93.6481 461.81 94.57L463.47 95.39L461.89 96.39C460.112 97.4604 458.678 99.0188 457.76 100.88L456.94 102.53L456 100.9C454.93 99.1219 453.371 97.6884 451.51 96.77L449.85 96L451.43 95C453.205 93.9305 454.638 92.3762 455.56 90.52L456.38 88.86Z" fill="#EBEBEB"/>
<path d="M70 397.81L70.77 399.1C71.6406 400.546 72.9073 401.712 74.42 402.46L75.77 403.13L74.48 403.9C73.0342 404.771 71.8682 406.037 71.12 407.55L70.45 408.9L69.68 407.61C68.7988 406.162 67.5219 404.996 66 404.25L64.65 403.58L65.94 402.81C67.3858 401.939 68.5518 400.673 69.3 399.16L70 397.81Z" fill="#EBEBEB"/>
<path d="M400.79 411.93L401.57 413.22C402.435 414.671 403.703 415.838 405.22 416.58L406.56 417.25L405.27 418.03C403.827 418.9 402.662 420.162 401.91 421.67L401.25 423.02L400.47 421.73C399.599 420.284 398.333 419.118 396.82 418.37L395.47 417.71L396.76 416.93C398.211 416.065 399.378 414.797 400.12 413.28L400.79 411.93Z" fill="#EBEBEB"/>
<path d="M60.33 43.23L61.1 44.52C61.9706 45.9658 63.2373 47.1318 64.75 47.88L66.1 48.55L64.81 49.32C63.3599 50.1986 62.1935 51.4762 61.45 53L60.78 54.35L60 53C59.1269 51.5563 57.8609 50.3909 56.35 49.64L55 49L56.29 48.22C57.7337 47.3468 58.8991 46.0809 59.65 44.57L60.33 43.23Z" fill="#EBEBEB"/>
<path d="M444.71 278.62L445.49 279.91C446.358 281.358 447.625 282.525 449.14 283.27L450.49 283.94L449.2 284.71C447.752 285.577 446.585 286.845 445.84 288.36L445.17 289.71L444.39 288.42C443.52 286.977 442.258 285.812 440.75 285.06L439.4 284.4L440.69 283.62C442.134 282.747 443.299 281.481 444.05 279.97L444.71 278.62Z" fill="#EBEBEB"/>
<path d="M57 136.16L57.78 137.44C58.6448 138.891 59.913 140.058 61.43 140.8L62.77 141.47L61.49 142.25C60.0395 143.115 58.872 144.383 58.13 145.9L57.46 147.24L56.71 146C55.8395 144.554 54.5728 143.388 53.06 142.64L51.72 141.98L53 141.2C54.451 140.333 55.621 139.065 56.37 137.55L57 136.16Z" fill="#EBEBEB"/>
<path d="M457.88 463C457.88 463.14 369.14 463.26 259.71 463.26C150.28 463.26 61.52 463.11 61.52 463C61.52 462.89 150.23 462.74 259.71 462.74C369.19 462.74 457.88 462.82 457.88 463Z" fill="#263238"/>
<path d="M109.78 152.59L110.5 153.79C111.307 155.134 112.484 156.217 113.89 156.91L115.15 157.53L113.95 158.26C112.603 159.067 111.517 160.243 110.82 161.65L110.2 162.9L109.48 161.71C108.67 160.363 107.49 159.276 106.08 158.58L104.83 157.96L106.03 157.24C107.374 156.429 108.457 155.249 109.15 153.84L109.78 152.59Z" fill="#6A3093"/>
<path d="M369.35 284.28L370.07 285.48C370.879 286.825 372.055 287.91 373.46 288.61L374.72 289.23L373.52 289.95C372.173 290.76 371.086 291.94 370.39 293.35L369.77 294.6L369.05 293.4C368.238 292.058 367.062 290.973 365.66 290.27L364.4 289.65L365.6 288.93C366.947 288.123 368.033 286.947 368.73 285.54L369.35 284.28Z" fill="#6A3093"/>
<path d="M228.36 37L229.08 38.2C229.887 39.5467 231.063 40.6331 232.47 41.33L233.73 41.95L232.53 42.67C231.194 43.4631 230.109 44.6174 229.4 46L228.78 47.26L228.06 46.06C227.25 44.7126 226.07 43.6263 224.66 42.93L223.41 42.31L224.61 41.59C225.952 40.7805 227.034 39.6043 227.73 38.2L228.36 37Z" fill="#6A3093"/>
<path d="M397.14 150L397.86 151.2C398.67 152.547 399.85 153.634 401.26 154.33L402.51 154.95L401.31 155.67C399.968 156.479 398.886 157.656 398.19 159.06L397.57 160.32L396.85 159.12C396.04 157.773 394.86 156.686 393.45 155.99L392.2 155.37L393.39 154.65C394.735 153.841 395.82 152.665 396.52 151.26L397.14 150Z" fill="#6A3093"/>
<path d="M137.12 198.8L137.64 199.67C138.232 200.651 139.093 201.442 140.12 201.95L141.04 202.4L140.16 202.93C139.179 203.522 138.388 204.383 137.88 205.41L137.43 206.32L136.9 205.45C136.308 204.469 135.447 203.678 134.42 203.17L133.51 202.72L134.38 202.19C135.364 201.601 136.156 200.74 136.66 199.71L137.12 198.8Z" fill="#6A3093"/>
<path d="M161 310.86L161.53 311.74C162.122 312.712 162.979 313.496 164 314L164.92 314.45L164.04 314.98C163.059 315.572 162.268 316.433 161.76 317.46L161.31 318.37L160.78 317.5C160.191 316.52 159.334 315.729 158.31 315.22L157.39 314.76L158.27 314.24C159.251 313.648 160.042 312.787 160.55 311.76L161 310.86Z" fill="#6A3093"/>
<path d="M389.3 116L389.82 116.87C390.409 117.854 391.27 118.646 392.3 119.15L393.22 119.61L392.34 120.13C391.359 120.722 390.568 121.583 390.06 122.61L389.61 123.53L389.08 122.65C388.488 121.669 387.627 120.878 386.6 120.37L385.69 119.92L386.56 119.39C387.544 118.801 388.336 117.94 388.84 116.91L389.3 116Z" fill="#6A3093"/>
<path d="M90.3 175.16L90.82 176.03C91.4105 177.015 92.2712 177.81 93.3 178.32L94.22 178.77L93.34 179.29C92.363 179.887 91.573 180.746 91.06 181.77L90.61 182.69L90.08 181.81C89.488 180.829 88.6274 180.038 87.6 179.53L86.69 179.08L87.56 178.55C88.5438 177.961 89.3357 177.1 89.84 176.07L90.3 175.16Z" fill="#6A3093"/>
<path d="M414.58 121.42L414.88 121.92C415.22 122.48 415.712 122.931 416.3 123.22L416.83 123.48L416.33 123.78C415.757 124.113 415.295 124.607 415 125.2L414.74 125.73L414.44 125.23C414.104 124.665 413.61 124.21 413.02 123.92L412.5 123.66L413 123.36C413.56 123.02 414.011 122.528 414.3 121.94L414.58 121.42Z" fill="#6A3093"/>
<path d="M395.89 265.38L396.19 265.89C396.53 266.45 397.022 266.901 397.61 267.19L398.13 267.45L397.63 267.75C397.067 268.089 396.613 268.582 396.32 269.17L396.06 269.7L395.76 269.19C395.42 268.63 394.928 268.179 394.34 267.89L393.82 267.63L394.32 267.33C394.883 266.991 395.337 266.498 395.63 265.91L395.89 265.38Z" fill="#6A3093"/>
<path d="M266.57 25.73L266.87 26.23C267.21 26.79 267.702 27.2411 268.29 27.53L268.82 27.79L268.32 28.1C267.751 28.4307 267.293 28.9209 267 29.51L266.74 30.04L266.44 29.54C266.096 28.9742 265.596 28.5194 265 28.23L264.5 28L265.01 27.7C265.57 27.3605 266.021 26.8677 266.31 26.28L266.57 25.73Z" fill="#6A3093"/>
<path d="M209.3 51.26L209.6 51.76C209.934 52.3202 210.419 52.7744 211 53.07L211.52 53.33L211.02 53.63C210.46 53.9695 210.009 54.4623 209.72 55.05L209.46 55.57L209.15 55.07C208.815 54.5074 208.326 54.0527 207.74 53.76L207.21 53.5L207.71 53.2C208.268 52.8607 208.716 52.3677 209 51.78L209.3 51.26Z" fill="#6A3093"/>
<path d="M167.44 324L167.74 324.5C168.079 325.063 168.572 325.517 169.16 325.81L169.68 326.07L169.18 326.37C168.62 326.71 168.169 327.202 167.88 327.79L167.62 328.31L167.32 327.81C166.979 327.249 166.487 326.795 165.9 326.5L165.37 326.24L165.87 325.94C166.435 325.604 166.89 325.11 167.18 324.52L167.44 324Z" fill="#6A3093"/>
<path d="M314.58 397.83L190.58 397.54C185.44 397.54 181.28 393.91 181.29 389.46C181.29 385.02 185.48 381.46 190.62 381.46L314.62 381.75C319.76 381.75 323.91 385.37 323.9 389.82C323.89 394.24 319.72 397.84 314.58 397.83Z" fill="#455A64"/>
<path d="M314.58 378.27L190.58 377.99C185.44 377.99 181.28 374.36 181.29 369.91C181.29 365.46 185.48 361.91 190.62 361.91L314.62 362.19C319.76 362.19 323.91 365.82 323.9 370.27C323.89 374.69 319.72 378.28 314.58 378.27Z" fill="#455A64"/>
<path d="M309.6 400.75L196.08 400.49C193.926 400.638 191.909 401.598 190.436 403.175C188.963 404.753 188.143 406.831 188.143 408.99C188.143 411.149 188.963 413.227 190.436 414.805C191.909 416.382 193.926 417.342 196.08 417.49H208.54L225 449.06C225.928 450.824 227.318 452.303 229.021 453.339C230.724 454.375 232.677 454.928 234.67 454.94L275.24 455.03C277.255 455.036 279.233 454.486 280.955 453.44C282.677 452.393 284.077 450.891 285 449.1L301.14 417.77H309.61C311.764 417.622 313.781 416.662 315.254 415.085C316.727 413.507 317.547 411.429 317.547 409.27C317.547 407.111 316.727 405.033 315.254 403.455C313.781 401.878 311.764 400.918 309.61 400.77L309.6 400.75Z" fill="#455A64"/>
<path d="M348.59 268.67C348.59 268.67 348.28 269.15 347.67 270.04L344.97 274.04L343 277C342.28 278.09 341.57 279.34 340.75 280.66L338.15 284.96C337.2 286.48 336.38 288.21 335.4 289.96C334.92 290.86 334.4 291.78 333.92 292.72C333.67 293.2 333.42 293.72 333.16 294.16C332.9 294.6 332.69 295.16 332.45 295.67C331.45 297.72 330.45 299.86 329.45 302.11L326.51 309.3C325.58 311.83 324.66 314.49 323.71 317.24C321.784 323.172 320.212 329.212 319 335.33C317.633 342.229 316.963 349.247 317 356.28V356.45H316.84L184.49 356.52H184.28V356.31C182.89 340.82 178.851 325.684 172.34 311.56C168.931 304.069 164.998 296.828 160.57 289.89C158.33 286.36 155.95 282.89 153.42 279.48C150.89 276.07 148.13 272.82 145.42 269.48L145.09 269.08H145.62L145.43 269.48C133.033 253.539 124.573 234.897 120.74 215.07C120.2 212.53 119.87 209.95 119.47 207.37C119.31 206.07 119.19 204.77 119.05 203.47L118.85 201.47L118.72 199.47C118.65 198.16 118.53 196.85 118.49 195.53C118.45 194.21 118.49 192.89 118.41 191.53C118.33 190.17 118.41 188.89 118.41 187.53C118.41 186.17 118.41 184.87 118.53 183.53C119.135 172.8 121.05 162.185 124.23 151.92C133.462 122.97 152.618 98.2087 178.32 82C184.443 78.1415 190.875 74.7967 197.55 72C204.105 69.274 210.879 67.1096 217.8 65.53C231.213 62.4399 245.034 61.5115 258.74 62.78C265.333 63.4044 271.871 64.5174 278.3 66.11C284.546 67.7185 290.671 69.7635 296.63 72.23C302.382 74.7065 307.964 77.5593 313.34 80.77C318.507 83.9469 323.461 87.4577 328.17 91.28C337.072 98.5968 344.958 107.068 351.62 116.47C357.777 125.136 362.817 134.543 366.62 144.47C367.62 146.81 368.31 149.21 369.13 151.55C369.95 153.89 370.49 156.27 371.13 158.55C371.66 160.91 372.24 163.22 372.7 165.55C372.9 166.71 373.11 167.85 373.31 168.99C373.51 170.13 373.73 171.26 373.85 172.4C375.083 180.904 375.469 189.51 375 198.09C374.185 211.871 371.146 225.43 366 238.24C364.116 242.893 361.973 247.437 359.58 251.85C357.46 255.67 355.52 258.85 353.86 261.29L351.65 264.54L349.95 266.81L348.56 268.67L349.9 266.81L351.58 264.5L353.78 261.23C355.42 258.75 357.34 255.6 359.44 251.78C361.813 247.361 363.939 242.814 365.81 238.16C374.066 217.29 376.731 194.626 373.54 172.41C373.42 171.27 373.2 170.15 373 169.01C372.8 167.87 372.59 166.73 372.38 165.58C371.93 163.28 371.38 160.98 370.81 158.58C370.24 156.18 369.53 153.91 368.81 151.58C368.09 149.25 367.29 146.85 366.3 144.52C362.497 134.631 357.457 125.263 351.3 116.64C344.646 107.289 336.777 98.865 327.9 91.59C323.198 87.7921 318.258 84.2983 313.11 81.13C307.752 77.9319 302.186 75.0956 296.45 72.64C290.513 70.185 284.412 68.15 278.19 66.55C271.782 64.9593 265.264 63.8528 258.69 63.24C245.036 61.9799 231.269 62.9117 217.91 66C211.016 67.5729 204.268 69.7307 197.74 72.45C191.091 75.2484 184.686 78.5932 178.59 82.45C152.958 98.65 133.881 123.392 124.73 152.3C121.561 162.526 119.654 173.101 119.05 183.79C118.98 185.11 118.97 186.43 118.93 187.79C118.89 189.15 118.82 190.42 118.88 191.74C118.94 193.06 118.93 194.37 118.96 195.68C118.99 196.99 119.11 198.3 119.19 199.6L119.31 201.6L119.51 203.6C119.65 204.89 119.78 206.19 119.94 207.48C120.33 210.05 120.66 212.62 121.19 215.15C125.005 234.899 133.427 253.469 145.77 269.35L146.09 269.76H145.57L145.77 269.35C148.5 272.66 151.31 275.9 153.77 279.35C156.23 282.8 158.69 286.26 160.93 289.8C165.374 296.752 169.314 304.014 172.72 311.53C179.262 325.703 183.321 340.893 184.72 356.44L184.5 356.23L316.85 356.3L316.69 356.47C316.672 349.419 317.362 342.383 318.75 335.47C319.955 329.337 321.518 323.28 323.43 317.33C324.43 314.58 325.32 311.92 326.26 309.39C327.2 306.86 328.26 304.49 329.26 302.19C330.26 299.89 331.33 297.8 332.26 295.76L332.97 294.25L333.74 292.81C334.25 291.87 334.74 290.95 335.23 290.05C336.23 288.28 337.05 286.55 338 285.05L340.62 280.76C341.44 279.44 342.16 278.19 342.89 277.11C343.62 276.03 344.3 275.05 344.89 274.18L347.63 270.18L348.63 268.83L348.59 268.67Z" fill="#263238"/>
<path d="M136.73 233.6C136.679 233.513 136.642 233.418 136.62 233.32C136.54 233.1 136.45 232.82 136.33 232.47C136.07 231.69 135.72 230.6 135.27 229.21L134.51 226.85C134.26 225.98 134.04 225.02 133.78 224C133.28 221.94 132.61 219.62 132.18 217C131.94 215.69 131.69 214.32 131.42 212.89C131.15 211.46 131.03 209.95 130.82 208.39C130.35 205.29 130.2 201.95 129.97 198.39C129.672 190.749 130.006 183.096 130.97 175.51C132.052 167.94 133.754 160.471 136.06 153.18C137.22 149.85 138.26 146.67 139.54 143.8C140.16 142.36 140.69 140.94 141.32 139.63L143.15 135.87C144.26 133.45 145.53 131.39 146.55 129.54C147.08 128.63 147.55 127.76 148.02 126.99L149.38 124.91L151.27 122.05L151.77 121.32C151.89 121.15 151.95 121.07 151.96 121.08C151.97 121.09 151.96 121.17 151.82 121.35L151.36 122.11L149.55 125.02L148.23 127.11C147.77 127.89 147.32 128.77 146.81 129.69C145.81 131.55 144.56 133.61 143.48 136.04L141.68 139.8C141.07 141.11 140.55 142.53 139.94 143.97C138.68 146.83 137.66 149.97 136.52 153.33C134.26 160.601 132.588 168.041 131.52 175.58C130.553 183.136 130.196 190.757 130.45 198.37C130.67 201.87 130.8 205.21 131.25 208.3C131.45 209.85 131.57 211.36 131.82 212.79C132.07 214.22 132.31 215.58 132.55 216.89C132.94 219.52 133.55 221.89 134.06 223.89C134.31 224.89 134.52 225.89 134.75 226.75C134.98 227.61 135.25 228.4 135.46 229.12C135.87 230.52 136.2 231.62 136.46 232.4L136.7 233.26C136.727 233.371 136.738 233.486 136.73 233.6Z" fill="#263238"/>
<path d="M174.93 99C172.753 101.218 170.457 103.314 168.05 105.28C165.756 107.381 163.341 109.348 160.82 111.17C162.999 108.951 165.299 106.854 167.71 104.89C170.003 102.791 172.414 100.825 174.93 99Z" fill="#263238"/>
<path d="M350 248.11C350 248.11 350 248.03 350.09 247.88L350.39 247.23L351.58 244.77L352.45 243C352.76 242.35 353.06 241.62 353.45 240.85C354.11 239.3 354.94 237.57 355.67 235.58L356.87 232.47C357.28 231.39 357.63 230.24 358.03 229.06C358.87 226.71 359.56 224.14 360.33 221.44C361.87 215.561 363.026 209.589 363.79 203.56C364.482 197.519 364.786 191.44 364.7 185.36C364.59 182.56 364.54 179.89 364.28 177.36C364.17 176.12 364.1 174.92 363.96 173.77C363.82 172.62 363.67 171.52 363.54 170.47C363.31 168.36 362.92 166.47 362.65 164.82C362.5 163.99 362.38 163.21 362.24 162.5C362.1 161.79 361.94 161.16 361.81 160.58L361.24 157.9C361.19 157.62 361.14 157.39 361.11 157.2C361.097 157.121 361.097 157.039 361.11 156.96C361.144 157.034 361.17 157.111 361.19 157.19C361.24 157.38 361.3 157.6 361.37 157.88C361.54 158.53 361.76 159.41 362.04 160.53L362.51 162.45C362.67 163.16 362.8 163.93 362.96 164.76C363.26 166.42 363.68 168.31 363.96 170.42L364.42 173.72C364.57 174.88 364.65 176.08 364.77 177.33C365.05 179.81 365.12 182.49 365.24 185.33C365.548 197.552 364.072 209.754 360.86 221.55C360.07 224.25 359.36 226.83 358.5 229.18C358.08 230.36 357.73 231.51 357.3 232.59L356.07 235.69C355.32 237.69 354.47 239.41 353.78 240.95C353.42 241.72 353.11 242.44 352.78 243.09L351.86 244.84L350.58 247.26L350.24 247.88C350.176 247.971 350.094 248.049 350 248.11Z" fill="#263238"/>
<path d="M308.5 125.69C301.66 121.77 294.5 118.2 286.81 116.5C285.743 116.208 284.631 116.113 283.53 116.22C282.981 116.283 282.454 116.476 281.993 116.782C281.533 117.087 281.151 117.498 280.88 117.98C280.22 119.35 280.88 120.98 281.69 122.25C283.54 125.05 286.31 127.08 289.1 128.93C296.75 134 304.96 138.13 313.1 142.25C312.1 136.41 310.02 131.4 308.45 125.69" fill="#6A3093"/>
<path d="M360.94 140.76C363.18 148.32 365.87 155.84 370.25 162.39C370.821 163.341 371.564 164.179 372.44 164.86C372.878 165.198 373.391 165.426 373.936 165.523C374.481 165.621 375.042 165.585 375.57 165.42C376.99 164.89 377.67 163.27 377.93 161.78C378.53 158.48 377.93 155.09 377.2 151.83C375.2 142.83 372.1 134.22 369.03 125.58C365.74 130.51 363.75 135.58 360.94 140.76Z" fill="#6A3093"/>
<path d="M308.4 125.53C308.4 125.53 308.93 177.88 338.31 178.91C367.69 179.94 368.92 125.91 368.92 125.53C368.92 125.53 365.45 117.73 338.66 118.03C311.87 118.33 308.4 125.53 308.4 125.53Z" fill="#6A3093"/>
<path d="M347.42 146.32C347.274 148.318 346.539 150.229 345.307 151.809C344.076 153.39 342.403 154.57 340.501 155.199C338.598 155.829 336.552 155.881 334.621 155.347C332.689 154.814 330.959 153.72 329.65 152.203C328.34 150.687 327.51 148.816 327.264 146.827C327.017 144.838 327.367 142.821 328.267 141.031C329.167 139.241 330.578 137.758 332.321 136.77C334.065 135.782 336.062 135.333 338.06 135.48C340.738 135.677 343.229 136.93 344.984 138.962C346.739 140.995 347.615 143.641 347.42 146.32Z" fill="#263238"/>
<path d="M344.68 146.12C344.573 147.576 344.037 148.967 343.14 150.118C342.242 151.269 341.023 152.128 339.638 152.587C338.252 153.045 336.761 153.082 335.354 152.694C333.947 152.305 332.687 151.508 331.733 150.403C330.78 149.298 330.175 147.935 329.996 146.486C329.816 145.038 330.071 143.569 330.727 142.265C331.382 140.961 332.41 139.88 333.68 139.16C334.95 138.44 336.404 138.113 337.86 138.22C339.811 138.366 341.625 139.279 342.903 140.76C344.181 142.241 344.82 144.169 344.68 146.12Z" fill="white"/>
<path d="M341.12 147.47C341.064 147.066 341.04 146.658 341.05 146.25C341.05 145.48 341.05 144.4 341.05 143.07L341.13 143.21L337.3 141H337.51L333.68 143.15C333.58 143.33 333.82 142.92 333.8 142.96V144.09C333.8 144.46 333.8 144.84 333.8 145.21C333.8 145.94 333.8 146.65 333.8 147.34L333.7 147.15L337.45 149.44H337.28C338.45 148.81 339.42 148.31 340.1 147.96C340.452 147.76 340.82 147.589 341.2 147.45C340.885 147.688 340.551 147.899 340.2 148.08C339.56 148.47 338.6 149.08 337.4 149.73L337.32 149.78L337.24 149.73L333.44 147.52L333.33 147.46V147.33C333.33 146.64 333.33 145.93 333.33 145.2C333.33 144.83 333.33 144.46 333.33 144.08V143C333.33 143 333.55 142.63 333.44 142.8L337.29 140.67L337.4 140.61L337.5 140.67L341.25 142.97H341.34V143.06C341.34 144.44 341.26 145.55 341.22 146.31C341.223 146.699 341.189 147.087 341.12 147.47Z" fill="#6A3093"/>
<path d="M308.27 125.49C308.27 125.49 308.33 125.49 308.43 125.49L308.87 125.64L310.58 126.24L311.8 126.68L313.29 127.14C314.35 127.46 315.55 127.87 316.92 128.14L319.05 128.68C319.79 128.87 320.57 129.01 321.38 129.18C322.98 129.55 324.73 129.8 326.55 130.1C334.509 131.245 342.591 131.245 350.55 130.1C352.38 129.81 354.12 129.56 355.72 129.19C356.53 129.01 357.31 128.87 358.05 128.69L360.18 128.14C361.55 127.82 362.75 127.41 363.82 127.14C364.35 126.98 364.82 126.84 365.3 126.69L366.53 126.25L368.23 125.65L368.67 125.5L368.83 125.45C368.83 125.45 368.78 125.45 368.68 125.52L368.24 125.69L366.55 126.32L365.33 126.78C364.88 126.94 364.33 127.08 363.85 127.26C362.79 127.58 361.59 128 360.22 128.33L358.09 128.89C357.35 129.08 356.57 129.23 355.76 129.41C354.15 129.78 352.41 130.04 350.58 130.34C342.6 131.513 334.49 131.513 326.51 130.34C324.67 130.04 322.93 129.78 321.32 129.4C320.52 129.23 319.73 129.08 318.99 128.89L316.86 128.33C315.49 128 314.3 127.58 313.23 127.25L311.75 126.78L310.53 126.32L308.84 125.68L308.4 125.51L308.27 125.49Z" fill="#263238"/>
<g opacity="0.3">
<path d="M308.4 125.53C308.4 125.53 311.87 118.34 338.66 118.03C365.45 117.72 368.92 125.53 368.92 125.53C368.92 125.53 341.9 138.86 308.4 125.53Z" fill="black"/>
</g>
<path d="M317.61 162.79C317.59 162.766 317.573 162.739 317.56 162.71L317.43 162.48L316.94 161.56L316.6 160.9L316.22 160.09C315.95 159.51 315.65 158.85 315.35 158.09L314.87 156.92L314.4 155.64C314.05 154.76 313.76 153.79 313.4 152.78C312.77 150.78 312.16 148.49 311.62 146.09C311.08 143.69 310.69 141.39 310.37 139.28C310.05 137.17 309.84 135.28 309.72 133.67C309.64 132.87 309.59 132.15 309.55 131.51C309.51 130.87 309.48 130.32 309.46 129.87V128.87V128.5C309.46 128.5 309.46 128.5 309.46 128.6V128.86C309.46 129.12 309.46 129.46 309.54 129.86C309.62 130.26 309.6 130.86 309.66 131.49C309.72 132.12 309.77 132.85 309.85 133.65C310 135.25 310.25 137.14 310.55 139.25C310.85 141.36 311.29 143.64 311.81 146.04C312.33 148.44 312.96 150.68 313.57 152.71C313.91 153.71 314.19 154.71 314.57 155.57L315.03 156.86L315.5 158.03C315.78 158.78 316.08 159.44 316.34 160.03L316.7 160.85L317.03 161.52L317.48 162.45L317.59 162.69L317.61 162.79Z" fill="white"/>
<path d="M331.77 175.38C331.612 175.375 331.454 175.354 331.3 175.32C330.876 175.253 330.458 175.152 330.05 175.02C329.441 174.838 328.846 174.61 328.27 174.34C327.574 174 326.905 173.605 326.27 173.16C325.634 172.709 325.036 172.207 324.48 171.66C324.027 171.21 323.609 170.725 323.23 170.21C322.97 169.871 322.736 169.514 322.53 169.14C322.442 169.008 322.369 168.867 322.31 168.72C322.31 168.72 322.68 169.28 323.31 170.12C323.7 170.613 324.121 171.081 324.57 171.52C325.127 172.052 325.722 172.543 326.35 172.99C326.986 173.431 327.654 173.822 328.35 174.16C328.914 174.437 329.495 174.677 330.09 174.88C331.11 175.22 331.77 175.34 331.77 175.38Z" fill="white"/>
<path d="M337.89 156.91H337.61C337.43 156.91 337.15 156.91 336.8 156.91C335.809 156.893 334.826 156.735 333.88 156.44C332.464 156.011 331.144 155.315 329.99 154.39C328.551 153.278 327.416 151.82 326.691 150.153C325.965 148.485 325.673 146.661 325.84 144.85C325.906 144.062 326.047 143.282 326.26 142.52C326.457 141.865 326.704 141.226 327 140.61C327.435 139.713 327.994 138.881 328.66 138.14C328.837 137.94 329.024 137.75 329.22 137.57C329.36 137.44 329.43 137.38 329.44 137.39C329.45 137.4 329.17 137.67 328.72 138.2C328.082 138.947 327.551 139.778 327.14 140.67C326.85 141.282 326.613 141.918 326.43 142.57C326.228 143.319 326.097 144.086 326.04 144.86C325.88 146.639 326.168 148.43 326.88 150.069C327.591 151.707 328.701 153.142 330.11 154.24C330.717 154.724 331.366 155.152 332.05 155.52C332.654 155.824 333.279 156.085 333.92 156.3C334.857 156.599 335.828 156.777 336.81 156.83C337.5 156.91 337.89 156.89 337.89 156.91Z" fill="white"/>
<path d="M336.62 71.1C336.62 71.1 311 70.79 307 93C303 115.21 324.61 115.59 330.84 116C333.67 116.19 339.71 116.21 345.04 116.11C356.85 115.91 365.19 113.62 368.04 102.67C368.379 101.384 368.594 100.068 368.68 98.74C369.37 86.74 361.24 70.51 336.62 71.1Z" fill="#6A3093"/>
<path d="M355.2 104.89L317.99 105.47C317.059 105.485 316.134 105.315 315.268 104.97C314.403 104.626 313.614 104.113 312.948 103.463C312.281 102.812 311.75 102.036 311.385 101.179C311.02 100.322 310.828 99.4014 310.82 98.47C310.791 96.5965 311.506 94.788 312.809 93.4418C314.112 92.0955 315.897 91.3216 317.77 91.29L355 90.76C355.931 90.7468 356.856 90.9175 357.722 91.2624C358.587 91.6073 359.376 92.1195 360.043 92.7698C360.71 93.4201 361.242 94.1956 361.609 95.0519C361.975 95.9082 362.17 96.8285 362.18 97.76C362.196 99.6299 361.471 101.43 360.162 102.766C358.854 104.103 357.07 104.866 355.2 104.89Z" fill="#263238"/>
<path d="M325.71 97.75C325.624 98.1912 325.409 98.5969 325.092 98.9158C324.775 99.2346 324.37 99.4521 323.93 99.5408C323.489 99.6294 323.032 99.5852 322.616 99.4138C322.201 99.2424 321.845 98.9514 321.595 98.5778C321.345 98.2042 321.212 97.7647 321.212 97.3152C321.212 96.8657 321.346 96.4262 321.596 96.0527C321.846 95.6791 322.201 95.3882 322.617 95.2168C323.032 95.0454 323.489 95.0013 323.93 95.09C324.518 95.2083 325.035 95.5545 325.369 96.0529C325.702 96.5513 325.825 97.1614 325.71 97.75Z" fill="white"/>
<path d="M351.71 97.33C351.624 97.771 351.41 98.1766 351.094 98.4956C350.777 98.8146 350.373 99.0325 349.933 99.1219C349.493 99.2113 349.036 99.168 348.62 98.9976C348.205 98.8272 347.849 98.5373 347.598 98.1646C347.348 97.7919 347.213 97.3532 347.212 96.904C347.21 96.4548 347.342 96.0153 347.591 95.6411C347.839 95.2669 348.193 94.975 348.608 94.8021C349.023 94.6292 349.479 94.5832 349.92 94.67C350.51 94.7861 351.029 95.1313 351.365 95.6299C351.7 96.1286 351.825 96.74 351.71 97.33Z" fill="white"/>
<path d="M332.23 96.7C332.4 96.7 332.31 97.51 332.81 98.57C333.097 99.1739 333.505 99.7118 334.01 100.15C334.608 100.672 335.351 101 336.14 101.09C336.934 101.148 337.727 100.959 338.41 100.55C338.988 100.21 339.489 99.754 339.88 99.21C340.56 98.26 340.62 97.47 340.79 97.48C340.96 97.49 340.92 97.68 340.92 98.06C340.897 98.5939 340.757 99.1163 340.51 99.59C340.139 100.305 339.592 100.914 338.92 101.36C338.077 101.931 337.066 102.203 336.05 102.13C335.037 102.022 334.091 101.57 333.37 100.85C332.789 100.301 332.359 99.6126 332.12 98.85C331.957 98.3401 331.913 97.7997 331.99 97.27C332.06 96.87 332.16 96.69 332.23 96.7Z" fill="white"/>
<path d="M333.38 72.76H333.29H333.02C332.78 72.76 332.43 72.76 332.02 72.84C330.747 72.9664 329.485 73.1769 328.24 73.47C326.395 73.9069 324.599 74.5301 322.88 75.33C320.771 76.3165 318.795 77.5665 317 79.05C313.751 81.7659 311.162 85.1855 309.43 89.05C308.905 90.2147 308.46 91.4142 308.1 92.64C307.96 93.08 307.89 93.42 307.82 93.64L307.74 93.9V93.99C307.74 93.99 307.74 93.99 307.74 93.9L307.8 93.63C307.85 93.4 307.91 93.05 308.04 92.63C308.355 91.3911 308.763 90.1777 309.26 89C310.015 87.2378 310.958 85.5615 312.07 84C315.94 78.5931 321.669 74.8044 328.16 73.36C329.424 73.0783 330.708 72.8911 332 72.8C332.45 72.8 332.81 72.8 333 72.8H333.36L333.38 72.76Z" fill="white"/>
<path d="M308.32 103.49C308.155 103.244 308.031 102.974 307.95 102.69C307.718 102.04 307.544 101.371 307.43 100.69C307.325 99.9919 307.281 99.2858 307.3 98.58C307.294 98.2868 307.328 97.9942 307.4 97.71C307.47 97.71 307.4 99.05 307.64 100.71C307.88 102.37 308.38 103.47 308.32 103.49Z" fill="white"/>
<path d="M349.05 89.46C349.05 89.52 344.15 89.57 338.11 89.57C332.07 89.57 327.16 89.57 327.16 89.46C327.16 89.35 332.06 89.36 338.11 89.36C344.16 89.36 349.05 89.41 349.05 89.46Z" fill="white"/>
<path d="M330.37 114.42C330.37 114.42 330.31 114.42 330.19 114.42H329.66C329.42 114.42 329.14 114.42 328.81 114.42C328.48 114.42 328.1 114.42 327.68 114.42C326.704 114.412 325.729 114.352 324.76 114.24C323.573 114.102 322.395 113.898 321.23 113.63C320.068 113.366 318.922 113.032 317.8 112.63C316.884 112.298 315.986 111.918 315.11 111.49C314.73 111.31 314.4 111.13 314.11 110.97C313.82 110.81 313.57 110.68 313.37 110.56L312.91 110.28L312.76 110.17C312.76 110.17 312.82 110.17 312.93 110.24L313.41 110.48C313.61 110.59 313.86 110.73 314.16 110.87C314.46 111.01 314.79 111.19 315.16 111.35C315.91 111.7 316.82 112.08 317.85 112.45C318.972 112.841 320.114 113.175 321.27 113.45C322.428 113.717 323.6 113.924 324.78 114.07C325.86 114.2 326.85 114.27 327.68 114.29C328.09 114.29 328.47 114.29 328.8 114.29H330.36L330.37 114.42Z" fill="white"/>
<path d="M361.69 128.73H361.6L361.31 128.84L360.2 129.24C359.72 129.41 359.13 129.61 358.43 129.82C357.73 130.03 356.94 130.29 356.06 130.51L354.67 130.88L353.15 131.23C352.15 131.48 350.97 131.68 349.78 131.91C347.187 132.348 344.574 132.655 341.95 132.83C339.328 132.964 336.702 132.964 334.08 132.83C332.87 132.75 331.72 132.69 330.65 132.57L329.1 132.41L327.67 132.21C326.76 132.1 325.95 131.94 325.23 131.82C324.51 131.7 323.9 131.57 323.4 131.46L322.25 131.2L321.95 131.13H321.85C321.85 131.13 321.85 131.13 321.96 131.13L322.26 131.18L323.42 131.4C323.92 131.5 324.53 131.62 325.25 131.72C325.97 131.82 326.78 131.99 327.69 132.09L329.12 132.27C329.61 132.33 330.12 132.37 330.66 132.42C331.73 132.53 332.88 132.59 334.08 132.66C336.5 132.76 339.16 132.76 341.94 132.6C344.72 132.44 347.36 132.09 349.74 131.7C350.93 131.48 352.06 131.29 353.11 131.04C353.63 130.92 354.11 130.82 354.63 130.7L356.02 130.35C356.91 130.14 357.7 129.89 358.39 129.69C359.08 129.49 359.69 129.3 360.18 129.14L361.3 128.78L361.59 128.69L361.69 128.73Z" fill="white"/>
<path d="M280.89 227.42L285 265.19L309.32 273.3L310.32 285.06L276 282.76C276 282.76 265.42 283.02 263.12 269.08L262.56 232.44L280.89 227.42Z" fill="#FFBE9D"/>
<path d="M331.36 284.86C331.144 285.116 330.856 285.301 330.533 285.391C330.209 285.48 329.867 285.469 329.55 285.36C329.411 285.317 329.279 285.253 329.16 285.17C328.3 284.63 328.89 282.74 328.89 282.74L324.61 280.83C324.61 280.83 317.78 283.05 315.05 284.99C312.32 286.93 307.56 283.52 307.56 283.52L308.25 273.52L318.47 268.24C318.47 268.24 317.85 268.55 318.79 267.3C319.73 266.05 322.18 267.3 322.18 267.3C322.76 266.72 324.52 266.92 324.52 266.92L331.52 269.66C332.23 269.942 332.868 270.379 333.387 270.94C333.906 271.501 334.293 272.17 334.52 272.9L336.3 278.55C336.3 278.55 337 282.47 336.53 283.21C336.327 283.52 336.016 283.743 335.658 283.837C335.3 283.931 334.919 283.889 334.59 283.72C334.59 283.72 333.59 285.91 333 285.84C332.388 285.644 331.819 285.335 331.32 284.93L331.36 284.86Z" fill="#FFBE9D"/>
<path d="M317 283.87C317.18 283.814 317.354 283.74 317.52 283.65L319 283C320.832 282.222 322.709 281.555 324.62 281H324.51L328.79 282.95L328.68 282.72C328.572 283.081 328.505 283.454 328.48 283.83C328.433 284.249 328.509 284.674 328.7 285.05C328.83 285.239 329.01 285.388 329.22 285.48C329.412 285.587 329.622 285.655 329.84 285.68C330.291 285.727 330.744 285.614 331.12 285.36C331.217 285.295 331.307 285.222 331.39 285.14L331.45 285.08H331.17L331.29 285.18L331.82 285.53C332.001 285.652 332.192 285.759 332.39 285.85C332.495 285.902 332.606 285.942 332.72 285.97C332.859 286.02 333.011 286.02 333.15 285.97C333.39 285.872 333.597 285.709 333.75 285.5C333.889 285.322 334.016 285.135 334.13 284.94C334.366 284.557 334.576 284.16 334.76 283.75L334.45 283.86C334.736 284.007 335.057 284.072 335.378 284.049C335.699 284.026 336.007 283.916 336.27 283.73C336.541 283.528 336.732 283.238 336.81 282.91C336.908 282.615 336.972 282.31 337 282C336.961 280.809 336.834 279.622 336.62 278.45C336.32 277.45 336 276.45 335.67 275.45C335.47 274.8 335.27 274.17 335.07 273.53C334.898 272.879 334.656 272.249 334.35 271.65C334.014 271.058 333.557 270.544 333.01 270.14C332.481 269.757 331.893 269.463 331.27 269.27L324.65 266.7H324.6C324.174 266.66 323.746 266.66 323.32 266.7C322.872 266.719 322.441 266.88 322.09 267.16H322.36C322.034 266.896 321.649 266.715 321.239 266.632C320.828 266.548 320.403 266.565 320 266.68C319.28 266.966 318.695 267.512 318.36 268.21L318.44 268.13L311.44 271.74L309.53 272.74C309.301 272.843 309.083 272.971 308.88 273.12C309.119 273.039 309.353 272.942 309.58 272.83L311.52 271.91L318.63 268.44H318.68V268.38C318.978 267.776 319.492 267.305 320.12 267.06C320.464 266.967 320.824 266.957 321.172 267.032C321.52 267.107 321.845 267.264 322.12 267.49L322.26 267.6L322.39 267.48C322.682 267.273 323.032 267.161 323.39 267.16C323.786 267.12 324.184 267.12 324.58 267.16H324.53L331.13 269.77C331.712 269.96 332.261 270.236 332.76 270.59C333.254 270.954 333.666 271.417 333.97 271.95C334.258 272.525 334.486 273.128 334.65 273.75C334.84 274.38 335.05 275.02 335.25 275.66C335.57 276.66 335.9 277.66 336.2 278.66C336.411 279.806 336.541 280.966 336.59 282.13C336.596 282.401 336.576 282.673 336.53 282.94C336.472 283.165 336.338 283.363 336.15 283.5C335.956 283.631 335.73 283.708 335.496 283.722C335.262 283.736 335.029 283.687 334.82 283.58L334.6 283.49L334.51 283.7C334.335 284.091 334.138 284.472 333.92 284.84C333.752 285.175 333.505 285.463 333.2 285.68C333.138 285.695 333.072 285.695 333.01 285.68C332.917 285.656 332.827 285.622 332.74 285.58C332.562 285.497 332.388 285.403 332.22 285.3C332.05 285.19 331.88 285.08 331.72 284.96L331.6 284.87C331.86 284.87 331.24 284.87 331.3 284.87L331.25 284.92C331.187 284.984 331.116 285.041 331.04 285.09C330.749 285.295 330.394 285.387 330.04 285.35C329.87 285.332 329.707 285.277 329.56 285.19C329.409 285.14 329.279 285.042 329.19 284.91C328.95 284.265 328.95 283.555 329.19 282.91V282.75L329.04 282.68L324.74 280.79H324.68H324.63C322.717 281.382 320.846 282.104 319.03 282.95C318.39 283.25 317.91 283.5 317.59 283.68C317.385 283.714 317.186 283.778 317 283.87Z" fill="#EB996E"/>
<path d="M322.73 270.1C323.375 270.639 324.096 271.08 324.87 271.41C326.73 272.323 328.7 272.995 330.73 273.41L330.53 273.19C330.53 273.57 330.59 273.98 330.64 274.4C330.933 276.739 331.673 279 332.82 281.06C333.162 281.681 333.549 282.276 333.98 282.84C334.29 283.24 334.48 283.44 334.5 283.42C334.52 283.4 333.92 282.48 333.12 280.9C332.097 278.838 331.421 276.622 331.12 274.34C331.07 273.93 331.04 273.53 331.01 273.16V273H330.82C328.823 272.6 326.876 271.986 325.01 271.17C323.59 270.5 322.77 270 322.73 270.1Z" fill="#EB996E"/>
<path d="M328.49 276.14C328.367 279.254 329.477 282.29 331.58 284.59C331.7 284.51 330.51 282.84 329.67 280.5C328.83 278.16 328.64 276.12 328.49 276.14Z" fill="#EB996E"/>
<path d="M306.9 280.23C306.9 280.23 306.96 280.31 307.1 280.43C307.3 280.602 307.514 280.756 307.74 280.89C308.581 281.433 309.518 281.81 310.5 282C312.008 282.291 313.567 282.153 315 281.6C316.816 280.883 318.334 279.567 319.3 277.87L318.99 277.97C321.239 279.052 323.678 279.681 326.17 279.82C326.839 279.889 327.514 279.849 328.17 279.7C328.539 279.618 328.864 279.4 329.08 279.09C329.179 278.932 329.244 278.756 329.272 278.572C329.299 278.388 329.289 278.2 329.24 278.02C329.144 277.662 328.911 277.356 328.59 277.17L327.81 276.74C325.75 275.63 323.81 274.74 322.23 274.01C320.65 273.28 319.23 272.78 318.35 272.44C317.877 272.237 317.384 272.083 316.88 271.98C317.331 272.226 317.799 272.44 318.28 272.62C319.19 273.01 320.49 273.62 322.09 274.32C323.69 275.02 325.56 276.01 327.59 277.14L328.36 277.57C328.464 277.63 328.555 277.711 328.627 277.807C328.7 277.903 328.751 278.013 328.78 278.13C328.812 278.249 328.819 278.373 328.802 278.495C328.785 278.617 328.743 278.734 328.68 278.84C328.525 279.048 328.296 279.188 328.04 279.23C327.436 279.36 326.815 279.394 326.2 279.33C323.774 279.182 321.399 278.575 319.2 277.54L319 277.44L318.89 277.64C317.997 279.249 316.588 280.511 314.89 281.22C313.529 281.775 312.041 281.945 310.59 281.71C309.635 281.553 308.712 281.239 307.86 280.78C307.22 280.43 306.92 280.2 306.9 280.23Z" fill="#EB996E"/>
<path d="M336.24 421.37C336.312 421.061 336.312 420.739 336.24 420.43C336.094 419.572 335.771 418.755 335.29 418.03C335.134 417.774 334.942 417.542 334.72 417.34C334.581 417.209 334.409 417.118 334.223 417.075C334.036 417.033 333.842 417.042 333.66 417.1C333.551 417.139 333.451 417.203 333.37 417.286C333.289 417.369 333.227 417.47 333.19 417.58C333.122 417.784 333.122 418.005 333.19 418.21C333.327 418.557 333.494 418.892 333.69 419.21C334.05 419.83 334.36 420.45 334.83 421.15C334.972 421.349 335.165 421.507 335.388 421.607C335.611 421.707 335.857 421.746 336.1 421.72C336.545 421.642 336.963 421.457 337.32 421.18C337.979 420.698 338.58 420.141 339.11 419.52C339.365 419.228 339.602 418.92 339.82 418.6C340.063 418.284 340.243 417.924 340.35 417.54C340.407 417.315 340.385 417.078 340.286 416.868C340.188 416.658 340.019 416.489 339.81 416.39C339.614 416.333 339.406 416.328 339.207 416.373C339.007 416.419 338.823 416.514 338.67 416.65C338.218 417.048 337.818 417.502 337.48 418C336.982 418.705 336.585 419.475 336.3 420.29C336.168 420.575 336.1 420.886 336.1 421.2C336.567 420.147 337.136 419.142 337.8 418.2C338.132 417.748 338.519 417.339 338.95 416.98C339.039 416.898 339.147 416.84 339.264 416.811C339.381 416.781 339.503 416.781 339.62 416.81C339.719 416.868 339.795 416.959 339.835 417.066C339.875 417.173 339.877 417.291 339.84 417.4C339.744 417.711 339.588 418 339.38 418.25C339.17 418.55 338.94 418.84 338.7 419.12C338.186 419.698 337.613 420.221 336.99 420.68C336.697 420.905 336.354 421.056 335.99 421.12C335.842 421.139 335.691 421.117 335.555 421.055C335.419 420.993 335.303 420.894 335.22 420.77C334.83 420.2 334.46 419.49 334.09 418.91C333.915 418.634 333.758 418.346 333.62 418.05C333.52 417.78 333.62 417.6 333.76 417.53C334.19 417.35 334.61 417.84 334.9 418.25C335.542 419.195 335.997 420.254 336.24 421.37Z" fill="#263238"/>
<path d="M311.83 422.21L299.71 448.48L280.15 439.44L292.68 406.93L311.83 422.21Z" fill="#FFBE9D"/>
<path d="M302 446.72L294.91 460.23C294.91 460.23 313 479 311.34 483.16L268.72 462.73L280.43 435.64L302 446.72Z" fill="#6A3093"/>
<path d="M282.62 452.06C282.151 451.99 281.673 452.095 281.276 452.355C280.88 452.615 280.593 453.012 280.47 453.47C280.377 453.936 280.467 454.42 280.722 454.821C280.978 455.221 281.378 455.508 281.84 455.62C282.339 455.705 282.852 455.598 283.276 455.319C283.699 455.041 284.001 454.612 284.12 454.12C284.163 453.623 284.012 453.13 283.699 452.742C283.385 452.354 282.934 452.103 282.44 452.04" fill="#E0E0E0"/>
<g opacity="0.6">
<path d="M268.72 462.73L270.5 459.33L310.69 480.2C310.69 480.2 312.2 481.93 311.34 483.2L268.72 462.73Z" fill="white"/>
</g>
<path d="M295.71 460.34C295.6 460.55 294.52 460.14 293.17 460.34C291.82 460.54 290.86 461.13 290.71 460.96C290.56 460.79 291.45 459.73 293.08 459.54C294.71 459.35 295.85 460.17 295.71 460.34Z" fill="#263238"/>
<path d="M299.29 464.34C299.24 464.56 298.17 464.48 297.04 465.02C295.91 465.56 295.26 466.4 295.04 466.29C294.82 466.18 295.27 464.94 296.69 464.29C298.11 463.64 299.38 464.13 299.29 464.34Z" fill="#263238"/>
<path d="M299.27 470.9C299.06 470.9 299.27 469.68 300.35 468.79C301.43 467.9 302.62 467.92 302.62 468.14C302.62 468.36 301.73 468.68 300.86 469.41C299.99 470.14 299.48 471 299.27 470.9Z" fill="#263238"/>
<path d="M297.74 455.14C297.56 455.29 296.74 454.54 295.53 454.06C294.32 453.58 293.22 453.51 293.2 453.28C293.18 453.05 294.41 452.73 295.84 453.28C297.27 453.83 297.92 455 297.74 455.14Z" fill="#263238"/>
<path d="M306 443.22L337.95 363.22C337.95 363.22 337.23 349.58 334.72 345.27C332.21 340.96 256.09 315.83 256.09 315.83C256.09 315.83 236.7 311.16 223.78 315.83C210.86 320.5 201.16 336.65 202.95 345.63C204.74 354.61 213 361.91 213 361.91L268.3 362.91L298.8 374L278.25 432.89L306 443.22Z" fill="#263238"/>
<path d="M334.41 388.57L335.13 417.5L313.59 418.02L310.49 383.32L334.41 388.57Z" fill="#FFBE9D"/>
<path d="M336.41 414.91L336 430.16C336 430.16 360.54 438.98 360.86 443.49L313.6 443.97L312.15 414.49L336.41 414.91Z" fill="#6A3093"/>
<path d="M321.38 428.26C320.926 428.404 320.542 428.71 320.3 429.119C320.058 429.529 319.976 430.014 320.07 430.48C320.197 430.938 320.495 431.331 320.902 431.576C321.31 431.822 321.795 431.902 322.26 431.8C322.745 431.653 323.156 431.328 323.41 430.89C323.664 430.452 323.743 429.934 323.63 429.44C323.45 428.976 323.098 428.6 322.646 428.391C322.195 428.182 321.68 428.157 321.21 428.32" fill="#E0E0E0"/>
<g opacity="0.6">
<path d="M313.62 444L313.71 440.17L358.99 441.17C358.99 441.17 361.11 442.06 360.88 443.55L313.62 444Z" fill="white"/>
</g>
<path d="M336.78 429.91C336.78 430.14 335.62 430.26 334.5 431.01C333.38 431.76 332.77 432.74 332.56 432.65C332.35 432.56 332.68 431.23 334.06 430.34C335.44 429.45 336.83 429.7 336.78 429.91Z" fill="#263238"/>
<path d="M341.76 431.91C341.82 432.13 340.82 432.54 340.05 433.52C339.28 434.5 339.05 435.52 338.83 435.52C338.61 435.52 338.44 434.21 339.42 433C340.4 431.79 341.75 431.69 341.76 431.91Z" fill="#263238"/>
<path d="M344.64 437.81C344.43 437.87 344.09 436.72 344.64 435.45C345.19 434.18 346.3 433.66 346.4 433.85C346.5 434.04 345.84 434.73 345.4 435.78C344.96 436.83 344.86 437.79 344.64 437.81Z" fill="#263238"/>
<path d="M336.31 424.35C336.22 424.56 335.15 424.25 333.85 424.35C332.55 424.45 331.53 424.87 331.41 424.68C331.29 424.49 332.26 423.68 333.8 423.55C335.34 423.42 336.42 424.16 336.31 424.35Z" fill="#263238"/>
<path d="M321.83 308.27C321.83 308.27 334.74 307.27 336.17 321.27C337.6 335.27 339 400.59 339 400.59L308.84 403.11L304.17 336.33L256.06 315.86C256.06 315.86 313.21 306.48 321.83 308.27Z" fill="#263238"/>
<path d="M268.64 289.38C268.64 289.38 276.47 311.38 274.98 313.79C273.49 316.2 253.34 326.3 253.34 326.3L202.94 345.66C202.94 345.66 197.77 337.43 197.77 324.78C197.77 312.13 215.3 289.38 215.3 289.38H268.64Z" fill="#263238"/>
<path d="M253.7 314.74C253.7 314.74 253.77 314.79 253.93 314.87L254.65 315.2L257.44 316.44L267.92 321L304.09 336.57L303.92 336.34C304.38 342.94 304.87 350.07 305.39 357.44C306.61 374.67 307.74 390.55 308.64 403.12V403.35H308.87L330.87 401.42L336.87 400.86L338.45 400.69C338.632 400.679 338.813 400.652 338.99 400.61H338.45L336.86 400.71L330.8 401.16L308.8 402.89L309.04 403.1C308.18 390.53 307.09 374.64 305.91 357.41C305.39 350.04 304.91 342.91 304.42 336.32V336.15L304.27 336.09L268.02 320.7L257.48 316.28L254.66 315.12L253.92 314.83L253.7 314.74Z" fill="#455A64"/>
<path d="M213.61 316.94C214.094 316.851 214.569 316.721 215.03 316.55L218.82 315.33C222.962 313.927 227.209 312.854 231.52 312.12C235.829 311.414 240.229 311.468 244.52 312.28C246.281 312.694 248.02 313.198 249.73 313.79C249.321 313.519 248.881 313.298 248.42 313.13C247.189 312.608 245.914 312.196 244.61 311.9C240.281 310.951 235.812 310.836 231.44 311.56C227.096 312.308 222.83 313.46 218.7 315C217.11 315.56 215.83 316.05 214.96 316.39C214.493 316.527 214.04 316.712 213.61 316.94Z" fill="#455A64"/>
<path d="M220.74 305.36C222.205 305.27 223.675 305.27 225.14 305.36C226.5 305.45 228.14 305.66 229.92 305.87C231.7 306.08 233.68 306.32 235.72 306.71C239.222 307.269 242.579 308.513 245.6 310.37C246.802 311.21 247.945 312.132 249.02 313.13C248.826 312.778 248.58 312.458 248.29 312.18C247.547 311.379 246.718 310.662 245.82 310.04C242.803 308.046 239.393 306.723 235.82 306.16C233.75 305.76 231.76 305.54 229.96 305.35C228.16 305.16 226.54 305 225.16 304.96C224.068 304.912 222.974 304.959 221.89 305.1C221.496 305.128 221.108 305.216 220.74 305.36Z" fill="#455A64"/>
<path d="M243 128.89C237.2 127.89 232.1 130.13 227.21 133.4C222.332 136.766 218.598 141.543 216.51 147.09C214.188 152.891 213.816 159.289 215.45 165.32C216.289 168.309 217.724 171.098 219.67 173.518C221.615 175.938 224.03 177.939 226.77 179.4C234.31 183.23 243.96 181.9 250.71 176.8C257.46 171.7 261.32 163.26 261.64 154.8C261.947 148.934 260.4 143.119 257.22 138.18C255.614 135.738 253.523 133.654 251.077 132.055C248.63 130.457 245.881 129.38 243 128.89Z" fill="#263238"/>
<path d="M226.51 148.61C227.36 146.39 227.03 143.91 227.36 141.56C228.1 136.38 232.27 132.23 237.1 130.21C241.59 128.33 247.1 128.74 252.48 130.49C256.233 131.631 259.583 133.816 262.14 136.79C263.769 138.807 264.892 141.185 265.414 143.726C265.936 146.266 265.842 148.894 265.14 151.39L238.65 147.54C236.17 149.59 233.65 151.67 230.65 152.82C229.783 153.202 228.833 153.354 227.89 153.26C227.419 153.205 226.975 153.015 226.609 152.714C226.244 152.412 225.973 152.012 225.83 151.56C225.54 150.56 226.14 149.57 226.51 148.61Z" fill="#263238"/>
<path d="M253 137.8L229.87 142.7C228.797 142.782 227.793 143.26 227.053 144.042C226.313 144.824 225.892 145.854 225.87 146.93L226.15 196.99C226.171 200.406 227.317 203.72 229.41 206.42L231.62 209.27C236.62 215.76 246.83 215.1 250.67 207.85C250.905 207.438 251.086 206.998 251.21 206.54C251.28 206.09 251.4 205.79 251.42 205.41L251.87 200.53C252.09 196.07 252.12 191.53 252.12 191.59C252.12 191.65 261.59 190.39 264.01 178.19C265.22 172.13 265.3 162.11 265.1 153.91C264.94 146.53 260.41 137.31 253 137.8Z" fill="#FFBE9D"/>
<path d="M261.22 164.14C261.207 164.55 261.035 164.939 260.74 165.225C260.445 165.511 260.051 165.67 259.64 165.67C259.439 165.678 259.239 165.646 259.051 165.575C258.862 165.505 258.69 165.398 258.544 165.26C258.398 165.122 258.28 164.957 258.199 164.773C258.118 164.589 258.074 164.391 258.07 164.19C258.08 163.779 258.252 163.388 258.547 163.102C258.843 162.816 259.239 162.657 259.65 162.66C259.851 162.651 260.052 162.682 260.241 162.752C260.43 162.822 260.603 162.929 260.749 163.067C260.896 163.205 261.013 163.371 261.094 163.556C261.175 163.74 261.218 163.939 261.22 164.14Z" fill="#263238"/>
<path d="M262.74 159C262.54 159.2 261.38 158.27 259.69 158.21C258 158.15 256.69 158.95 256.54 158.74C256.39 158.53 256.67 158.28 257.23 157.9C257.982 157.424 258.861 157.19 259.75 157.23C260.631 157.26 261.479 157.572 262.17 158.12C262.68 158.57 262.84 159 262.74 159Z" fill="#263238"/>
<path d="M245.57 163.33C245.557 163.74 245.385 164.129 245.09 164.415C244.795 164.701 244.401 164.86 243.99 164.86C243.79 164.867 243.591 164.834 243.404 164.762C243.217 164.691 243.046 164.584 242.9 164.446C242.755 164.309 242.639 164.143 242.558 163.96C242.477 163.777 242.434 163.58 242.43 163.38C242.44 162.969 242.612 162.578 242.907 162.292C243.203 162.006 243.599 161.847 244.01 161.85C244.21 161.842 244.41 161.874 244.598 161.945C244.785 162.015 244.957 162.123 245.103 162.261C245.248 162.399 245.364 162.564 245.445 162.748C245.525 162.932 245.567 163.13 245.57 163.33Z" fill="#263238"/>
<path d="M246.66 158.62C246.46 158.82 245.3 157.89 243.6 157.83C241.9 157.77 240.6 158.57 240.46 158.35C240.32 158.13 240.59 157.89 241.14 157.52C241.894 157.041 242.778 156.807 243.67 156.85C244.551 156.88 245.399 157.192 246.09 157.74C246.6 158.16 246.76 158.53 246.66 158.62Z" fill="#263238"/>
<path d="M251.74 171.5C252.644 171.259 253.574 171.128 254.51 171.11C254.94 171.11 255.36 171.01 255.44 170.72C255.496 170.275 255.412 169.824 255.2 169.43C254.84 168.37 254.45 167.25 254.05 166.09C252.46 161.33 251.32 157.42 251.51 157.36C251.7 157.3 253.15 161.1 254.75 165.86C255.13 167.03 255.5 168.15 255.84 169.22C256.097 169.752 256.154 170.359 256 170.93C255.933 171.08 255.832 171.212 255.706 171.316C255.579 171.42 255.43 171.493 255.27 171.53C255.028 171.587 254.779 171.614 254.53 171.61C253.599 171.692 252.662 171.655 251.74 171.5Z" fill="#263238"/>
<path d="M252.13 191.59C246.352 191.461 240.723 189.73 235.87 186.59C235.87 186.59 239.67 195.25 252 194.59L252.13 191.59Z" fill="#EB996E"/>
<path d="M250.87 175.56C250.566 175.137 250.158 174.8 249.684 174.582C249.211 174.365 248.689 174.274 248.17 174.32C247.786 174.34 247.41 174.439 247.065 174.611C246.721 174.783 246.416 175.024 246.17 175.32C245.935 175.592 245.789 175.929 245.751 176.287C245.714 176.645 245.787 177.005 245.96 177.32C246.217 177.639 246.566 177.872 246.959 177.986C247.353 178.101 247.772 178.092 248.16 177.96C248.969 177.711 249.721 177.303 250.37 176.76C250.567 176.631 250.737 176.464 250.87 176.27C250.933 176.177 250.967 176.067 250.967 175.955C250.967 175.843 250.933 175.733 250.87 175.64" fill="#EB996E"/>
<path d="M246.71 172.48C246.99 172.48 246.92 174.31 248.44 175.68C249.96 177.05 251.93 176.92 251.93 177.18C251.93 177.29 251.48 177.52 250.66 177.51C249.582 177.483 248.548 177.075 247.74 176.36C246.963 175.674 246.483 174.713 246.4 173.68C246.36 172.91 246.59 172.46 246.71 172.48Z" fill="#263238"/>
<path d="M246.56 153.6C246.38 154.05 244.7 153.77 242.7 153.93C240.7 154.09 239.08 154.57 238.83 154.15C238.72 153.94 239.02 153.52 239.68 153.1C240.565 152.588 241.556 152.283 242.577 152.211C243.597 152.138 244.621 152.298 245.57 152.68C246.29 153 246.65 153.38 246.56 153.6Z" fill="#263238"/>
<path d="M262.54 151.61C262.22 151.98 261.07 151.54 259.67 151.47C258.27 151.4 257.07 151.62 256.81 151.21C256.7 151.01 256.9 150.63 257.44 150.29C258.148 149.869 258.969 149.68 259.79 149.75C260.614 149.797 261.403 150.097 262.05 150.61C262.53 151 262.68 151.43 262.54 151.61Z" fill="#263238"/>
<path d="M222.27 145C224.67 138 235.14 128.36 242.55 129L254.25 136.34C253.826 138.355 252.866 140.219 251.47 141.732C250.074 143.246 248.294 144.355 246.32 144.94C244.21 145.53 241.69 145.66 240.4 147.44C239.11 149.22 239.79 151.94 238.56 153.82C236.87 156.41 232.39 156.2 231.1 159.02C230.54 160.25 230.79 161.74 230.2 162.97C229.42 164.59 225.2 166.59 223.52 165.97C221.84 165.35 221.86 162.47 221.33 160.97C220.653 159.224 220.604 157.298 221.19 155.52C222 152.11 221.12 148.39 222.27 145Z" fill="#263238"/>
<path d="M228.56 167.62C228.56 166.71 227.62 164.52 226.73 164.34C224.33 163.87 219.98 163.9 219.73 170.01C219.35 178.38 227.83 177.01 227.85 176.8C227.87 176.59 228.45 170.78 228.56 167.62Z" fill="#FFBE9D"/>
<path d="M225.41 173.51C225.41 173.51 225.26 173.61 225.01 173.71C224.66 173.85 224.27 173.85 223.92 173.71C223.05 173.35 222.37 171.91 222.4 170.4C222.408 169.681 222.579 168.973 222.9 168.33C222.991 168.072 223.143 167.84 223.343 167.653C223.543 167.467 223.786 167.332 224.05 167.26C224.219 167.225 224.395 167.25 224.548 167.33C224.701 167.411 224.822 167.541 224.89 167.7C224.99 167.94 224.89 168.11 224.97 168.12C225.05 168.13 225.16 167.99 225.11 167.64C225.067 167.432 224.958 167.242 224.8 167.1C224.58 166.916 224.296 166.826 224.01 166.85C223.664 166.904 223.337 167.045 223.061 167.26C222.784 167.475 222.567 167.758 222.43 168.08C222.037 168.787 221.824 169.581 221.81 170.39C221.81 172.08 222.58 173.69 223.81 174.1C224.031 174.174 224.266 174.198 224.498 174.17C224.73 174.143 224.952 174.064 225.15 173.94C225.39 173.71 225.44 173.53 225.41 173.51Z" fill="#EB996E"/>
<path d="M220.48 142.86C220.48 140.25 217.24 138.54 214.69 137.94C212.085 137.493 209.407 138.004 207.15 139.38C205.8 140.12 204.45 141.16 204.15 142.67C203.85 144.18 205.3 145.96 206.73 145.42C206.009 145.634 205.345 146.008 204.789 146.514C204.232 147.02 203.797 147.645 203.516 148.342C203.234 149.039 203.114 149.791 203.163 150.542C203.212 151.292 203.43 152.022 203.801 152.676C204.171 153.331 204.685 153.893 205.303 154.322C205.921 154.751 206.628 155.034 207.37 155.152C208.113 155.27 208.873 155.218 209.593 155.001C210.313 154.785 210.975 154.408 211.53 153.9C210.801 156.319 209.266 158.415 207.18 159.84C209.347 160.15 211.557 159.883 213.588 159.066C215.619 158.249 217.398 156.911 218.747 155.187C220.096 153.463 220.966 151.414 221.27 149.246C221.575 147.078 221.302 144.869 220.48 142.84V142.86Z" fill="#263238"/>
<path d="M214.67 156.17C214.426 155.357 214.321 154.508 214.36 153.66C214.32 149.525 215.677 145.498 218.21 142.23C218.693 141.534 219.288 140.922 219.97 140.42C220.13 140.53 217.32 143.31 215.85 147.8C214.38 152.29 214.86 156.17 214.67 156.17Z" fill="#6A3093"/>
<path d="M251.82 133.87C252.59 137.28 257.77 141.65 260.04 144.3C264.38 149.36 265.23 151.04 265.19 162.3C267.19 158.39 268.8 154.56 268.64 150.16C268.547 145.703 266.826 141.434 263.8 138.16C262.276 136.552 260.398 135.322 258.314 134.568C256.231 133.815 254 133.559 251.8 133.82" fill="#263238"/>
<path d="M287.3 226.94C287.3 226.94 278.3 211.94 275.78 208.87C273.768 206.522 271.243 204.667 268.4 203.45C267.273 202.98 266.095 202.644 264.89 202.45L251.89 199.58C251.89 199.58 251.89 208.42 242.6 208.97C233.31 209.52 225.52 196.6 225.52 196.6C225.52 196.6 210.52 198.92 206.95 200.76C203.38 202.6 197.74 204.95 194.64 220.47L192.46 235.65L218.32 238L220.79 276.38L233.6 285.3C233.6 285.3 269.11 294.53 271.38 295.14C273.65 295.75 274.38 238 274.38 238C274.38 238 283.52 232.11 287.3 226.94Z" fill="#6A3093"/>
<path d="M270.3 220.49C270.507 220.837 270.675 221.206 270.8 221.59C271.09 222.32 271.47 223.38 271.89 224.72C274.057 231.693 274.951 239 274.53 246.29C274.44 247.68 274.34 248.81 274.22 249.58C274.193 249.983 274.123 250.382 274.01 250.77C273.962 250.368 273.962 249.962 274.01 249.56C274.06 248.78 274.12 247.66 274.15 246.27C274.247 242.653 274.08 239.033 273.65 235.44C273.199 231.854 272.491 228.304 271.53 224.82C271.16 223.48 270.83 222.4 270.6 221.66C270.46 221.281 270.359 220.889 270.3 220.49Z" fill="#263238"/>
<path d="M269.2 283.35L220.57 272.77L218.32 238L196.7 236C196.7 236 197.5 259.76 198.33 266.83C199.52 276.99 205.53 290.83 209.04 293.62C212.55 296.41 271.38 295.14 271.38 295.14L269.2 283.35Z" fill="#FFBE9D"/>
<path d="M296.8 289.65C296.638 289.987 296.379 290.267 296.057 290.456C295.734 290.645 295.363 290.733 294.99 290.71C294.83 290.695 294.672 290.661 294.52 290.61C293.44 290.27 293.52 288.08 293.52 288.08L288.37 287.24C288.37 287.24 281.67 291.56 279.28 294.42C276.89 297.28 270.82 294.97 270.82 294.97L268.71 283.97L278.2 275.39C278.2 275.39 277.61 275.91 278.27 274.3C278.93 272.69 281.9 273.3 281.9 273.3C282.37 272.51 284.31 272.22 284.31 272.22L292.63 273.22C293.477 273.317 294.291 273.603 295.013 274.056C295.734 274.51 296.345 275.119 296.8 275.84L300.32 281.41C300.32 281.41 302.18 285.41 301.88 286.36C301.747 286.748 301.476 287.074 301.118 287.275C300.76 287.476 300.341 287.538 299.94 287.45C299.94 287.45 299.53 290.09 298.84 290.18C298.128 290.143 297.43 289.974 296.78 289.68L296.8 289.65Z" fill="#FFBE9D"/>
<path d="M279.09 281.76C279.09 281.85 280.21 281.76 281.98 281.83C284.292 281.932 286.578 282.36 288.77 283.1C289.977 283.504 291.151 284.002 292.28 284.59C293.28 285.16 294.33 285.59 294.65 286.36C294.725 286.52 294.755 286.696 294.74 286.872C294.724 287.048 294.662 287.216 294.56 287.36C294.41 287.597 294.19 287.783 293.93 287.89C293.694 287.967 293.448 288.004 293.2 288C293.2 288 293.46 288.23 294 288.08C294.319 287.988 294.6 287.795 294.8 287.53C294.943 287.349 295.037 287.134 295.072 286.906C295.107 286.679 295.082 286.445 295 286.23C294.792 285.748 294.444 285.34 294 285.06C293.55 284.76 293.08 284.46 292.55 284.17C291.408 283.543 290.214 283.018 288.98 282.6C286.741 281.845 284.393 281.46 282.03 281.46C281.041 281.414 280.05 281.515 279.09 281.76Z" fill="#EB996E"/>
<path d="M278.51 287.07C278.51 287.23 281.91 287.07 286.07 287.33C290.23 287.59 293.58 288.08 293.6 287.93C292.907 287.656 292.181 287.478 291.44 287.4C289.673 287.099 287.89 286.899 286.1 286.8C284.308 286.7 282.512 286.7 280.72 286.8C279.974 286.788 279.231 286.879 278.51 287.07Z" fill="#EB996E"/>
<path d="M296.75 289.44C296.826 289.153 296.863 288.857 296.86 288.56C296.911 287.747 296.911 286.933 296.86 286.12C296.832 285.551 296.755 284.986 296.63 284.43C296.481 283.778 296.202 283.162 295.81 282.62C294.995 281.361 293.938 280.277 292.7 279.43C291.468 278.578 290.121 277.905 288.7 277.43C287.528 277.096 286.318 276.914 285.1 276.89C284.1 276.89 283.24 276.89 282.67 276.89C282.37 276.87 282.07 276.901 281.78 276.98C282.874 277.13 283.976 277.221 285.08 277.25C286.257 277.33 287.422 277.544 288.55 277.89C289.907 278.384 291.191 279.056 292.37 279.89C293.548 280.695 294.565 281.712 295.37 282.89C296.019 283.855 296.392 284.979 296.45 286.14C296.69 288.17 296.64 289.45 296.75 289.44Z" fill="#EB996E"/>
<path d="M284.73 274.35C284.73 274.43 285.98 274.46 287.97 274.69C289.96 274.92 292.97 275.12 294.69 277.76C296.385 279.732 297.798 281.93 298.89 284.29C299.246 285.301 299.511 286.342 299.68 287.4C299.75 287.112 299.767 286.814 299.73 286.52C299.68 285.714 299.514 284.919 299.24 284.16C298.233 281.708 296.835 279.435 295.1 277.43C294.636 276.819 294.095 276.272 293.49 275.8C292.89 275.365 292.211 275.052 291.49 274.88C290.335 274.575 289.153 274.387 287.96 274.32C286.887 274.188 285.801 274.198 284.73 274.35Z" fill="#EB996E"/>
<path d="M281.12 292.65C281.301 292.544 281.469 292.416 281.62 292.27C281.98 291.99 282.44 291.61 283.01 291.15C284.76 289.793 286.586 288.538 288.48 287.39H288.36L293.51 288.27L293.33 288.05C293.319 288.472 293.352 288.895 293.43 289.31C293.499 289.771 293.7 290.202 294.01 290.55C294.206 290.717 294.445 290.825 294.7 290.86C294.937 290.91 295.183 290.91 295.42 290.86C295.918 290.785 296.373 290.533 296.7 290.15C296.788 290.059 296.865 289.958 296.93 289.85L296.98 289.77V289.72L296.68 289.83L296.84 289.89L297.5 290.13C297.73 290.2 297.96 290.26 298.21 290.31C298.336 290.32 298.464 290.32 298.59 290.31C298.755 290.323 298.921 290.292 299.07 290.22C299.298 290.041 299.471 289.802 299.57 289.53C299.674 289.303 299.761 289.069 299.83 288.83C299.971 288.351 300.081 287.863 300.16 287.37L299.86 287.58C300.21 287.651 300.572 287.628 300.91 287.512C301.248 287.396 301.548 287.191 301.78 286.92C302.011 286.639 302.135 286.284 302.13 285.92C302.113 285.58 302.052 285.244 301.95 284.92C301.567 283.651 301.092 282.411 300.53 281.21C299.94 280.26 299.3 279.26 298.66 278.21L297.47 276.33C297.102 275.674 296.662 275.06 296.16 274.5C295.631 273.964 294.998 273.542 294.3 273.26C293.615 273.01 292.898 272.861 292.17 272.82L284.33 271.94H284.27C283.8 272.019 283.338 272.139 282.89 272.3C282.413 272.445 281.996 272.74 281.7 273.14L281.99 273.05C281.565 272.856 281.098 272.768 280.632 272.794C280.165 272.82 279.711 272.959 279.31 273.2C278.617 273.709 278.145 274.464 277.99 275.31L278.06 275.2L271.52 281.08C270.78 281.75 270.2 282.29 269.76 282.7C269.544 282.876 269.346 283.074 269.17 283.29C269.407 283.142 269.628 282.972 269.83 282.78L271.66 281.24L278.32 275.49V275.42C278.465 274.687 278.879 274.034 279.48 273.59C279.822 273.395 280.206 273.286 280.599 273.27C280.992 273.254 281.384 273.333 281.74 273.5L281.92 273.57L282.03 273.41C282.291 273.1 282.64 272.877 283.03 272.77C283.446 272.626 283.875 272.519 284.31 272.45H284.25L292.08 273.37C292.764 273.409 293.438 273.551 294.08 273.79C294.715 274.041 295.291 274.423 295.77 274.91C296.241 275.445 296.653 276.028 297 276.65L298.19 278.53L300.07 281.53C300.617 282.704 301.085 283.913 301.47 285.15C301.558 285.437 301.615 285.731 301.64 286.03C301.652 286.29 301.563 286.545 301.39 286.74C301.22 286.939 300.999 287.088 300.75 287.171C300.502 287.254 300.236 287.267 299.98 287.21H299.72V287.46C299.643 287.932 299.539 288.399 299.41 288.86C299.328 289.27 299.142 289.652 298.87 289.97C298.804 289.98 298.736 289.98 298.67 289.97C298.564 289.98 298.456 289.98 298.35 289.97C298.13 289.93 297.913 289.876 297.7 289.81C297.49 289.75 297.28 289.67 297.07 289.59L296.92 289.53L296.62 289.64V289.7C296.573 289.789 296.516 289.873 296.45 289.95C296.192 290.247 295.838 290.446 295.45 290.51C295.262 290.545 295.068 290.545 294.88 290.51C294.707 290.493 294.542 290.423 294.41 290.31C293.973 289.683 293.774 288.921 293.85 288.16V287.97H293.68L288.52 287.16H288.45H288.4C286.508 288.339 284.7 289.649 282.99 291.08C282.4 291.58 281.99 291.99 281.65 292.27C281.461 292.379 281.284 292.506 281.12 292.65Z" fill="#EB996E"/>
<path d="M350.06 257.7L286.01 258.22C283.93 258.22 281.95 259.22 281.64 261.22L274.64 307.91H241.64C241.131 307.91 240.642 308.112 240.282 308.472C239.922 308.832 239.72 309.321 239.72 309.83C239.72 310.339 239.922 310.828 240.282 311.188C240.642 311.548 241.131 311.75 241.64 311.75H347L354.2 262.48C354.283 261.887 354.238 261.283 354.068 260.709C353.898 260.134 353.607 259.603 353.215 259.15C352.823 258.698 352.339 258.334 351.794 258.084C351.25 257.834 350.659 257.703 350.06 257.7Z" fill="#E0E0E0"/>
<path d="M350.06 257.7C350.396 257.678 350.733 257.708 351.06 257.79C352.045 258.023 352.915 258.601 353.51 259.42C353.946 260.005 354.219 260.695 354.3 261.42C354.323 262.306 354.246 263.191 354.07 264.06L353.14 270.56C351.73 280.34 349.7 294.45 347.2 311.79V311.96H347L244.77 312.02H242C241.498 312.072 240.991 311.978 240.54 311.75C240.076 311.499 239.72 311.086 239.54 310.59C239.361 310.1 239.364 309.563 239.547 309.075C239.73 308.587 240.083 308.181 240.54 307.93C240.984 307.703 241.484 307.61 241.98 307.66H274.59L274.34 307.87L281.34 261.56C281.405 260.625 281.827 259.751 282.52 259.12C283.22 258.539 284.069 258.165 284.97 258.04C285.828 257.961 286.689 257.931 287.55 257.95H290.07L299.71 257.89L316.85 257.78L341.25 257.66H347.78H349.46H350.03C350.03 257.66 349.84 257.66 349.46 257.66H347.78L341.25 257.76L316.85 258.03L299.71 258.2L290.07 258.29H287.56C286.719 258.274 285.878 258.304 285.04 258.38C284.214 258.494 283.436 258.841 282.8 259.38C282.193 259.951 281.835 260.737 281.8 261.57C279.71 275.57 277.39 291.16 274.89 307.88V308.1H242C241.592 308.049 241.179 308.118 240.81 308.3C240.471 308.493 240.209 308.798 240.07 309.163C239.932 309.528 239.925 309.93 240.05 310.3C240.19 310.672 240.455 310.983 240.8 311.18C241.173 311.37 241.594 311.447 242.01 311.4H244.76L346.99 311.46L346.79 311.63L352.9 270.41C353.27 267.98 353.59 265.81 353.9 263.92C354.078 263.068 354.165 262.2 354.16 261.33C354.094 260.61 353.839 259.92 353.42 259.33C352.847 258.525 352.007 257.947 351.05 257.7C350.721 257.673 350.389 257.673 350.06 257.7Z" fill="#263238"/>
<path d="M311.31 284.16C311.31 284.951 311.545 285.724 311.984 286.382C312.424 287.04 313.048 287.553 313.779 287.856C314.51 288.158 315.314 288.237 316.09 288.083C316.866 287.929 317.579 287.548 318.138 286.988C318.698 286.429 319.079 285.716 319.233 284.94C319.388 284.164 319.308 283.36 319.006 282.629C318.703 281.898 318.19 281.274 317.532 280.834C316.875 280.395 316.101 280.16 315.31 280.16C314.249 280.16 313.232 280.581 312.482 281.332C311.731 282.082 311.31 283.099 311.31 284.16Z" fill="white"/>
<path d="M277.23 311.37C277.32 311.37 279.36 299.5 281.78 284.82C284.2 270.14 286.1 258.23 286.01 258.22C285.92 258.21 283.88 270.09 281.46 284.77C279.04 299.45 277.14 311.36 277.23 311.37Z" fill="#263238"/>
</svg>
