<svg width="375" height="267" viewBox="0 0 375 267" fill="none" xmlns="http://www.w3.org/2000/svg">
<path d="M187.5 260.891C286.087 260.891 366.008 227.04 366.008 185.282C366.008 143.524 286.087 109.673 187.5 109.673C88.913 109.673 8.99249 143.524 8.99249 185.282C8.99249 227.04 88.913 260.891 187.5 260.891Z" fill="#F5F5F5"/>
<path d="M283.845 181.106L342.69 156.937C345.015 155.987 345.015 154.438 342.69 153.482L257.775 118.505C256.471 118.034 255.03 117.788 253.567 117.788C252.105 117.788 250.664 118.034 249.36 118.505L190.5 142.674C188.175 143.63 188.175 145.179 190.5 146.129L275.415 181.106C276.721 181.579 278.165 181.826 279.63 181.826C281.095 181.826 282.539 181.579 283.845 181.106Z" fill="#E0E0E0"/>
<path d="M134.092 240.086L45.915 203.892C43.4325 202.872 43.4325 201.222 45.915 200.197L168.592 149.76C169.987 149.257 171.529 148.994 173.092 148.994C174.656 148.994 176.198 149.257 177.592 149.76L265.77 185.955C268.253 186.975 268.253 188.625 265.77 189.65L143.085 240.086C141.691 240.589 140.151 240.851 138.589 240.851C137.026 240.851 135.486 240.589 134.092 240.086Z" fill="#E0E0E0"/>
<path d="M330.562 155.255L278.37 176.241L198.217 143.491L250.402 122.505L330.562 155.255Z" fill="#6A3093"/>
<path opacity="0.6" d="M330.562 155.255L278.37 176.241L198.217 143.491L250.402 122.505L330.562 155.255Z" fill="black"/>
<path d="M277.8 174.709L328.237 154.326C326.985 151.795 327.075 151.026 328.5 147.656L278.37 167.852C278.37 167.852 277.455 167.783 277.8 174.709Z" fill="#F5F5F5"/>
<path d="M280.815 165.065C279.476 165.681 278.36 166.514 277.56 167.496C276.759 168.478 276.297 169.581 276.21 170.715V175.152C276.21 177.229 278.273 178.073 280.815 177.037L330.555 156.916V155.282L281.445 175.04C279.945 175.659 278.678 175.157 278.685 173.908L278.723 169.978C278.778 169.297 279.058 168.635 279.54 168.046C280.023 167.457 280.693 166.957 281.498 166.587L330.548 146.829V144.976L280.815 165.065Z" fill="#6A3093"/>
<path opacity="0.5" d="M280.815 165.065C279.476 165.681 278.36 166.514 277.56 167.496C276.759 168.478 276.297 169.581 276.21 170.715V175.152C276.21 177.229 278.273 178.073 280.815 177.037L330.555 156.916V155.282L281.445 175.04C279.945 175.659 278.678 175.157 278.685 173.908L278.723 169.978C278.778 169.297 279.058 168.635 279.54 168.046C280.023 167.457 280.693 166.957 281.498 166.587L330.548 146.829V144.976L280.815 165.065Z" fill="black"/>
<path d="M330.555 144.949L250.402 112.199L200.67 132.315C199.33 132.931 198.214 133.764 197.412 134.746C196.611 135.727 196.146 136.83 196.057 137.964V142.38C196.057 143.416 196.567 144.148 197.407 144.49L277.56 177.235C276.72 176.893 276.21 176.167 276.21 175.131V170.709C276.299 169.576 276.762 168.473 277.562 167.492C278.362 166.51 279.477 165.677 280.815 165.059L330.555 144.949Z" fill="#6A3093"/>
<path opacity="0.35" d="M330.555 144.949L250.402 112.199L200.67 132.315C199.33 132.931 198.214 133.764 197.412 134.746C196.611 135.727 196.146 136.83 196.057 137.964V142.38C196.057 143.416 196.567 144.148 197.407 144.49L277.56 177.235C276.72 176.893 276.21 176.167 276.21 175.131V170.709C276.299 169.576 276.762 168.473 277.562 167.492C278.362 166.51 279.477 165.677 280.815 165.059L330.555 144.949Z" fill="black"/>
<path d="M277.552 167.495C276.728 168.464 276.263 169.566 276.202 170.699V175.152C276.202 176.188 276.713 176.914 277.552 177.256L197.407 144.49C196.567 144.148 196.057 143.422 196.057 142.38V137.964C196.118 136.832 196.583 135.729 197.407 134.76L277.552 167.495Z" fill="#6A3093"/>
<path opacity="0.45" d="M277.552 167.495C276.728 168.464 276.263 169.566 276.202 170.699V175.152C276.202 176.188 276.713 176.914 277.552 177.256L197.407 144.49C196.567 144.148 196.057 143.422 196.057 142.38V137.964C196.118 136.832 196.583 135.729 197.407 134.76L277.552 167.495Z" fill="black"/>
<path d="M208.237 139.128C206.737 143.748 206.737 145.536 208.237 148.938L212.048 150.508C210.548 147.122 210.548 145.317 212.048 140.698L208.237 139.128Z" fill="#6A3093"/>
<path d="M260.805 160.638C259.305 165.257 259.305 167.003 260.805 170.389L264.622 171.959C263.122 168.568 263.122 166.822 264.622 162.208L260.805 160.638Z" fill="#6A3093"/>
<path d="M341.092 144.399L288.9 165.385L208.747 132.635L260.932 111.649L341.092 144.399Z" fill="#6A3093"/>
<path opacity="0.4" d="M341.092 144.399L288.9 165.385L208.747 132.635L260.932 111.649L341.092 144.399Z" fill="black"/>
<path d="M288.33 163.847L338.767 143.448C337.515 140.917 337.605 139.785 339.022 136.416L288.9 156.606C288.9 156.606 288 156.921 288.33 163.847Z" fill="#F5F5F5"/>
<path d="M291.345 153.84C290.005 154.457 288.89 155.29 288.088 156.271C287.286 157.253 286.822 158.356 286.732 159.49V164.269C286.732 166.346 288.795 167.19 291.345 166.149L341.085 146.033V144.399L291.975 164.157C290.475 164.782 289.207 164.274 289.207 163.03L289.252 158.758C289.307 158.078 289.585 157.416 290.066 156.827C290.547 156.238 291.217 155.738 292.02 155.367L341.077 135.609V133.756L291.345 153.84Z" fill="#6A3093"/>
<path opacity="0.25" d="M291.345 153.84C290.005 154.457 288.89 155.29 288.088 156.271C287.286 157.253 286.822 158.356 286.732 159.49V164.269C286.732 166.346 288.795 167.19 291.345 166.149L341.085 146.033V144.399L291.975 164.157C290.475 164.782 289.207 164.274 289.207 163.03L289.252 158.758C289.307 158.078 289.585 157.416 290.066 156.827C290.547 156.238 291.217 155.738 292.02 155.367L341.077 135.609V133.756L291.345 153.84Z" fill="black"/>
<path d="M341.085 133.73L260.932 100.979L211.192 121.095C209.853 121.711 208.738 122.544 207.937 123.526C207.137 124.508 206.674 125.611 206.587 126.745V131.551C206.587 132.587 207.097 133.313 207.937 133.655L288.09 166.405C287.25 166.063 286.74 165.337 286.74 164.296V159.517C286.827 158.383 287.289 157.28 288.09 156.298C288.89 155.316 290.006 154.483 291.345 153.867L341.085 133.73Z" fill="#6A3093"/>
<path d="M288.082 156.275C287.256 157.244 286.791 158.347 286.732 159.479V164.258C286.732 165.294 287.242 166.026 288.082 166.368L207.937 133.628C207.097 133.286 206.587 132.56 206.587 131.524V126.718C206.646 125.586 207.111 124.483 207.937 123.514L288.082 156.275Z" fill="#6A3093"/>
<path opacity="0.15" d="M288.082 156.275C287.256 157.244 286.791 158.347 286.732 159.479V164.258C286.732 165.294 287.242 166.026 288.082 166.368L207.937 133.628C207.097 133.286 206.587 132.56 206.587 131.524V126.718C206.646 125.586 207.111 124.483 207.937 123.514L288.082 156.275Z" fill="black"/>
<path d="M218.76 127.904C217.26 132.523 217.26 134.696 218.76 138.082L222.577 139.652C221.077 136.261 221.077 134.093 222.577 129.474L218.76 127.904Z" fill="#6A3093"/>
<path d="M271.335 149.44C269.835 154.059 269.835 156.152 271.335 159.538L275.152 161.108C273.652 157.722 273.652 155.613 275.152 150.994L271.335 149.44Z" fill="#6A3093"/>
<g opacity="0.4">
<path d="M218.76 127.904C217.26 132.523 217.26 134.696 218.76 138.082L222.577 139.652C221.077 136.261 221.077 134.093 222.577 129.474L218.76 127.904Z" fill="white"/>
<path d="M271.335 149.44C269.835 154.059 269.835 156.152 271.335 159.538L275.152 161.108C273.652 157.722 273.652 155.613 275.152 150.994L271.335 149.44Z" fill="white"/>
</g>
<path d="M58.875 202.071L139.942 234.864L257.527 186.804L176.467 154.011L58.875 202.071Z" fill="#6A3093"/>
<path opacity="0.4" d="M58.875 202.071L139.942 234.864L257.527 186.804L176.467 154.011L58.875 202.071Z" fill="black"/>
<path d="M140.55 233.224L61.3575 201.056C62.7 198.349 62.595 197.137 61.08 193.538L139.942 225.487C139.942 225.487 140.917 225.823 140.55 233.224Z" fill="#F5F5F5"/>
<path d="M137.325 222.528C138.756 223.186 139.949 224.076 140.806 225.125C141.662 226.173 142.158 227.351 142.252 228.563V233.668C142.252 235.894 140.047 236.792 137.325 235.681L58.8824 203.817V202.071L136.657 233.529C138.285 234.196 139.605 233.657 139.605 232.322L139.56 227.735C139.503 227.008 139.205 226.302 138.692 225.673C138.178 225.043 137.463 224.51 136.605 224.114L58.8824 192.64V190.665L137.325 222.528Z" fill="#6A3093"/>
<path opacity="0.3" d="M137.325 222.528C138.756 223.186 139.949 224.076 140.806 225.125C141.662 226.173 142.158 227.351 142.252 228.563V233.668C142.252 235.894 140.047 236.792 137.325 235.681L58.8824 203.817V202.071L136.657 233.529C138.285 234.196 139.605 233.657 139.605 232.322L139.56 227.735C139.503 227.008 139.205 226.302 138.692 225.673C138.178 225.043 137.463 224.51 136.605 224.114L58.8824 192.64V190.665L137.325 222.528Z" fill="black"/>
<path d="M58.8823 190.665L176.467 142.605L254.91 174.468C256.341 175.126 257.534 176.016 258.391 177.065C259.247 178.113 259.743 179.291 259.837 180.503V185.608C259.837 186.718 259.29 187.498 258.397 187.861L140.805 235.921C141.697 235.558 142.245 234.773 142.245 233.668V228.552C142.15 227.341 141.656 226.164 140.801 225.115C139.946 224.066 138.755 223.176 137.325 222.518L58.8823 190.665Z" fill="#6A3093"/>
<path opacity="0.2" d="M58.8823 190.665L176.467 142.605L254.91 174.468C256.341 175.126 257.534 176.016 258.391 177.065C259.247 178.113 259.743 179.291 259.837 180.503V185.608C259.837 186.718 259.29 187.498 258.397 187.861L140.805 235.921C141.697 235.558 142.245 234.773 142.245 233.668V228.552C142.15 227.341 141.656 226.164 140.801 225.115C139.946 224.066 138.755 223.176 137.325 222.518L58.8823 190.665Z" fill="black"/>
<path d="M140.812 225.129C141.698 226.167 142.194 227.349 142.252 228.563V233.673C142.252 234.778 141.705 235.563 140.812 235.927L258.405 187.867C259.298 187.503 259.845 186.724 259.845 185.613V180.492C259.783 179.279 259.287 178.097 258.405 177.058L140.812 225.129Z" fill="#6A3093"/>
<path d="M140.812 225.129C141.699 226.166 142.195 227.349 142.252 228.563V233.673C142.252 234.778 141.705 235.558 140.812 235.927L258.398 187.867C259.298 187.503 259.838 186.718 259.845 185.613V180.492C259.787 179.278 259.291 178.096 258.405 177.058L140.812 225.129Z" fill="#6A3093"/>
<path d="M246.825 181.752C248.422 186.686 248.4 189.004 246.825 192.624L242.745 194.301C244.32 190.681 244.342 188.363 242.745 183.429L246.825 181.752Z" fill="#6A3093"/>
<path d="M158.708 217.813C160.305 222.747 160.283 224.996 158.708 228.616L154.635 230.277C156.203 226.656 156.225 224.403 154.635 219.479L158.708 217.813Z" fill="#6A3093"/>
<g opacity="0.4">
<path d="M246.825 181.752C248.423 186.686 248.4 189.004 246.825 192.624L242.745 194.301C244.32 190.681 244.343 188.363 242.745 183.429L246.825 181.752Z" fill="white"/>
<path d="M158.708 217.813C160.305 222.747 160.283 224.996 158.708 228.616L154.635 230.277C156.203 226.656 156.225 224.403 154.635 219.479L158.708 217.813Z" fill="white"/>
</g>
<path d="M48.4875 190.98L129.555 223.773L247.14 175.713L166.08 142.92L48.4875 190.98Z" fill="#6A3093"/>
<path opacity="0.2" d="M48.4875 190.98L129.555 223.773L247.14 175.713L166.08 142.92L48.4875 190.98Z" fill="white"/>
<path d="M130.162 222.144L51 189.965C52.3425 187.258 52.2375 186.435 50.7225 182.836L129.585 214.78C129.585 214.78 130.5 214.732 130.162 222.144Z" fill="#F5F5F5"/>
<path d="M126.937 211.827C128.369 212.485 129.562 213.374 130.418 214.423C131.274 215.472 131.77 216.65 131.865 217.861V222.577C131.865 224.803 129.66 225.7 126.937 224.59L48.4948 192.726V190.98L126.27 222.438C127.897 223.105 129.217 222.566 129.217 221.231L129.172 217.034C129.115 216.306 128.818 215.599 128.304 214.969C127.791 214.339 127.076 213.804 126.217 213.408L48.4948 181.939V179.958L126.937 211.827Z" fill="#6A3093"/>
<path opacity="0.4" d="M126.937 211.827C128.369 212.485 129.562 213.374 130.418 214.423C131.274 215.472 131.77 216.65 131.865 217.861V222.577C131.865 224.803 129.66 225.7 126.937 224.59L48.4948 192.726V190.98L126.27 222.438C127.897 223.105 129.217 222.566 129.217 221.231L129.172 217.034C129.115 216.306 128.818 215.599 128.304 214.969C127.791 214.339 127.076 213.804 126.217 213.408L48.4948 181.939V179.958L126.937 211.827Z" fill="white"/>
<path d="M48.4875 179.958L166.08 131.898L244.5 163.767C245.937 164.425 247.135 165.315 247.995 166.366C248.855 167.417 249.354 168.598 249.45 169.812V174.527C249.45 175.638 248.903 176.418 248.003 176.781L130.417 224.814C131.31 224.446 131.857 223.666 131.857 222.561V217.872C131.763 216.661 131.268 215.482 130.413 214.433C129.558 213.383 128.367 212.492 126.937 211.832L48.4875 179.958Z" fill="#6A3093"/>
<path opacity="0.85" d="M48.4875 179.958L166.08 131.898L244.5 163.767C245.937 164.425 247.135 165.315 247.995 166.366C248.855 167.417 249.354 168.598 249.45 169.812V174.527C249.45 175.638 248.903 176.418 248.003 176.781L130.417 224.814C131.31 224.446 131.857 223.666 131.857 222.561V217.872C131.763 216.661 131.268 215.482 130.413 214.433C129.558 213.383 128.367 212.492 126.937 211.832L48.4875 179.958Z" fill="white"/>
<path d="M130.425 214.428C131.311 215.465 131.807 216.648 131.865 217.861V222.582C131.865 223.687 131.317 224.467 130.425 224.835L248.01 176.775C248.91 176.412 249.457 175.633 249.457 174.522V169.812C249.397 168.598 248.898 167.416 248.01 166.378L130.425 214.428Z" fill="#6A3093"/>
<path opacity="0.6" d="M130.425 214.428C131.311 215.465 131.807 216.648 131.865 217.861V222.582C131.865 223.687 131.317 224.467 130.425 224.835L248.01 176.775C248.91 176.412 249.457 175.633 249.457 174.522V169.812C249.397 168.598 248.898 167.416 248.01 166.378L130.425 214.428Z" fill="white"/>
<path d="M236.437 171.051C238.035 175.985 238.012 177.913 236.437 181.533L232.357 183.21C233.932 179.59 233.955 177.662 232.357 172.722L236.437 171.051Z" fill="white"/>
<path d="M148.32 207.096C149.917 212.03 149.895 213.899 148.32 217.52L144.24 219.191C145.815 215.576 145.837 213.707 144.24 208.773L148.32 207.096Z" fill="white"/>
<path d="M196.98 50.5645L208.343 46.3352C208.343 46.3352 215.55 47.6488 227.595 47.1415C245.408 46.3886 255.803 41.0326 253.155 33.5138C250.44 25.8082 238.53 22.7804 217.298 23.3678C190.74 24.1048 184.298 36.9261 200.153 44.5036L196.98 50.5645Z" fill="#6A3093"/>
<path opacity="0.7" d="M196.98 50.5645L208.343 46.3352C208.343 46.3352 215.55 47.6488 227.595 47.1415C245.408 46.3886 255.803 41.0326 253.155 33.5138C250.44 25.8082 238.53 22.7804 217.298 23.3678C190.74 24.1048 184.298 36.9261 200.153 44.5036L196.98 50.5645Z" fill="white"/>
<path d="M209.16 37.5509C210.726 37.5509 211.995 36.6472 211.995 35.5324C211.995 34.4176 210.726 33.5139 209.16 33.5139C207.594 33.5139 206.325 34.4176 206.325 35.5324C206.325 36.6472 207.594 37.5509 209.16 37.5509Z" fill="white"/>
<path d="M222.48 37.5509C224.046 37.5509 225.315 36.6472 225.315 35.5324C225.315 34.4176 224.046 33.5139 222.48 33.5139C220.914 33.5139 219.645 34.4176 219.645 35.5324C219.645 36.6472 220.914 37.5509 222.48 37.5509Z" fill="white"/>
<path d="M235.8 37.5509C237.366 37.5509 238.635 36.6472 238.635 35.5324C238.635 34.4176 237.366 33.5139 235.8 33.5139C234.234 33.5139 232.965 34.4176 232.965 35.5324C232.965 36.6472 234.234 37.5509 235.8 37.5509Z" fill="white"/>
<path d="M54.2025 172.632C54.2025 174.009 55.6575 174.896 57.45 175.633L130.838 205.804C131.843 206.167 132.954 206.357 134.081 206.357C135.209 206.357 136.32 206.167 137.325 205.804L255.75 157.135C257.543 156.398 258.998 155.447 258.998 154.07C258.998 152.692 257.543 151.832 255.758 151.095L182.325 120.93C181.321 120.566 180.211 120.377 179.085 120.377C177.959 120.377 176.849 120.566 175.845 120.93L57.45 169.598C55.6575 170.346 54.2025 171.248 54.2025 172.632Z" fill="#37474F"/>
<path d="M57.45 172.263L130.837 202.429C131.843 202.792 132.954 202.982 134.081 202.982C135.209 202.982 136.32 202.792 137.325 202.429L255.75 153.76C257.535 153.028 257.535 151.832 255.75 151.09L182.325 120.93C181.321 120.566 180.211 120.377 179.085 120.377C177.959 120.377 176.849 120.566 175.845 120.93L57.45 169.598C55.6575 170.346 55.6575 171.526 57.45 172.263Z" fill="#455A64"/>
<path d="M134.085 202.989V206.354C132.956 206.376 131.838 206.192 130.838 205.82L57.45 175.633C55.6575 174.896 54.2025 174.031 54.2025 172.632C54.2025 171.334 55.5075 170.431 57.2025 169.7C55.8075 170.399 55.785 171.574 57.4575 172.263L130.845 202.434C131.841 202.813 132.956 203.004 134.085 202.989Z" fill="#263238"/>
<path d="M52.8001 169.956C51.3751 169.486 50.9926 168.685 50.8501 167.286L44.4901 101.017C44.4858 100.239 44.7588 99.4739 45.2836 98.7921C45.8083 98.1103 46.5675 97.5345 47.4901 97.1187L165.885 48.4285C167.67 47.6916 168.983 47.2911 170.64 48.0975C172.298 48.9038 172.328 49.347 172.463 50.7675L178.823 117.042C178.828 117.82 178.555 118.585 178.03 119.267C177.505 119.949 176.746 120.525 175.823 120.94L57.4351 169.604C55.6426 170.346 54.6301 170.554 52.8001 169.956Z" fill="#37474F"/>
<path d="M172.5 50.7621C172.365 49.347 170.805 48.7969 169.013 49.5285L50.58 98.2026C49.6283 98.6112 48.8505 99.1963 48.33 99.8954L45.27 98.79C45.796 98.0937 46.5725 97.5095 47.52 97.0972L165.878 48.4285C167.67 47.6916 168.99 47.2857 170.64 48.0974C172.29 48.9091 172.328 49.347 172.5 50.7621Z" fill="#455A64"/>
<path d="M57.195 169.7C55.56 170.383 54.5325 170.469 52.8 169.951C51.4725 169.556 50.9925 168.685 50.8575 167.281L44.49 100.995C44.4447 100.226 44.7047 99.464 45.24 98.7953L48.33 99.8901C47.8002 100.56 47.5407 101.322 47.58 102.09L53.9475 168.37C54.0675 169.684 55.665 170.346 57.195 169.7Z" fill="#263238"/>
<path d="M52.635 100.734L166.575 53.934C167.648 53.4908 168.585 53.8219 168.668 54.6709L174.6 116.497C174.603 116.963 174.441 117.422 174.127 117.831C173.814 118.24 173.36 118.586 172.808 118.836L58.8675 165.636C57.795 166.079 56.8575 165.748 56.775 164.899L50.835 103.062C50.8371 102.598 51.003 102.141 51.3175 101.734C51.632 101.327 52.0851 100.983 52.635 100.734Z" fill="black"/>
<path d="M52.635 100.734C52.0829 100.984 51.6285 101.33 51.3139 101.739C50.9993 102.148 50.8346 102.607 50.835 103.073L56.6775 163.869L169.313 117.581C169.865 117.331 170.319 116.986 170.632 116.577C170.946 116.167 171.108 115.709 171.105 115.243L165.27 54.468L52.635 100.734Z" fill="#6A3093"/>
<path opacity="0.8" d="M52.635 100.734C52.0829 100.984 51.6285 101.33 51.3139 101.739C50.9993 102.148 50.8346 102.607 50.835 103.073L56.6775 163.869L169.313 117.581C169.865 117.331 170.319 116.986 170.632 116.577C170.946 116.167 171.108 115.709 171.105 115.243L165.27 54.468L52.635 100.734Z" fill="white"/>
<path d="M67.5 169.988L176.25 125.266C176.724 125.094 177.248 125.005 177.78 125.005C178.312 125.005 178.836 125.094 179.31 125.266L183.278 126.868C183.461 126.913 183.62 126.999 183.733 127.111C183.845 127.224 183.906 127.359 183.906 127.498C183.906 127.636 183.845 127.771 183.733 127.884C183.62 127.997 183.461 128.082 183.278 128.128L74.4675 172.824C73.9934 172.995 73.4692 173.084 72.9375 173.084C72.4059 173.084 71.8817 172.995 71.4075 172.824L67.4625 171.222C67.2896 171.171 67.1423 171.084 67.0401 170.972C66.9378 170.86 66.8852 170.729 66.8893 170.596C66.8933 170.463 66.9538 170.333 67.0628 170.225C67.1717 170.116 67.3241 170.034 67.5 169.988Z" fill="#263238"/>
<path d="M78.1425 174.474L186.945 129.762C187.366 129.59 187.838 129.491 188.322 129.473C188.807 129.454 189.291 129.517 189.735 129.655L218.055 141.296C218.753 141.585 218.64 142.097 217.793 142.445L109.118 187.108C108.697 187.28 108.225 187.379 107.741 187.399C107.257 187.418 106.773 187.357 106.328 187.22L77.8875 175.633C77.1825 175.334 77.3025 174.821 78.1425 174.474Z" fill="#263238"/>
<path d="M172.425 148.537L175.83 147.138C175.972 147.074 175.987 146.984 175.83 146.93L172.567 145.595C172.491 145.567 172.406 145.553 172.32 145.553C172.234 145.553 172.149 145.567 172.072 145.595L168.667 146.994C168.525 147.053 168.51 147.144 168.667 147.197L171.93 148.537C172.007 148.565 172.091 148.58 172.177 148.58C172.263 148.58 172.348 148.565 172.425 148.537ZM167.445 143.689L164.04 145.093C163.897 145.152 163.882 145.243 164.04 145.296L167.25 146.636C167.326 146.665 167.411 146.68 167.497 146.68C167.584 146.68 167.669 146.665 167.745 146.636L171.15 145.237C171.292 145.179 171.307 145.088 171.15 145.034L167.887 143.694C167.818 143.671 167.743 143.659 167.667 143.658C167.591 143.657 167.515 143.668 167.445 143.689ZM156.442 148.217L150.675 150.588C150.532 150.652 150.517 150.743 150.675 150.796L153.937 152.131C154.014 152.159 154.099 152.173 154.185 152.173C154.271 152.173 154.356 152.159 154.432 152.131L160.2 149.76C160.342 149.702 160.357 149.611 160.2 149.557L156.945 148.217C156.867 148.19 156.781 148.176 156.694 148.176C156.607 148.176 156.521 148.19 156.442 148.217ZM162.442 145.739L159.03 147.138C158.887 147.197 158.872 147.288 159.03 147.341L162.292 148.682C162.369 148.709 162.454 148.724 162.54 148.724C162.626 148.724 162.711 148.709 162.787 148.682L166.192 147.277C166.335 147.218 166.35 147.128 166.192 147.074L162.93 145.734C162.857 145.712 162.779 145.701 162.7 145.702C162.622 145.703 162.544 145.716 162.472 145.739H162.442ZM149.107 151.229L145.695 152.633C145.552 152.692 145.537 152.783 145.695 152.836L148.95 154.176C149.026 154.205 149.111 154.22 149.197 154.22C149.284 154.22 149.369 154.205 149.445 154.176L152.85 152.777C153 152.719 153.007 152.628 152.85 152.574L149.595 151.234C149.52 151.207 149.437 151.192 149.352 151.191C149.268 151.19 149.184 151.203 149.107 151.229ZM144.127 153.258L140.722 154.657C140.572 154.716 140.565 154.807 140.722 154.86L143.977 156.2C144.054 156.228 144.139 156.242 144.225 156.242C144.311 156.242 144.396 156.228 144.472 156.2L147.877 154.796C148.027 154.737 148.035 154.646 147.877 154.593L144.622 153.258C144.546 153.23 144.461 153.216 144.375 153.216C144.289 153.216 144.204 153.23 144.127 153.258ZM156.877 158.721L160.282 157.322C160.432 157.263 160.44 157.172 160.282 157.119L157.027 155.778C156.951 155.751 156.866 155.736 156.78 155.736C156.694 155.736 156.609 155.751 156.532 155.778L153.12 157.183C152.977 157.242 152.962 157.332 153.12 157.386L156.375 158.726C156.453 158.761 156.543 158.781 156.635 158.783C156.727 158.786 156.818 158.772 156.9 158.742L156.877 158.721ZM151.897 160.771L155.302 159.367C155.452 159.308 155.46 159.217 155.302 159.164L152.047 157.829C151.971 157.801 151.886 157.787 151.8 157.787C151.714 157.787 151.629 157.801 151.552 157.829L148.147 159.228C147.997 159.287 147.99 159.378 148.147 159.431L151.402 160.771C151.48 160.805 151.567 160.825 151.657 160.828C151.748 160.832 151.838 160.82 151.92 160.793L151.897 160.771ZM146.917 162.817L150.33 161.418C150.472 161.359 150.487 161.268 150.33 161.215L147.075 159.874C146.998 159.847 146.913 159.832 146.827 159.832C146.741 159.832 146.657 159.847 146.58 159.874L143.25 161.305C143.1 161.364 143.092 161.455 143.25 161.508L146.505 162.849C146.575 162.868 146.649 162.877 146.724 162.875C146.799 162.874 146.872 162.861 146.94 162.838L146.917 162.817ZM141.945 164.862L145.35 163.463C145.492 163.404 145.507 163.313 145.35 163.26L142.087 161.919C142.011 161.892 141.926 161.877 141.84 161.877C141.754 161.877 141.669 161.892 141.592 161.919L138.187 163.324C138.045 163.383 138.03 163.473 138.187 163.527L141.45 164.862C141.527 164.896 141.615 164.915 141.705 164.919C141.795 164.923 141.885 164.91 141.967 164.883L141.945 164.862ZM167.445 150.561L170.85 149.162C170.992 149.103 171.007 149.013 170.85 148.959L167.587 147.619C167.511 147.591 167.426 147.577 167.34 147.577C167.254 147.577 167.169 147.591 167.092 147.619L163.687 149.018C163.545 149.077 163.53 149.173 163.687 149.221L166.95 150.588C167.027 150.616 167.111 150.63 167.197 150.63C167.283 150.63 167.368 150.616 167.445 150.588V150.561ZM161.88 156.676L169.5 153.573C169.642 153.514 169.657 153.424 169.5 153.37L161.587 150.118C161.511 150.09 161.426 150.076 161.34 150.076C161.254 150.076 161.169 150.09 161.092 150.118L157.162 151.72C157.012 151.779 157.005 151.87 157.162 151.923L161.347 153.642C161.482 153.696 161.467 153.787 161.347 153.845L158.197 155.138C158.055 155.202 158.04 155.293 158.197 155.346L161.46 156.681C161.525 156.703 161.596 156.716 161.668 156.719C161.74 156.722 161.812 156.714 161.88 156.697V156.676ZM139.147 155.303L135.75 156.724C135.6 156.782 135.592 156.873 135.75 156.927L139.005 158.267C139.082 158.295 139.166 158.309 139.252 158.309C139.338 158.309 139.423 158.295 139.5 158.267L142.912 156.868C143.055 156.809 143.07 156.718 142.912 156.665L139.657 155.325C139.579 155.295 139.491 155.28 139.402 155.28C139.314 155.28 139.226 155.295 139.147 155.325V155.303ZM134.167 157.348L130.762 158.748C130.62 158.812 130.605 158.902 130.762 158.956L134.025 160.291C134.102 160.318 134.186 160.333 134.272 160.333C134.358 160.333 134.443 160.318 134.52 160.291L137.925 158.892C138.067 158.833 138.082 158.742 137.925 158.689L134.662 157.348C134.583 157.324 134.497 157.313 134.411 157.317C134.325 157.321 134.242 157.339 134.167 157.37V157.348ZM106.62 179.2C106.697 179.227 106.781 179.242 106.868 179.242C106.953 179.242 107.038 179.227 107.115 179.2L110.52 177.801C110.662 177.742 110.677 177.651 110.52 177.598L107.257 176.257C107.181 176.23 107.096 176.215 107.01 176.215C106.924 176.215 106.839 176.23 106.763 176.257L103.357 177.656C103.215 177.721 103.2 177.811 103.357 177.859L106.62 179.2ZM94.335 173.721L90.93 175.152C90.7875 175.211 90.7725 175.302 90.93 175.355L94.1925 176.695C94.2698 176.721 94.3544 176.735 94.44 176.735C94.5256 176.735 94.6101 176.721 94.6875 176.695L98.0925 175.296C98.235 175.237 98.25 175.147 98.0925 175.093L94.83 173.753C94.7545 173.724 94.6703 173.707 94.5843 173.705C94.4983 173.704 94.4129 173.716 94.335 173.742V173.721ZM100.65 177.827C100.727 177.855 100.811 177.869 100.897 177.869C100.983 177.869 101.068 177.855 101.145 177.827L104.55 176.423C104.7 176.364 104.707 176.273 104.55 176.22L101.295 174.88C101.219 174.851 101.134 174.836 101.047 174.836C100.961 174.836 100.876 174.851 100.8 174.88L97.395 176.279C97.245 176.337 97.2375 176.428 97.395 176.482L100.65 177.827ZM114.39 180.027L117.795 178.628C117.937 178.564 117.952 178.473 117.795 178.42L114.533 177.085C114.456 177.057 114.371 177.043 114.285 177.043C114.199 177.043 114.114 177.057 114.037 177.085L110.632 178.484C110.49 178.543 110.475 178.634 110.632 178.687L113.895 180.027C113.969 180.058 114.053 180.077 114.139 180.08C114.225 180.084 114.311 180.073 114.39 180.049V180.027ZM108.915 182.083C108.992 182.111 109.076 182.125 109.162 182.125C109.248 182.125 109.333 182.111 109.41 182.083L112.815 180.684C112.957 180.626 112.972 180.535 112.815 180.481L109.56 179.141C109.483 179.113 109.398 179.099 109.312 179.099C109.226 179.099 109.142 179.113 109.065 179.141L105.652 180.54C105.51 180.599 105.495 180.69 105.652 180.743L108.915 182.083ZM99.315 171.676L95.91 173.075C95.7675 173.139 95.7525 173.23 95.91 173.278L99.1725 174.618C99.2492 174.646 99.334 174.66 99.42 174.66C99.506 174.66 99.5908 174.646 99.6675 174.618L103.072 173.219C103.215 173.16 103.23 173.069 103.072 173.016L99.81 171.676C99.7309 171.651 99.6449 171.64 99.5589 171.644C99.4729 171.648 99.3893 171.666 99.315 171.697V171.676ZM124.207 161.444L120.803 162.87C120.66 162.929 120.645 163.02 120.803 163.073L124.065 164.413C124.142 164.441 124.226 164.455 124.312 164.455C124.398 164.455 124.483 164.441 124.56 164.413L127.965 163.014C128.107 162.95 128.122 162.859 127.965 162.806L124.702 161.471C124.626 161.442 124.542 161.427 124.456 161.426C124.37 161.425 124.285 161.439 124.207 161.466V161.444ZM104.295 169.652L100.89 171.051C100.747 171.11 100.733 171.2 100.89 171.254L104.152 172.594C104.229 172.622 104.314 172.636 104.4 172.636C104.486 172.636 104.571 172.622 104.647 172.594L108.053 171.195C108.195 171.131 108.21 171.04 108.053 170.987L104.79 169.652C104.713 169.624 104.628 169.61 104.542 169.61C104.456 169.61 104.372 169.624 104.295 169.652ZM129.187 159.42L125.783 160.819C125.64 160.878 125.625 160.969 125.783 161.022L129.045 162.363C129.121 162.391 129.206 162.406 129.292 162.406C129.379 162.406 129.464 162.391 129.54 162.363L132.945 160.964C133.087 160.905 133.102 160.814 132.945 160.761L129.682 159.42C129.606 159.392 129.521 159.377 129.435 159.377C129.349 159.377 129.264 159.392 129.187 159.42ZM119.25 163.511L115.837 164.91C115.695 164.969 115.68 165.059 115.837 165.113L119.092 166.453C119.169 166.481 119.254 166.495 119.34 166.495C119.426 166.495 119.511 166.481 119.587 166.453L122.993 165.054C123.142 164.995 123.15 164.905 122.993 164.851L119.737 163.511C119.662 163.484 119.578 163.47 119.494 163.47C119.409 163.47 119.326 163.484 119.25 163.511ZM114.255 165.54L110.85 166.944C110.7 167.003 110.692 167.094 110.85 167.147L114.105 168.488C114.182 168.514 114.267 168.527 114.352 168.527C114.438 168.527 114.523 168.514 114.6 168.488L118.005 167.089C118.155 167.03 118.162 166.939 118.005 166.886L114.75 165.54C114.673 165.512 114.588 165.498 114.502 165.498C114.416 165.498 114.332 165.512 114.255 165.54ZM109.275 167.591L105.87 168.99C105.72 169.048 105.712 169.139 105.87 169.193L109.125 170.533C109.202 170.561 109.286 170.575 109.372 170.575C109.458 170.575 109.543 170.561 109.62 170.533L113.033 169.128C113.175 169.07 113.19 168.979 113.033 168.926L109.777 167.585C109.698 167.559 109.61 167.547 109.522 167.551C109.435 167.555 109.35 167.574 109.275 167.607V167.591ZM132 168.979L135.405 167.58C135.547 167.516 135.562 167.425 135.405 167.372L132.142 166.037C132.066 166.009 131.981 165.995 131.895 165.995C131.809 165.995 131.724 166.009 131.647 166.037L128.25 167.446C128.107 167.505 128.092 167.596 128.25 167.649L131.512 168.99C131.589 169.015 131.673 169.027 131.758 169.025C131.843 169.023 131.925 169.007 132 168.979ZM178.447 139.166L175.042 140.565C174.892 140.629 174.885 140.72 175.042 140.773L178.297 142.108C178.374 142.136 178.459 142.15 178.545 142.15C178.631 142.15 178.716 142.136 178.792 142.108L182.197 140.709C182.347 140.65 182.355 140.559 182.197 140.506L178.942 139.166C178.867 139.139 178.783 139.125 178.699 139.125C178.614 139.125 178.531 139.139 178.455 139.166H178.447ZM172.447 141.644L169.042 143.043C168.9 143.107 168.885 143.197 169.042 143.246L172.305 144.586C172.382 144.614 172.466 144.628 172.552 144.628C172.638 144.628 172.723 144.614 172.8 144.586L176.205 143.187C176.347 143.128 176.362 143.037 176.205 142.984L172.942 141.644C172.863 141.613 172.774 141.597 172.684 141.597C172.593 141.597 172.505 141.613 172.425 141.644H172.447ZM183.457 137.121L180 138.52C179.857 138.578 179.842 138.669 180 138.723L183.255 140.063C183.332 140.091 183.416 140.105 183.502 140.105C183.588 140.105 183.673 140.091 183.75 140.063L187.155 138.664C187.305 138.605 187.312 138.509 187.155 138.461L183.9 137.121C183.827 137.096 183.748 137.084 183.667 137.084C183.587 137.084 183.508 137.096 183.435 137.121H183.457ZM155.932 155.325L159.345 153.92C159.487 153.861 159.502 153.771 159.345 153.717L156.082 152.377C156.005 152.351 155.921 152.337 155.835 152.337C155.749 152.337 155.665 152.351 155.587 152.377L152.19 153.792C152.047 153.851 152.032 153.942 152.19 153.995L155.445 155.335C155.519 155.358 155.599 155.369 155.679 155.367C155.76 155.365 155.838 155.351 155.91 155.325H155.932ZM188.932 135.033C188.855 135.006 188.771 134.993 188.685 134.993C188.599 134.993 188.515 135.006 188.437 135.033L185.033 136.432C184.89 136.49 184.875 136.581 185.033 136.635L188.295 137.975C188.372 138.003 188.456 138.017 188.542 138.017C188.628 138.017 188.713 138.003 188.79 137.975L192.195 136.571C192.338 136.512 192.353 136.421 192.195 136.368L188.932 135.033ZM136.987 166.928L140.392 165.529C140.535 165.471 140.55 165.38 140.392 165.326L137.13 163.986C137.054 163.958 136.969 163.943 136.882 163.943C136.796 163.943 136.711 163.958 136.635 163.986L133.23 165.385C133.087 165.444 133.072 165.535 133.23 165.588L136.492 166.928C136.569 166.957 136.654 166.972 136.74 166.972C136.826 166.972 136.911 166.957 136.987 166.928ZM198.037 141.83L201.45 140.442C201.592 140.383 201.607 140.292 201.45 140.239L198.187 138.899C198.111 138.87 198.026 138.855 197.94 138.855C197.854 138.855 197.769 138.87 197.692 138.899L194.287 140.298C194.145 140.357 194.13 140.447 194.287 140.501L197.543 141.841C197.62 141.868 197.706 141.882 197.792 141.88C197.878 141.878 197.963 141.861 198.037 141.83ZM188.408 141.964L191.812 140.565C191.955 140.506 191.97 140.415 191.812 140.362L188.55 139.022C188.473 138.994 188.388 138.979 188.302 138.979C188.216 138.979 188.132 138.994 188.055 139.022L184.68 140.442C184.537 140.501 184.522 140.592 184.68 140.645L187.942 141.985C188.018 142.005 188.098 142.013 188.178 142.009C188.258 142.006 188.336 141.99 188.408 141.964ZM193.56 136.976C193.483 136.949 193.398 136.934 193.312 136.934C193.226 136.934 193.142 136.949 193.065 136.976L189.66 138.375C189.518 138.434 189.503 138.53 189.66 138.578L192.923 139.919C192.999 139.946 193.084 139.961 193.17 139.961C193.256 139.961 193.341 139.946 193.418 139.919L196.822 138.52C196.965 138.461 196.98 138.37 196.822 138.317L193.56 136.976ZM194.61 136.544L202.5 139.796C202.577 139.824 202.661 139.838 202.747 139.838C202.833 139.838 202.918 139.824 202.995 139.796L206.4 138.397C206.55 138.338 206.558 138.247 206.4 138.194L198.487 134.942C198.411 134.914 198.326 134.9 198.24 134.9C198.154 134.9 198.069 134.914 197.992 134.942L194.588 136.341C194.498 136.4 194.483 136.49 194.61 136.544ZM183.112 141.083L179.7 142.482C179.558 142.541 179.543 142.631 179.7 142.685L182.962 144.025C183.039 144.053 183.124 144.067 183.21 144.067C183.296 144.067 183.381 144.053 183.457 144.025L186.862 142.621C187.005 142.562 187.02 142.471 186.862 142.418L183.607 141.077C183.531 141.049 183.445 141.035 183.359 141.036C183.273 141.037 183.188 141.053 183.112 141.083ZM145.612 156.483L142.207 157.882C142.065 157.947 142.05 158.037 142.207 158.091L145.47 159.426C145.547 159.453 145.631 159.468 145.717 159.468C145.803 159.468 145.888 159.453 145.965 159.426L149.37 158.027C149.512 157.968 149.527 157.877 149.37 157.824L146.13 156.462C146.053 156.434 145.968 156.42 145.882 156.42C145.796 156.42 145.712 156.434 145.635 156.462L145.612 156.483ZM192.548 143.892C192.624 143.919 192.709 143.934 192.795 143.934C192.881 143.934 192.966 143.919 193.043 143.892L196.447 142.487C196.59 142.428 196.605 142.338 196.447 142.284L193.185 140.944C193.108 140.918 193.023 140.904 192.937 140.904C192.852 140.904 192.767 140.918 192.69 140.944L189.285 142.343C189.143 142.402 189.128 142.493 189.285 142.546L192.548 143.892ZM150.592 154.438L147.187 155.837C147.045 155.896 147.03 155.987 147.187 156.04L150.45 157.38C150.527 157.408 150.611 157.423 150.697 157.423C150.783 157.423 150.868 157.408 150.945 157.38L154.35 155.981C154.492 155.923 154.507 155.827 154.35 155.778L151.087 154.438C151.014 154.413 150.933 154.4 150.851 154.4C150.769 154.4 150.689 154.413 150.615 154.438H150.592ZM111.592 177.176C111.669 177.204 111.754 177.218 111.84 177.218C111.926 177.218 112.011 177.204 112.087 177.176L115.493 175.777C115.635 175.713 115.65 175.622 115.493 175.569L112.23 174.234C112.153 174.206 112.068 174.191 111.982 174.191C111.896 174.191 111.812 174.206 111.735 174.234L108.33 175.633C108.187 175.691 108.172 175.782 108.33 175.836L111.592 177.176ZM105.803 172.856L102.39 174.26C102.247 174.319 102.233 174.41 102.39 174.463L105.645 175.803C105.722 175.83 105.807 175.843 105.892 175.843C105.978 175.843 106.063 175.83 106.14 175.803L109.545 174.404C109.695 174.346 109.702 174.255 109.545 174.201L106.29 172.861C106.216 172.834 106.134 172.82 106.051 172.819C105.968 172.818 105.885 172.831 105.81 172.856H105.803ZM117.053 175.12L120.465 173.716C120.607 173.657 120.622 173.566 120.465 173.513L117.21 172.172C117.134 172.144 117.049 172.129 116.962 172.129C116.876 172.129 116.791 172.144 116.715 172.172L113.31 173.571C113.16 173.63 113.152 173.721 113.31 173.774L116.565 175.115C116.642 175.144 116.728 175.16 116.815 175.161C116.903 175.162 116.989 175.148 117.067 175.12H117.053ZM122.033 173.069L125.437 171.67C125.587 171.612 125.595 171.521 125.437 171.467L122.25 170.127C122.173 170.099 122.088 170.085 122.002 170.085C121.916 170.085 121.832 170.099 121.755 170.127L118.35 171.531C118.2 171.59 118.192 171.681 118.35 171.734L121.605 173.075C121.676 173.095 121.751 173.104 121.827 173.103C121.903 173.103 121.978 173.091 122.047 173.069H122.033ZM127.013 171.024L130.417 169.625C130.567 169.566 130.575 169.476 130.417 169.422L127.162 168.082C127.086 168.054 127.001 168.04 126.915 168.04C126.829 168.04 126.744 168.054 126.667 168.082L123.255 169.481C123.112 169.54 123.097 169.636 123.255 169.684L126.51 171.024C126.59 171.055 126.678 171.07 126.769 171.07C126.859 171.07 126.948 171.055 127.027 171.024H127.013ZM110.767 170.811L107.362 172.21C107.22 172.268 107.205 172.359 107.362 172.413L110.625 173.753C110.702 173.781 110.786 173.795 110.872 173.795C110.958 173.795 111.043 173.781 111.12 173.753L114.525 172.354C114.667 172.295 114.682 172.204 114.525 172.151L111.263 170.811C111.188 170.785 111.106 170.771 111.022 170.771C110.939 170.771 110.857 170.785 110.783 170.811H110.767ZM115.747 168.765L112.342 170.164C112.2 170.223 112.185 170.314 112.342 170.367L115.605 171.708C115.682 171.735 115.766 171.75 115.852 171.75C115.938 171.75 116.023 171.735 116.1 171.708L119.505 170.303C119.647 170.245 119.662 170.154 119.505 170.1L116.25 168.744C116.174 168.717 116.091 168.703 116.006 168.703C115.922 168.703 115.838 168.717 115.763 168.744L115.747 168.765ZM135.667 160.579L132.255 161.978C132.112 162.037 132.097 162.128 132.255 162.181L135.51 163.521C135.587 163.549 135.671 163.564 135.757 163.564C135.843 163.564 135.928 163.549 136.005 163.521L139.41 162.117C139.56 162.058 139.567 161.968 139.41 161.914L136.155 160.574C136.08 160.551 135.999 160.54 135.918 160.54C135.837 160.541 135.756 160.555 135.682 160.579H135.667ZM130.687 162.624L127.283 164.023C127.132 164.082 127.125 164.173 127.283 164.226L130.537 165.567C130.614 165.594 130.699 165.609 130.785 165.609C130.871 165.609 130.956 165.594 131.032 165.567L134.437 164.168C134.587 164.109 134.595 164.018 134.437 163.965L131.182 162.624C131.108 162.598 131.026 162.585 130.942 162.585C130.859 162.585 130.777 162.598 130.702 162.624H130.687ZM140.64 158.529L137.25 159.933C137.107 159.992 137.092 160.083 137.25 160.136L140.512 161.476C140.589 161.505 140.674 161.52 140.76 161.52C140.846 161.52 140.931 161.505 141.007 161.476L144.412 160.077C144.555 160.018 144.57 159.928 144.412 159.874L141.15 158.534C141.074 158.505 140.989 158.49 140.903 158.489C140.817 158.488 140.732 158.502 140.655 158.529H140.64ZM120.75 166.72L117.345 168.119C117.202 168.178 117.188 168.269 117.345 168.322L120.607 169.662C120.684 169.691 120.769 169.706 120.855 169.706C120.941 169.706 121.026 169.691 121.102 169.662L124.507 168.263C124.65 168.205 124.665 168.114 124.507 168.06L121.245 166.72C121.169 166.692 121.084 166.677 120.997 166.677C120.911 166.677 120.826 166.692 120.75 166.72ZM125.73 164.67L122.317 166.074C122.167 166.138 122.16 166.229 122.317 166.282L125.572 167.617C125.649 167.645 125.734 167.659 125.82 167.659C125.906 167.659 125.991 167.645 126.067 167.617L129.48 166.218C129.622 166.159 129.637 166.069 129.48 166.015L126.217 164.675C126.141 164.646 126.057 164.631 125.971 164.63C125.885 164.629 125.8 164.643 125.722 164.67H125.73ZM119.377 178.02L122.783 176.621C122.925 176.562 122.94 176.471 122.783 176.418L119.52 175.077C119.444 175.049 119.359 175.034 119.272 175.034C119.186 175.034 119.101 175.049 119.025 175.077L115.62 176.476C115.477 176.535 115.462 176.626 115.62 176.679L118.882 178.02C118.96 178.044 119.045 178.055 119.13 178.051C119.215 178.047 119.297 178.029 119.37 177.998L119.377 178.02ZM93.1275 177.138L89.8725 175.798C89.7951 175.772 89.7106 175.758 89.625 175.758C89.5394 175.758 89.4548 175.772 89.3775 175.798L85.965 177.197C85.8225 177.256 85.8075 177.347 85.965 177.4L89.22 178.74C89.2967 178.768 89.3815 178.783 89.4675 178.783C89.5535 178.783 89.6383 178.768 89.715 178.74L93.12 177.336C93.2325 177.288 93.24 177.171 93.1125 177.117L93.1275 177.138ZM99.615 178.297L96.36 176.962C96.2833 176.935 96.1985 176.92 96.1125 176.92C96.0265 176.92 95.9417 176.935 95.865 176.962L90.615 179.098C90.4725 179.157 90.4575 179.248 90.615 179.301L93.8775 180.642C93.9542 180.669 94.039 180.684 94.125 180.684C94.211 180.684 94.2958 180.669 94.3725 180.642L99.6225 178.506C99.75 178.42 99.75 178.356 99.6 178.276L99.615 178.297ZM88.2675 174.495L85.005 173.155C84.9283 173.127 84.8435 173.113 84.7575 173.113C84.6715 173.113 84.5867 173.127 84.51 173.155L80.3175 174.88C80.175 174.938 80.16 175.029 80.3175 175.083L83.58 176.423C83.6567 176.451 83.7415 176.465 83.8275 176.465C83.9135 176.465 83.9983 176.451 84.075 176.423L88.2675 174.698C88.365 174.618 88.38 174.527 88.2525 174.474L88.2675 174.495ZM91.4775 173.171C91.5542 173.199 91.639 173.213 91.725 173.213C91.811 173.213 91.8958 173.199 91.9725 173.171L95.3775 171.772C95.5275 171.713 95.535 171.622 95.3775 171.569L92.1225 170.229C92.0458 170.201 91.961 170.186 91.875 170.186C91.789 170.186 91.7042 170.201 91.6275 170.229L88.2225 171.628C88.0725 171.692 88.0575 171.782 88.2225 171.831L91.4775 173.171ZM105.585 179.675L102.322 178.335C102.246 178.307 102.161 178.293 102.075 178.293C101.989 178.293 101.904 178.307 101.827 178.335L95.25 181.026C95.1075 181.085 95.0925 181.176 95.25 181.229L98.5125 182.569C98.5888 182.598 98.6738 182.613 98.76 182.613C98.8462 182.613 98.9311 182.598 99.0075 182.569L105.555 179.899C105.683 179.798 105.697 179.707 105.57 179.654L105.585 179.675ZM107.88 182.559L104.625 181.218C104.548 181.191 104.463 181.176 104.377 181.176C104.291 181.176 104.207 181.191 104.13 181.218L99.9375 182.943C99.7875 183.002 99.78 183.093 99.9375 183.146L103.192 184.486C103.269 184.514 103.354 184.528 103.44 184.528C103.526 184.528 103.611 184.514 103.687 184.486L107.88 182.762C108 182.681 108 182.591 107.865 182.537L107.88 182.559ZM128.497 157.957C128.574 157.985 128.659 157.999 128.745 157.999C128.831 157.999 128.916 157.985 128.992 157.957L132.397 156.553C132.54 156.494 132.555 156.403 132.397 156.35L129.135 155.01C129.059 154.981 128.974 154.966 128.887 154.966C128.801 154.966 128.716 154.981 128.64 155.01L125.25 156.393C125.107 156.451 125.092 156.542 125.25 156.596L128.497 157.957ZM118.5 162.026C118.577 162.054 118.661 162.068 118.747 162.068C118.833 162.068 118.918 162.054 118.995 162.026L122.4 160.627C122.55 160.568 122.557 160.478 122.4 160.424L119.145 159.084C119.068 159.056 118.983 159.042 118.897 159.042C118.811 159.042 118.727 159.056 118.65 159.084L115.245 160.483C115.095 160.542 115.08 160.633 115.245 160.686L118.5 162.026ZM96.42 171.104C96.4967 171.132 96.5815 171.146 96.6675 171.146C96.7535 171.146 96.8383 171.132 96.915 171.104L100.32 169.705C100.462 169.641 100.477 169.55 100.32 169.502L97.065 168.162C96.9883 168.134 96.9035 168.12 96.8175 168.12C96.7315 168.12 96.6467 168.134 96.57 168.162L93.1575 169.561C93.015 169.62 93 169.711 93.1575 169.764L96.42 171.104ZM123.48 159.981C123.557 160.009 123.641 160.023 123.727 160.023C123.813 160.023 123.898 160.009 123.975 159.981L127.38 158.582C127.522 158.518 127.537 158.427 127.38 158.374L124.125 157.039C124.048 157.011 123.963 156.997 123.877 156.997C123.791 156.997 123.707 157.011 123.63 157.039L120.217 158.438C120.075 158.497 120.06 158.587 120.217 158.641L123.48 159.981ZM113.52 164.077C113.597 164.103 113.682 164.117 113.767 164.117C113.853 164.117 113.938 164.103 114.015 164.077L117.42 162.678C117.57 162.619 117.585 162.528 117.42 162.475L114.165 161.135C114.088 161.107 114.003 161.092 113.917 161.092C113.831 161.092 113.747 161.107 113.67 161.135L110.265 162.539C110.115 162.598 110.107 162.688 110.265 162.742L113.52 164.077ZM110.287 182.681C110.211 182.654 110.126 182.639 110.04 182.639C109.954 182.639 109.869 182.654 109.792 182.681L104.542 184.817C104.4 184.881 104.385 184.972 104.542 185.026L107.797 186.361C107.874 186.388 107.959 186.403 108.045 186.403C108.131 186.403 108.216 186.388 108.292 186.361L113.542 184.225C113.685 184.166 113.7 184.075 113.542 184.022L110.287 182.681ZM106.38 167.014C106.457 167.04 106.542 167.054 106.627 167.054C106.713 167.054 106.798 167.04 106.875 167.014L110.28 165.615C110.422 165.556 110.437 165.465 110.28 165.412L107.017 164.072C106.941 164.044 106.856 164.029 106.77 164.029C106.684 164.029 106.599 164.044 106.522 164.072L103.118 165.476C102.975 165.535 102.96 165.625 103.118 165.679L106.38 167.014ZM101.4 169.059C101.477 169.087 101.561 169.101 101.647 169.101C101.733 169.101 101.818 169.087 101.895 169.059L105.3 167.655C105.442 167.596 105.457 167.505 105.3 167.452L102.037 166.111C101.961 166.084 101.876 166.07 101.79 166.07C101.704 166.07 101.619 166.084 101.542 166.111L98.1375 167.51C97.995 167.569 97.98 167.66 98.1375 167.713L101.4 169.059ZM202.53 144.762C202.454 144.734 202.369 144.719 202.282 144.719C202.196 144.719 202.111 144.734 202.035 144.762L193.65 148.206C193.5 148.265 193.493 148.356 193.65 148.409L196.905 149.75C196.982 149.777 197.066 149.792 197.152 149.792C197.238 149.792 197.323 149.777 197.4 149.75L205.777 146.316C205.927 146.257 205.935 146.166 205.777 146.113L202.53 144.762ZM191.52 149.29C191.443 149.263 191.358 149.248 191.272 149.248C191.186 149.248 191.102 149.263 191.025 149.29L187.62 150.689C187.478 150.748 187.463 150.839 187.62 150.892L190.882 152.233C190.959 152.26 191.044 152.275 191.13 152.275C191.216 152.275 191.301 152.26 191.377 152.233L194.782 150.828C194.925 150.77 194.94 150.679 194.782 150.625L191.52 149.29ZM124.32 175.953L127.732 174.554C127.875 174.495 127.89 174.404 127.732 174.351L124.5 173.016C124.423 172.988 124.338 172.974 124.252 172.974C124.166 172.974 124.082 172.988 124.005 173.016L120.6 174.42C120.457 174.479 120.442 174.57 120.6 174.623L123.862 175.958C123.938 175.984 124.02 175.997 124.103 175.996C124.187 175.995 124.269 175.981 124.342 175.953H124.32ZM181.567 153.381C181.491 153.353 181.406 153.339 181.32 153.339C181.234 153.339 181.149 153.353 181.072 153.381L177.66 154.785C177.518 154.844 177.503 154.935 177.66 154.988L180.915 156.329C180.992 156.355 181.077 156.368 181.162 156.368C181.248 156.368 181.333 156.355 181.41 156.329L184.815 154.929C184.965 154.871 184.972 154.78 184.815 154.727L181.567 153.381ZM207.51 142.701C207.433 142.673 207.348 142.659 207.262 142.659C207.176 142.659 207.092 142.673 207.015 142.701L203.602 144.105C203.46 144.164 203.445 144.255 203.602 144.308L206.865 145.643C206.942 145.671 207.026 145.685 207.112 145.685C207.198 145.685 207.283 145.671 207.36 145.643L210.765 144.244C210.907 144.185 210.922 144.095 210.765 144.041L207.51 142.701ZM215.76 141.996L207.847 138.739C207.771 138.71 207.686 138.694 207.6 138.694C207.514 138.694 207.429 138.71 207.352 138.739L203.94 140.138C203.798 140.196 203.783 140.287 203.94 140.341L211.838 143.646C211.914 143.674 211.999 143.688 212.085 143.688C212.171 143.688 212.256 143.674 212.332 143.646L215.737 142.247C215.88 142.156 215.895 142.044 215.768 142.012L215.76 141.996ZM162.975 161.012C162.899 160.983 162.814 160.968 162.727 160.968C162.641 160.968 162.556 160.983 162.48 161.012L158.287 162.731C158.145 162.79 158.13 162.881 158.287 162.934L161.55 164.274C161.627 164.302 161.711 164.317 161.797 164.317C161.883 164.317 161.968 164.302 162.045 164.274L166.237 162.55C166.38 162.491 166.395 162.4 166.237 162.347L162.975 161.012ZM175.552 155.843C175.476 155.815 175.391 155.8 175.305 155.8C175.219 155.8 175.134 155.815 175.057 155.843L169.807 157.979C169.665 158.037 169.65 158.128 169.807 158.181L173.07 159.522C173.146 159.55 173.231 159.565 173.317 159.565C173.404 159.565 173.489 159.55 173.565 159.522L178.815 157.386C178.957 157.327 178.972 157.236 178.815 157.183L175.552 155.843ZM151.447 165.754C151.371 165.726 151.286 165.712 151.2 165.712C151.114 165.712 151.029 165.726 150.952 165.754L122.917 177.288C122.775 177.352 122.76 177.443 122.917 177.496L126.18 178.831C126.257 178.859 126.341 178.873 126.428 178.873C126.514 178.873 126.598 178.859 126.675 178.831L154.71 167.308C154.86 167.249 154.867 167.158 154.71 167.105L151.447 165.754ZM121.837 177.923C121.761 177.896 121.676 177.881 121.59 177.881C121.504 177.881 121.419 177.896 121.342 177.923L117.15 179.648C117 179.707 116.985 179.798 117.15 179.851L120.405 181.192C120.482 181.219 120.566 181.234 120.652 181.234C120.738 181.234 120.823 181.219 120.9 181.192L125.092 179.467C125.235 179.408 125.25 179.317 125.092 179.264L121.837 177.923ZM157.215 163.404C157.138 163.376 157.053 163.362 156.967 163.362C156.881 163.362 156.797 163.376 156.72 163.404L152.527 165.129C152.385 165.188 152.37 165.278 152.527 165.332L155.79 166.672C155.867 166.7 155.951 166.714 156.037 166.714C156.123 166.714 156.208 166.7 156.285 166.672L160.477 164.947C160.62 164.889 160.635 164.798 160.477 164.744L157.215 163.404ZM116.077 180.316C116.001 180.288 115.916 180.274 115.83 180.274C115.744 180.274 115.659 180.288 115.582 180.316L111.39 182.041C111.247 182.099 111.232 182.19 111.39 182.244L114.652 183.584C114.729 183.612 114.814 183.626 114.9 183.626C114.986 183.626 115.071 183.612 115.147 183.584L119.34 181.859C119.482 181.8 119.497 181.71 119.34 181.656L116.077 180.316ZM168.75 158.657C168.673 158.631 168.588 158.617 168.502 158.617C168.417 158.617 168.332 158.631 168.255 158.657L164.062 160.376C163.912 160.44 163.905 160.531 164.062 160.584L167.317 161.919C167.394 161.947 167.479 161.962 167.565 161.962C167.651 161.962 167.736 161.947 167.812 161.919L171.975 160.2C172.125 160.141 172.132 160.05 171.975 159.997L168.75 158.657ZM186.562 151.336C186.486 151.308 186.401 151.294 186.315 151.294C186.229 151.294 186.144 151.308 186.067 151.336L182.662 152.724C182.52 152.783 182.505 152.874 182.662 152.927L185.925 154.267C186.002 154.295 186.086 154.309 186.172 154.309C186.258 154.309 186.343 154.295 186.42 154.267L189.825 152.868C189.967 152.809 189.982 152.719 189.825 152.665L186.562 151.336ZM197.715 145.782L201.128 144.383C201.27 144.324 201.285 144.233 201.128 144.18L197.872 142.84C197.796 142.812 197.711 142.798 197.625 142.798C197.539 142.798 197.454 142.812 197.378 142.84L193.972 144.239C193.823 144.303 193.815 144.394 193.972 144.442L197.25 145.782C197.323 145.806 197.402 145.819 197.482 145.819C197.563 145.819 197.642 145.806 197.715 145.782ZM177.397 146.482L180.81 145.077C180.952 145.018 180.967 144.928 180.81 144.874L177.547 143.534C177.471 143.505 177.386 143.49 177.3 143.49C177.214 143.49 177.129 143.505 177.052 143.534L173.647 144.933C173.497 144.992 173.49 145.082 173.647 145.136L176.902 146.476C176.977 146.506 177.061 146.524 177.147 146.526C177.233 146.529 177.319 146.517 177.397 146.492V146.482ZM164.175 159.581L174.135 155.49C174.277 155.426 174.292 155.335 174.135 155.282L170.872 153.947C170.796 153.919 170.711 153.905 170.625 153.905C170.539 153.905 170.454 153.919 170.377 153.947L160.455 158.064C160.305 158.128 160.297 158.219 160.455 158.267L163.71 159.607C163.785 159.627 163.866 159.636 163.947 159.631C164.027 159.626 164.105 159.609 164.175 159.581ZM192.247 147.833C192.323 147.86 192.406 147.875 192.491 147.875C192.576 147.875 192.66 147.86 192.735 147.833L196.147 146.433C196.29 146.375 196.305 146.284 196.147 146.231L192.885 144.89C192.808 144.863 192.723 144.848 192.637 144.848C192.551 144.848 192.467 144.863 192.39 144.89L189 146.316C188.857 146.375 188.842 146.466 189 146.519L192.247 147.833ZM188.085 145.905L191.49 144.506C191.632 144.447 191.647 144.356 191.49 144.303L188.25 142.984C188.173 142.956 188.088 142.942 188.002 142.942C187.916 142.942 187.832 142.956 187.755 142.984L184.35 144.383C184.207 144.442 184.192 144.532 184.35 144.586L187.612 145.926C187.686 145.951 187.767 145.964 187.849 145.964C187.931 145.964 188.011 145.951 188.085 145.926V145.905ZM159.195 161.604L162.607 160.205C162.75 160.147 162.765 160.056 162.607 160.002L159.352 158.662C159.276 158.634 159.191 158.62 159.105 158.62C159.019 158.62 158.934 158.634 158.857 158.662L155.452 160.067C155.302 160.125 155.295 160.216 155.452 160.269L158.707 161.61C158.781 161.64 158.864 161.658 158.948 161.661C159.033 161.663 159.118 161.651 159.195 161.626V161.604ZM181.237 152.356C181.314 152.383 181.399 152.398 181.485 152.398C181.571 152.398 181.656 152.383 181.732 152.356L185.137 150.951C185.287 150.892 185.295 150.802 185.137 150.748L181.882 149.408C181.806 149.379 181.721 149.364 181.635 149.364C181.549 149.364 181.464 149.379 181.387 149.408L177.975 150.807C177.832 150.866 177.817 150.956 177.975 151.01L181.237 152.356ZM134.302 171.841L137.707 170.437C137.857 170.378 137.865 170.287 137.707 170.234L134.452 168.894C134.375 168.867 134.291 168.854 134.205 168.854C134.119 168.854 134.035 168.867 133.957 168.894L130.582 170.346C130.432 170.405 130.425 170.496 130.582 170.549L133.837 171.889C133.913 171.909 133.994 171.918 134.074 171.913C134.155 171.908 134.233 171.891 134.302 171.863V171.841ZM139.282 169.791L142.687 168.392C142.837 168.333 142.845 168.242 142.687 168.189L139.5 166.87C139.423 166.842 139.338 166.828 139.252 166.828C139.166 166.828 139.082 166.842 139.005 166.87L135.592 168.274C135.45 168.333 135.435 168.424 135.592 168.477L138.855 169.817C138.923 169.838 138.996 169.847 139.07 169.847C139.143 169.846 139.216 169.834 139.282 169.812V169.791ZM129.322 173.886L132.735 172.487C132.877 172.429 132.892 172.338 132.735 172.284L129.48 170.944C129.403 170.916 129.318 170.902 129.232 170.902C129.146 170.902 129.062 170.916 128.985 170.944L125.58 172.343C125.43 172.402 125.422 172.493 125.58 172.546L128.835 173.886C128.908 173.917 128.991 173.934 129.075 173.938C129.16 173.942 129.244 173.931 129.322 173.908V173.886ZM149.25 165.722L152.655 164.322C152.797 164.264 152.812 164.168 152.655 164.12L149.392 162.779C149.316 162.752 149.231 162.737 149.145 162.737C149.059 162.737 148.974 162.752 148.897 162.779L145.5 164.189C145.357 164.248 145.342 164.339 145.5 164.392L148.762 165.732C148.839 165.757 148.923 165.77 149.008 165.768C149.093 165.766 149.175 165.75 149.25 165.722ZM144.27 167.767L147.675 166.368C147.817 166.309 147.832 166.218 147.675 166.165L144.412 164.824C144.336 164.797 144.251 164.782 144.165 164.782C144.079 164.782 143.994 164.797 143.917 164.824L140.512 166.224C140.37 166.288 140.355 166.378 140.512 166.432L143.775 167.767C143.851 167.794 143.934 167.808 144.019 167.808C144.103 167.808 144.187 167.794 144.262 167.767H144.27ZM154.222 163.676L157.635 162.272C157.777 162.213 157.792 162.122 157.635 162.069L154.395 160.734C154.318 160.708 154.233 160.694 154.147 160.694C154.062 160.694 153.977 160.708 153.9 160.734L150.495 162.133C150.352 162.192 150.337 162.283 150.495 162.336L153.757 163.676C153.829 163.701 153.907 163.713 153.986 163.713C154.065 163.713 154.144 163.701 154.215 163.676H154.222ZM181.395 135.203C181.472 135.231 181.556 135.246 181.642 135.246C181.729 135.246 181.813 135.231 181.89 135.203L185.295 133.799C185.445 133.74 185.452 133.65 185.295 133.596L184.432 133.238C184.355 133.212 184.271 133.199 184.185 133.199C184.099 133.199 184.015 133.212 183.937 133.238L180.525 134.637C180.382 134.696 180.367 134.787 180.525 134.84L181.395 135.203ZM156.645 146.359C156.722 146.386 156.806 146.401 156.892 146.401C156.978 146.401 157.063 146.386 157.14 146.359L160.545 144.954C160.687 144.896 160.702 144.805 160.545 144.751L157.282 143.416C157.206 143.389 157.121 143.374 157.035 143.374C156.949 143.374 156.864 143.389 156.787 143.416L153.382 144.815C153.24 144.874 153.225 144.965 153.382 145.018L156.645 146.359ZM166.597 142.263C166.674 142.291 166.759 142.305 166.845 142.305C166.931 142.305 167.016 142.291 167.092 142.263L170.497 140.864C170.647 140.805 170.655 140.714 170.497 140.661L167.25 139.31C167.173 139.282 167.088 139.268 167.002 139.268C166.916 139.268 166.832 139.282 166.755 139.31L163.35 140.709C163.2 140.773 163.192 140.864 163.35 140.917L166.597 142.263ZM150.562 148.858C150.639 148.886 150.724 148.9 150.81 148.9C150.896 148.9 150.981 148.886 151.057 148.858L154.462 147.453C154.605 147.395 154.62 147.304 154.462 147.251L151.207 145.91C151.13 145.884 151.046 145.871 150.96 145.871C150.874 145.871 150.79 145.884 150.712 145.91L147.3 147.309C147.157 147.368 147.142 147.459 147.3 147.512L150.562 148.858ZM161.617 144.314C161.694 144.342 161.779 144.358 161.865 144.358C161.951 144.358 162.036 144.342 162.112 144.314L165.525 142.914C165.667 142.856 165.682 142.765 165.525 142.712L162.27 141.371C162.193 141.343 162.108 141.329 162.022 141.329C161.936 141.329 161.852 141.343 161.775 141.371L158.37 142.776C158.22 142.834 158.212 142.925 158.37 142.979L161.617 144.314ZM140.617 152.948C140.694 152.976 140.779 152.99 140.865 152.99C140.951 152.99 141.036 152.976 141.112 152.948L144.517 151.549C144.667 151.49 144.682 151.4 144.517 151.346L141.262 150.006C141.186 149.978 141.101 149.964 141.015 149.964C140.929 149.964 140.844 149.978 140.767 150.006L137.362 151.405C137.212 151.469 137.205 151.56 137.362 151.613L140.617 152.948ZM145.597 150.903C145.674 150.931 145.759 150.945 145.845 150.945C145.931 150.945 146.016 150.931 146.092 150.903L149.497 149.504C149.647 149.445 149.655 149.354 149.497 149.301L146.25 147.95C146.173 147.922 146.088 147.908 146.002 147.908C145.916 147.908 145.832 147.922 145.755 147.95L142.35 149.349C142.2 149.408 142.185 149.499 142.35 149.552L145.597 150.903ZM171.442 139.294C171.519 139.322 171.604 139.336 171.69 139.336C171.776 139.336 171.861 139.322 171.937 139.294L175.35 137.895C175.492 137.836 175.507 137.745 175.35 137.692L174.48 137.334C174.403 137.306 174.318 137.292 174.232 137.292C174.146 137.292 174.062 137.306 173.985 137.334L170.58 138.739C170.43 138.797 170.422 138.888 170.58 138.941L171.442 139.294ZM186.382 133.158C186.459 133.186 186.544 133.2 186.63 133.2C186.716 133.2 186.801 133.186 186.877 133.158L190.283 131.759C190.425 131.7 190.44 131.61 190.283 131.556L189.412 131.198C189.336 131.17 189.251 131.155 189.165 131.155C189.079 131.155 188.994 131.17 188.917 131.198L185.512 132.598C185.37 132.656 185.355 132.747 185.512 132.8L186.382 133.158ZM193.23 135.972C193.306 136.001 193.391 136.016 193.477 136.016C193.564 136.016 193.649 136.001 193.725 135.972L197.13 134.573C197.272 134.515 197.287 134.424 197.13 134.37L193.867 133.03C193.791 133.002 193.706 132.988 193.62 132.988C193.534 132.988 193.449 133.002 193.372 133.03L189.967 134.435C189.825 134.493 189.81 134.584 189.967 134.637L193.23 135.972ZM202.71 143.747L206.115 142.348C206.265 142.284 206.272 142.194 206.115 142.145L202.86 140.805C202.783 140.777 202.698 140.763 202.612 140.763C202.526 140.763 202.442 140.777 202.365 140.805L198.96 142.204C198.81 142.263 198.802 142.354 198.96 142.407L202.215 143.747C202.29 143.773 202.372 143.787 202.455 143.787C202.538 143.787 202.62 143.773 202.695 143.747H202.71ZM176.46 137.249C176.537 137.276 176.621 137.291 176.707 137.291C176.793 137.291 176.878 137.276 176.955 137.249L180.36 135.85C180.51 135.791 180.517 135.695 180.36 135.647L179.497 135.289C179.421 135.261 179.336 135.247 179.25 135.247C179.164 135.247 179.079 135.261 179.002 135.289L175.567 136.704C175.425 136.763 175.41 136.854 175.567 136.907L176.46 137.249ZM135.675 154.999C135.751 155.028 135.836 155.043 135.922 155.043C136.009 155.043 136.094 155.028 136.17 154.999L139.582 153.6C139.725 153.541 139.74 153.45 139.582 153.397L136.32 152.057C136.244 152.028 136.159 152.013 136.072 152.013C135.986 152.013 135.901 152.028 135.825 152.057L132.42 153.456C132.277 153.514 132.262 153.605 132.42 153.659L135.675 154.999Z" fill="#455A64"/>
<path d="M149.888 175.168L150.63 175.472L170.303 183.563L205.29 169.177L206.018 168.883L185.603 160.494L149.888 175.168Z" fill="#263238"/>
<path d="M204.84 169.363L185.603 161.46L151.073 175.659L170.303 183.562L204.84 169.363Z" fill="#37474F"/>
<path d="M104.813 30.3312C98.6625 27.4636 90.735 27.9763 86.445 30.2885C80.445 33.5352 78.33 37.1077 77.25 44.1725C75.75 54.1263 74.175 56.9885 72.5175 59.2473C71.8109 60.2397 70.8344 61.1222 69.6447 61.8437C68.4551 62.5651 67.076 63.1111 65.5875 63.4499C66.7744 63.9666 68.1269 64.2589 69.5169 64.2991C70.9069 64.3393 72.2883 64.126 73.53 63.6795C72.12 68.4855 70.155 72.5172 71.9025 77.5956C73.08 81.0132 75.585 84.8847 79.2825 87.3357C82.4325 89.4237 86.94 90.0591 90.7275 91.2393C88.17 87.3357 86.7975 83.6511 88.5675 79.2616C90.5175 74.4183 95.0775 70.2958 97.095 65.415C99.9 58.6653 103.095 51.6699 103.898 44.6264C104.565 38.6883 104.88 34.411 104.813 30.3312Z" fill="#263238"/>
<path d="M101.745 31.223C100.763 30.5662 96.42 30.9934 93.795 33.2201C91.17 35.4469 89.61 38.683 92.7975 40.4185C95.7825 42.0472 107.385 33.3803 101.745 31.223Z" fill="#6A3093"/>
<path d="M137.363 40.9952C139.523 40.4291 140.445 38.448 139.8 36.8727C139.155 35.2974 137.348 34.1012 135.42 33.1988C131.008 31.1706 125.742 30.2983 120.525 30.7317C115.686 29.6353 110.531 29.4513 105.563 30.1977C102.33 30.7303 99.4215 31.9853 97.2624 33.7791C95.1033 35.5729 93.8068 37.8115 93.5625 40.1675C85.86 41.4598 82.4925 48.1775 87.2475 55.3865C90.705 60.5983 98.4975 64.2028 99.465 66.7981L128.67 50.6392C129.81 51.9048 133.335 51.9635 134.775 51.4616C136.215 50.9596 137.115 49.1013 136.155 48.1828C137.495 48.2961 138.843 48.0259 139.903 47.4315C140.962 46.8371 141.647 45.9674 141.806 45.0135C141.965 44.0597 141.586 43.0999 140.751 42.3453C139.916 41.5907 138.695 41.1031 137.355 40.9898L137.363 40.9952Z" fill="#263238"/>
<path d="M105.563 30.2031C102.383 30.8027 99.5437 32.0923 97.44 33.893C96.3911 34.7749 95.5501 35.7722 94.95 36.846C94.3636 37.9172 94.0144 39.0467 93.915 40.1942V40.3704L93.675 40.4131C91.8634 40.7149 90.2077 41.3737 88.8975 42.3142C87.6026 43.2648 86.6504 44.4246 86.1225 45.6944C85.1399 48.2864 85.3156 51.0319 86.625 53.5495C87.9043 56.093 89.8944 58.4255 92.475 60.4061C93.7275 61.4314 95.0475 62.4139 96.315 63.4339C96.9525 63.9679 97.59 64.4538 98.16 65.0359C98.7611 65.5701 99.2141 66.1808 99.495 66.8355C99.1615 66.1995 98.6657 65.6129 98.0325 65.1053C97.4282 64.5808 96.7874 64.0783 96.1125 63.5994C94.77 62.6275 93.405 61.6717 92.115 60.6624C90.8033 59.6605 89.5999 58.5895 88.515 57.4584C87.438 56.3075 86.5757 55.0617 85.95 53.7525C85.2756 52.4372 84.8714 51.0595 84.75 49.662C84.5904 48.269 84.799 46.8671 85.365 45.5289C85.942 44.1789 86.9716 42.9492 88.365 41.9457C89.7803 40.9488 91.5604 40.2549 93.5025 39.9432L93.24 40.1622C93.5025 37.7633 94.8619 35.4918 97.11 33.6954C98.2205 32.8111 99.5188 32.0562 100.958 31.458C102.381 30.8554 103.938 30.431 105.563 30.2031Z" fill="black"/>
<path d="M212.588 75.1925C214.193 74.2207 214.485 73.9697 216.645 72.7361C218.25 71.823 219.533 71.0807 219.945 70.5467C220.755 69.4787 219.998 68.4481 219.323 68.619C217.965 68.9608 216.36 69.7778 213.233 71.289C209.79 72.9711 207.36 74.6318 207.18 74.3648C208.29 73.2676 209.516 72.2322 210.848 71.2676C215.063 68.0263 215.888 67.4389 216.66 66.3976C218.295 64.2295 216 63.8717 214.995 64.3203C213.848 64.8543 212.603 65.8102 209.588 67.9408C206.318 70.253 203.468 72.608 203.205 72.4691C202.943 72.3303 207.473 68.8006 210.188 66.216C212.7 63.8183 211.065 62.8037 210.345 62.7236C209.625 62.6435 208.703 63.3377 207.488 64.2669C205.29 65.9704 198.9 71.556 197.565 72.624C196.23 73.692 195.218 74.0765 195.045 72.3517C194.88 70.7497 194.993 69.0088 194.003 67.8928C192.345 66.0291 190.515 66.4883 190.508 67.7326C190.508 69.4948 189.915 71.4706 189.48 74.2847C189.248 75.7532 189.285 77.4887 189.24 78.5247C188.985 82.0972 184.778 83.9448 181.275 85.6643C177.773 87.3838 168.233 91.2553 168.233 91.2553C168.233 91.2553 150.443 78.2096 145.253 75.0163C139.088 71.2142 137.325 70.9472 128.618 70.9953L140.933 93.5461C140.933 93.5461 157.673 104.573 163.358 106.928C169.043 109.283 171.353 107.996 178.26 103.633C183.563 100.285 192.293 92.6116 194.4 90.9082C196.508 89.2047 197.4 88.1047 199.868 87.4639C203.19 86.5988 204.9 85.408 207.113 83.603C208.17 82.7433 209.918 81.0131 211.53 79.865C213.709 78.3921 216.011 77.0137 218.423 75.7372C219.878 74.8668 220.103 73.0672 218.063 73.6439C214.193 74.7119 210.315 77.0402 210.188 76.8853C210.06 76.7305 211.5 75.8547 212.588 75.1925Z" fill="#FFBDA7"/>
<path d="M196.395 75.294C198.173 77.1577 198.57 81.5632 196.838 84.1851C200.415 81.702 200.04 77.2111 196.395 75.294Z" fill="#F0997A"/>
<path d="M168.233 91.2767C165.285 92.6491 161.768 96.6167 162.773 100.696C161.49 97.6847 160.38 93.9253 166.845 90.1766L168.233 91.2767Z" fill="#F0997A"/>
<path d="M83.25 77.6116L90.1125 75.6571C90.1125 75.6571 100.35 73.7668 108.863 72.4531C117.863 71.6468 125.595 71.0434 125.595 71.0434L128.633 71.006C128.633 71.006 135.383 75.2353 140.325 79.1388C145.268 83.0423 149.61 86.3051 149.888 91.2339C150.255 97.8929 144.248 100.312 144.248 100.312L144.615 108.797L152.423 124.523L76.9725 155.528C79.2675 136.384 85.2225 133.228 88.59 119.958C87.945 113.016 83.0925 103.489 82.2675 98.6512C79.3875 81.9423 83.25 77.6116 83.25 77.6116Z" fill="#6A3093"/>
<path d="M99.195 69.2705C99.48 66.9263 99.945 62.2644 99.945 62.2644C99.1275 63.0387 94.695 64.1121 91.695 61.0789C88.2 57.5812 88.755 55.0768 91.1925 53.4C93.9675 51.4883 98.8275 51.9796 100.853 55.002C102.12 57.138 104.603 54.6176 102.105 51.264C101.273 45.358 111.855 49.2722 118.448 36.9582C125.1 36.6912 129.113 38.0262 132.345 41.9671C133.845 43.7506 135.593 46.3192 135.233 53.7578C134.768 63.231 132.765 66.2107 128.108 67.7967C125.963 68.5283 123.758 68.8059 119.625 68.587L119.588 69.4948C119.581 69.7053 119.596 69.9159 119.633 70.1249C119.652 70.3871 119.807 70.635 120.067 70.8212C120.327 71.0074 120.674 71.1188 121.043 71.1342C122.566 71.1766 124.092 71.1463 125.61 71.0434C125.61 71.0434 129 77.1096 117.75 78.8345C108.291 80.2697 98.4207 79.1365 90.075 75.6572C91.7487 75.0459 93.3602 74.3517 94.8975 73.5799C98.37 71.791 99 70.739 99.195 69.2705Z" fill="#FFBDA7"/>
<path d="M94.8825 60.6304C94.8945 60.8581 95.001 61.0781 95.1884 61.2628C95.3759 61.4474 95.636 61.5884 95.9358 61.668C96.2357 61.7475 96.5619 61.762 96.8734 61.7097C97.1848 61.6574 97.4675 61.5406 97.6859 61.374C97.9042 61.2074 98.0483 60.9985 98.1 60.7736C98.1518 60.5488 98.1089 60.3181 97.9767 60.1106C97.8445 59.9031 97.6289 59.7281 97.3572 59.6078C97.0855 59.4874 96.7699 59.427 96.45 59.4342C96.2363 59.4383 96.0258 59.4727 95.8309 59.5353C95.6359 59.5978 95.4604 59.6874 95.3146 59.7987C95.1687 59.91 95.0554 60.0408 94.9812 60.1836C94.907 60.3264 94.8735 60.4783 94.8825 60.6304Z" fill="#FAFAFA"/>
<path d="M116.13 59.3648L123.36 60.9668C123.23 61.31 123.006 61.6313 122.699 61.9119C122.393 62.1924 122.011 62.4266 121.576 62.6007C121.14 62.7748 120.661 62.8852 120.165 62.9256C119.669 62.966 119.167 62.9354 118.687 62.8358C117.713 62.6052 116.903 62.1148 116.426 61.4675C115.949 60.8202 115.843 60.0665 116.13 59.3648Z" fill="#B16668"/>
<path d="M116.603 60.5503C117.565 60.5278 118.508 60.7439 119.272 61.1617C120.035 61.5796 120.571 62.1732 120.788 62.8412C120.103 62.9878 119.372 62.9878 118.688 62.8412C117.999 62.6805 117.387 62.3866 116.919 61.9925C116.452 61.5983 116.147 61.1193 116.04 60.609C116.226 60.5813 116.413 60.5616 116.603 60.5503Z" fill="#F28F8F"/>
<path d="M132.435 46.4954L127.883 45.7211C127.939 45.5078 128.056 45.3049 128.226 45.1248C128.396 44.9446 128.616 44.7909 128.872 44.6731C129.128 44.5552 129.415 44.4757 129.715 44.4392C130.016 44.4027 130.324 44.4101 130.62 44.4609C131.231 44.5701 131.76 44.842 132.097 45.2205C132.435 45.599 132.556 46.0553 132.435 46.4954Z" fill="#263238"/>
<path d="M110.25 46.3299L114.682 45.1391C114.591 44.9264 114.438 44.7296 114.234 44.5612C114.03 44.3928 113.779 44.2566 113.496 44.1611C113.214 44.0657 112.907 44.0131 112.595 44.0068C112.283 44.0005 111.972 44.0406 111.682 44.1245C111.094 44.2931 110.618 44.6151 110.352 45.025C110.086 45.4348 110.049 45.9015 110.25 46.3299Z" fill="#263238"/>
<path d="M127.965 50.698C127.939 51.0628 128.109 51.421 128.44 51.6998C128.772 51.9785 129.24 52.1569 129.75 52.1985C130.001 52.2176 130.256 52.2004 130.498 52.148C130.74 52.0955 130.964 52.0089 131.158 51.8933C131.352 51.7776 131.511 51.6354 131.626 51.4749C131.741 51.3145 131.81 51.1393 131.827 50.9596C131.855 50.5911 131.682 50.2293 131.343 49.9497C131.005 49.6701 130.528 49.4944 130.012 49.4591C129.763 49.443 129.512 49.4625 129.274 49.5163C129.035 49.5701 128.814 49.6573 128.624 49.7726C128.433 49.8879 128.277 50.0292 128.163 50.1881C128.05 50.347 127.983 50.5203 127.965 50.698Z" fill="#263238"/>
<path d="M112.103 50.7674C112.071 51.1362 112.242 51.4994 112.579 51.7803C112.916 52.0612 113.393 52.238 113.91 52.2733C114.162 52.2931 114.416 52.2765 114.659 52.2243C114.901 52.1722 115.126 52.0856 115.321 51.9698C115.515 51.8541 115.674 51.7115 115.788 51.5507C115.903 51.3899 115.971 51.2143 115.988 51.0344C116.019 50.6661 115.848 50.3036 115.511 50.0235C115.173 49.7435 114.696 49.5678 114.18 49.5338C113.929 49.5147 113.675 49.5317 113.434 49.5839C113.192 49.636 112.968 49.7221 112.774 49.8372C112.58 49.9523 112.421 50.0939 112.306 50.2537C112.19 50.4135 112.121 50.5882 112.103 50.7674Z" fill="#263238"/>
<path d="M119.595 68.5923C115.287 68.302 111.088 67.4628 107.197 66.1146C105.062 65.2395 103.37 63.9045 102.367 62.3018C102.416 63.2246 102.738 64.1297 103.312 64.9579C103.886 65.786 104.699 66.5186 105.697 67.1078C109.447 69.3506 119.602 70.1089 119.602 70.1089C119.559 69.9004 119.544 69.6894 119.557 69.4788L119.595 68.5923Z" fill="#F0997A"/>
<path d="M114.233 101.46C117.893 99.2439 119.753 98.3682 121.515 97.9303C123.278 97.4924 129.39 95.3457 131.76 94.8117C133.26 94.47 134.01 96.1734 132.195 97.4497C130.778 98.4323 126.99 99.81 125.34 100.552C123.69 101.294 120.593 104.349 120.593 104.349L114.233 101.46Z" fill="#F0997A"/>
<path d="M105.93 120.919C93.93 125.768 83.43 131.807 71.7975 133.051C60.4575 134.258 60.105 127.573 60.3075 122.59C60.5625 116.3 65.5125 96.5739 68.085 90.0164C70.815 83.037 72.585 80.4631 83.2125 77.6223C91.9875 81.718 89.9625 95.2443 88.095 100.408C86.1075 105.796 82.89 115.862 82.89 115.862C82.89 115.862 96.72 112.759 100.043 111.51C103.365 110.26 108.93 104.942 111.128 103.238C114.128 100.921 115.725 101.14 117.353 101.241C122.7 101.572 123.893 101.834 125.055 102.309C125.401 102.457 125.69 102.664 125.893 102.913C126.096 103.161 126.208 103.442 126.218 103.73C127.635 103.794 129.735 103.665 130.155 105.299C130.311 105.728 130.38 106.171 130.358 106.613C130.717 106.641 131.052 106.758 131.303 106.944C132.563 107.857 130.845 111.291 129.645 112.161C128.798 112.775 127.53 112.904 125.843 112.818C124.403 112.743 124.973 111.681 124.973 111.681L122.985 111.857C118.875 114.228 118.673 117.731 113.063 118.938C110.559 119.339 108.154 120.007 105.93 120.919Z" fill="#FFBDA7"/>
<path d="M126.217 103.703L119.85 103.062H126C126.13 103.264 126.204 103.481 126.217 103.703Z" fill="#F0997A"/>
<path d="M130.357 106.586L123.06 106.245L130.312 105.988C130.358 106.186 130.373 106.386 130.357 106.586Z" fill="#F0997A"/>
<path d="M129.6 108.899C129.39 109.173 129.072 109.398 128.685 109.545C128.305 109.703 127.896 109.824 127.47 109.903L127.56 109.849C127.395 110.127 127.208 110.383 127.028 110.672L126.863 110.543C127.061 110.508 127.268 110.503 127.47 110.529C127.672 110.554 127.863 110.61 128.033 110.693C128.349 110.854 128.59 111.079 128.723 111.339C128.536 111.121 128.279 110.938 127.973 110.805C127.668 110.693 127.316 110.663 126.983 110.72L126.705 110.773L126.818 110.586C126.99 110.308 127.163 110.052 127.358 109.764V109.721H127.418C127.822 109.65 128.216 109.551 128.595 109.427C128.984 109.311 129.329 109.129 129.6 108.899Z" fill="#F0997A"/>
<path d="M127.74 109.652C126.878 109.77 126.006 109.852 125.13 109.897C125.01 110.291 124.728 110.649 124.32 110.928C123.901 111.248 123.456 111.549 122.985 111.83L124.973 111.654C124.973 111.654 125.408 110.997 127.178 110.671L127.74 109.652Z" fill="#F0997A"/>
<path d="M83.49 113.988L82.89 115.851C77.7825 117.037 72.39 119.867 71.3325 121.944C72 118.692 74.505 116.134 83.49 113.988Z" fill="#F0997A"/>
<path d="M129.285 56.305L123.435 58.3929L121.935 51.7713C121.958 51.5214 122.052 51.2774 122.212 51.0543C122.372 50.8312 122.594 50.6336 122.865 50.4737L129.285 56.305Z" fill="#F0997A"/>
<path opacity="0.9" d="M60.3525 160.419L60.27 160.392L58.02 159.447C57.7169 159.323 57.4575 159.151 57.2613 158.944C57.0651 158.738 56.9373 158.503 56.8875 158.256C56.8875 158.181 56.8875 158.107 56.8875 158.032V155.33C56.9142 154.734 57.1739 154.155 57.6375 153.659L60.3075 154.753C59.798 155.445 59.5548 156.221 59.6025 157.001V159.49C59.6069 159.62 59.6424 159.748 59.7075 159.869C59.8271 160.1 60.055 160.294 60.3525 160.419Z" fill="#263238"/>
<path opacity="0.6" d="M172.05 109.064C171.811 108.999 171.553 108.978 171.299 109.001C171.045 109.024 170.803 109.092 170.595 109.198L61.77 153.792C61.559 153.882 61.3583 153.984 61.17 154.096C61.041 154.171 60.9206 154.253 60.81 154.342C60.6233 154.476 60.4619 154.627 60.33 154.791L57.615 153.68C57.7504 153.525 57.9034 153.379 58.0725 153.242L58.245 153.108L58.425 152.986L58.6125 152.874C58.7359 152.803 58.8662 152.739 59.0025 152.681L167.835 108.082C168.059 107.965 168.324 107.894 168.601 107.878C168.877 107.862 169.155 107.901 169.403 107.991C169.8 108.162 171.585 108.888 172.05 109.064Z" fill="#455A64"/>
<path d="M67.785 155.597V153.701C67.785 153.562 67.905 153.418 68.025 153.418H70.3725C70.5225 153.418 70.5225 153.659 70.3725 153.787L68.025 155.693C67.905 155.773 67.785 155.73 67.785 155.597Z" fill="white"/>
<path d="M73.245 153.349V151.453C73.245 151.32 73.365 151.175 73.485 151.175H75.8325C75.9825 151.175 75.9825 151.416 75.8325 151.539L73.5 153.434C73.365 153.53 73.245 153.488 73.245 153.349Z" fill="white"/>
<path d="M76.125 152.361C76.0275 152.404 75.945 152.361 75.945 152.265V150.321C75.9467 150.273 75.9638 150.226 75.995 150.183C76.0262 150.141 76.0707 150.104 76.125 150.075C76.2225 150.038 76.305 150.075 76.305 150.171V152.121C76.3033 152.168 76.2861 152.214 76.2549 152.256C76.2236 152.298 76.1792 152.334 76.125 152.361Z" fill="white"/>
<path d="M65.025 156.729V154.86C65.025 154.727 64.905 154.684 64.785 154.775L62.445 156.686C62.2875 156.814 62.2875 157.055 62.445 157.055H64.785C64.905 156.996 65.025 156.863 65.025 156.729Z" fill="white"/>
<path d="M62.145 158.107C62.1992 158.079 62.2436 158.043 62.2749 158.002C62.3061 157.96 62.3233 157.914 62.325 157.866V155.928C62.325 155.837 62.2425 155.795 62.145 155.832C62.0907 155.86 62.0463 155.897 62.0151 155.94C61.9839 155.982 61.9668 156.03 61.965 156.078V158.021C61.965 158.107 62.0475 158.149 62.145 158.107Z" fill="white"/>
<path d="M167.49 113.459C167.435 113.458 167.383 113.441 167.344 113.414C167.305 113.386 167.282 113.349 167.28 113.309V112.444C167.281 112.418 167.291 112.393 167.31 112.371C167.328 112.348 167.354 112.33 167.385 112.316L168.36 111.916C168.408 111.896 168.465 111.891 168.518 111.901C168.571 111.911 168.617 111.935 168.645 111.969C168.658 111.986 168.667 112.004 168.671 112.023C168.674 112.042 168.672 112.061 168.665 112.079C168.658 112.097 168.646 112.115 168.63 112.13C168.614 112.145 168.593 112.157 168.57 112.167L167.693 112.53V113.309C167.693 113.348 167.671 113.385 167.634 113.413C167.596 113.441 167.544 113.458 167.49 113.459Z" fill="white"/>
<path d="M170.145 112.364C170.091 112.364 170.038 112.349 169.999 112.322C169.96 112.296 169.937 112.259 169.935 112.22V111.606L169.275 111.878C169.227 111.898 169.17 111.903 169.117 111.893C169.064 111.883 169.018 111.859 168.99 111.825C168.977 111.809 168.968 111.79 168.964 111.771C168.961 111.753 168.963 111.733 168.97 111.715C168.977 111.697 168.989 111.679 169.005 111.664C169.021 111.649 169.042 111.637 169.065 111.627L170.04 111.227C170.072 111.214 170.108 111.207 170.145 111.207C170.182 111.207 170.218 111.214 170.25 111.227C170.28 111.239 170.305 111.257 170.322 111.279C170.339 111.3 170.348 111.325 170.348 111.35V112.22C170.348 112.258 170.326 112.295 170.288 112.322C170.25 112.349 170.199 112.364 170.145 112.364Z" fill="white"/>
<path d="M169.17 114.404C169.134 114.405 169.099 114.398 169.067 114.386C169.036 114.374 169.009 114.356 168.99 114.335C168.963 114.301 168.955 114.26 168.969 114.222C168.983 114.184 169.018 114.152 169.065 114.132L169.935 113.774V112.989C169.937 112.95 169.96 112.914 169.999 112.887C170.038 112.86 170.091 112.845 170.145 112.845C170.199 112.845 170.25 112.86 170.288 112.887C170.326 112.914 170.348 112.951 170.348 112.989V113.86C170.348 113.885 170.339 113.91 170.322 113.933C170.305 113.955 170.28 113.974 170.25 113.988L169.275 114.388L169.17 114.404Z" fill="white"/>
<path d="M167.49 115.098C167.455 115.104 167.42 115.104 167.385 115.098C167.354 115.085 167.328 115.066 167.31 115.044C167.291 115.021 167.281 114.996 167.28 114.97V114.105C167.282 114.066 167.305 114.029 167.344 114.001C167.383 113.973 167.435 113.957 167.49 113.956C167.544 113.957 167.596 113.973 167.634 114.001C167.671 114.029 167.693 114.066 167.693 114.105V114.714L168.36 114.442C168.384 114.429 168.411 114.42 168.44 114.415C168.469 114.41 168.499 114.41 168.528 114.414C168.557 114.418 168.585 114.426 168.609 114.439C168.634 114.451 168.654 114.467 168.669 114.485C168.684 114.503 168.693 114.524 168.696 114.545C168.699 114.566 168.696 114.587 168.687 114.607C168.677 114.627 168.662 114.646 168.642 114.662C168.622 114.677 168.597 114.69 168.57 114.698L167.595 115.098C167.56 115.103 167.525 115.103 167.49 115.098Z" fill="white"/>
<path d="M100.778 141.409V140.442L80.16 148.922C79.965 149 79.7988 149.11 79.675 149.243C79.5511 149.376 79.4732 149.527 79.4475 149.686C79.4475 149.947 79.7625 150.027 80.16 149.862L100.778 141.409Z" fill="#6A3093"/>
<path opacity="0.5" d="M159.217 116.481C159.119 116.494 159.025 116.519 158.94 116.556L100.777 140.442V141.387L158.94 117.48C159.144 117.395 159.319 117.278 159.45 117.138C159.509 117.07 159.559 116.999 159.6 116.925C159.636 116.858 159.653 116.788 159.652 116.716C159.655 116.678 159.645 116.64 159.622 116.605C159.6 116.57 159.565 116.54 159.522 116.517C159.479 116.494 159.429 116.478 159.376 116.472C159.323 116.466 159.269 116.469 159.217 116.481Z" fill="white"/>
<path d="M101.812 140.576C101.803 140.851 101.705 141.12 101.526 141.364C101.346 141.607 101.09 141.818 100.777 141.98C100.207 142.21 99.75 141.98 99.75 141.419C99.7555 141.145 99.8513 140.876 100.03 140.633C100.208 140.39 100.464 140.18 100.777 140.02C101.34 139.785 101.812 140.031 101.812 140.576Z" fill="#6A3093"/>
<path opacity="0.5" d="M101.812 140.576C101.803 140.851 101.705 141.12 101.526 141.364C101.346 141.607 101.09 141.818 100.777 141.98C100.207 142.21 99.75 141.98 99.75 141.419C99.7555 141.145 99.8513 140.876 100.03 140.633C100.208 140.39 100.464 140.18 100.777 140.02C101.34 139.785 101.812 140.031 101.812 140.576Z" fill="white"/>
<path d="M101.445 140.725C101.44 140.903 101.377 141.077 101.261 141.235C101.146 141.392 100.98 141.529 100.778 141.633C100.41 141.782 100.11 141.633 100.11 141.27C100.114 141.093 100.177 140.919 100.293 140.762C100.409 140.605 100.575 140.47 100.778 140.367C101.145 140.218 101.445 140.373 101.445 140.725Z" fill="#6A3093"/>
</svg>
