<svg width="500" height="500" viewBox="0 0 500 500" fill="none" xmlns="http://www.w3.org/2000/svg">
<path d="M250 491.2C384.846 491.2 494.16 426.174 494.16 345.96C494.16 265.746 384.846 200.72 250 200.72C115.154 200.72 5.84 265.746 5.84 345.96C5.84 426.174 115.154 491.2 250 491.2Z" fill="#F5F5F5"/>
<path d="M402.3 349.57C402.3 349.57 400.67 331.29 405.05 316.35C409.43 301.41 418.21 290.35 428.29 286.49C438.37 282.63 449.46 289.74 440.29 299.49C431.12 309.24 413.48 321.65 411.56 348.72L402.3 349.57Z" fill="#6A3093"/>
<path opacity="0.3" d="M402.3 349.57C402.3 349.57 400.67 331.29 405.05 316.35C409.43 301.41 418.21 290.35 428.29 286.49C438.37 282.63 449.46 289.74 440.29 299.49C431.12 309.24 413.48 321.65 411.56 348.72L402.3 349.57Z" fill="white" fill-opacity="0.6"/>
<path d="M406.06 347.42H405.94C405.864 347.42 405.789 347.405 405.72 347.376C405.65 347.346 405.586 347.304 405.533 347.25C405.48 347.196 405.439 347.132 405.41 347.061C405.382 346.991 405.369 346.916 405.37 346.84C405.57 316.63 421.31 297.77 429.61 292.02C429.672 291.976 429.741 291.945 429.815 291.928C429.889 291.911 429.965 291.91 430.039 291.923C430.114 291.936 430.185 291.963 430.249 292.004C430.312 292.045 430.367 292.098 430.41 292.16C430.495 292.286 430.527 292.441 430.499 292.591C430.471 292.74 430.385 292.873 430.26 292.96C422.14 298.6 406.72 317.11 406.52 346.85C406.521 346.983 406.475 347.113 406.391 347.217C406.308 347.321 406.191 347.392 406.06 347.42Z" fill="white" fill-opacity="0.6"/>
<path d="M401.8 378.35C399.916 376.798 398.237 375.014 396.8 373.04C392.99 367.57 393.09 359.57 395.62 353.6C396.334 352.03 397.296 350.585 398.47 349.32C398.908 348.912 399.38 348.54 399.88 348.21C400.93 347.633 402.008 347.109 403.11 346.64C405.21 345.53 407.55 344.17 408.66 341.99C410.66 338.17 410.21 333.66 411.86 329.71C412.598 327.755 413.879 326.051 415.55 324.797C417.222 323.544 419.216 322.792 421.3 322.63C423.39 322.4 425.48 323.16 427.53 323.46C431.85 324.1 435.92 320.46 439.45 318.46C443.23 316.36 447.66 314.72 451.83 315.87C453.188 316.241 454.452 316.894 455.54 317.787C456.628 318.679 457.515 319.792 458.144 321.051C458.772 322.31 459.128 323.687 459.188 325.094C459.248 326.5 459.01 327.902 458.49 329.21C457.6 331.47 455.93 333.32 454.72 335.43C453.51 337.54 452.88 339.94 453.87 342.2C454.6 343.87 455.87 345.13 456.48 346.87C458.05 351.34 457.3 355.39 452.85 357.77C449.57 359.54 445.75 359.12 442.45 360.68C440.07 361.82 438.08 364.08 438.31 366.83C438.43 368.25 438.86 369.63 439.02 371.05C440.09 380.32 434.02 386.34 426.15 387.64C422.01 388.179 417.802 387.641 413.93 386.08C411.23 384.83 407.88 383.53 405.62 381.57C404.34 380.47 403.05 379.43 401.8 378.35Z" fill="#6A3093"/>
<path opacity="0.45" d="M401.8 378.35C399.916 376.798 398.237 375.014 396.8 373.04C392.99 367.57 393.09 359.57 395.62 353.6C396.334 352.03 397.296 350.585 398.47 349.32C398.908 348.912 399.38 348.54 399.88 348.21C400.93 347.633 402.008 347.109 403.11 346.64C405.21 345.53 407.55 344.17 408.66 341.99C410.66 338.17 410.21 333.66 411.86 329.71C412.598 327.755 413.879 326.051 415.55 324.797C417.222 323.544 419.216 322.792 421.3 322.63C423.39 322.4 425.48 323.16 427.53 323.46C431.85 324.1 435.92 320.46 439.45 318.46C443.23 316.36 447.66 314.72 451.83 315.87C453.188 316.241 454.452 316.894 455.54 317.787C456.628 318.679 457.515 319.792 458.144 321.051C458.772 322.31 459.128 323.687 459.188 325.094C459.248 326.5 459.01 327.902 458.49 329.21C457.6 331.47 455.93 333.32 454.72 335.43C453.51 337.54 452.88 339.94 453.87 342.2C454.6 343.87 455.87 345.13 456.48 346.87C458.05 351.34 457.3 355.39 452.85 357.77C449.57 359.54 445.75 359.12 442.45 360.68C440.07 361.82 438.08 364.08 438.31 366.83C438.43 368.25 438.86 369.63 439.02 371.05C440.09 380.32 434.02 386.34 426.15 387.64C422.01 388.179 417.802 387.641 413.93 386.08C411.23 384.83 407.88 383.53 405.62 381.57C404.34 380.47 403.05 379.43 401.8 378.35Z" fill="white" fill-opacity="0.6"/>
<path d="M444.33 348C444.226 348.035 444.114 348.035 444.01 348C440.041 346.551 435.802 345.997 431.594 346.378C427.386 346.758 423.315 348.063 419.67 350.2C419.608 350.235 419.539 350.258 419.468 350.266C419.397 350.275 419.325 350.269 419.256 350.25C419.187 350.23 419.123 350.197 419.067 350.153C419.011 350.108 418.964 350.053 418.93 349.99C418.895 349.929 418.872 349.861 418.864 349.79C418.856 349.72 418.861 349.649 418.881 349.581C418.901 349.513 418.934 349.449 418.978 349.394C419.023 349.339 419.078 349.293 419.14 349.26C422.931 347.038 427.167 345.685 431.543 345.298C435.92 344.91 440.328 345.499 444.45 347.02C444.516 347.047 444.576 347.087 444.625 347.138C444.675 347.189 444.714 347.25 444.739 347.316C444.764 347.383 444.776 347.454 444.772 347.525C444.769 347.596 444.751 347.666 444.72 347.73C444.682 347.803 444.626 347.866 444.558 347.913C444.49 347.96 444.412 347.99 444.33 348Z" fill="white" fill-opacity="0.6"/>
<path d="M409.84 377.23C409.971 377.23 410.097 377.179 410.19 377.088C410.284 376.996 410.337 376.871 410.34 376.74C410.86 354.06 433.18 329.69 448.34 322.87C448.463 322.816 448.559 322.715 448.608 322.589C448.657 322.463 448.654 322.324 448.6 322.2C448.541 322.081 448.439 321.988 448.315 321.942C448.19 321.895 448.052 321.899 447.93 321.95C432.56 328.87 409.93 353.65 409.36 376.71C409.36 376.845 409.412 376.974 409.505 377.071C409.598 377.168 409.726 377.225 409.86 377.23H409.84Z" fill="white" fill-opacity="0.6"/>
<path d="M96.24 349.57C96.24 349.57 97.88 331.29 93.49 316.35C89.1 301.41 80.33 290.35 70.26 286.49C60.19 282.63 49.08 289.74 58.26 299.49C67.44 309.24 85 321.66 86.94 348.73L96.24 349.57Z" fill="#6A3093"/>
<path opacity="0.3" d="M96.24 349.57C96.24 349.57 97.88 331.29 93.49 316.35C89.1 301.41 80.33 290.35 70.26 286.49C60.19 282.63 49.08 289.74 58.26 299.49C67.44 309.24 85 321.66 86.94 348.73L96.24 349.57Z" fill="white" fill-opacity="0.6"/>
<path d="M92.49 347.42H92.61C92.6852 347.42 92.7597 347.405 92.829 347.376C92.8983 347.346 92.9609 347.303 93.0132 347.249C93.0655 347.195 93.1063 347.131 93.1332 347.06C93.1602 346.99 93.1727 346.915 93.17 346.84C93 316.64 77.23 297.78 68.94 292C68.8785 291.956 68.8088 291.925 68.7351 291.908C68.6614 291.891 68.5851 291.89 68.5107 291.903C68.4362 291.916 68.3651 291.943 68.3015 291.984C68.2379 292.025 68.183 292.078 68.14 292.14C68.054 292.265 68.0204 292.419 68.0466 292.569C68.0728 292.718 68.1566 292.852 68.28 292.94C76.41 298.58 91.83 317.09 92.03 346.83C92.0226 346.967 92.0651 347.103 92.1497 347.211C92.2342 347.319 92.3551 347.394 92.49 347.42Z" fill="white" fill-opacity="0.6"/>
<path d="M96.74 378.35C98.6258 376.8 100.306 375.016 101.74 373.04C105.55 367.57 105.46 359.57 102.92 353.6C102.206 352.03 101.244 350.585 100.07 349.32C99.6338 348.909 99.1619 348.538 98.66 348.21C97.6114 347.631 96.5332 347.107 95.43 346.64C93.33 345.53 91 344.17 89.88 341.99C87.93 338.17 88.34 333.66 86.69 329.71C85.9515 327.755 84.6715 326.051 82.9997 324.797C81.3279 323.544 79.3335 322.792 77.25 322.63C75.15 322.4 73.06 323.16 71.02 323.46C66.7 324.1 62.62 320.46 59.1 318.46C55.31 316.36 50.88 314.72 46.71 315.87C45.3523 316.241 44.0881 316.894 43.0001 317.787C41.9121 318.679 41.0248 319.792 40.3962 321.051C39.7676 322.31 39.4118 323.687 39.3521 325.094C39.2925 326.5 39.5303 327.902 40.05 329.21C40.94 331.47 42.61 333.32 43.82 335.43C45.03 337.54 45.66 339.94 44.68 342.2C43.95 343.87 42.68 345.13 42.06 346.87C40.49 351.34 41.25 355.39 45.69 357.77C48.98 359.54 52.8 359.12 56.09 360.68C58.48 361.82 60.46 364.08 60.23 366.83C60.11 368.25 59.68 369.63 59.52 371.05C58.46 380.32 64.52 386.34 72.39 387.64C76.533 388.179 80.7448 387.641 84.62 386.08C87.32 384.83 90.62 383.53 92.93 381.57C94.2 380.47 95.49 379.43 96.74 378.35Z" fill="#6A3093"/>
<path opacity="0.45" d="M96.74 378.35C98.6258 376.8 100.306 375.016 101.74 373.04C105.55 367.57 105.46 359.57 102.92 353.6C102.206 352.03 101.244 350.585 100.07 349.32C99.6338 348.909 99.1619 348.538 98.66 348.21C97.6114 347.631 96.5332 347.107 95.43 346.64C93.33 345.53 91 344.17 89.88 341.99C87.93 338.17 88.34 333.66 86.69 329.71C85.9515 327.755 84.6715 326.051 82.9997 324.797C81.3279 323.544 79.3335 322.792 77.25 322.63C75.15 322.4 73.06 323.16 71.02 323.46C66.7 324.1 62.62 320.46 59.1 318.46C55.31 316.36 50.88 314.72 46.71 315.87C45.3523 316.241 44.0881 316.894 43.0001 317.787C41.9121 318.679 41.0248 319.792 40.3962 321.051C39.7676 322.31 39.4118 323.687 39.3521 325.094C39.2925 326.5 39.5303 327.902 40.05 329.21C40.94 331.47 42.61 333.32 43.82 335.43C45.03 337.54 45.66 339.94 44.68 342.2C43.95 343.87 42.68 345.13 42.06 346.87C40.49 351.34 41.25 355.39 45.69 357.77C48.98 359.54 52.8 359.12 56.09 360.68C58.48 361.82 60.46 364.08 60.23 366.83C60.11 368.25 59.68 369.63 59.52 371.05C58.46 380.32 64.52 386.34 72.39 387.64C76.533 388.179 80.7448 387.641 84.62 386.08C87.32 384.83 90.62 383.53 92.93 381.57C94.2 380.47 95.49 379.43 96.74 378.35Z" fill="white" fill-opacity="0.6"/>
<path d="M54.21 348C54.3173 348.035 54.4327 348.035 54.54 348C58.5087 346.552 62.7484 345.998 66.9561 346.378C71.1637 346.758 75.2354 348.063 78.88 350.2C79.0041 350.264 79.148 350.277 79.2816 350.237C79.4151 350.196 79.5279 350.106 79.5964 349.985C79.6649 349.863 79.6837 349.72 79.649 349.585C79.6143 349.45 79.5286 349.334 79.41 349.26C75.6173 347.039 71.3795 345.686 67.0014 345.299C62.6233 344.911 58.2137 345.499 54.09 347.02C53.9606 347.079 53.8596 347.187 53.8091 347.32C53.7585 347.453 53.7624 347.6 53.82 347.73C53.8607 347.801 53.9169 347.863 53.9844 347.909C54.0519 347.956 54.129 347.987 54.21 348Z" fill="white" fill-opacity="0.6"/>
<path d="M88.71 377.23C88.5781 377.23 88.4514 377.179 88.3563 377.088C88.2612 376.996 88.2052 376.872 88.2 376.74C87.68 354.06 65.36 329.69 50.2 322.87C50.1382 322.844 50.0823 322.806 50.0358 322.758C49.9893 322.709 49.9532 322.652 49.9298 322.589C49.9064 322.526 49.8961 322.459 49.8996 322.392C49.903 322.326 49.9202 322.26 49.95 322.2C50.0046 322.079 50.1047 321.986 50.2284 321.939C50.3521 321.892 50.4893 321.896 50.61 321.95C65.99 328.87 88.61 353.65 89.18 376.71C89.1827 376.776 89.172 376.843 89.1487 376.905C89.1254 376.967 89.0899 377.025 89.0443 377.073C88.9987 377.121 88.9438 377.16 88.883 377.187C88.8221 377.214 88.7565 377.229 88.69 377.23H88.71Z" fill="white" fill-opacity="0.6"/>
<path d="M140.09 458.72C184.571 458.72 220.63 437.901 220.63 412.22C220.63 386.539 184.571 365.72 140.09 365.72C95.609 365.72 59.55 386.539 59.55 412.22C59.55 437.901 95.609 458.72 140.09 458.72Z" fill="#E6E6E6"/>
<path d="M359.91 458.72C404.391 458.72 440.45 437.901 440.45 412.22C440.45 386.539 404.391 365.72 359.91 365.72C315.429 365.72 279.37 386.539 279.37 412.22C279.37 437.901 315.429 458.72 359.91 458.72Z" fill="#E6E6E6"/>
<path d="M32.9541 203.114L22.0852 205.775C21.3396 205.958 20.8832 206.71 21.0658 207.456L25.3543 224.969C25.5369 225.714 26.2894 226.171 27.035 225.988L37.9039 223.326C38.6495 223.144 39.106 222.391 38.9234 221.646L34.6348 204.133C34.4522 203.388 33.6997 202.931 32.9541 203.114Z" fill="#B4B4B4"/>
<path d="M60.41 232.69L36.33 223.69L31.38 203.5L48.58 184.41C49.0511 183.889 49.6553 183.505 50.3278 183.301C51.0003 183.097 51.7157 183.08 52.3972 183.251C53.0787 183.423 53.7006 183.777 54.1962 184.276C54.6917 184.774 55.0422 185.398 55.21 186.08L65.51 228.14C65.6769 228.822 65.655 229.537 65.4467 230.208C65.2383 230.879 64.8513 231.48 64.3272 231.948C63.8031 232.415 63.1617 232.731 62.4716 232.862C61.7815 232.993 61.0689 232.934 60.41 232.69Z" fill="#B4B4B4"/>
<path d="M76.64 203.12C75.9735 200.389 74.5762 197.891 72.5978 195.893C70.6195 193.895 68.1348 192.474 65.41 191.78C64.8817 191.648 64.3238 191.706 63.8338 191.944C63.3438 192.181 62.9531 192.584 62.73 193.08C62.5905 193.383 62.5189 193.712 62.5203 194.045C62.5217 194.378 62.596 194.707 62.7381 195.008C62.8801 195.309 63.0864 195.576 63.3424 195.788C63.5984 196.001 63.898 196.156 64.22 196.24C66.156 196.712 67.9255 197.706 69.3353 199.114C70.745 200.522 71.741 202.29 72.2146 204.226C72.6882 206.161 72.6211 208.19 72.0207 210.09C71.4203 211.99 70.3097 213.688 68.81 215C68.5613 215.225 68.3648 215.501 68.2344 215.809C68.104 216.118 68.0428 216.451 68.0552 216.786C68.0676 217.121 68.1532 217.448 68.3061 217.746C68.459 218.044 68.6754 218.305 68.94 218.51C69.37 218.854 69.9085 219.032 70.4585 219.014C71.0084 218.996 71.5338 218.782 71.94 218.41C74.0404 216.531 75.5882 214.113 76.4164 211.419C77.2446 208.725 77.3219 205.855 76.64 203.12Z" fill="#B4B4B4"/>
<path d="M85.8 200.88C84.7988 196.81 82.7877 193.059 79.9526 189.972C77.1176 186.885 73.5501 184.563 69.58 183.22C69.0312 183.026 68.4297 183.042 67.8921 183.265C67.3544 183.489 66.9189 183.904 66.67 184.43C66.5377 184.725 66.469 185.044 66.4683 185.367C66.4677 185.691 66.5351 186.01 66.6663 186.305C66.7974 186.601 66.9893 186.865 67.2294 187.081C67.4696 187.297 67.7526 187.461 68.06 187.56C71.3067 188.648 74.2253 190.541 76.5438 193.06C78.8623 195.58 80.5053 198.646 81.3198 201.972C82.1343 205.298 82.0938 208.776 81.2021 212.082C80.3104 215.388 78.5965 218.415 76.22 220.88C75.9921 221.109 75.8156 221.384 75.702 221.687C75.5885 221.989 75.5405 222.312 75.5613 222.635C75.5821 222.957 75.6712 223.272 75.8227 223.557C75.9742 223.842 76.1846 224.092 76.44 224.29C76.9002 224.645 77.4763 224.815 78.0554 224.767C78.6344 224.719 79.1746 224.456 79.57 224.03C82.4718 221.007 84.5641 217.3 85.6531 213.254C86.7421 209.207 86.7926 204.951 85.8 200.88Z" fill="#B4B4B4"/>
<path d="M36.69 237.71C36.4387 237.558 36.2199 237.358 36.0461 237.122C35.8723 236.885 35.747 236.616 35.6773 236.331C35.6076 236.046 35.5949 235.75 35.64 235.459C35.6851 235.169 35.787 234.891 35.94 234.64L72.34 174.55C72.6486 174.045 73.1449 173.682 73.7202 173.542C74.2955 173.401 74.9031 173.494 75.41 173.8C75.9155 174.109 76.2781 174.605 76.4187 175.18C76.5592 175.756 76.4662 176.363 76.16 176.87L39.76 237C39.4449 237.499 38.9457 237.853 38.3709 237.986C37.7961 238.119 37.1921 238.02 36.69 237.71Z" fill="#B4B4B4"/>
<path d="M475.8 185.9C472.8 176.28 464.72 170.35 455.1 168.7C449.892 167.694 444.496 168.63 439.93 171.33C435.87 173.88 431.74 178.65 432.12 183.74C432.17 184.4 433.9 185.17 434.18 184.31C434.81 182.43 434.82 181.4 435.87 179.7C437.055 177.878 438.527 176.26 440.23 174.91C443.58 172.28 448.17 171.5 452.4 171.65C460.83 171.97 467.99 175.65 471.71 183.44C475.31 190.94 473.84 199.95 468.82 206.44C466.13 209.92 463.3 212.01 459.82 214.63C456.1 217.45 453.35 219.36 451 222.82C449.938 224.613 448.745 226.324 447.43 227.94C446.677 228.74 445.751 229.357 444.724 229.745C443.696 230.133 442.594 230.282 441.5 230.18C438.932 229.955 436.477 229.02 434.41 227.48C433.24 226.614 432.288 225.487 431.631 224.188C430.973 222.89 430.627 221.456 430.62 220C430.53 218.25 428.51 218.62 428.43 220.63C428.158 222.697 428.641 224.792 429.79 226.53C431.082 228.638 432.934 230.344 435.14 231.46C439.2 233.36 444.96 234.05 448.62 231.08C452.12 228.25 453.5 223.68 456.99 220.81C460.79 217.67 464.15 215.39 467.82 212.06C475 205.56 478.71 195.35 475.8 185.9Z" fill="#B4B4B4"/>
<path d="M465.18 186.19C465.64 185.56 465.24 184.35 465.01 183.71C464.812 183.159 464.529 182.643 464.17 182.18C461.54 178.67 456.51 177.18 452.28 177.62C446.56 178.14 439.43 182.72 439.93 189.22C440.039 190.671 440.616 192.047 441.576 193.14C442.536 194.233 443.826 194.984 445.25 195.28C448.05 195.74 450.25 194 452.85 193.28C456.67 192.17 458.18 196.22 458.23 199.28C458.363 201.09 458.17 202.909 457.66 204.65C457.08 206.17 455.75 206.65 454.3 206.94C452.909 207.159 451.56 207.591 450.3 208.22C448.73 209.15 448.25 210.64 447.41 212.17C446.858 213.178 446.051 214.023 445.07 214.62C444.625 214.853 444.133 214.983 443.631 215C443.129 215.018 442.63 214.922 442.17 214.72C441.244 214.314 440.48 213.61 440 212.72C439.71 212.26 439.55 211.55 439.1 211.22C438.18 210.53 437.55 211.43 437.37 212.22C437.288 212.748 437.315 213.286 437.451 213.803C437.587 214.319 437.828 214.802 438.16 215.22C438.86 216.077 439.772 216.735 440.805 217.132C441.838 217.528 442.956 217.648 444.05 217.48C446.195 217.111 448.113 215.925 449.4 214.17C450.3 212.95 450.57 211.17 451.9 210.28C453.056 209.727 454.291 209.356 455.56 209.18C456.716 208.95 457.805 208.464 458.75 207.76C459.403 207.139 459.925 206.393 460.286 205.567C460.646 204.741 460.838 203.851 460.85 202.95C461.16 199.75 461.33 196.23 459.4 193.47C458.571 192.229 457.352 191.3 455.935 190.831C454.518 190.362 452.986 190.379 451.58 190.88C449.32 191.62 446.19 194.02 444.05 191.88C441.28 189.07 443.57 184.88 446.05 182.88C447.424 181.783 449.015 180.988 450.717 180.547C452.419 180.106 454.196 180.028 455.93 180.32C457.509 180.607 459.013 181.213 460.35 182.1C461.505 182.918 462.45 183.998 463.11 185.25C463.53 185.91 464.11 187.16 465.06 186.25L465.18 186.19Z" fill="#B4B4B4"/>
<path d="M419 212.13C418.872 211.822 418.807 211.491 418.807 211.157C418.807 210.823 418.873 210.493 419.002 210.184C419.13 209.876 419.317 209.596 419.554 209.36C419.79 209.124 420.071 208.937 420.38 208.81L480.81 183.93C481.118 183.803 481.448 183.737 481.781 183.738C482.114 183.738 482.444 183.804 482.752 183.933C483.059 184.061 483.338 184.249 483.573 184.485C483.808 184.721 483.994 185.002 484.12 185.31C484.248 185.618 484.313 185.948 484.313 186.281C484.312 186.615 484.246 186.945 484.118 187.252C483.99 187.56 483.802 187.839 483.565 188.074C483.329 188.308 483.048 188.494 482.74 188.62L422.31 213.51C421.688 213.765 420.99 213.763 420.37 213.504C419.749 213.246 419.257 212.752 419 212.13Z" fill="#B4B4B4"/>
<path d="M415.68 99.9302C422.2 98.9302 427.51 95.8702 431.13 90.0102C431.13 90.0102 440.52 91.8902 454.81 91.0102C475.94 89.7602 487.86 80.5602 484.71 68.0102C480.99 53.2202 467.48 48.6302 442.29 49.6102C410.77 50.9002 399.44 70.9002 421.42 87.0002C422.59 92.0002 419.43 96.0002 415.68 99.9302Z" fill="#6A3093"/>
<path d="M88.37 88.7302C84.54 86.9802 82.63 83.4202 82.28 78.4402C82.28 78.4402 100.56 75.4402 97.34 53.8802C95.63 42.4302 86.93 30.6402 52.83 35.0802C11.64 40.4402 16.55 61.1802 20.83 68.4402C25.27 76.0102 42.73 82.0702 72.43 80.4402C75.13 86.0002 82.71 89.5002 88.37 88.7302Z" fill="#6A3093"/>
<path d="M402.44 379.16C402.96 381.92 403.92 385.11 404.75 390.76C405.58 396.41 404.34 396.64 408.09 410.76C410.34 419.25 409.95 422.63 404.78 429.76C399.24 437.44 393.43 435.91 389.62 427.41C386.36 420.15 386.54 416.77 386.5 409.25C386.46 401.73 386.38 399.53 386.02 393.56C385.7 388.3 386.13 384.7 385.79 380.67L402.44 379.16Z" fill="#37474F"/>
<path d="M404.23 399.781C403.16 392.491 402.89 384.931 402.5 380.001C401.61 369.001 403.79 347.121 402.16 330.521L374.16 327.771C375.16 334.241 382.95 363.511 385.82 381.181C385.82 381.181 387 405.181 388.58 415.731C388.619 416.046 388.732 416.347 388.91 416.61C389.088 416.873 389.326 417.089 389.605 417.242C389.883 417.394 390.194 417.478 390.512 417.486C390.829 417.495 391.144 417.428 391.43 417.291C395.419 415.516 399.908 415.212 404.1 416.431C404.407 416.545 404.738 416.583 405.063 416.54C405.388 416.497 405.697 416.375 405.964 416.184C406.231 415.994 406.446 415.74 406.592 415.447C406.738 415.153 406.809 414.828 406.8 414.501C406.71 410.591 405 405.251 404.23 399.781Z" fill="#FFBDA7"/>
<path d="M321.09 327.28C321.74 350.28 322 370.62 321.32 376.61C320.64 382.6 320.32 384.61 318.92 388.82C317.52 393.03 315.06 398.64 312.84 401.39C312.84 401.39 306.44 408.55 307.92 409.24C309.4 409.93 323.19 411.05 329.31 409.05C335.43 407.05 335.95 401.8 337.82 392.21C339.69 382.62 341.17 368.64 341.17 368.64C340.874 368.141 340.648 367.602 340.5 367.04C339.62 364.31 341.95 357.1 342.42 350.15L321.09 327.28Z" fill="#FFBDA7"/>
<path d="M347.63 382.74C347.28 384.98 345.42 387.54 344.63 391.03C343.733 395.008 343.227 399.064 343.12 403.14C342.97 408.14 342.94 408.82 342.94 408.82L341.4 408.77C341.4 408.77 341.63 401.58 341.72 398.42C341.81 395.26 341.58 392.95 340.08 392.56C340.1 392.56 340.17 382.51 347.63 382.74Z" fill="#263238"/>
<path d="M340.89 367.36C341.95 369.97 345.39 373.59 346.89 376.07C347.654 377.377 348.093 378.848 348.17 380.36C348.205 380.988 348.109 381.616 347.889 382.205C347.669 382.793 347.329 383.33 346.89 383.78C345.214 385.474 343.657 387.282 342.23 389.19C340.41 391.76 337.01 397.74 336.13 401.93C335.25 406.12 334.77 409.8 331.25 411.93C328.5 413.61 317.1 416.13 311.32 416.63C303.43 417.33 301.32 413.57 304.18 410.46C307.04 407.35 311.96 402.04 312.85 401.37C315.342 401.004 317.887 401.297 320.23 402.22C324.7 404.02 326.17 406.56 330.76 404.13C334.92 401.93 336.42 394.13 335.76 382.91C335.08 370.23 340.89 367.36 340.89 367.36Z" fill="#37474F"/>
<path d="M379.68 169.07C380.26 171.95 380.9 174.64 381.97 176.07C388.47 184.76 395.14 195.3 396.59 211.69C398.722 237.555 399.46 263.516 398.8 289.46C399.16 292.96 402 301.38 402.85 321.32C403.53 337.22 403.05 361.95 403.05 361.95C403.05 361.95 391.76 367.74 381.77 364.17C377.52 349.08 370.19 312.74 365.95 295.46C361.47 277.24 356.84 255.46 356.84 255.46L350.74 287.58C351.59 294.44 351.667 301.373 350.97 308.25C349.97 318.89 342.21 356.51 342.21 356.51C342.21 356.51 329.64 360.65 320.99 354.89C320.99 354.89 318.99 301.95 318.71 290.27C318.43 278.59 319.05 209.1 325.71 178.41C325.937 176.047 326.038 173.674 326.01 171.3C334.48 178.08 368.67 176.79 379.68 169.07Z" fill="#37474F"/>
<path d="M403.15 356.44C398.9 360.5 385.65 361.79 380.39 359.12L382.16 367.35C382.16 367.35 385.64 369.61 393.16 368.79C400.68 367.97 403.04 364.9 403.04 364.9L403.15 356.44Z" fill="#455A64"/>
<path d="M343.36 351.26C338.9 352.85 325.51 352.39 320.54 349.46L320.91 356.56C320.91 356.56 323.73 359.14 331.28 359.77C338.83 360.4 342.07 358.21 342.07 358.21L343.36 351.26Z" fill="#455A64"/>
<path d="M356.84 255.49L351 216.44C347.194 216.571 343.409 215.822 339.94 214.251C336.471 212.679 333.411 210.328 331 207.38C331 207.38 330.91 217.18 347.11 221.3L353.86 257.3L350.76 287.65L356.84 255.49Z" fill="#263238"/>
<path d="M325.76 177.87C325.76 177.87 334.01 183.87 353.12 182.6C372.23 181.33 381.36 175.09 381.23 174.76C380.604 173.159 380.135 171.502 379.83 169.81C379.76 169.52 379.71 169.27 379.68 169.08C368.68 176.8 334.48 178.08 325.98 171.34C325.98 171.34 325.98 175.91 325.76 177.88V177.87Z" fill="#263238"/>
<path d="M392.52 83.59C394.76 79.27 396.52 73.59 392.52 69.67C394.28 64.91 395.52 58.73 390.64 55.49C390.75 49.22 387.47 45.22 382.7 43.55C378.19 41.96 373.27 42.46 369.8 46.55L373.15 48.13C373.64 52.4 375.15 56.55 379.06 58.71C377.47 63.65 378.36 67.77 383.35 70.05C380.6 74.98 380.35 80.56 384.05 85.11C382.38 89.26 383.05 92.73 385.8 96.22C382.91 99.68 384.62 104.57 387.87 107.22C386.967 108.117 386.273 109.202 385.839 110.399C385.405 111.595 385.242 112.873 385.36 114.14C385.406 115.591 385.991 116.974 387 118.018C388.009 119.062 389.371 119.694 390.82 119.79C389.27 118.56 389.11 117.72 389.92 115.36C390.73 113 392.13 110.2 389.92 107.6C392.09 103.87 394.18 99.6 391.58 95.68C393.49 91.75 395 87.57 392.52 83.59Z" fill="#263238"/>
<path d="M371.82 47.5299C373.01 45.5299 375.63 46.3099 377.82 48.1399C380.01 49.9699 382.01 53.1399 380.82 54.8299C378.79 57.7099 370.68 49.5199 371.82 47.5299Z" fill="#6A3093"/>
<path d="M337.14 107.78C328.77 108.39 322.14 110.78 314.63 118.02C303.63 128.63 281.36 150.02 282.37 160.27L301.79 159.48L333.34 140.41L337.14 107.78Z" fill="black"/>
<path d="M363.82 102.6L381.08 108C384.08 109 395.24 115.85 391.33 132.7C390.03 138.28 388.27 146.1 386.68 153.92C385.46 159.92 389.93 171.39 393.54 189.7C393.54 189.7 378.74 201.47 349.33 198.15C326.89 195.62 324.45 187.22 324.45 187.22C325.08 166.33 326.93 158.22 326.89 150.32C326.89 150.32 323.61 146.32 323.47 139.22C323.32 131.77 325.28 127.77 331.96 119.32C335.739 114.531 339.821 109.988 344.18 105.72L363.82 102.6Z" fill="#455A64"/>
<path d="M331.91 128.58C326.72 140.4 330.23 207.84 329.76 202.78C329.76 202.78 320.1 199.04 319.19 195.78C319.19 183.64 321.43 159.24 321.57 150.9C321.73 141.31 321.02 134.9 323.46 128.76C325.25 124.22 332.62 112.92 337.14 107.76C339.46 106.89 341.57 106.59 344.14 105.66C339.4 109.83 333.88 121.49 331.91 128.58Z" fill="#6A3093"/>
<path opacity="0.2" d="M331.91 128.58C326.72 140.4 330.23 207.84 329.76 202.78C329.76 202.78 320.1 199.04 319.19 195.78C319.19 183.64 321.43 159.24 321.57 150.9C321.73 141.31 321.02 134.9 323.46 128.76C325.25 124.22 332.62 112.92 337.14 107.76C339.46 106.89 341.57 106.59 344.14 105.66C339.4 109.83 333.88 121.49 331.91 128.58Z" fill="black"/>
<path d="M350.81 106.35C347.54 108.59 332.92 118.64 330.02 138.2C330.02 129.57 333.26 119.01 336.34 114C340.1 107.9 345.09 102.2 350.69 100.54L350.81 106.35Z" fill="#263238"/>
<path d="M371.4 102.51C371.4 102.51 371.46 103.67 371.31 107.34C371.16 111.01 364.48 138.1 364.38 151.34C364.342 169.209 365.414 187.063 367.59 204.8C367.59 204.8 389.01 206.74 396.9 196.09C396.9 196.09 394.06 182.8 391.42 166.62C389.85 157.04 394.42 135.15 392.8 121.27C392.11 115.48 392.51 110.27 388.16 108.91C384.57 107.78 378.85 106.27 378.85 106.27L371.4 102.51Z" fill="#6A3093"/>
<path opacity="0.2" d="M371.4 102.51C371.4 102.51 371.46 103.67 371.31 107.34C371.16 111.01 364.48 138.1 364.38 151.34C364.342 169.209 365.414 187.063 367.59 204.8C367.59 204.8 389.01 206.74 396.9 196.09C396.9 196.09 394.06 182.8 391.42 166.62C389.85 157.04 394.42 135.15 392.8 121.27C392.11 115.48 392.51 110.27 388.16 108.91C384.57 107.78 378.85 106.27 378.85 106.27L371.4 102.51Z" fill="black"/>
<path d="M388.16 109C396.62 111.15 399.33 115.36 402.64 122.28C405.95 129.2 416.34 157.15 418.88 163.17C421.42 169.19 420.35 178.38 418.05 180.29C415.75 182.2 396.17 163.77 396.17 163.77L382.7 139.06C382.7 139.06 377.6 116.42 388.16 109Z" fill="#263238"/>
<path d="M370.52 99C372.16 98.92 372.59 99.93 374.76 102.4C376.004 103.826 377.373 105.138 378.85 106.32C376.85 118.52 367.24 133.72 364.5 148.04C364.38 136.45 368.29 120.4 371.22 102.69L370.52 99Z" fill="#263238"/>
<path d="M350.2 89.3501C349.2 87.3501 348.32 85.0601 346.7 83.4301C345.08 81.8001 343 81.0001 341.12 79.7301L335.12 75.7301C327.91 71.5501 328.59 61.9701 330.54 57.0401C334.9 46.0401 347.08 42.2401 354.54 42.0401C368.71 41.7401 375.54 45.6201 376.71 52.9901C378.238 52.966 379.749 53.3183 381.11 54.0159C382.47 54.7134 383.638 55.7348 384.51 56.9901C387.95 61.7501 387.51 68.9901 385.95 74.1201C383.51 82.1201 380.89 84.7101 377.61 87.4701C374.608 89.8003 372.225 92.8326 370.67 96.3001L350.2 89.3501Z" fill="#37474F"/>
<path d="M374.36 89.68C376.91 90.14 378.93 88.86 380.46 87.15C383.87 83.36 384.16 79.52 382.55 76.97C381.22 74.88 377.98 73.55 375.72 74.97C373.3 76.51 373.23 77.75 372.32 79.47C371.41 81.19 367.87 81.07 366.98 74.14C366.15 67.68 365.13 61.76 361.98 58.86C357.23 54.53 351.98 55.27 350.11 57.86C348.16 54.86 345.22 53.65 342 55.4C338.78 57.15 336.35 61.98 335.31 74.26C334.25 86.77 337.24 94.55 340.12 96.64C342.3 98.22 344.74 98.93 349.44 99.11L349.3 107.41C345.62 112.67 361.14 116.95 370.2 108.78L371.25 102.67L371.31 87.67C371.622 88.2232 372.062 88.694 372.592 89.0435C373.123 89.393 373.729 89.6112 374.36 89.68Z" fill="#FFBDA7"/>
<path d="M354.8 73.4899C355.037 73.9472 355.427 74.3069 355.902 74.5061C356.378 74.7052 356.908 74.7314 357.4 74.5799C357.635 74.5484 357.861 74.466 358.06 74.3384C358.26 74.2108 358.43 74.041 358.558 73.8411C358.685 73.6411 358.768 73.4157 358.799 73.1806C358.831 72.9455 358.81 72.7064 358.74 72.4799C358.505 72.0237 358.116 71.6653 357.642 71.4677C357.168 71.2702 356.64 71.2461 356.15 71.3999C355.915 71.4303 355.69 71.5116 355.49 71.638C355.289 71.7644 355.119 71.933 354.991 72.1319C354.862 72.3308 354.778 72.5554 354.746 72.7899C354.713 73.0244 354.731 73.2633 354.8 73.4899Z" fill="#263238"/>
<path d="M356.89 71.3203C358.19 71.3203 358.96 73.0903 360.21 72.3903C360.115 72.6256 359.974 72.8392 359.794 73.0182C359.615 73.1971 359.4 73.3376 359.165 73.4311C358.929 73.5247 358.677 73.5693 358.423 73.5623C358.17 73.5553 357.92 73.4968 357.69 73.3903C357.11 73.1303 356.89 71.3203 356.89 71.3203Z" fill="#263238"/>
<path d="M338.4 67.5499L343.24 66.5499C343.197 66.2293 343.089 65.9209 342.922 65.644C342.755 65.367 342.533 65.1273 342.269 64.9397C342.006 64.7522 341.707 64.6208 341.39 64.5537C341.074 64.4867 340.747 64.4854 340.43 64.5499C339.767 64.6854 339.183 65.0752 338.803 65.636C338.424 66.1967 338.279 66.8837 338.4 67.5499Z" fill="#263238"/>
<path d="M343.39 73C343.139 73.4512 342.736 73.7991 342.253 73.9821C341.77 74.1651 341.237 74.1714 340.75 74C340.516 73.9584 340.293 73.8663 340.098 73.7302C339.903 73.594 339.74 73.4171 339.62 73.2116C339.5 73.0061 339.426 72.7769 339.404 72.5401C339.382 72.3032 339.411 72.0643 339.49 71.84C339.741 71.3887 340.144 71.0408 340.627 70.8578C341.11 70.6748 341.643 70.6685 342.13 70.84C342.364 70.8816 342.587 70.9736 342.782 71.1098C342.977 71.2459 343.14 71.4229 343.26 71.6284C343.38 71.8339 343.453 72.063 343.476 72.2998C343.498 72.5367 343.469 72.7756 343.39 73Z" fill="#263238"/>
<path d="M341.39 70.7803C340.09 70.7803 339.25 72.4703 338.03 71.7203C338.111 71.9618 338.241 72.1841 338.411 72.3738C338.581 72.5634 338.788 72.7163 339.019 72.823C339.25 72.9298 339.501 72.9881 339.756 72.9945C340.01 73.0009 340.264 72.9553 340.5 72.8603C341.1 72.5803 341.39 70.7803 341.39 70.7803Z" fill="#263238"/>
<path d="M355.64 66.8602L360.54 68.8602C360.686 68.5478 360.766 68.209 360.776 67.8645C360.786 67.52 360.725 67.1772 360.598 66.8569C360.47 66.5367 360.279 66.2458 360.035 66.0022C359.791 65.7586 359.5 65.5674 359.18 65.4402C358.52 65.1809 357.786 65.1834 357.128 65.4474C356.47 65.7114 355.938 66.2168 355.64 66.8602Z" fill="#263238"/>
<path d="M353.81 85.4199L346.81 86.6899C346.9 87.1799 347.091 87.6458 347.371 88.0579C347.651 88.47 348.014 88.8193 348.436 89.0836C348.859 89.3479 349.331 89.5214 349.824 89.5931C350.317 89.6648 350.82 89.633 351.3 89.4999C351.735 89.4001 352.145 89.2149 352.507 88.9549C352.869 88.6949 353.176 88.3655 353.41 87.9857C353.643 87.606 353.799 87.1836 353.868 86.7431C353.936 86.3026 353.917 85.8528 353.81 85.4199Z" fill="#B16668"/>
<path d="M349.29 89.4402C349.516 88.5377 350.068 87.7509 350.84 87.2319C351.612 86.7128 352.549 86.4985 353.47 86.6302C353.585 86.6542 353.698 86.6843 353.81 86.7202C353.739 87.3956 353.453 88.0303 352.994 88.5308C352.534 89.0313 351.927 89.3711 351.26 89.5002C350.608 89.6419 349.932 89.6213 349.29 89.4402Z" fill="#F0997A"/>
<path d="M350.31 68.9902L349.03 83.1402L341.38 80.2502L350.31 68.9902Z" fill="#F0997A"/>
<path d="M349.41 99.1303C353.958 98.9749 358.455 98.1146 362.74 96.5804C364.3 95.9604 366.44 93.2004 368.21 90.1104C368.21 90.1104 366.88 96.2403 363.5 98.2803C358.36 101.39 349.36 101.65 349.36 101.65L349.41 99.1303Z" fill="#F0997A"/>
<path d="M343.22 121.37C342.67 119.37 344.09 116.37 346.73 119.16C349.37 121.95 358.9 133.4 360.93 134.69C362.96 135.98 365.56 135.75 368.42 137.33C371.28 138.91 376.1 144.02 379.12 144.91C381.985 145.599 384.608 147.054 386.71 149.12C389.44 151.63 394.82 153.96 399.71 156.57C405.33 159.57 409.85 160.57 413.34 163.74C416.83 166.91 421.65 178.19 416.84 181.51C412.03 184.83 402.93 183.31 396.31 178.44C391.79 175.13 389.71 172.05 383.48 165.44C380.58 162.35 378.34 159.96 377.57 159.27C375.15 157.11 373.14 157.79 369.69 157.62C366.24 157.45 360.53 156.27 358.69 155.09C356.459 153.466 354.66 151.32 353.45 148.84C352.81 147.09 355.52 145.78 355.52 145.78L355.1 141.88C355.1 141.88 348.23 134.68 344.42 129.94C342.876 128.211 341.732 126.162 341.07 123.94C340.973 123.622 340.957 123.284 341.023 122.958C341.089 122.632 341.235 122.328 341.449 122.073C341.662 121.817 341.936 121.619 342.245 121.497C342.555 121.374 342.89 121.33 343.22 121.37Z" fill="#FFBDA7"/>
<path d="M356.08 151.9C357.36 152.46 358.43 151.67 357.97 150.78L358.52 151.69C358.34 152.48 357.4 152.62 357.6 153.49C357.8 154.36 359.19 155.31 359.29 155.38C359.074 155.292 358.867 155.185 358.67 155.06C356.995 153.831 355.553 152.314 354.41 150.58C354.837 151.163 355.414 151.619 356.08 151.9Z" fill="#F0997A"/>
<path d="M342.81 122.67C341.89 121.85 341.32 122.35 341.19 122.49C341.349 122.106 341.633 121.786 341.996 121.583C342.359 121.38 342.779 121.305 343.19 121.37C343.83 122.444 344.528 123.482 345.28 124.48C346.81 126.58 353.08 134.1 354.28 134.73C355.48 135.36 359.19 134.4 362.07 135.26L362.61 135.45C358.91 135.3 356.61 135.53 355.74 136.45C354.87 137.37 354.79 139.38 355.06 141.88C353.68 140.11 353.89 136.17 353.89 136.17C351.197 133.458 348.644 130.611 346.24 127.64C344.27 124.85 343.85 123.6 342.81 122.67Z" fill="#F0997A"/>
<path d="M353.71 127.09L354.37 127.84C353.37 130.28 350.25 134.28 349.37 135.7C347.63 133.76 345.79 131.7 344.37 129.91C343.542 128.893 342.8 127.809 342.15 126.67C342.095 126.592 342.048 126.508 342.01 126.42C343.13 124.82 346.33 120.93 347.31 119.82C348.78 121.41 351.24 124.28 353.71 127.09Z" fill="#F0997A"/>
<path d="M357.14 149.67C357.531 150.072 357.843 150.543 358.06 151.06C358.16 151.3 357.97 151.91 358.06 152.15C358.146 152.415 358.29 152.658 358.482 152.861C358.674 153.063 358.909 153.22 359.17 153.32C359.418 153.456 359.691 153.539 359.973 153.562C360.255 153.585 360.538 153.548 360.805 153.454C361.071 153.359 361.315 153.209 361.519 153.014C361.723 152.818 361.884 152.582 361.99 152.32C362.69 153.54 363.62 153.91 364.5 154.91C365.38 155.91 367.3 155.91 367.59 154.54C367.725 153.856 367.725 153.153 367.59 152.47C367.462 151.974 367.305 151.487 367.12 151.01C367.376 151.325 367.657 151.619 367.96 151.89C370.36 154.04 372.81 154.54 373.8 155.53C373.61 154.2 370.8 153.35 369.11 152.01C368.31 151.355 367.65 150.546 367.171 149.63C366.691 148.714 366.402 147.71 366.32 146.68C366.296 146.126 366.392 145.574 366.6 145.06L365.6 146.78C365.6 146.78 365.09 145.38 364.3 144.99C364.74 146.06 365.3 147.56 364.93 148.63C364.736 149.21 364.391 149.728 363.93 150.13C364.479 150.016 365.05 150.103 365.54 150.374C366.03 150.646 366.406 151.084 366.6 151.61C367.54 153.4 367.04 154.66 366.19 154.8C365.34 154.94 364.98 154.31 364.47 153.8C363.7 153.07 362.8 152.34 362.8 152.34C361.71 151.11 361.8 151.02 361.53 150.15C361.24 148.83 361.03 147.495 360.9 146.15C360.989 145.294 361.4 144.504 362.05 143.94C362.84 143.13 364.16 141.94 364.16 141.94C363.277 142.142 362.355 142.09 361.5 141.79C360.869 141.378 360.386 140.775 360.12 140.07C360.17 140.716 360.13 141.365 360 142C359.79 142.67 359.35 144.08 358.53 144.41C359.53 144.49 359.78 145.19 360.06 145.86C360.34 146.53 361.21 151.2 361.34 152.01C361.215 152.236 361.031 152.424 360.807 152.553C360.583 152.681 360.328 152.746 360.07 152.74C359.835 152.757 359.6 152.713 359.388 152.611C359.176 152.509 358.994 152.354 358.86 152.16C358.369 151.276 357.793 150.442 357.14 149.67Z" fill="#F0997A"/>
<path d="M360.35 141C360.539 141.506 360.598 142.052 360.521 142.586C360.444 143.121 360.234 143.628 359.91 144.06C360.295 144.465 360.565 144.966 360.69 145.51C360.954 144.858 361.338 144.262 361.82 143.75C362.369 143.201 362.961 142.696 363.59 142.24C363.59 142.24 361.33 142.86 360.35 141Z" fill="#B16668"/>
<path d="M355.5 145.75C355.591 146.703 355.873 147.628 356.33 148.47C356.82 149.27 357.56 149.92 358.06 150.76C358.33 151.16 358.55 151.59 358.83 151.97C358.95 152.159 359.113 152.318 359.305 152.434C359.496 152.551 359.712 152.621 359.936 152.64C360.159 152.66 360.384 152.627 360.593 152.546C360.802 152.464 360.989 152.336 361.14 152.17C361.433 151.822 361.599 151.385 361.61 150.93C361.611 150.913 361.616 150.896 361.624 150.881C361.631 150.866 361.642 150.852 361.655 150.841C361.668 150.83 361.683 150.821 361.699 150.816C361.716 150.811 361.733 150.809 361.75 150.81C361.774 150.812 361.797 150.82 361.816 150.834C361.836 150.849 361.851 150.868 361.86 150.89C362.331 151.73 362.988 152.452 363.78 153C364.174 153.301 364.542 153.636 364.88 154C365.017 154.178 365.189 154.328 365.385 154.439C365.58 154.551 365.796 154.623 366.02 154.65C366.235 154.636 366.438 154.549 366.596 154.404C366.755 154.258 366.858 154.063 366.89 153.85C367.019 153.399 367.019 152.921 366.89 152.47C366.565 151.563 366.018 150.752 365.3 150.11C365.29 150.081 365.29 150.049 365.3 150.02L365.64 147.32C365.641 147.308 365.645 147.297 365.651 147.286C365.656 147.276 365.664 147.267 365.673 147.259C365.683 147.252 365.693 147.246 365.705 147.243C365.716 147.24 365.728 147.239 365.74 147.24C365.759 147.246 365.777 147.258 365.789 147.274C365.802 147.29 365.809 147.31 365.81 147.33C365.832 148.192 366.043 149.039 366.43 149.81C366.825 150.586 367.353 151.286 367.99 151.88C367.301 151.326 366.736 150.635 366.332 149.849C365.927 149.064 365.691 148.202 365.64 147.32H365.81L365.51 150.03V149.93C366.263 150.6 366.84 151.445 367.19 152.39C367.355 152.884 367.376 153.415 367.25 153.92C367.184 154.181 367.053 154.422 366.87 154.62C366.769 154.721 366.649 154.8 366.517 154.854C366.384 154.907 366.243 154.933 366.1 154.93C365.835 154.906 365.577 154.829 365.341 154.703C365.106 154.578 364.898 154.407 364.73 154.2C364.402 153.844 364.052 153.51 363.68 153.2C362.847 152.621 362.161 151.853 361.68 150.96H361.93C361.909 151.472 361.715 151.962 361.38 152.35C361.201 152.538 360.983 152.683 360.74 152.774C360.498 152.866 360.238 152.902 359.98 152.88C359.727 152.851 359.483 152.766 359.267 152.632C359.05 152.497 358.867 152.315 358.73 152.1C358.44 151.7 358.22 151.27 357.96 150.87C357.49 150.05 356.76 149.4 356.29 148.54C355.838 147.674 355.569 146.724 355.5 145.75Z" fill="#B16668"/>
<path d="M358.05 150.73C358.111 150.837 358.15 150.956 358.162 151.078C358.175 151.201 358.163 151.325 358.125 151.443C358.087 151.56 358.026 151.669 357.944 151.761C357.862 151.854 357.762 151.928 357.65 151.98C357.441 152.08 357.213 152.138 356.981 152.148C356.749 152.158 356.517 152.122 356.3 152.04C355.464 151.719 354.76 151.128 354.3 150.36C354.794 151.103 355.523 151.659 356.37 151.94C356.572 152.008 356.786 152.035 356.999 152.019C357.212 152.004 357.42 151.946 357.61 151.85C357.697 151.806 357.774 151.744 357.837 151.67C357.9 151.595 357.947 151.509 357.976 151.415C358.005 151.322 358.015 151.224 358.005 151.127C357.996 151.03 357.967 150.936 357.92 150.85L358.05 150.73Z" fill="#B16668"/>
<path d="M378.82 155.64C380.59 157.38 380.15 161.86 383.5 165.41C380.6 162.32 378.36 159.93 377.59 159.24C375.5 157.37 373.71 157.63 371.03 157.62C374.47 157.07 377.06 153.91 378.82 155.64Z" fill="#F0997A"/>
<path d="M313.37 140.05C316.12 138.27 317.02 137.54 319.08 136C320.918 134.689 322.567 133.131 323.98 131.37C325.36 129.51 326.41 128.71 327.75 129.03C328.752 129.364 329.823 129.433 330.86 129.23C331.8 129 332.63 129.03 334.26 130.11C335.89 131.19 337.48 131.88 339.01 130.37C340.54 128.86 346.57 121.75 348.36 119.32C350.15 116.89 351.62 116.45 352.44 117.58C353.26 118.71 352.44 121.28 352.44 121.28C352.955 121.197 353.483 121.295 353.933 121.557C354.384 121.82 354.729 122.231 354.91 122.72C355.74 124.52 354.38 127.16 351.83 130.58C349.28 134 347.65 136.3 346.83 137.09C346.01 137.88 345.49 138.57 344.58 139.46C344.18 140.55 338.91 145.13 338.91 145.13C339.226 145.821 339.344 146.586 339.25 147.34C339.157 148.094 338.855 148.807 338.38 149.4C337.688 150.428 336.659 151.181 335.47 151.53C334.91 151.74 334.32 151.93 333.74 152.11C332.759 152.377 331.754 152.551 330.74 152.63C328.684 152.735 326.623 152.625 324.59 152.3C321.07 152 317.76 153.89 315.01 155.88C313.63 156.88 304.06 165.88 299.01 167.36C293.96 168.84 284.51 168.36 282.86 165.16C281.21 161.96 282.12 157.36 287.05 152.23C291.98 147.1 297.05 145.77 303.19 143.91C310.2 141.82 311.67 141.15 313.37 140.05Z" fill="#FFBDA7"/>
<path d="M306.24 163.13C308.24 161.32 309.02 159.95 312.09 156.34C315.16 152.73 319.19 151.41 319.58 145.41C319.619 144.296 319.893 143.202 320.385 142.201C320.876 141.2 321.573 140.313 322.43 139.6C323.54 138.5 324.93 137.6 325.06 137.22C325.25 136.65 324.97 135.01 325.44 134.22C325.33 135.44 326.08 137.22 326.03 137.72C325.81 139.07 325.509 140.406 325.13 141.72C324.52 144.06 325.37 144.98 326.13 145.37C326.223 145.424 326.327 145.457 326.434 145.466C326.542 145.474 326.649 145.459 326.75 145.42C326.709 145.823 326.709 146.228 326.75 146.63C326.92 147.83 327.81 147.81 328.3 147.81C328.79 147.81 329.51 146.81 330.42 145.89C331.128 145.136 331.796 144.345 332.42 143.52C332.457 144.093 332.524 144.664 332.62 145.23C333.128 146.438 333.702 147.616 334.34 148.76C334.549 149.321 334.565 149.937 334.383 150.508C334.202 151.079 333.835 151.572 333.34 151.91C333.2 152.026 333.07 152.153 332.95 152.29C332.22 152.45 331.47 152.52 330.73 152.61C328.674 152.716 326.613 152.605 324.58 152.28C321.06 151.98 317.75 153.87 315 155.86C313.67 156.88 309.71 160.53 306.24 163.13Z" fill="#F0997A"/>
<path d="M342.83 135.65C342.778 135.923 342.761 136.202 342.78 136.48C342.78 136.8 342.92 137.22 342.93 137.48C342.94 137.74 342.69 137.48 342.56 137.41C342.194 137.08 341.91 136.669 341.73 136.21C341.574 135.888 341.514 135.528 341.559 135.173C341.603 134.818 341.749 134.483 341.98 134.21C343.685 132.641 345.269 130.946 346.72 129.14C348.1 127.4 351.46 123.48 352.46 121.26C352.975 121.177 353.503 121.275 353.953 121.537C354.404 121.8 354.749 122.211 354.93 122.7C354.797 122.533 354.619 122.407 354.417 122.337C354.216 122.266 353.998 122.253 353.79 122.3C352.94 122.39 352.19 123.77 350.91 125.61C349.63 127.45 347.03 130.3 345.19 132.37C344.414 133.096 343.723 133.908 343.13 134.79C342.988 135.06 342.887 135.35 342.83 135.65Z" fill="#F0997A"/>
<path d="M341.8 134.4C342.8 133.4 343.73 132.34 344.68 131.3C345.63 130.26 346.54 129.18 347.41 128.06C348.28 126.94 349.2 125.87 350.07 124.76C350.96 123.667 351.76 122.503 352.46 121.28C351.861 122.566 351.123 123.783 350.26 124.91C349.43 126.06 348.54 127.16 347.66 128.26C346.781 129.373 345.846 130.441 344.86 131.46C343.88 132.48 342.87 133.47 341.8 134.4Z" fill="#B16668"/>
<path d="M330.26 130.07C329.41 130.33 329.03 129.72 328.36 129.17C329.177 129.388 330.034 129.409 330.86 129.23C331.148 129.159 331.443 129.122 331.74 129.12C331.09 129.38 331.09 129.82 330.26 130.07Z" fill="#F0997A"/>
<path d="M336.84 137.08C336.991 135.043 336.704 132.997 336 131.08C336.481 131.282 337.011 131.337 337.523 131.239C338.035 131.142 338.507 130.895 338.88 130.53C338.62 130.81 337.65 131.62 337.66 132.63C337.66 135.53 338.18 137.01 338.14 137.8C338.08 139.19 337.05 140.09 337.63 141.13C338.21 142.17 338.97 143.33 340.15 143.04C341.279 142.579 342.331 141.948 343.27 141.17C342.35 142.08 341.44 142.95 340.53 143.78L339.53 144.66C339.34 144.82 339.16 144.99 338.97 145.14C338.793 144.653 338.513 144.209 338.15 143.84C337.461 142.79 336.703 141.788 335.88 140.84C335.594 140.651 335.289 140.493 334.97 140.37C335.845 139.437 336.486 138.309 336.84 137.08Z" fill="#F0997A"/>
<path d="M339 145.13C338.874 144.778 338.673 144.457 338.41 144.19L337.68 143.34C337.44 143.05 337.2 142.76 336.97 142.46C336.74 142.16 336.56 141.81 336.34 141.53C336.164 141.229 335.909 140.981 335.602 140.813C335.295 140.646 334.949 140.565 334.6 140.58C334.272 140.707 333.974 140.902 333.726 141.152C333.478 141.402 333.285 141.701 333.16 142.03C332.812 142.667 332.64 143.385 332.66 144.11C332.687 144.843 332.867 145.562 333.19 146.22C333.49 146.89 333.95 147.49 334.25 148.22C334.43 148.554 334.54 148.922 334.573 149.301C334.606 149.679 334.56 150.06 334.44 150.42C334.534 150.061 334.553 149.687 334.496 149.321C334.439 148.955 334.308 148.604 334.11 148.29C333.79 147.62 333.31 147.04 332.97 146.35C332.608 145.667 332.399 144.913 332.36 144.14C332.338 143.362 332.513 142.592 332.87 141.9C333.021 141.531 333.249 141.198 333.539 140.924C333.828 140.65 334.173 140.441 334.55 140.31C334.952 140.284 335.354 140.372 335.708 140.565C336.062 140.758 336.354 141.048 336.55 141.4C336.78 141.72 336.93 142.06 337.15 142.4C337.37 142.74 337.58 143 337.81 143.3L338.48 144.2C338.716 144.47 338.894 144.787 339 145.13Z" fill="#B16668"/>
<path d="M330.75 132.63C330.977 133.71 331.114 134.807 331.16 135.91C331.171 136.468 331.118 137.025 331 137.57C330.856 138.109 330.648 138.63 330.38 139.12L328.9 142.07C328.65 142.56 328.4 143.07 328.18 143.55C327.981 144.076 327.726 144.579 327.42 145.05C327.248 145.311 326.995 145.507 326.7 145.61C326.545 145.637 326.385 145.63 326.233 145.588C326.081 145.547 325.94 145.472 325.82 145.37C325.575 145.209 325.366 145.001 325.204 144.756C325.043 144.512 324.932 144.238 324.88 143.95C324.764 142.831 324.911 141.701 325.31 140.65C325.609 139.602 325.823 138.532 325.95 137.45C325.635 136.394 325.464 135.301 325.44 134.2C325.506 135.3 325.717 136.386 326.07 137.43C326.08 137.99 326.013 138.548 325.87 139.09L325.5 140.7C325.142 141.723 325.015 142.812 325.13 143.89C325.239 144.402 325.544 144.85 325.98 145.14C326.068 145.216 326.172 145.272 326.285 145.303C326.397 145.334 326.515 145.34 326.63 145.32C326.853 145.226 327.042 145.065 327.17 144.86C327.454 144.404 327.702 143.925 327.91 143.43C328.14 142.92 328.4 142.43 328.65 141.94L330.19 139.02C330.456 138.549 330.667 138.049 330.82 137.53C330.94 136.998 331.001 136.455 331 135.91C331.006 134.812 330.923 133.715 330.75 132.63Z" fill="#B16668"/>
<path d="M328.09 148C327.872 147.997 327.659 147.938 327.47 147.83C327.094 147.569 326.807 147.199 326.65 146.769C326.492 146.34 326.471 145.872 326.59 145.43C326.594 145.409 326.601 145.389 326.613 145.371C326.625 145.352 326.64 145.337 326.657 145.325C326.675 145.313 326.695 145.304 326.716 145.3C326.737 145.296 326.759 145.296 326.78 145.3C326.822 145.31 326.858 145.334 326.882 145.37C326.906 145.405 326.916 145.448 326.91 145.49C326.801 145.866 326.811 146.266 326.941 146.635C327.07 147.004 327.311 147.324 327.63 147.55C327.786 147.642 327.968 147.681 328.148 147.661C328.329 147.641 328.498 147.564 328.63 147.44C329.57 146.58 330.46 145.62 331.28 144.71C331.669 144.3 332.005 143.844 332.28 143.35C332.285 143.327 332.294 143.305 332.308 143.286C332.322 143.267 332.341 143.251 332.361 143.24C332.382 143.229 332.405 143.223 332.429 143.221C332.453 143.22 332.476 143.224 332.498 143.233C332.52 143.242 332.54 143.256 332.555 143.274C332.571 143.291 332.583 143.312 332.59 143.335C332.597 143.357 332.599 143.381 332.595 143.405C332.592 143.428 332.583 143.45 332.57 143.47C332.279 144.004 331.912 144.493 331.48 144.92C330.65 145.84 329.76 146.8 328.81 147.68C328.613 147.865 328.359 147.977 328.09 148Z" fill="#B16668"/>
<path d="M327.34 136.06C327.364 135.988 327.405 135.923 327.46 135.87C327.727 135.571 328.074 135.356 328.46 135.25C328.747 135.178 329.049 135.194 329.327 135.295C329.606 135.397 329.847 135.58 330.02 135.82C330.17 136.04 330.34 136.45 329.93 136.4C329.71 136.4 329.52 136.25 329.32 136.21C328.943 136.101 328.552 136.05 328.16 136.06C328 136.06 327.86 136.15 327.7 136.18C327.54 136.21 327.39 136.24 327.33 136.18C327.322 136.172 327.316 136.162 327.312 136.151C327.308 136.14 327.307 136.129 327.308 136.118C327.309 136.106 327.312 136.095 327.318 136.085C327.323 136.075 327.331 136.067 327.34 136.06Z" fill="#F0997A"/>
<path d="M333.35 136C333.393 135.937 333.447 135.883 333.51 135.84C333.825 135.589 334.208 135.439 334.61 135.41C334.905 135.383 335.201 135.447 335.459 135.594C335.716 135.74 335.922 135.962 336.05 136.23C336.16 136.48 336.26 136.91 335.87 136.79C335.66 136.72 335.49 136.58 335.29 136.5C334.943 136.319 334.568 136.201 334.18 136.15C334.022 136.157 333.865 136.173 333.71 136.2C333.62 136.2 333.39 136.2 333.35 136.09C333.34 136.061 333.34 136.029 333.35 136Z" fill="#F0997A"/>
<path d="M347.51 123.34C347.546 123.329 347.584 123.329 347.62 123.34C347.78 123.34 347.93 123.55 348.06 123.64C348.23 123.765 348.411 123.876 348.6 123.97C348.85 124.08 349.08 124.18 349.33 124.27C349.58 124.36 349.89 124.46 349.92 124.67C349.923 124.791 349.883 124.909 349.808 125.004C349.734 125.099 349.628 125.165 349.51 125.19C349.004 125.174 348.521 124.975 348.15 124.63C347.931 124.447 347.753 124.218 347.63 123.96C347.58 123.84 347.36 123.45 347.51 123.34Z" fill="#F0997A"/>
<path d="M344.19 127.81C344.28 127.81 344.34 127.97 344.4 128.03C344.607 128.268 344.846 128.476 345.11 128.65C345.456 128.779 345.79 128.936 346.11 129.12C346.31 129.29 346.11 129.61 345.97 129.73C345.83 129.85 345.37 129.73 345.16 129.58L344.86 129.38C344.678 129.222 344.511 129.048 344.36 128.86C344.182 128.662 344.052 128.426 343.98 128.17C343.98 128.04 343.98 127.73 344.17 127.79L344.19 127.81Z" fill="#F0997A"/>
<path d="M350.18 127.64C350.228 127.621 350.282 127.621 350.33 127.64L350.44 127.72C350.525 127.772 350.603 127.836 350.67 127.91C350.841 128.039 351.022 128.156 351.21 128.26C351.58 128.46 351.99 128.54 352.36 128.71C352.416 128.746 352.459 128.801 352.48 128.864C352.502 128.928 352.502 128.996 352.48 129.06C352.472 129.128 352.446 129.193 352.406 129.249C352.366 129.305 352.312 129.35 352.25 129.38C352.138 129.403 352.02 129.385 351.92 129.33C351.81 129.33 351.69 129.25 351.58 129.21C351.37 129.126 351.172 129.015 350.99 128.88C350.802 128.747 350.634 128.589 350.49 128.41C350.405 128.32 350.328 128.223 350.26 128.12C350.189 127.978 350.142 127.826 350.12 127.67C350.12 127.67 350.13 127.63 350.18 127.64Z" fill="#F0997A"/>
<path d="M347.12 131.94C347.188 131.969 347.258 131.993 347.33 132.01L347.56 132.11C347.736 132.2 347.906 132.3 348.07 132.41L348.55 132.71L348.83 132.87C348.926 132.911 349.014 132.969 349.09 133.04C349.134 133.105 349.158 133.181 349.158 133.26C349.158 133.338 349.134 133.415 349.09 133.48C349.061 133.55 349.008 133.608 348.94 133.643C348.872 133.678 348.794 133.688 348.72 133.67C348.6 133.613 348.489 133.539 348.39 133.45L348.2 133.3L347.81 132.97C347.675 132.863 347.551 132.742 347.44 132.61L347.25 132.35C347.19 132.26 347.14 132.15 347.07 132.06C347 131.97 347.05 131.91 347.12 131.94Z" fill="#F0997A"/>
<path d="M333 146.25C331.998 146.193 330.994 146.233 330 146.37L332.46 143.87C332.428 144.697 332.614 145.518 333 146.25Z" fill="#B16668"/>
<path d="M325 144.16C324.759 145.329 324.182 146.402 323.34 147.247C322.498 148.093 321.428 148.674 320.26 148.92C323.26 148.8 324.91 147.5 325.84 145.33C325.482 145.002 325.196 144.604 325 144.16Z" fill="#B16668"/>
<path d="M164.41 401.86L171.19 399.27L168.94 394.69L164.78 398.6L164.41 401.86Z" fill="black"/>
<path d="M157.33 389.64C157.33 389.64 157.08 394.06 157.02 395.46C156.96 396.86 162.93 401.15 164.41 401.86L164.78 398.6C166.06 399.87 166.83 401.48 168.21 403.86C169.36 405.86 170.84 409.59 173.99 412.13C178.67 415.91 185.99 417.81 193.37 418.04C200.75 418.27 205.03 416.44 207.13 414.82C209.23 413.2 209.89 411.32 209.35 409.43C208.81 407.54 157.33 389.64 157.33 389.64Z" fill="#263238"/>
<path d="M177.1 374.46L177.17 371.89C178.54 371.89 178.72 375.56 180.73 378.81C183.44 383.18 187.41 388.65 191.23 392.11C198.79 398.93 205.52 403.2 208.89 406.27C213.4 410.38 205.54 416.98 193.43 416.36C187.43 416.05 176.74 413.08 173.72 409.54C170.7 406 168.83 400.48 166.42 397.91C164.01 395.34 158.84 392.77 157.33 389.64C156.5 387.92 156.91 383.91 157.39 380.49C157.82 377.36 157.89 372.56 159.66 372.94L159.79 374.55C160.52 375.92 162.2 378.17 167.05 378.96C169.47 379.36 176.69 379.54 177.1 374.46Z" fill="#37474F"/>
<path opacity="0.15" d="M170.94 379.07C173.25 378.86 175.74 378.07 176.7 376C176.698 375.976 176.698 375.953 176.7 375.93C176.571 376.816 176.646 377.72 176.919 378.573C177.193 379.426 177.659 380.205 178.28 380.85C180.46 383.38 194.22 401.17 194.22 401.17C194.22 401.17 181.46 386.5 179 383.74C175.37 379.65 174.22 379.18 170.92 379.08L170.94 379.07Z" fill="black"/>
<path opacity="0.15" d="M174 383.79C173.985 383.936 173.928 384.074 173.835 384.187C173.741 384.3 173.617 384.383 173.477 384.425C173.336 384.467 173.187 384.466 173.047 384.424C172.907 384.381 172.783 384.297 172.69 384.184C172.598 384.07 172.541 383.932 172.527 383.786C172.513 383.64 172.543 383.493 172.613 383.364C172.682 383.236 172.788 383.13 172.918 383.062C173.047 382.993 173.194 382.965 173.34 382.98C173.535 383 173.714 383.097 173.837 383.249C173.961 383.4 174.02 383.595 174 383.79Z" fill="black"/>
<path opacity="0.15" d="M177.58 387.73C177.557 387.925 177.458 388.103 177.305 388.225C177.151 388.347 176.955 388.403 176.76 388.38C176.664 388.37 176.571 388.341 176.486 388.295C176.401 388.249 176.326 388.186 176.266 388.111C176.205 388.035 176.16 387.949 176.134 387.856C176.107 387.763 176.099 387.666 176.11 387.57C176.119 387.473 176.147 387.379 176.192 387.293C176.238 387.207 176.3 387.131 176.376 387.069C176.451 387.008 176.538 386.962 176.632 386.935C176.725 386.907 176.823 386.899 176.92 386.91C177.017 386.92 177.112 386.949 177.198 386.996C177.284 387.043 177.36 387.106 177.421 387.182C177.483 387.258 177.528 387.346 177.556 387.44C177.583 387.534 177.591 387.633 177.58 387.73Z" fill="black"/>
<path opacity="0.15" d="M181.17 391.66C181.163 391.759 181.137 391.857 181.092 391.946C181.046 392.035 180.984 392.113 180.907 392.178C180.831 392.242 180.742 392.29 180.647 392.319C180.551 392.348 180.451 392.357 180.352 392.346C180.252 392.336 180.156 392.305 180.069 392.256C179.982 392.207 179.906 392.141 179.845 392.062C179.784 391.983 179.74 391.892 179.715 391.796C179.69 391.699 179.685 391.598 179.7 391.5C179.709 391.403 179.737 391.308 179.782 391.222C179.828 391.137 179.89 391.061 179.966 390.999C180.041 390.938 180.128 390.892 180.222 390.864C180.315 390.837 180.413 390.829 180.51 390.84C180.706 390.862 180.885 390.961 181.008 391.114C181.132 391.268 181.19 391.464 181.17 391.66Z" fill="black"/>
<path opacity="0.15" d="M184.76 395.59C184.74 395.785 184.643 395.963 184.491 396.087C184.34 396.211 184.145 396.269 183.95 396.25C183.754 396.227 183.575 396.128 183.452 395.975C183.328 395.822 183.27 395.626 183.29 395.43C183.319 395.241 183.419 395.071 183.57 394.954C183.722 394.838 183.912 394.784 184.102 394.805C184.291 394.826 184.466 394.919 184.589 395.065C184.711 395.211 184.773 395.399 184.76 395.59Z" fill="black"/>
<path opacity="0.15" d="M188.35 399.52C188.335 399.666 188.278 399.804 188.185 399.917C188.091 400.03 187.967 400.113 187.827 400.155C187.686 400.197 187.537 400.196 187.397 400.154C187.257 400.111 187.133 400.027 187.04 399.913C186.948 399.8 186.891 399.662 186.877 399.516C186.863 399.37 186.893 399.223 186.963 399.094C187.032 398.966 187.138 398.86 187.268 398.792C187.397 398.723 187.544 398.695 187.69 398.71C187.885 398.73 188.064 398.827 188.187 398.979C188.311 399.13 188.37 399.325 188.35 399.52Z" fill="black"/>
<path d="M173.23 384C173.194 384 173.158 383.991 173.125 383.976C173.092 383.96 173.063 383.938 173.04 383.91C173.012 383.883 172.989 383.85 172.973 383.814C172.958 383.778 172.95 383.739 172.95 383.7C172.95 383.661 172.958 383.622 172.973 383.586C172.989 383.55 173.012 383.517 173.04 383.49C173.19 383.35 176.74 379.89 181.4 380.14C181.479 380.147 181.551 380.185 181.604 380.244C181.656 380.304 181.683 380.381 181.68 380.46C181.677 380.499 181.667 380.538 181.65 380.573C181.632 380.609 181.608 380.64 181.578 380.666C181.548 380.692 181.514 380.712 181.476 380.725C181.439 380.737 181.399 380.743 181.36 380.74C176.96 380.5 173.49 383.88 173.46 383.92C173.43 383.949 173.394 383.971 173.354 383.985C173.314 383.999 173.272 384.004 173.23 384Z" fill="#263238"/>
<path d="M176.82 387.93C176.784 387.93 176.748 387.922 176.715 387.906C176.682 387.89 176.653 387.868 176.63 387.84C176.577 387.783 176.548 387.708 176.548 387.63C176.548 387.552 176.577 387.477 176.63 387.42C176.78 387.27 180.33 383.82 184.99 384.07C185.029 384.071 185.067 384.08 185.103 384.097C185.138 384.113 185.17 384.137 185.196 384.166C185.222 384.194 185.242 384.228 185.255 384.265C185.268 384.302 185.273 384.341 185.27 384.38C185.265 384.459 185.23 384.533 185.172 384.586C185.115 384.64 185.039 384.67 184.96 384.67C180.56 384.43 177.09 387.81 177.05 387.85C177.02 387.879 176.984 387.902 176.944 387.915C176.904 387.929 176.862 387.934 176.82 387.93Z" fill="#263238"/>
<path d="M180.41 391.88C180.339 391.871 180.272 391.839 180.22 391.79C180.167 391.733 180.138 391.658 180.138 391.58C180.138 391.502 180.167 391.427 180.22 391.37C180.37 391.22 183.92 387.77 188.58 388.02C188.623 388.012 188.668 388.013 188.71 388.025C188.753 388.036 188.793 388.056 188.826 388.084C188.86 388.112 188.887 388.148 188.906 388.187C188.925 388.227 188.935 388.271 188.935 388.315C188.935 388.359 188.925 388.402 188.906 388.442C188.887 388.482 188.86 388.517 188.826 388.545C188.793 388.574 188.753 388.594 188.71 388.605C188.668 388.616 188.623 388.618 188.58 388.61C184.18 388.38 180.71 391.76 180.67 391.79C180.636 391.823 180.595 391.848 180.55 391.863C180.505 391.879 180.457 391.884 180.41 391.88Z" fill="#263238"/>
<path d="M184 395.81C183.929 395.801 183.862 395.769 183.81 395.72C183.757 395.663 183.728 395.588 183.728 395.51C183.728 395.432 183.757 395.357 183.81 395.3C183.96 395.15 187.51 391.7 192.17 391.95C192.213 391.942 192.258 391.944 192.3 391.955C192.343 391.966 192.383 391.986 192.416 392.014C192.45 392.042 192.477 392.078 192.496 392.118C192.515 392.157 192.525 392.201 192.525 392.245C192.525 392.289 192.515 392.332 192.496 392.372C192.477 392.412 192.45 392.447 192.416 392.476C192.383 392.504 192.343 392.524 192.3 392.535C192.258 392.546 192.213 392.548 192.17 392.54C187.77 392.31 184.3 395.69 184.26 395.72C184.229 395.758 184.189 395.786 184.143 395.802C184.097 395.818 184.047 395.821 184 395.81Z" fill="#263238"/>
<path d="M187.59 399.74C187.554 399.739 187.518 399.731 187.486 399.715C187.453 399.7 187.424 399.678 187.4 399.65C187.345 399.594 187.314 399.519 187.314 399.44C187.314 399.362 187.345 399.286 187.4 399.23C187.55 399.08 191.09 395.63 195.75 395.88C195.788 395.883 195.825 395.893 195.86 395.91C195.894 395.927 195.924 395.95 195.949 395.979C195.975 396.008 195.994 396.041 196.006 396.078C196.018 396.114 196.023 396.152 196.02 396.19C196.015 396.269 195.98 396.343 195.922 396.397C195.865 396.45 195.789 396.48 195.71 396.48C191.32 396.24 187.84 399.62 187.81 399.66C187.75 399.715 187.671 399.743 187.59 399.74Z" fill="#263238"/>
<path d="M108.92 423.22C107.92 429.01 106.52 432.76 104.05 435.93C101.58 439.1 97.13 439.47 93.83 438.77C89.19 437.77 84.63 434.58 82.83 427.94C81.77 423.94 82.5 419.38 84.04 414.08L108.92 423.22Z" fill="#263238"/>
<path d="M96 378.78C94.36 378.71 93 386.48 91.08 394.2C89.08 402.48 85.94 406.87 84.43 412.43C82.34 420.14 82.43 423.74 84.66 428.82C86.89 433.9 98.24 440.11 103.86 433.87C108.44 428.78 109.33 422.64 109.86 414.75C110.46 406.59 110.86 400.84 111.86 394.75C112.86 388.9 113.96 383.24 112.62 382.42C112.41 383.27 112.17 384.36 111.96 385.19C111.79 385.83 111.25 389 110.33 388.92C110.349 388.174 110.433 387.431 110.58 386.7C110.77 386.03 110.691 385.312 110.36 384.7C109.915 384.188 109.314 383.836 108.65 383.7C107.09 383.176 105.505 382.732 103.9 382.37C103.1 382.21 102.29 382.07 101.47 381.98C100.054 381.761 98.623 381.651 97.19 381.65C96.9831 381.689 96.7869 381.771 96.6145 381.892C96.442 382.013 96.2973 382.169 96.19 382.35C96.0715 382.628 96.007 382.927 96 383.23C95.9331 383.774 95.7987 384.308 95.6 384.82C95.52 385.05 95.32 385.31 95.1 385.23C94.88 385.15 94.87 384.92 94.89 384.72C94.99 383.77 95.2 383.1 95.37 382C95.45 381.49 95.62 380.8 95.69 380.29C95.76 379.78 95.94 379.28 96 378.78Z" fill="#37474F"/>
<path opacity="0.15" d="M90.2 415.08C90.1668 415.229 90.1941 415.384 90.2756 415.513C90.3572 415.641 90.4865 415.732 90.635 415.765C90.7835 415.798 90.9391 415.771 91.0676 415.689C91.1961 415.608 91.2869 415.479 91.32 415.33C91.3364 415.257 91.3382 415.181 91.3252 415.106C91.3122 415.032 91.2848 414.961 91.2444 414.898C91.1628 414.769 91.0335 414.678 90.885 414.645C90.7365 414.612 90.5809 414.639 90.4524 414.721C90.3239 414.802 90.2332 414.932 90.2 415.08Z" fill="black"/>
<path opacity="0.15" d="M91.39 409.72C91.3569 409.868 91.3841 410.024 91.4656 410.152C91.5472 410.281 91.6765 410.372 91.825 410.405C91.9735 410.438 92.1291 410.411 92.2576 410.329C92.3861 410.248 92.4769 410.118 92.51 409.97C92.5277 409.897 92.5305 409.821 92.5183 409.747C92.5061 409.673 92.4792 409.602 92.439 409.539C92.3989 409.475 92.3465 409.421 92.2848 409.378C92.2231 409.335 92.1535 409.305 92.08 409.29C92.0064 409.272 91.9301 409.269 91.8554 409.281C91.7806 409.293 91.7091 409.32 91.6449 409.36C91.5806 409.4 91.525 409.453 91.4813 409.514C91.4375 409.576 91.4065 409.646 91.39 409.72Z" fill="black"/>
<path opacity="0.15" d="M92.52 404.66C92.5023 404.733 92.4995 404.809 92.5117 404.883C92.5239 404.957 92.5509 405.028 92.591 405.091C92.6311 405.154 92.6835 405.209 92.7452 405.252C92.8069 405.295 92.8765 405.325 92.95 405.34C93.0236 405.358 93.0999 405.361 93.1746 405.349C93.2494 405.336 93.3209 405.31 93.3851 405.27C93.4494 405.23 93.505 405.177 93.5487 405.115C93.5925 405.054 93.6235 404.984 93.64 404.91C93.6701 404.76 93.6411 404.605 93.5591 404.476C93.477 404.348 93.3483 404.256 93.2 404.22C93.0517 404.19 92.8975 404.219 92.7705 404.302C92.6434 404.384 92.5535 404.512 92.52 404.66Z" fill="black"/>
<path opacity="0.15" d="M93.63 399.67C93.6082 399.745 93.602 399.823 93.6117 399.9C93.6213 399.977 93.6467 400.052 93.6863 400.119C93.7258 400.186 93.7786 400.244 93.8415 400.29C93.9044 400.336 93.9761 400.368 94.052 400.385C94.1279 400.403 94.2066 400.404 94.283 400.39C94.3595 400.375 94.4322 400.345 94.4967 400.301C94.5611 400.258 94.616 400.202 94.6578 400.136C94.6997 400.07 94.7276 399.997 94.74 399.92C94.7618 399.845 94.768 399.767 94.7584 399.69C94.7487 399.612 94.7233 399.538 94.6838 399.471C94.6442 399.404 94.5914 399.346 94.5285 399.3C94.4656 399.254 94.3939 399.221 94.318 399.204C94.2421 399.187 94.1635 399.186 94.087 399.2C94.0105 399.215 93.9378 399.245 93.8733 399.288C93.8089 399.332 93.754 399.388 93.7122 399.454C93.6703 399.52 93.6424 399.593 93.63 399.67Z" fill="black"/>
<path opacity="0.15" d="M106.41 402C106.387 402.11 106.397 402.224 106.439 402.329C106.481 402.433 106.553 402.523 106.645 402.587C106.738 402.65 106.848 402.685 106.96 402.686C107.073 402.688 107.183 402.656 107.278 402.595C107.372 402.534 107.446 402.446 107.491 402.343C107.536 402.24 107.549 402.126 107.529 402.015C107.509 401.904 107.456 401.802 107.378 401.721C107.3 401.64 107.2 401.584 107.09 401.56C106.942 401.53 106.788 401.559 106.66 401.641C106.533 401.724 106.444 401.852 106.41 402Z" fill="black"/>
<path opacity="0.15" d="M105.29 407C105.274 407.074 105.272 407.15 105.286 407.224C105.299 407.298 105.327 407.368 105.368 407.432C105.409 407.495 105.462 407.549 105.524 407.592C105.586 407.635 105.656 407.665 105.73 407.68C105.803 407.698 105.879 407.7 105.953 407.688C106.027 407.676 106.098 407.649 106.161 407.609C106.225 407.569 106.279 407.516 106.322 407.455C106.365 407.393 106.395 407.323 106.41 407.25C106.428 407.176 106.431 407.1 106.419 407.025C106.406 406.951 106.38 406.879 106.34 406.815C106.3 406.751 106.247 406.695 106.185 406.651C106.124 406.607 106.054 406.576 105.98 406.56C105.83 406.53 105.675 406.559 105.546 406.641C105.418 406.723 105.326 406.852 105.29 407Z" fill="black"/>
<path opacity="0.15" d="M104.17 412.09C104.137 412.238 104.164 412.394 104.246 412.522C104.327 412.651 104.456 412.742 104.605 412.775C104.754 412.808 104.909 412.781 105.038 412.699C105.166 412.618 105.257 412.488 105.29 412.34C105.306 412.266 105.308 412.19 105.294 412.116C105.281 412.042 105.253 411.971 105.212 411.908C105.171 411.845 105.118 411.79 105.056 411.748C104.994 411.705 104.924 411.675 104.85 411.66C104.777 411.642 104.701 411.639 104.627 411.651C104.553 411.664 104.482 411.691 104.419 411.731C104.355 411.771 104.301 411.823 104.258 411.885C104.215 411.947 104.185 412.016 104.17 412.09Z" fill="black"/>
<path opacity="0.15" d="M103 417.46C102.982 417.533 102.98 417.609 102.992 417.683C103.004 417.757 103.031 417.828 103.071 417.891C103.111 417.955 103.164 418.009 103.225 418.052C103.287 418.095 103.357 418.125 103.43 418.14C103.504 418.158 103.58 418.161 103.655 418.149C103.729 418.137 103.801 418.11 103.865 418.07C103.929 418.03 103.985 417.977 104.029 417.916C104.073 417.854 104.104 417.784 104.12 417.71C104.15 417.56 104.121 417.405 104.039 417.276C103.957 417.148 103.828 417.056 103.68 417.02C103.606 417.004 103.53 417.003 103.456 417.016C103.382 417.029 103.311 417.057 103.248 417.098C103.185 417.139 103.131 417.192 103.088 417.254C103.045 417.316 103.015 417.386 103 417.46Z" fill="black"/>
<path opacity="0.15" d="M97.88 419.45L106.77 382.09L104.67 381.8L97.88 419.45Z" fill="black"/>
<path d="M90.7 415.49H90.79C94.65 415.1 101.02 416.25 103.39 417.78C103.455 417.819 103.532 417.831 103.606 417.813C103.68 417.796 103.744 417.75 103.784 417.686C103.825 417.622 103.838 417.545 103.823 417.471C103.807 417.397 103.763 417.332 103.7 417.29C101.19 415.67 94.77 414.5 90.7 414.91C90.6618 414.914 90.6248 414.925 90.591 414.943C90.5572 414.961 90.5274 414.986 90.5032 415.016C90.479 415.046 90.461 415.08 90.4502 415.117C90.4393 415.153 90.4358 415.192 90.44 415.23C90.4447 415.298 90.4735 415.361 90.5213 415.409C90.5691 415.457 90.6326 415.485 90.7 415.49Z" fill="#263238"/>
<path d="M91.89 410.13C91.9389 410.145 91.9911 410.145 92.04 410.13C95.04 409.13 101.87 410.69 104.58 412.44C104.645 412.481 104.724 412.495 104.799 412.478C104.874 412.461 104.939 412.415 104.98 412.35C105.002 412.318 105.017 412.282 105.024 412.245C105.031 412.207 105.031 412.168 105.022 412.13C105.014 412.093 104.998 412.057 104.975 412.026C104.952 411.995 104.923 411.969 104.89 411.95C102.07 410.13 95.06 408.51 91.89 409.58C91.853 409.591 91.8187 409.61 91.7893 409.635C91.7598 409.66 91.7359 409.691 91.719 409.726C91.7021 409.76 91.6926 409.798 91.691 409.837C91.6895 409.875 91.6959 409.914 91.71 409.95C91.7229 409.992 91.7461 410.031 91.7775 410.062C91.8089 410.094 91.8475 410.117 91.89 410.13Z" fill="#263238"/>
<path d="M93 405.07C93.0489 405.084 93.1011 405.084 93.15 405.07C96.15 404.07 102.98 405.63 105.68 407.38C105.745 407.422 105.824 407.437 105.9 407.421C105.976 407.405 106.043 407.36 106.085 407.295C106.127 407.23 106.142 407.151 106.126 407.075C106.11 406.999 106.065 406.932 106 406.89C103.18 405.06 96.16 403.44 93 404.52C92.9638 404.532 92.9304 404.551 92.9018 404.577C92.8731 404.602 92.8498 404.633 92.833 404.667C92.8163 404.702 92.8065 404.739 92.8043 404.777C92.8021 404.815 92.8074 404.854 92.82 404.89C92.835 404.931 92.8589 404.969 92.89 405C92.9211 405.031 92.9586 405.055 93 405.07Z" fill="#263238"/>
<path d="M94.13 400.08C94.1789 400.094 94.2311 400.094 94.28 400.08C97.28 399.08 104.11 400.64 106.81 402.39C106.842 402.411 106.878 402.425 106.916 402.432C106.954 402.439 106.992 402.439 107.03 402.431C107.068 402.423 107.103 402.408 107.135 402.386C107.167 402.365 107.194 402.337 107.215 402.305C107.236 402.273 107.25 402.237 107.258 402.199C107.265 402.161 107.264 402.122 107.256 402.085C107.248 402.047 107.233 402.011 107.212 401.98C107.19 401.948 107.162 401.921 107.13 401.9C104.31 400.08 97.29 398.45 94.13 399.53C94.0938 399.542 94.0604 399.562 94.0318 399.587C94.0031 399.612 93.9797 399.643 93.963 399.677C93.9463 399.712 93.9365 399.749 93.9343 399.787C93.9321 399.825 93.9374 399.864 93.95 399.9C93.9636 399.942 93.9871 399.98 94.0184 400.011C94.0497 400.043 94.0879 400.066 94.13 400.08Z" fill="#263238"/>
<path d="M106.26 187.51C102.46 235.65 98.72 302.01 98.72 302.01C98.38 305.67 94.87 321.27 93.1 339.3C91.24 358.3 89.73 393.96 89.73 393.96C89.73 393.96 103.03 401.11 113.81 397.52C113.81 397.52 125.37 337.52 130.9 315.09C136.13 293.87 144.31 253.66 144.31 253.66L149.89 293.45C149.89 293.45 149.15 307.17 149.56 316.77C150.03 327.93 157.16 381.6 157.16 381.6C157.16 381.6 171.63 390.12 182.82 381.54C182.82 381.54 184.76 307.54 185.07 294.1C185.69 267.75 182.61 216.69 181.65 182.67L106.26 187.51Z" fill="#263238"/>
<path d="M124.42 243.73C123.42 255.257 122.3 266.783 121.06 278.31C120.453 284.07 119.823 289.827 119.17 295.58L118.17 304.21L117.66 308.52C117.5 309.96 117.21 311.38 116.99 312.81C115.09 324.23 112.17 344.97 110.1 356.37C108.03 367.77 105.82 379.13 103.47 390.47C104.97 378.99 106.613 367.533 108.4 356.1C110.19 344.67 112.98 323.91 114.94 312.51C115.17 311.08 115.47 309.66 115.63 308.23L116.16 303.92L117.25 295.31C117.983 289.57 118.733 283.833 119.5 278.1C121.033 266.633 122.673 255.177 124.42 243.73Z" fill="black"/>
<path d="M177.74 240.46C178.95 251.22 179.59 262.04 180.05 272.86C180.51 283.68 180.93 294.53 180.53 305.34C180.13 316.15 179.99 334.34 179.58 345.12C179.17 355.9 178.69 366.75 178.04 377.55C177.873 366.73 177.84 355.91 177.94 345.09C178.01 334.27 178.2 316.14 178.43 305.33L178.63 297.21L178.68 295.21V293.21V289.15L178.48 272.93L178.22 256.71C178.09 251.27 177.91 245.87 177.74 240.46Z" fill="black"/>
<path d="M144.31 253.66L149.01 227.29C149.01 227.29 162.08 225.39 168.78 219.37C168.78 219.37 164.46 227.32 152.13 230.44L147.46 253.73L149.89 293.45L144.31 253.66Z" fill="black"/>
<path d="M165.59 101.83C172.33 103.59 178.4 105.37 184.59 114.83C192.43 126.93 209.59 151.29 210.94 164.67C211.94 174.06 188.31 167.37 188.31 167.37L171.54 140.44L165.59 101.83Z" fill="#37474F"/>
<path d="M125.25 98.2998C113.51 100.93 109.98 102.07 104.43 103.37C104.43 103.37 94.08 132.65 99.06 153.06C100.2 157.75 104.06 170.69 104.85 180.69C105.5 188.9 105.72 192.39 104.85 204.08C104.85 204.08 120.56 215.08 153.42 211.74C179.21 209.1 182.31 199.49 182.31 199.49C182.31 199.49 180.68 164.24 179.5 145.2C177.95 120.2 168.5 105.2 165.59 101.83C164.67 101.3 147.17 98.6598 147.17 98.6598L125.25 98.2998Z" fill="#455A64"/>
<path d="M104.43 103.37C91.78 107.25 90.57 113.08 89.73 118.46C88.67 125.21 92.48 138.02 95.51 149.9C99.51 165.69 107.81 180.68 117.7 181.11L124.7 151.25L118.28 131.55C118.28 131.55 115 107.09 104.43 103.37Z" fill="#37474F"/>
<path d="M119.55 47.0796C119.55 47.0796 115.75 47.3196 113.2 52.0796C111.92 54.4696 110.97 58.8496 114.2 71.4296C115.445 76.3323 117.417 81.0209 120.05 85.3396C120.823 86.7331 122.101 87.7779 123.62 88.2596L123.49 78.6196L123.21 71.8996C123.21 71.8996 128.69 67.0496 129.21 62.2296C129.88 56.0296 127.5 52.4796 127.5 52.4796L119.55 47.0796Z" fill="#37474F"/>
<path d="M118.23 47.3798C119.23 41.9798 126.23 35.5998 139.46 35.0598C150.32 34.6198 156.63 38.4298 160.33 44.8098C164.03 51.1898 161.44 59.3598 161.44 59.3598L127.34 56.6998L118.23 47.3798Z" fill="#37474F"/>
<path d="M114.68 81.32C119.68 83.81 121.98 79.89 121.98 79.89L122.48 101.53C131.9 114.53 157.54 109.64 147.17 99.9V93.8C148.62 93.7505 150.066 93.6136 151.5 93.39C155.93 92.75 158.74 89.64 160.12 84.87C162.12 77.81 163.06 66.48 160.54 54.39C160.06 52.06 159.08 49.5 156.96 48.39C151.69 45.7 146.73 49.39 139.3 52.21C136.23 53.36 128.8 53.8 126.85 52.85C129.39 55.73 127.85 63.09 127.1 65.41C126.1 68.77 124.62 70.41 123.92 70.53C120.92 71.13 120.57 68.53 119.22 67.09C117.87 65.65 112.79 64.33 110.54 68.97C109.982 70.049 109.646 71.2291 109.552 72.4404C109.459 73.6517 109.609 74.8695 109.996 76.0214C110.382 77.1733 110.995 78.2359 111.8 79.1461C112.605 80.0563 113.584 80.7955 114.68 81.32Z" fill="#FFA8A7"/>
<path d="M128.4 87.8496C129.4 92.7496 135.96 96.0596 147.19 96.4696V93.7996C144.443 93.7494 141.705 93.4819 139 92.9996C133.74 91.9996 128.4 87.8496 128.4 87.8496Z" fill="#F28F8F"/>
<path d="M139 59.18L134.1 61.24C133.838 60.5702 133.844 59.8249 134.118 59.1596C134.392 58.4944 134.912 57.9607 135.57 57.67C135.894 57.5369 136.241 57.4705 136.591 57.4748C136.941 57.4791 137.286 57.554 137.606 57.695C137.927 57.836 138.215 58.0402 138.455 58.2954C138.694 58.5505 138.88 58.8514 139 59.18Z" fill="#37474F"/>
<path d="M157.51 60.2398L152.38 58.6798C152.465 58.3412 152.618 58.0233 152.83 57.7456C153.041 57.4678 153.307 57.2359 153.611 57.0639C153.915 56.8918 154.25 56.7833 154.598 56.7447C154.945 56.7062 155.296 56.7386 155.63 56.8398C156.319 57.0575 156.899 57.5316 157.249 58.1644C157.599 58.7971 157.692 59.5401 157.51 60.2398Z" fill="#37474F"/>
<path d="M135.85 64.4398C135.86 64.8676 135.996 65.2829 136.241 65.6335C136.486 65.9841 136.83 66.2544 137.228 66.4104C137.627 66.5664 138.062 66.6011 138.481 66.5102C138.899 66.4192 139.281 66.2067 139.578 65.8994C139.876 65.592 140.076 65.2035 140.154 64.7827C140.231 64.3619 140.182 63.9276 140.014 63.5343C139.845 63.1411 139.564 62.8065 139.206 62.5726C138.847 62.3387 138.428 62.216 138 62.2198C137.712 62.2224 137.428 62.2821 137.164 62.3954C136.9 62.5088 136.661 62.6735 136.461 62.8801C136.261 63.0866 136.104 63.3309 135.999 63.5987C135.894 63.8664 135.843 64.1523 135.85 64.4398Z" fill="#263238"/>
<path d="M152.25 63.91C152.26 64.339 152.397 64.7554 152.644 65.1066C152.89 65.4577 153.235 65.7279 153.636 65.8829C154.036 66.0379 154.473 66.0708 154.892 65.9773C155.311 65.8839 155.692 65.6684 155.989 65.3581C156.285 65.0477 156.483 64.6564 156.557 64.2337C156.631 63.811 156.578 63.3759 156.405 62.9833C156.231 62.5907 155.946 62.2582 155.583 62.028C155.221 61.7978 154.799 61.6802 154.37 61.6899C154.078 61.6705 153.785 61.7155 153.512 61.8216C153.239 61.9278 152.993 62.0926 152.791 62.3043C152.589 62.516 152.436 62.7696 152.342 63.047C152.249 63.3245 152.217 63.619 152.25 63.91Z" fill="#263238"/>
<path d="M144.12 60.3198L146.51 75.4398L154.68 72.3398C152.15 66.5498 147.55 62.8998 144.12 60.3198Z" fill="#F28F8F"/>
<path d="M141.78 77.6597L151.54 78.6597C151.508 79.307 151.345 79.9412 151.061 80.524C150.778 81.1069 150.379 81.6264 149.89 82.0514C149.4 82.4763 148.83 82.798 148.213 82.997C147.596 83.1961 146.946 83.2684 146.3 83.2097C144.972 83.0559 143.756 82.3898 142.912 81.3532C142.068 80.3166 141.662 78.9913 141.78 77.6597Z" fill="#B16668"/>
<path d="M143.11 79.08C142.712 79.0836 142.316 79.1339 141.93 79.23C142.159 80.2585 142.703 81.1899 143.486 81.8945C144.269 82.599 145.253 83.0414 146.3 83.16C146.827 83.2084 147.358 83.1644 147.87 83.03C147.734 81.8869 147.164 80.8397 146.279 80.1046C145.393 79.3695 144.259 79.0027 143.11 79.08Z" fill="#F28F8F"/>
<path d="M150.71 124.29C142.97 131.03 135.24 137.57 128.31 143.29C122.41 148.12 118.24 151.42 115.98 155.29C113.72 159.16 112.27 173.9 114.98 179.17C117.69 184.44 131.87 179.17 137.43 173.65C142.99 168.13 147.24 158.04 151.81 150.7C156.38 143.36 159.74 138.48 163.67 136.41L150.71 124.29Z" fill="#FFA8A7"/>
<path d="M163.66 136.4L162.52 135.34C158.37 137.05 155.52 139.83 152.21 144.77C147.96 151.04 142.14 170.35 134.94 175.69C135.819 175.073 136.648 174.387 137.42 173.64C142.98 168.16 147.23 158.03 151.8 150.69C156.37 143.35 159.73 138.47 163.66 136.4Z" fill="#F28F8F"/>
<path d="M188.42 136.09C187.62 137.42 189.11 139.68 190.13 141.09C192.672 144.025 195.63 146.571 198.91 148.65C203.3 151.47 207.55 155.36 209.63 159.84C211.71 164.32 211.63 172.84 209.54 175.84C207.45 178.84 202.54 177.78 198.13 175.7C192.06 172.84 188.74 168.34 184.21 161.7C179.29 154.47 175.52 148.32 172.55 144.7C169.58 141.08 188.42 136.09 188.42 136.09Z" fill="#FFA8A7"/>
<path d="M190.46 168.15C187.59 164.31 179.99 147.25 181.71 144.03C183.43 140.81 188.15 138.65 189.28 139.84C188.49 138.56 187.83 137.07 188.42 136.09C188.42 136.09 169.59 141.09 172.55 144.71C175.51 148.33 179.29 154.48 184.21 161.71C188.74 168.35 192.06 172.85 198.13 175.71C195.295 173.489 192.722 170.952 190.46 168.15Z" fill="#F28F8F"/>
<path d="M194 133.63C191.33 133.89 189.13 135.52 187 137.08C184.87 138.64 178 143.56 174 143.8C170 144.04 186.89 129.3 194 133.63Z" fill="#B16668"/>
<path d="M182.83 126.82C186.95 126.02 189.9 127.82 193.67 128.07C197.44 128.32 199.67 127.97 202.25 129.55C204.83 131.13 205.95 133.25 202.7 134.2C199.45 135.15 196.34 133.5 193.18 133.71C190.02 133.92 187.91 134.37 184.37 137.26C180.83 140.15 175.92 145.26 173 147.12C170.08 148.98 168.34 147.57 168.34 147.57C167.32 148.78 166.065 149.77 164.65 150.48C164.342 150.601 164.007 150.637 163.68 150.585C163.354 150.534 163.047 150.396 162.791 150.186C162.535 149.976 162.34 149.702 162.225 149.391C162.111 149.081 162.082 148.745 162.14 148.42C160.56 148.57 159.21 147.75 159.58 145.8C159.95 143.85 163.02 140.29 163.02 140.29C163.02 140.29 161.19 141.84 160.21 142.56C158.4 143.9 156.54 142.44 157.64 139.78C158.74 137.12 167.94 129.55 171.33 128.34C173.452 127.632 175.738 127.579 177.89 128.19C179.498 127.603 181.15 127.145 182.83 126.82Z" fill="#FFA8A7"/>
<path d="M161.65 139.84C158.92 142.07 158.01 142.4 157.43 142C157.8 143.1 159.02 143.44 160.21 142.56C161.21 141.84 163.02 140.29 163.02 140.29L169.77 133.38C169.77 133.38 164.49 137.53 161.65 139.84Z" fill="#F28F8F"/>
<path d="M170.61 136.09C170.08 137.17 168.14 138.9 166.52 141.03C164.9 143.16 162.97 145.71 161.6 146.76C161.45 146.885 161.277 146.978 161.09 147.034C160.903 147.091 160.707 147.109 160.514 147.089C160.32 147.068 160.132 147.009 159.961 146.915C159.791 146.821 159.641 146.693 159.52 146.54C159.59 147.95 160.78 148.54 162.14 148.42C162.38 146.98 164.37 144.49 166.26 142.15C168.15 139.81 171.87 136.15 171.66 135.58C171.45 135.01 171.15 135 170.61 136.09Z" fill="#F28F8F"/>
<path d="M174.72 136.83C175.33 136.13 174.24 135.14 173.8 136.11C173.36 137.08 173.9 137.11 172.49 138.79C171.08 140.47 168.33 143.33 167.6 144.37C167.001 145.019 166.591 145.82 166.415 146.686C166.239 147.551 166.303 148.448 166.6 149.28C167.229 148.759 167.814 148.187 168.35 147.57C167.49 146.86 167.54 144.94 169.12 143.19C170.7 141.44 174.12 137.53 174.72 136.83Z" fill="#F28F8F"/>
<path d="M204.69 132.59C204.04 133.59 200.83 133.53 198.69 132.8C196.55 132.07 191.89 130.8 189.22 131.3C186.55 131.8 183.85 133.58 181.03 137.18C178.21 140.78 174.36 144.94 172.03 146.5C169.7 148.06 168.72 147.78 168.72 147.78C169.36 148.09 170.86 148.51 173.03 147.12C175.95 145.25 180.86 140.12 184.4 137.26C187.94 134.4 190.05 133.92 193.21 133.71C196.37 133.5 199.48 135.15 202.73 134.2C204 133.82 204.61 133.24 204.69 132.59Z" fill="#F28F8F"/>
<path d="M164 135.36C166.439 134.847 168.928 134.606 171.42 134.64C175.99 134.19 180.29 133.78 181.08 132.64C181.87 131.5 184.68 128.64 184.74 127.4C184.746 127.013 184.675 126.629 184.531 126.27C184.387 125.911 184.172 125.585 183.9 125.31C184.632 124.573 185.195 123.686 185.55 122.71C185.758 121.57 185.544 120.394 184.95 119.4C185.555 118.873 185.987 118.176 186.19 117.4C186.376 116.603 186.25 115.765 185.837 115.058C185.424 114.351 184.756 113.829 183.97 113.6C184.467 113.183 184.85 112.647 185.083 112.042C185.315 111.437 185.39 110.782 185.3 110.14C185.14 108.47 183 107.27 180.2 107.9C177.4 108.53 171.86 110.14 170.6 109.31C169.34 108.48 169.95 104.02 169.79 101.18C169.63 98.3399 167.79 93.5999 165.11 94.0899C163.69 94.3499 164.44 98.7299 163.75 102.64C163.06 106.55 159.33 111.01 157.3 115.84C156.35 118.12 153.78 121.17 150.72 124.32C151.26 129.8 156.31 135.51 160.12 136.64C161.365 136.079 162.666 135.65 164 135.36Z" fill="#FFA8A7"/>
<path d="M170.59 109.28C169.82 108.78 169.75 106.91 169.77 104.89C169.23 106.82 166.77 109.12 167.89 110.01C169.01 110.9 172.81 109.6 175.27 109.01C173.2 109.47 171.27 109.73 170.59 109.28Z" fill="#F28F8F"/>
<path d="M185.12 114.21C184.778 113.924 184.384 113.706 183.96 113.57C183.96 113.57 180.96 115.07 178.28 116.18C182.15 115.66 184.13 114.83 185.12 114.21Z" fill="#F28F8F"/>
<path d="M184.94 119.37C183.44 120.44 180.18 122.15 180.18 122.15C180.18 122.15 183.5 121.34 185.46 120.61C185.334 120.178 185.16 119.762 184.94 119.37Z" fill="#F28F8F"/>
<path d="M183.89 125.28C182.397 126.476 180.838 127.588 179.22 128.61C181.067 128.027 182.858 127.277 184.57 126.37C184.425 125.962 184.193 125.59 183.89 125.28Z" fill="#F28F8F"/>
<path d="M183.94 129C182.54 130.78 180.7 132.59 175.62 133.15C171.29 133.63 166.81 133.65 162.52 135.32C161.664 135.682 160.832 136.1 160.03 136.57H160.17C164.26 135.12 167.38 134.97 171.41 134.57C175.98 134.12 180.28 133.71 181.07 132.57C181.6 131.79 183.07 130.28 183.94 128.98V129Z" fill="#F28F8F"/>
<path d="M171.41 134.64L175.48 134.07C176.83 133.904 178.166 133.643 179.48 133.29C180.127 133.174 180.706 132.816 181.1 132.29C181.53 131.74 181.98 131.22 182.43 130.71C182.88 130.2 183.33 129.71 183.74 129.14C184.206 128.635 184.548 128.03 184.74 127.37C184.609 128.05 184.321 128.69 183.9 129.24C183.51 129.82 183.09 130.36 182.66 130.89C182.23 131.42 181.78 131.95 181.38 132.49C181.281 132.644 181.167 132.788 181.04 132.92C180.903 133.044 180.752 133.152 180.59 133.24C180.271 133.407 179.936 133.541 179.59 133.64C178.255 133.99 176.894 134.227 175.52 134.35C174.15 134.49 172.78 134.57 171.41 134.64Z" fill="#B16668"/>
<path d="M177 116.05C176.699 116.293 176.418 116.561 176.16 116.85C175.843 117.139 175.482 117.375 175.09 117.55C174.861 117.641 174.623 117.708 174.38 117.75C174.18 117.75 173.28 117.83 173.15 117.85C172.985 117.867 172.827 117.926 172.69 118.02C172.69 118.02 172.69 118.14 172.69 118.16C172.944 118.279 173.22 118.344 173.5 118.35C173.791 118.401 174.085 118.438 174.38 118.46C174.815 118.456 175.241 118.342 175.62 118.13C175.966 117.893 176.259 117.587 176.48 117.23C176.737 116.884 176.912 116.484 176.99 116.06C176.99 116.06 177 116 177 116.05Z" fill="#F28F8F"/>
<path d="M178.79 121.91C178.49 122.158 178.206 122.425 177.94 122.71C177.625 123.001 177.263 123.237 176.87 123.41C176.642 123.505 176.404 123.576 176.16 123.62C175.97 123.62 175.06 123.7 174.94 123.72C174.774 123.734 174.615 123.792 174.48 123.89C174.471 123.898 174.464 123.908 174.459 123.919C174.455 123.93 174.452 123.943 174.452 123.955C174.452 123.967 174.455 123.979 174.459 123.99C174.464 124.001 174.471 124.011 174.48 124.02C174.736 124.143 175.016 124.207 175.3 124.21C175.6 124.21 175.88 124.33 176.18 124.33C176.612 124.319 177.034 124.202 177.41 123.99C177.762 123.76 178.056 123.452 178.27 123.09C178.528 122.747 178.706 122.35 178.79 121.93C178.79 121.93 178.8 121.91 178.79 121.91Z" fill="#F28F8F"/>
<path d="M179.28 127C178.981 127.246 178.7 127.513 178.44 127.8C178.128 128.095 177.766 128.332 177.37 128.5C177.143 128.599 176.904 128.67 176.66 128.71C176.46 128.71 175.56 128.79 175.43 128.81C175.264 128.824 175.105 128.883 174.97 128.98C174.97 128.98 174.97 129.09 174.97 129.12C175.224 129.236 175.5 129.297 175.78 129.3C176.07 129.36 176.364 129.4 176.66 129.42C177.094 129.411 177.519 129.298 177.9 129.09C178.247 128.851 178.541 128.54 178.76 128.18C179.017 127.838 179.192 127.441 179.27 127.02C179.27 127.02 179.29 127 179.28 127Z" fill="#F28F8F"/>
</svg>


