<svg width="561" height="496" viewBox="0 0 561 496" fill="none" xmlns="http://www.w3.org/2000/svg">
<path d="M476.547 79.8957H210.745V402.901H476.547V79.8957Z" fill="#F5F5F5"/>
<path d="M476.547 79.8957H210.745V97.4541H476.547V79.8957Z" fill="#E0E0E0"/>
<path d="M222.796 88.6749C222.793 89.1414 222.635 89.5969 222.34 89.9838C222.045 90.3708 221.627 90.6718 221.139 90.849C220.651 91.0262 220.115 91.0715 219.597 90.9793C219.08 90.8871 218.605 90.6615 218.233 90.3309C217.861 90.0003 217.607 89.5796 217.505 89.1219C217.403 88.6642 217.457 88.19 217.659 87.7592C217.862 87.3283 218.204 86.9602 218.643 86.7012C219.082 86.4422 219.598 86.304 220.125 86.304C220.477 86.304 220.825 86.3654 221.15 86.4846C221.474 86.6039 221.769 86.7787 222.017 86.999C222.265 87.2193 222.462 87.4807 222.595 87.7683C222.729 88.0559 222.797 88.364 222.796 88.6749Z" fill="#F5F5F5"/>
<path d="M242.801 88.1689C242.799 88.6346 242.641 89.0893 242.347 89.4758C242.053 89.8623 241.637 90.1634 241.15 90.3411C240.663 90.5189 240.127 90.5654 239.611 90.4748C239.094 90.3841 238.619 90.1605 238.246 89.8319C237.873 89.5033 237.618 89.0844 237.513 88.628C237.409 88.1716 237.459 87.6981 237.658 87.2669C237.857 86.8357 238.196 86.4662 238.632 86.2049C239.068 85.9435 239.581 85.802 240.108 85.7981C240.461 85.7954 240.812 85.8549 241.139 85.973C241.467 86.0911 241.764 86.2655 242.015 86.486C242.265 86.7066 242.464 86.9689 242.599 87.2578C242.734 87.5467 242.802 87.8564 242.801 88.1689Z" fill="#F5F5F5"/>
<path d="M233.286 88.1689C233.284 88.6355 233.125 89.091 232.831 89.4779C232.536 89.8649 232.118 90.1659 231.63 90.3431C231.142 90.5203 230.605 90.5656 230.088 90.4734C229.571 90.3812 229.096 90.1556 228.724 89.825C228.351 89.4944 228.098 89.0737 227.996 88.616C227.894 88.1583 227.947 87.6841 228.15 87.2532C228.352 86.8224 228.695 86.4543 229.133 86.1953C229.572 85.9363 230.088 85.7981 230.616 85.7981C230.967 85.7981 231.316 85.8595 231.64 85.9787C231.965 86.098 232.26 86.2728 232.508 86.4931C232.756 86.7134 232.953 86.9748 233.086 87.2624C233.22 87.55 233.288 87.8581 233.286 88.1689Z" fill="#F5F5F5"/>
<path d="M505.158 113.396C505.158 113.396 494.566 109.517 487.464 131.321C480.362 153.125 478.544 165.327 478.544 165.327C478.544 165.327 476.424 169.999 472.598 167.836C468.772 165.674 462.657 158.71 457.473 161.041C452.087 163.452 451.437 169.394 454.331 177.469C457.226 185.544 462.836 203.439 463.307 205.056C463.779 206.673 463.307 209.203 460.401 208.102C457.495 207.001 439.79 195.116 433.922 202.904C428.054 210.691 440.295 231.999 441.586 234.36C442.876 236.721 442.55 237.862 441.35 238.705C440.149 239.548 434.618 235.054 429.412 231.86C424.206 228.666 417.552 225.769 414.59 230.511C411.628 235.253 414.097 252.395 438.343 276.788L450.427 287.442L467.032 283.742C502.039 273.911 514.156 260.36 514.403 254.974C514.65 249.587 507.234 249.022 500.939 249.369C494.645 249.716 487.262 251.045 486.724 249.786C486.185 248.526 486.589 247.385 489.069 245.956C491.548 244.528 514.482 231.85 513.988 222.506C513.494 213.161 491.38 215.244 488.272 214.877C485.164 214.51 486.207 212.08 487.554 210.909C488.9 209.739 504.171 196.972 511.363 191.377C518.555 185.782 521.461 180.405 518.274 175.872C515.189 171.517 505.932 174.681 501.354 174.79C496.777 174.9 497.73 169.93 497.73 169.93C497.73 169.93 503.273 158.651 509.927 136.737C516.58 114.824 504.9 113.326 504.9 113.326" fill="#EBEBEB"/>
<path d="M498.763 132.928C498.763 132.928 498.763 133.087 498.65 133.394C498.538 133.702 498.426 134.168 498.269 134.743C497.91 135.964 497.405 137.719 496.743 139.941C495.419 144.455 493.444 150.972 490.965 159.008C486.005 175.088 478.959 197.259 471.072 221.712C463.184 246.165 456.071 268.336 451.022 284.377L445.064 303.393C444.357 305.625 443.807 307.361 443.437 308.562C443.246 309.137 443.1 309.554 442.999 309.911L442.831 310.357C442.831 310.357 442.831 310.198 442.932 309.891C443.033 309.583 443.156 309.117 443.313 308.542C443.672 307.331 444.189 305.566 444.839 303.344C446.163 298.83 448.149 292.323 450.629 284.277C455.577 268.197 462.634 246.036 470.511 221.573C478.387 197.11 485.512 174.949 490.561 158.908L496.53 139.872C497.226 137.64 497.775 135.904 498.157 134.704C498.336 134.128 498.482 133.682 498.594 133.364C498.695 133.067 498.763 132.928 498.763 132.928Z" fill="#E0E0E0"/>
<path d="M465.63 171.07C465.892 171.355 466.111 171.668 466.281 172.003C466.673 172.618 467.201 173.511 467.852 174.632C469.131 176.864 470.802 179.998 472.586 183.48L477.074 192.408L478.454 195.116C478.656 195.427 478.807 195.761 478.903 196.108C478.652 195.821 478.434 195.512 478.253 195.186C477.86 194.571 477.332 193.668 476.704 192.547C475.447 190.295 473.809 187.151 472.037 183.619L467.47 174.691C466.92 173.63 466.449 172.707 466.068 171.993C465.887 171.699 465.74 171.39 465.63 171.07Z" fill="#E0E0E0"/>
<path d="M480.463 196.128C480.384 195.999 487.531 192.656 496.406 188.659C505.281 184.661 512.541 181.516 512.619 181.645C512.698 181.774 505.551 185.117 496.676 189.115C487.801 193.113 480.53 196.257 480.463 196.128Z" fill="#E0E0E0"/>
<path d="M466.438 233.199C466.832 233.069 467.243 232.979 467.661 232.932L471.027 232.366C473.854 231.88 477.759 231.196 482.056 230.313C486.353 229.43 490.213 228.517 492.996 227.843L496.294 227.039C496.696 226.923 497.109 226.844 497.528 226.801C497.177 226.986 496.8 227.129 496.406 227.228C495.643 227.476 494.533 227.803 493.153 228.22C490.393 228.993 486.544 229.956 482.236 230.838C477.927 231.721 474 232.356 471.139 232.753C469.703 232.941 468.547 233.08 467.773 233.16C467.332 233.227 466.883 233.241 466.438 233.199Z" fill="#E0E0E0"/>
<path d="M447.341 213.161C447.649 213.373 447.931 213.612 448.183 213.875C448.699 214.351 449.428 215.056 450.326 215.939C452.11 217.694 454.545 220.145 457.215 222.883C459.885 225.62 462.275 228.1 463.947 229.916C464.8 230.828 465.484 231.572 465.944 232.088C466.213 232.34 466.439 232.624 466.617 232.932C466.306 232.723 466.024 232.484 465.776 232.217C465.26 231.741 464.53 231.037 463.633 230.154C461.849 228.398 459.403 225.948 456.744 223.21C454.085 220.472 451.684 217.992 450.012 216.177C449.159 215.264 448.475 214.53 448.015 214.004C447.741 213.756 447.514 213.472 447.341 213.161Z" fill="#E0E0E0"/>
<path d="M430.253 244.508C430.644 244.782 431.002 245.091 431.319 245.431L434.079 248.06C436.379 250.301 439.532 253.416 442.988 256.888C446.444 260.36 449.552 263.505 451.773 265.816L454.388 268.564C454.725 268.888 455.026 269.24 455.285 269.616C454.876 269.343 454.5 269.034 454.163 268.693L451.414 266.064C449.114 263.822 445.961 260.698 442.506 257.236C439.05 253.773 435.942 250.619 433.72 248.308L431.106 245.56C430.783 245.235 430.497 244.883 430.253 244.508Z" fill="#E0E0E0"/>
<path d="M454.87 268.832C455.373 268.668 455.891 268.542 456.418 268.455L460.648 267.602C464.216 266.878 469.153 265.856 474.561 264.626C479.969 263.396 484.827 262.136 488.351 261.223L492.513 260.142C493.016 259.985 493.534 259.868 494.061 259.795C493.591 260.02 493.095 260.2 492.58 260.331C491.616 260.638 490.213 261.065 488.474 261.571C484.984 262.563 480.126 263.882 474.707 265.132C469.288 266.382 464.328 267.354 460.727 267.989C458.932 268.306 457.473 268.544 456.452 268.683C455.932 268.781 455.402 268.831 454.87 268.832Z" fill="#E0E0E0"/>
<path d="M141.709 76.9891C143.209 76.2853 144.856 75.8567 146.548 75.7288C148.241 75.601 149.946 75.7766 151.56 76.2451C154.786 77.1999 157.722 78.7947 160.143 80.9075C164.945 84.8755 167.997 90.9565 169.837 96.5315C162.724 97.9104 155.251 94.4086 151.593 92.4246C145.804 89.28 137.501 80.5206 141.709 76.9891Z" fill="#EBEBEB"/>
<path d="M182.269 97.6525C180.557 96.9354 179.09 95.8311 178.016 94.4514C176.942 93.0717 176.3 91.4656 176.154 89.7958C176.034 88.1207 176.292 86.4412 176.914 84.8554C177.537 83.2697 178.51 81.8095 179.778 80.5603C180.297 79.925 180.969 79.3991 181.745 79.0201C182.52 78.6411 183.381 78.4184 184.266 78.368C185.083 78.4309 185.867 78.6869 186.534 79.1092C187.201 79.5316 187.728 80.1047 188.058 80.7686C188.706 82.1058 188.942 83.5705 188.743 85.0144C188.305 89.9744 186.858 94.6864 182.359 97.6525" fill="#EBEBEB"/>
<path d="M193.422 113.465C193.422 113.465 193.051 113.197 192.468 112.632C191.884 112.066 191.043 111.243 190.056 110.191C187.433 107.457 185.237 104.424 183.526 101.174C181.779 97.8967 181.051 94.2674 181.416 90.6589C181.555 89.573 181.834 88.5046 182.246 87.4746C182.382 87.0932 182.574 86.7295 182.819 86.3933C182.349 87.797 182.019 89.2342 181.831 90.6886C181.598 94.223 182.37 97.7527 184.075 100.956C185.773 104.17 187.897 107.193 190.403 109.963L192.647 112.503C192.945 112.797 193.205 113.12 193.422 113.465Z" fill="#E0E0E0"/>
<path d="M148.699 83.1792C148.877 83.2444 149.047 83.3277 149.204 83.4272L150.595 84.2208C151.795 84.9152 153.512 85.9568 155.621 87.2563C159.829 89.8554 165.562 93.5654 171.767 97.8013C177.972 102.037 183.503 105.985 187.475 108.872L192.142 112.314L193.399 113.306C193.552 113.408 193.687 113.529 193.803 113.663C193.629 113.589 193.467 113.496 193.321 113.386L191.997 112.503L187.206 109.12C183.178 106.303 177.613 102.404 171.419 98.208C165.226 94.0118 159.526 90.272 155.375 87.5539L150.46 84.3894L149.136 83.5165C148.833 83.328 148.687 83.199 148.699 83.1792Z" fill="#E0E0E0"/>
<path d="M179.868 106.809C176.349 105.119 172.425 104.194 168.421 104.112C164.418 104.029 160.449 104.79 156.844 106.332C155.027 107.126 153.097 108.485 153.243 110.3C153.389 112.116 155.487 113.197 157.484 113.713C161.575 114.735 165.917 114.664 169.963 113.507C174.008 112.351 177.575 110.162 180.216 107.215" fill="#EBEBEB"/>
<path d="M162.286 109.17C162.632 108.937 163.008 108.744 163.408 108.594C163.852 108.37 164.318 108.181 164.799 108.029C165.427 107.789 166.071 107.587 166.729 107.424C167.515 107.2 168.317 107.024 169.13 106.898C170.061 106.737 171.001 106.621 171.946 106.551C174.12 106.432 176.302 106.522 178.454 106.819C180.597 107.151 182.696 107.679 184.715 108.396C186.358 108.986 187.936 109.71 189.427 110.558C190.006 110.864 190.568 111.195 191.11 111.55C191.526 111.81 191.923 112.091 192.3 112.394C192.649 112.627 192.965 112.897 193.242 113.197C193.175 113.286 191.772 112.205 189.214 110.826C185.879 109.09 182.214 107.907 178.398 107.334C176.295 107.041 174.163 106.938 172.036 107.027C171.108 107.082 170.183 107.178 169.265 107.315C168.462 107.424 167.668 107.576 166.886 107.771C163.969 108.465 162.331 109.279 162.286 109.17Z" fill="#E0E0E0"/>
<path d="M502.656 451.251C502.656 451.4 403.404 451.509 280.994 451.509C158.583 451.509 59.2753 451.36 59.2753 451.251C59.2753 451.142 158.505 450.993 280.949 450.993C403.393 450.993 502.656 451.112 502.656 451.251Z" fill="#263238"/>
<path d="M112.11 152.203C112.11 152.203 112.279 152.381 112.559 152.738L113.782 154.296L118.405 160.248C118.417 160.259 118.427 160.272 118.434 160.286C118.441 160.301 118.444 160.316 118.444 160.332C118.444 160.348 118.441 160.363 118.434 160.378C118.427 160.392 118.417 160.405 118.405 160.416C118.379 160.424 118.352 160.424 118.326 160.416H105.367C105.324 160.416 105.283 160.402 105.252 160.376C105.221 160.35 105.202 160.315 105.199 160.277C105.187 160.252 105.187 160.224 105.199 160.198L105.49 160.416C101.993 163.222 97.7458 165.195 93.1484 166.15C90.5365 166.692 87.8472 166.882 85.171 166.716C82.2967 166.588 79.4654 166.045 76.7897 165.108C73.942 164.134 71.2902 162.76 68.9357 161.041C66.4996 159.247 64.4344 157.092 62.832 154.673C59.4756 149.643 58.2523 143.722 59.3808 137.968C60.5093 132.214 63.9161 127.003 68.9918 123.266C73.3258 120.09 78.6418 118.144 84.2461 117.68C89.8505 117.217 95.4827 118.257 100.408 120.667C104.459 122.685 107.879 125.562 110.36 129.039C112.395 131.903 113.736 135.108 114.298 138.453C114.365 138.82 114.422 139.178 114.478 139.535C114.534 139.892 114.478 140.249 114.556 140.586C114.556 141.281 114.646 141.945 114.624 142.57C114.6 143.73 114.48 144.888 114.264 146.032C113.97 147.616 113.493 149.168 112.84 150.665C112.615 151.171 112.424 151.568 112.29 151.806C112.229 151.941 112.154 152.07 112.065 152.193C112.109 152.056 112.165 151.924 112.234 151.796C112.346 151.528 112.525 151.141 112.727 150.625C113.325 149.123 113.765 147.576 114.04 146.003C114.235 144.866 114.336 143.719 114.343 142.57C114.343 141.935 114.276 141.281 114.253 140.586C114.253 140.249 114.253 139.902 114.163 139.545L113.973 138.473C113.224 134.235 111.217 130.248 108.156 126.919C105.095 123.59 101.09 121.039 96.5501 119.526C92.0097 118.013 87.0966 117.593 82.3122 118.307C77.5279 119.022 73.0436 120.846 69.3172 123.593C64.5448 127.166 61.2788 132.06 60.0494 137.481C58.7769 143.264 59.9296 149.259 63.292 154.345C64.8729 156.761 66.9196 158.913 69.3396 160.704C71.6406 162.377 74.2271 163.716 77.0028 164.672C79.6378 165.621 82.4315 166.181 85.272 166.329C87.905 166.499 90.5521 166.322 93.126 165.803C97.664 164.884 101.864 162.963 105.333 160.218C105.35 160.201 105.371 160.187 105.394 160.178C105.417 160.169 105.443 160.164 105.468 160.164C105.493 160.164 105.519 160.169 105.542 160.178C105.565 160.187 105.586 160.201 105.603 160.218C105.63 160.245 105.645 160.281 105.645 160.317C105.645 160.354 105.63 160.389 105.603 160.416L105.311 160.188C105.504 160.138 105.704 160.114 105.906 160.119H109.092H112.458L118.326 160.178L118.214 160.367C116.262 157.738 114.736 155.694 113.726 154.276L112.604 152.689C112.2 152.381 112.11 152.203 112.11 152.203Z" fill="#263238"/>
<path d="M89.0083 140.547C90.0759 140.13 90.9818 139.445 91.614 138.578C92.2461 137.71 92.5768 136.698 92.565 135.666C92.565 134.35 91.974 133.089 90.9219 132.159C89.8698 131.228 88.4429 130.706 86.955 130.706C85.4671 130.706 84.0402 131.228 82.9881 132.159C81.936 133.089 81.345 134.35 81.345 135.666C81.3164 136.712 81.6403 137.743 82.2756 138.626C82.9109 139.509 83.829 140.205 84.913 140.626C76.3072 141.767 76.6999 150.03 76.6999 150.03L97.0418 150.119C97.0418 150.119 97.5355 141.677 89.0083 140.547Z" fill="#6A3093"/>
<path d="M455.05 51.6832H189.248V374.688H455.05V51.6832Z" fill="#FAFAFA"/>
<path d="M410.36 215.958H296.32V232.743H410.36V215.958Z" fill="#EBEBEB"/>
<path d="M307.507 228.378C306.788 228.378 306.085 228.19 305.487 227.837C304.889 227.483 304.423 226.981 304.148 226.394C303.873 225.807 303.801 225.161 303.941 224.537C304.081 223.914 304.428 223.341 304.936 222.891C305.444 222.442 306.092 222.136 306.797 222.012C307.502 221.888 308.233 221.951 308.898 222.195C309.562 222.438 310.13 222.85 310.529 223.379C310.929 223.907 311.142 224.528 311.142 225.164C311.142 226.017 310.759 226.834 310.077 227.437C309.395 228.04 308.471 228.378 307.507 228.378ZM307.507 222.198C306.841 222.198 306.19 222.373 305.636 222.7C305.083 223.027 304.652 223.491 304.397 224.035C304.142 224.579 304.075 225.177 304.205 225.755C304.335 226.332 304.656 226.862 305.126 227.278C305.597 227.695 306.197 227.978 306.85 228.093C307.503 228.208 308.18 228.149 308.795 227.924C309.41 227.698 309.935 227.317 310.305 226.827C310.675 226.338 310.873 225.763 310.873 225.174C310.87 224.387 310.514 223.632 309.883 223.076C309.252 222.52 308.397 222.208 307.507 222.208V222.198Z" fill="#263238"/>
<path d="M386.349 225.442C386.349 225.581 371.202 225.7 352.521 225.7C333.84 225.7 318.648 225.581 318.648 225.442C318.648 225.303 333.795 225.184 352.488 225.184C371.18 225.184 386.349 225.293 386.349 225.442Z" fill="#263238"/>
<path d="M455.05 79.8461H189.248V140.051H455.05V79.8461Z" fill="#263238"/>
<path d="M455.05 51.6832H189.248V69.2416H455.05V51.6832Z" fill="#455A64"/>
<path d="M198.639 62.8234C200.114 62.8234 201.309 61.7663 201.309 60.4624C201.309 59.1585 200.114 58.1014 198.639 58.1014C197.164 58.1014 195.969 59.1585 195.969 60.4624C195.969 61.7663 197.164 62.8234 198.639 62.8234Z" fill="#263238"/>
<path d="M221.315 59.9565C221.315 60.4234 221.158 60.8799 220.864 61.2682C220.571 61.6564 220.154 61.959 219.666 62.1377C219.178 62.3164 218.641 62.3632 218.123 62.2721C217.605 62.181 217.129 61.9561 216.756 61.6259C216.382 61.2957 216.128 60.8751 216.025 60.4171C215.922 59.9591 215.975 59.4844 216.177 59.053C216.379 58.6216 216.721 58.2528 217.161 57.9934C217.6 57.734 218.116 57.5955 218.644 57.5955C219.351 57.5981 220.029 57.8477 220.529 58.2899C221.029 58.7321 221.312 59.3311 221.315 59.9565Z" fill="#263238"/>
<path d="M211.8 59.9565C211.8 60.4234 211.643 60.8799 211.35 61.2682C211.056 61.6564 210.639 61.959 210.151 62.1377C209.664 62.3164 209.127 62.3632 208.609 62.2721C208.091 62.181 207.615 61.9561 207.241 61.6259C206.868 61.2957 206.614 60.8751 206.511 60.4171C206.407 59.9591 206.46 59.4844 206.662 59.053C206.865 58.6216 207.207 58.2528 207.646 57.9934C208.085 57.734 208.601 57.5955 209.13 57.5955C209.837 57.5981 210.514 57.8477 211.015 58.2899C211.515 58.7321 211.797 59.3311 211.8 59.9565Z" fill="#263238"/>
<path d="M455.05 69.2416H189.248V79.8461H455.05V69.2416Z" fill="#E0E0E0"/>
<path d="M280.601 179.77C280.601 179.909 271.704 180.028 260.73 180.028C249.757 180.028 240.849 179.909 240.849 179.77C240.849 179.631 249.746 179.512 260.73 179.512C271.715 179.512 280.601 179.621 280.601 179.77Z" fill="#263238"/>
<path d="M280.601 188.014C280.601 188.163 271.704 188.282 260.73 188.282C249.757 188.282 240.849 188.163 240.849 188.014C240.849 187.865 249.746 187.756 260.73 187.756C271.715 187.756 280.601 187.875 280.601 188.014Z" fill="#263238"/>
<path d="M263.401 194.839C259.668 195.098 255.923 195.185 252.181 195.097C248.42 195.186 244.656 195.1 240.905 194.839C244.656 194.583 248.42 194.497 252.181 194.581C255.923 194.499 259.668 194.585 263.401 194.839Z" fill="#263238"/>
<path d="M410.865 150.467H297.453V176.903H410.865V150.467Z" fill="#EBEBEB"/>
<path d="M313.397 189.621C313.399 190.654 313.055 191.664 312.407 192.523C311.759 193.383 310.838 194.053 309.759 194.45C308.68 194.846 307.493 194.95 306.347 194.749C305.201 194.548 304.148 194.051 303.322 193.32C302.496 192.59 301.934 191.659 301.706 190.646C301.479 189.633 301.597 188.583 302.045 187.629C302.493 186.675 303.251 185.861 304.224 185.288C305.196 184.715 306.338 184.411 307.507 184.413C309.069 184.413 310.567 184.961 311.672 185.938C312.776 186.915 313.397 188.24 313.397 189.621Z" fill="#E0E0E0"/>
<path d="M410.36 185.881C410.36 186.02 391.365 186.139 367.937 186.139C344.51 186.139 325.503 186.02 325.503 185.881C325.503 185.742 344.499 185.623 367.937 185.623C391.376 185.623 410.36 185.732 410.36 185.881Z" fill="#263238"/>
<path d="M369.497 193.321C369.497 193.47 359.646 193.579 347.506 193.579C335.366 193.579 325.503 193.47 325.503 193.321C325.503 193.172 335.355 193.063 347.506 193.063C359.657 193.063 369.497 193.182 369.497 193.321Z" fill="#263238"/>
<path d="M410.36 201.763H387.786V204.511H410.36V201.763Z" fill="#6A3093"/>
<path d="M410.36 265.717H387.786V268.465H410.36V265.717Z" fill="#6A3093"/>
<path d="M387.786 241.135C387.786 241.284 368.027 241.393 343.646 241.393C319.265 241.393 299.495 241.284 299.495 241.135C299.495 240.987 319.265 240.877 343.646 240.877C368.027 240.877 387.786 240.996 387.786 241.135Z" fill="#263238"/>
<path d="M387.786 247.831C387.786 247.98 368.027 248.089 343.646 248.089C319.265 248.089 299.495 247.98 299.495 247.831C299.495 247.683 319.265 247.573 343.646 247.573C368.027 247.573 387.786 247.692 387.786 247.831Z" fill="#263238"/>
<path d="M387.786 254.527C387.786 254.676 368.027 254.785 343.646 254.785C319.265 254.785 299.495 254.676 299.495 254.527C299.495 254.379 319.265 254.269 343.646 254.269C368.027 254.269 387.786 254.388 387.786 254.527Z" fill="#263238"/>
<path d="M327.871 266.59C327.871 266.729 321.711 266.848 314.104 266.848C306.497 266.848 300.348 266.729 300.348 266.59C300.348 266.451 306.508 266.322 314.104 266.322C321.7 266.322 327.871 266.441 327.871 266.59Z" fill="#263238"/>
<path d="M410.36 283.484H296.32V343.857H410.36V283.484Z" fill="#455A64"/>
<path d="M296.32 343.857L343.646 316.478L358.142 325.604L387.786 308.046L410.36 323.491V343.857H296.32Z" fill="#263238"/>
<path d="M361.419 311.389C365.88 311.389 369.497 308.191 369.497 304.246C369.497 300.302 365.88 297.104 361.419 297.104C356.957 297.104 353.34 300.302 353.34 304.246C353.34 308.191 356.957 311.389 361.419 311.389Z" fill="#263238"/>
<path d="M250.363 210.145H238.481V220.651H250.363V210.145Z" fill="#E0E0E0"/>
<path d="M264.826 210.145H252.944V220.651H264.826V210.145Z" fill="#EBEBEB"/>
<path d="M279.389 210.145H267.507V220.651H279.389V210.145Z" fill="#EBEBEB"/>
<path d="M250.363 222.694H238.481V233.199H250.363V222.694Z" fill="#EBEBEB"/>
<path d="M264.826 222.694H252.944V233.199H264.826V222.694Z" fill="#F5F5F5"/>
<path d="M279.389 222.694H267.507V233.199H279.389V222.694Z" fill="#E0E0E0"/>
<path d="M250.363 235.253H238.481V245.758H250.363V235.253Z" fill="#E0E0E0"/>
<path d="M264.826 235.253H252.944V245.758H264.826V235.253Z" fill="#EBEBEB"/>
<path d="M279.389 235.253H267.507V245.758H279.389V235.253Z" fill="#E0E0E0"/>
<path d="M293.404 93.337L227.488 93.693L227.89 151.972L293.807 151.616L293.404 93.337Z" fill="#6A3093"/>
<path opacity="0.2" d="M274.61 123.911C274.397 124.125 274.288 124.404 274.307 124.688C274.326 124.972 274.471 125.238 274.71 125.428C274.95 125.618 275.265 125.715 275.586 125.7C275.907 125.684 276.207 125.556 276.422 125.344C276.636 125.132 276.746 124.854 276.728 124.57C276.71 124.287 276.566 124.021 276.326 123.831C276.086 123.642 275.771 123.545 275.449 123.559C275.128 123.574 274.826 123.7 274.61 123.911Z" fill="black"/>
<path opacity="0.2" d="M277.504 122.78C277.017 122.462 276.427 122.291 275.821 122.291C275.216 122.291 274.626 122.462 274.138 122.78C273.779 123.028 273.645 123.266 273.712 123.316C273.779 123.365 274.666 122.909 275.81 122.919C276.954 122.929 277.785 123.474 277.908 123.345C278.032 123.216 277.863 123.008 277.504 122.78Z" fill="black"/>
<path opacity="0.2" d="M263.962 124.278C263.686 124.135 263.357 124.093 263.047 124.162C262.736 124.23 262.469 124.404 262.301 124.645C262.218 124.764 262.162 124.897 262.137 125.036C262.112 125.175 262.118 125.317 262.156 125.454C262.194 125.59 262.261 125.719 262.356 125.832C262.45 125.945 262.569 126.041 262.705 126.113C262.981 126.26 263.311 126.305 263.624 126.238C263.937 126.171 264.207 125.998 264.377 125.756C264.539 125.51 264.587 125.218 264.509 124.942C264.432 124.666 264.235 124.428 263.962 124.278Z" fill="black"/>
<path opacity="0.2" d="M265.039 123.742C264.559 123.418 263.971 123.244 263.367 123.246C262.764 123.245 262.175 123.412 261.684 123.722C261.325 123.97 261.19 124.198 261.258 124.258C261.325 124.317 262.211 123.851 263.367 123.861C264.523 123.871 265.331 124.407 265.465 124.278C265.6 124.149 265.398 124 265.039 123.742Z" fill="black"/>
<path opacity="0.2" d="M271.995 129.02C271.33 127.21 270.458 125.465 269.392 123.812C269.851 125.668 270.52 127.48 271.389 129.218C271.704 129.932 272.018 130.607 272.309 131.281C272.464 131.509 272.541 131.77 272.534 132.035C272.534 132.184 272.276 132.244 271.973 132.273C271.337 132.299 270.711 132.419 270.122 132.63C270.746 132.741 271.387 132.757 272.018 132.68C272.192 132.677 272.365 132.657 272.534 132.62C272.65 132.587 272.757 132.532 272.846 132.458C272.935 132.384 273.005 132.294 273.05 132.194C273.13 131.819 273.067 131.432 272.87 131.093C272.646 130.418 272.298 129.734 271.995 129.02Z" fill="black"/>
<path opacity="0.1" d="M260.001 142.402C260.001 142.402 262.604 147.699 270.918 146.985V145.08C267.058 145.17 263.256 144.237 260.001 142.402Z" fill="white"/>
<path opacity="0.2" d="M277.998 115.181L277.886 115.251H277.818C274.267 116.472 270.312 116.397 266.823 115.042C262.335 113.445 257.219 112.87 256.175 113.713C255.132 114.556 255.255 118.514 251.081 119.963C251.081 119.963 252.024 127.254 248.759 127.403H248.691C248.602 125.736 248.523 124.188 248.523 124.188C248.298 124.129 248.07 124.083 247.839 124.05C247.027 123.922 246.194 123.945 245.393 124.119C244.091 124.446 242.902 125.379 243.003 127.76C243.171 131.728 246.739 131.807 248.243 131.579L249.365 151.836L271.008 151.716C271.086 150.169 271.008 149.068 271.008 147.699V146.965C262.694 147.679 260.091 142.382 260.091 142.382C263.337 144.212 267.126 145.144 270.974 145.06V145.159C271.131 145.159 279.288 143.9 279.333 136.598C279.299 131.123 278.436 120.32 277.998 115.181ZM246.84 129.843C246.711 129.924 246.565 129.98 246.41 130.007C246.256 130.034 246.096 130.032 245.942 130.002C245.477 129.821 245.083 129.523 244.808 129.146C244.532 128.768 244.388 128.328 244.394 127.879C244.358 127.392 244.458 126.905 244.686 126.46C244.76 126.26 244.89 126.081 245.065 125.938C245.24 125.796 245.453 125.696 245.684 125.647C245.88 125.618 246.081 125.657 246.245 125.756C246.36 125.833 246.442 125.941 246.481 126.063C246.537 126.272 246.481 126.371 246.414 126.361C246.346 126.351 246.414 126.252 246.335 126.113C246.28 126.021 246.191 125.949 246.082 125.909C245.974 125.869 245.853 125.864 245.74 125.895C245.565 125.949 245.408 126.041 245.282 126.162C245.157 126.283 245.068 126.43 245.022 126.589C244.841 126.992 244.765 127.426 244.798 127.859C244.792 128.244 244.902 128.623 245.117 128.958C245.332 129.293 245.644 129.571 246.021 129.764C246.259 129.846 246.524 129.846 246.761 129.764C246.919 129.694 246.997 129.615 247.02 129.625C247.042 129.635 247.064 129.714 246.84 129.843ZM274.89 120.588C276.528 120.508 277.673 121.222 277.527 121.46C277.381 121.699 276.281 121.55 274.957 121.619C273.633 121.689 272.534 121.956 272.377 121.699C272.22 121.441 273.218 120.657 274.89 120.588ZM259.586 120.816C259.586 120.518 260.775 120.379 262.144 120.33L263.872 120.25C264.298 120.25 264.59 120.25 264.68 120.34C264.77 120.429 264.579 120.726 264.108 120.955C263.509 121.202 262.86 121.34 262.2 121.361C260.663 121.411 259.519 121.093 259.541 120.816H259.586ZM264.422 125.776C264.252 126.018 263.982 126.191 263.669 126.258C263.356 126.325 263.026 126.28 262.75 126.133C262.614 126.061 262.495 125.965 262.401 125.852C262.306 125.739 262.238 125.61 262.201 125.473C262.163 125.337 262.157 125.195 262.182 125.056C262.207 124.917 262.262 124.784 262.346 124.665C262.514 124.424 262.781 124.25 263.092 124.181C263.402 124.113 263.731 124.155 264.007 124.298C264.267 124.453 264.45 124.691 264.518 124.962C264.587 125.233 264.537 125.517 264.377 125.756L264.422 125.776ZM265.544 124.298C265.409 124.427 264.59 123.881 263.446 123.881C262.301 123.881 261.46 124.407 261.336 124.278C261.213 124.149 261.404 123.99 261.763 123.742C262.253 123.432 262.842 123.265 263.446 123.266C264.049 123.264 264.637 123.438 265.117 123.762C265.398 124 265.521 124.228 265.465 124.278L265.544 124.298ZM268.674 135.269C267.148 134.813 266.43 133.741 266.61 133.682C266.789 133.622 267.53 134.396 268.854 134.783C269.689 134.951 270.536 135.067 271.389 135.13C270.974 135.36 270.499 135.491 270.01 135.512C269.521 135.533 269.034 135.442 268.596 135.249L268.674 135.269ZM273.162 132.214C273.117 132.314 273.047 132.404 272.958 132.478C272.869 132.552 272.762 132.607 272.646 132.64C272.477 132.677 272.304 132.697 272.13 132.7C271.499 132.777 270.858 132.76 270.234 132.65C270.823 132.439 271.449 132.318 272.085 132.293C272.388 132.293 272.624 132.204 272.646 132.055C272.654 131.79 272.576 131.529 272.422 131.301C272.13 130.627 271.816 129.952 271.502 129.238C270.633 127.499 269.963 125.688 269.504 123.831C270.57 125.485 271.443 127.23 272.107 129.039C272.41 129.754 272.702 130.438 272.983 131.113C273.136 131.457 273.16 131.837 273.05 132.194L273.162 132.214ZM276.528 125.359C276.315 125.57 276.016 125.698 275.696 125.715C275.377 125.731 275.063 125.636 274.823 125.448C274.704 125.355 274.608 125.241 274.539 125.114C274.47 124.987 274.429 124.85 274.421 124.709C274.412 124.569 274.434 124.428 274.487 124.295C274.54 124.163 274.621 124.04 274.727 123.936C274.833 123.831 274.962 123.745 275.105 123.684C275.249 123.623 275.404 123.588 275.563 123.58C275.722 123.572 275.881 123.592 276.031 123.639C276.181 123.685 276.32 123.757 276.438 123.851C276.653 124.053 276.771 124.322 276.767 124.599C276.763 124.877 276.637 125.142 276.416 125.339L276.528 125.359ZM278.032 123.375C277.908 123.504 277.089 122.948 275.933 122.948C274.778 122.948 273.959 123.474 273.835 123.345C273.712 123.216 273.903 123.058 274.262 122.81C274.749 122.492 275.339 122.321 275.945 122.321C276.55 122.321 277.14 122.492 277.628 122.81C277.863 123.008 277.987 123.266 277.919 123.325L278.032 123.375Z" fill="white"/>
<path opacity="0.1" d="M246.066 129.764C245.689 129.571 245.376 129.293 245.161 128.958C244.946 128.623 244.836 128.244 244.843 127.859C244.81 127.426 244.886 126.992 245.067 126.589C245.113 126.43 245.202 126.283 245.327 126.162C245.453 126.041 245.61 125.949 245.785 125.895C245.898 125.864 246.019 125.869 246.127 125.909C246.236 125.949 246.325 126.021 246.38 126.113C246.459 126.252 246.38 126.351 246.459 126.361C246.537 126.371 246.582 126.272 246.526 126.063C246.487 125.941 246.404 125.833 246.29 125.756C246.126 125.657 245.925 125.618 245.729 125.647C245.498 125.696 245.285 125.796 245.11 125.938C244.935 126.081 244.805 126.26 244.731 126.46C244.503 126.905 244.403 127.392 244.439 127.879C244.433 128.328 244.577 128.768 244.852 129.146C245.128 129.523 245.522 129.821 245.987 130.002C246.141 130.032 246.301 130.034 246.455 130.007C246.61 129.979 246.756 129.924 246.885 129.843C247.064 129.714 247.087 129.595 247.064 129.585C247.042 129.575 246.963 129.654 246.806 129.724C246.574 129.82 246.309 129.834 246.066 129.764Z" fill="white"/>
<path opacity="0.2" d="M248.13 109.586C248.254 109.507 247.704 108.753 246.559 108.445C245.415 108.138 244.473 108.445 244.54 108.614C244.607 108.783 245.426 108.674 246.391 108.941C247.356 109.209 247.962 109.685 248.13 109.586Z" fill="black"/>
<path opacity="0.2" d="M249.005 109.814C248.685 109.126 248.415 108.421 248.198 107.701C248.128 106.93 247.978 106.166 247.749 105.42C247.402 106.181 247.359 107.024 247.625 107.811C247.767 108.606 248.22 109.333 248.904 109.864C248.904 109.864 248.983 109.864 248.994 109.864C249.005 109.864 249.017 109.844 249.005 109.814Z" fill="black"/>
<path opacity="0.2" d="M274.89 121.619C276.214 121.55 277.325 121.738 277.459 121.46C277.594 121.183 276.461 120.468 274.823 120.588C273.185 120.707 272.13 121.46 272.309 121.699C272.489 121.937 273.577 121.669 274.89 121.619Z" fill="black"/>
<path opacity="0.2" d="M262.155 121.361C262.816 121.34 263.464 121.202 264.063 120.955C264.534 120.726 264.725 120.449 264.635 120.34C264.545 120.23 264.253 120.24 263.827 120.25L262.099 120.33C260.73 120.33 259.552 120.518 259.541 120.816C259.53 121.113 260.663 121.411 262.155 121.361Z" fill="black"/>
<path opacity="0.2" d="M266.531 133.662C266.385 133.722 267.07 134.793 268.596 135.249C269.027 135.429 269.503 135.51 269.979 135.486C270.455 135.462 270.917 135.333 271.322 135.11C270.469 135.047 269.621 134.931 268.786 134.763C267.451 134.376 266.666 133.573 266.531 133.662Z" fill="black"/>
<path opacity="0.2" d="M278.447 103.168C277.011 102.026 275.218 101.295 273.303 101.072C271.388 100.849 269.442 101.144 267.72 101.918C266.15 102.662 264.814 103.793 263.12 104.269C261.089 104.835 258.902 104.348 256.781 104.21C254.66 104.071 252.181 104.448 251.115 106.075C250.43 107.067 250.464 108.505 249.533 109.398C249.379 109.551 249.201 109.685 249.005 109.795C249.005 109.795 249.005 109.795 249.005 109.854C249.005 109.914 249.005 109.854 248.916 109.854C247.603 110.548 245.74 110.35 244.215 110.846C243.345 111.139 242.585 111.639 242.016 112.29C241.448 112.941 241.095 113.719 240.994 114.536C240.916 115.354 241.054 116.177 241.396 116.939C241.739 117.702 242.277 118.384 242.969 118.931C243.841 119.473 244.6 120.144 245.213 120.915C245.649 121.965 245.704 123.109 245.37 124.188C246.171 124.015 247.004 123.991 247.816 124.119C248.047 124.152 248.276 124.199 248.501 124.258C248.501 124.258 248.579 125.805 248.669 127.472H248.736C252.001 127.323 251.059 120.032 251.059 120.032C255.233 118.584 255.109 114.626 256.153 113.782C257.196 112.939 262.312 113.515 266.8 115.112C270.29 116.466 274.244 116.541 277.796 115.32H277.863L277.976 115.251L278.256 115.072L278.503 114.953C279.413 114.356 280.126 113.554 280.567 112.632C281.35 111.052 281.566 109.298 281.187 107.606C280.808 105.914 279.851 104.365 278.447 103.168Z" fill="black"/>
<path d="M454.791 51.6832L455.05 51.9213H189.281L189.584 51.6633C189.584 172.38 189.584 284.129 189.528 374.668L189.281 374.46L455.083 374.668L189.281 374.887H189.046V374.668C189.046 284.129 189.046 172.38 188.99 51.6633V51.4054H189.315H455.083H455.352V51.6336C455.195 242.713 455.094 372.575 455.083 374.639" fill="#263238"/>
<path d="M95.2129 277.869L96.6603 280.597C97.2633 282.202 98.0451 283.751 98.9941 285.22C99.453 285.963 100.048 286.633 100.756 287.204C101.61 287.931 102.573 288.552 103.617 289.049C103.822 289.124 103.999 289.251 104.122 289.414C104.246 289.578 104.312 289.77 104.312 289.967C104.312 290.163 104.246 290.355 104.122 290.519C103.999 290.682 103.822 290.809 103.617 290.884C102.652 291.092 99.8468 290.14 97.4569 287.908C95.0671 285.676 95.4373 290.517 95.5271 292.293C95.6168 294.068 95.6505 299.574 95.0559 300.04C94.1807 300.715 93.2045 300.04 93.1484 298.235C93.0923 296.429 92.5201 291.142 91.4542 291.231C90.3883 291.321 91.0615 300.358 91.0615 300.358C91.0615 300.358 91.5552 302.272 90.3322 302.421C88.0882 302.669 88.2453 293.017 88.279 292.094C88.279 291.46 87.157 291.519 87.157 292.213C87.157 292.908 88.0321 301.211 85.7993 301.499C84.0827 301.707 85.7993 293.563 84.5539 291.916C83.3085 290.269 83.948 298.225 82.3099 298.364C81.704 298.423 81.1879 298.364 81.5918 293.781C81.9958 289.198 85.3393 276.421 85.3393 276.421L95.37 277.998" fill="#FFBE9D"/>
<path d="M135.033 210.225C135.033 210.225 103.617 237.336 102.876 240.848C102.136 244.359 97.614 283.275 97.614 283.275L83.2524 282.016C83.2524 282.016 81.906 234.043 86.394 229.152C90.882 224.261 108.834 205.929 108.834 205.929L135.033 210.225Z" fill="#FFBE9D"/>
<path d="M87.7404 234.241C87.7404 234.241 87.5384 234.142 87.3253 233.854C87.0223 233.438 86.8732 232.949 86.8989 232.455C86.9076 232.083 87.0133 231.717 87.2079 231.387C87.4025 231.057 87.6807 230.77 88.0209 230.551C88.4393 230.27 88.9369 230.097 89.4594 230.049C89.9819 230.002 90.509 230.083 90.983 230.283C91.4908 230.504 91.8898 230.881 92.105 231.344C92.3022 231.777 92.3022 232.261 92.105 232.693C92.0143 232.873 91.8827 233.034 91.7182 233.167C91.5538 233.299 91.3602 233.401 91.1496 233.464C90.9389 233.527 90.7157 233.551 90.4939 233.535C90.2722 233.518 90.0567 233.462 89.861 233.368C89.6093 233.227 89.4177 233.016 89.3161 232.768C89.2146 232.52 89.2089 232.25 89.3 231.999C89.4458 231.652 89.6815 231.563 89.6815 231.582C89.6815 231.602 89.5468 231.741 89.4907 232.039C89.4333 232.242 89.4502 232.456 89.5389 232.65C89.6276 232.844 89.7835 233.009 89.9844 233.12C90.1365 233.183 90.3013 233.218 90.469 233.223C90.6367 233.228 90.804 233.204 90.9608 233.151C91.1177 233.098 91.261 233.019 91.3824 232.916C91.5037 232.814 91.6006 232.691 91.6674 232.555C91.8099 232.236 91.8099 231.881 91.6674 231.563C91.5008 231.199 91.1839 230.904 90.781 230.739C90.3864 230.57 89.9469 230.499 89.51 230.534C89.0731 230.569 88.6552 230.708 88.3014 230.938C87.9896 231.114 87.7268 231.349 87.5326 231.628C87.3383 231.906 87.2176 232.219 87.1794 232.545C87.1759 233.146 87.3709 233.736 87.7404 234.241Z" fill="#EB996E"/>
<path d="M201.085 141.013C200.872 141.539 198.112 176.596 198.112 176.596L214.022 175.524L217.96 145.02L201.085 141.013Z" fill="#455A64"/>
<path d="M198.112 176.596L195.969 176.05L199.043 140.487L201.343 141.072L198.112 176.596Z" fill="#263238"/>
<path d="M210.195 150.199C210.71 150.199 211.127 149.83 211.127 149.375C211.127 148.921 210.71 148.552 210.195 148.552C209.681 148.552 209.264 148.921 209.264 149.375C209.264 149.83 209.681 150.199 210.195 150.199Z" fill="#263238"/>
<path d="M192.748 193.976L220.798 200.414L216.366 171.031L215.794 169.622L205.517 168.223L206.74 161.517C206.891 160.775 207.215 160.068 207.69 159.441C208.166 158.815 208.783 158.282 209.503 157.877C210.223 157.471 211.03 157.202 211.873 157.086C212.716 156.97 213.578 157.009 214.403 157.202L217.769 157.996C218.967 158.271 220.086 158.767 221.053 159.45C222.02 160.134 222.812 160.991 223.379 161.964C225.32 165.337 227.227 169.027 227.048 168.709L242.083 204.779C243.394 207.091 243.934 209.685 243.64 212.258C243.346 214.832 242.23 217.278 240.422 219.311C235.575 224.876 223.873 221.008 218.364 220.065L182.46 213.072L192.748 193.976Z" fill="#FFBE9D"/>
<path d="M136.783 158.164C136.894 158.45 136.911 158.757 136.831 159.051C136.752 159.344 136.579 159.611 136.334 159.821C136.084 160.023 135.772 160.156 135.438 160.206C135.104 160.255 134.76 160.218 134.449 160.099C133.26 159.643 133.036 158.254 133.193 157.123C133.35 155.992 133.709 154.772 133.103 153.76C132.535 153.05 131.828 152.435 131.016 151.945C130.381 151.43 129.889 150.792 129.577 150.081C129.266 149.371 129.144 148.607 129.221 147.848C129.32 147.092 129.653 146.375 130.183 145.777C130.714 145.178 131.422 144.721 132.228 144.455C133.888 143.949 135.998 144.306 137.187 143.175C138.04 142.342 138.017 141.062 138.668 140.09C139.667 138.592 141.967 138.255 143.93 138.394C145.894 138.533 147.913 138.989 149.809 138.483C151.38 138.057 152.626 137.005 154.084 136.331C155.678 135.588 157.494 135.305 159.278 135.521C161.063 135.737 162.726 136.441 164.035 137.535C165.344 138.629 166.233 140.057 166.577 141.62C166.921 143.183 166.704 144.802 165.955 146.251C165.466 147.31 164.573 148.184 163.431 148.721" fill="#263238"/>
<path d="M138.747 187.766L157.327 186.496C157.439 184.581 157.327 177.161 157.327 177.161C157.327 177.161 165.057 176.1 165.181 169.225C165.304 162.351 163.935 146.707 163.935 146.707C159.542 145.039 154.726 144.436 149.981 144.959C145.237 145.482 140.736 147.113 136.94 149.683L135.818 150.467L138.747 187.766Z" fill="#FFBE9D"/>
<path d="M162.084 158.432C161.864 158.256 161.733 158.009 161.718 157.747C161.703 157.485 161.807 157.228 162.006 157.034C162.105 156.937 162.225 156.859 162.359 156.804C162.492 156.748 162.637 156.717 162.784 156.711C162.932 156.705 163.079 156.724 163.218 156.769C163.357 156.813 163.484 156.881 163.593 156.969C163.702 157.057 163.791 157.163 163.853 157.281C163.916 157.399 163.952 157.527 163.958 157.658C163.965 157.788 163.943 157.918 163.893 158.041C163.843 158.164 163.766 158.276 163.666 158.373C163.465 158.566 163.186 158.68 162.889 158.691C162.593 158.703 162.303 158.609 162.084 158.432Z" fill="#263238"/>
<path d="M163.958 156.875C163.834 156.994 163.083 156.478 162.017 156.478C160.951 156.478 160.177 156.954 160.065 156.835C159.952 156.716 160.121 156.567 160.457 156.339C160.917 156.053 161.466 155.901 162.028 155.903C162.589 155.908 163.133 156.075 163.576 156.379C163.902 156.607 164.014 156.825 163.958 156.875Z" fill="#263238"/>
<path d="M151.694 157.728C151.883 157.831 152.033 157.981 152.125 158.159C152.217 158.338 152.247 158.536 152.212 158.729C152.177 158.923 152.077 159.103 151.927 159.246C151.776 159.39 151.581 159.491 151.365 159.536C151.15 159.582 150.924 159.57 150.716 159.502C150.508 159.434 150.327 159.314 150.197 159.155C150.067 158.997 149.992 158.808 149.983 158.612C149.974 158.416 150.031 158.223 150.146 158.055C150.223 157.944 150.324 157.846 150.444 157.77C150.564 157.693 150.699 157.637 150.843 157.607C150.987 157.576 151.136 157.571 151.282 157.592C151.429 157.613 151.569 157.659 151.694 157.728Z" fill="#263238"/>
<path d="M152.401 157.728C152.278 157.847 151.515 157.331 150.449 157.321C149.383 157.311 148.62 157.807 148.497 157.688C148.373 157.569 148.564 157.42 148.901 157.192C149.351 156.898 149.9 156.744 150.46 156.756C151.019 156.762 151.561 156.925 152.009 157.222C152.345 157.44 152.457 157.649 152.401 157.728Z" fill="#263238"/>
<path d="M156.665 165.466C157.213 165.276 157.793 165.169 158.382 165.148C158.662 165.148 158.886 165.069 158.909 164.93C158.909 164.684 158.84 164.442 158.707 164.226C158.426 163.601 158.157 162.976 157.865 162.311C157.066 160.697 156.453 159.015 156.037 157.292C157.021 158.824 157.822 160.443 158.426 162.123C158.707 162.787 158.965 163.422 159.223 164.057C159.398 164.363 159.453 164.712 159.38 165.049C159.338 165.142 159.273 165.225 159.19 165.292C159.106 165.359 159.006 165.408 158.898 165.436C158.744 165.472 158.586 165.492 158.426 165.495C157.842 165.576 157.246 165.566 156.665 165.466Z" fill="#263238"/>
<path d="M153.209 166.507C154.868 167.168 156.625 167.619 158.426 167.846C158.066 168.34 157.527 168.711 156.898 168.9C156.269 169.089 155.586 169.085 154.959 168.888C152.648 168.134 153.209 166.507 153.209 166.507Z" fill="white"/>
<path d="M157.293 177.012C153.717 177.077 150.201 176.197 147.195 174.483C147.195 174.483 149.574 179.443 157.293 178.788V177.012Z" fill="#EB996E"/>
<path d="M164.025 148.413C164.025 148.413 159.537 150.724 153.175 148.413C149.024 146.905 144.278 146.35 143.313 147.133C142.348 147.917 142.427 151.568 138.545 152.897C138.545 152.897 139.409 159.841 136.301 159.841C133.193 159.841 134.202 148.879 134.202 148.879L141.596 145.06L149.866 143.076L157.843 143.542L164.081 144.624L164.025 148.413Z" fill="#263238"/>
<path d="M136.682 157.549C136.547 157.549 131.375 156.161 131.543 160.833C131.712 165.505 136.974 164.394 136.985 164.255C136.996 164.116 136.682 157.549 136.682 157.549Z" fill="#FFBE9D"/>
<path d="M135.302 162.529C135.302 162.529 135.212 162.589 135.066 162.658C134.956 162.699 134.838 162.72 134.719 162.72C134.599 162.72 134.481 162.699 134.371 162.658C134.02 162.479 133.73 162.22 133.533 161.907C133.335 161.595 133.237 161.24 133.249 160.883C133.241 160.48 133.333 160.08 133.518 159.712C133.56 159.565 133.642 159.429 133.758 159.316C133.873 159.204 134.018 159.118 134.18 159.067C134.286 159.042 134.399 159.048 134.501 159.086C134.603 159.124 134.687 159.19 134.741 159.275C134.808 159.404 134.741 159.504 134.808 159.504C134.876 159.504 134.921 159.424 134.876 159.236C134.836 159.122 134.757 159.022 134.651 158.948C134.501 158.855 134.317 158.816 134.135 158.839C133.92 158.884 133.721 158.976 133.558 159.108C133.395 159.24 133.273 159.407 133.204 159.593C132.991 160.003 132.899 160.453 132.935 160.902C132.922 161.32 133.05 161.731 133.302 162.084C133.553 162.437 133.917 162.716 134.348 162.886C134.491 162.916 134.639 162.918 134.782 162.893C134.925 162.867 135.061 162.814 135.179 162.738C135.302 162.688 135.324 162.539 135.302 162.529Z" fill="#EB996E"/>
<path d="M133.092 143.076C133.036 142.947 133.911 142.61 134.977 142.908C136.042 143.205 136.547 143.9 136.424 143.989C136.301 144.078 135.695 143.642 134.797 143.404C133.899 143.165 133.137 143.215 133.092 143.076Z" fill="#263238"/>
<path d="M136.099 140.12C136.278 140.12 136.267 141.112 136.514 142.243C136.761 143.374 137.355 144.227 137.221 144.227C137.086 144.227 136.222 143.572 135.942 142.302C135.703 141.581 135.758 140.809 136.099 140.12Z" fill="#263238"/>
<path d="M158.785 155.337C158.606 155.109 159.593 154.345 161.119 154.296C162.645 154.246 163.711 154.911 163.565 155.149C163.419 155.387 162.443 155.268 161.175 155.327C159.907 155.387 158.943 155.595 158.785 155.337Z" fill="#263238"/>
<path d="M146.982 154.464C146.814 154.236 147.79 153.472 149.327 153.413C150.864 153.353 151.908 154.028 151.762 154.276C151.616 154.524 150.64 154.385 149.372 154.444C148.104 154.504 147.083 154.752 146.982 154.464Z" fill="#263238"/>
<path d="M103.224 443.206L101.373 450.051C101.373 450.051 88.7278 464.573 84.8232 463.869C82.265 463.403 85.4066 459.613 90.22 448.572L91.2298 444.019L103.224 443.206Z" fill="#455A64"/>
<path d="M84.2734 461.726C84.4329 461.967 84.6663 462.163 84.9466 462.292C85.3422 462.445 85.7782 462.499 86.206 462.446C86.6339 462.394 87.0369 462.237 87.3702 461.994C89.5904 460.353 91.6927 458.59 93.6646 456.717C96.0096 454.544 97.9731 452.451 99.3643 450.914L100.98 449.078L101.418 448.572C101.467 448.511 101.523 448.455 101.586 448.404L101.451 448.602L101.047 449.118C100.7 449.574 100.161 450.219 99.4878 451.003C97.7406 453.046 95.8678 455.004 93.8778 456.866C91.9022 458.747 89.7761 460.501 87.516 462.113C87.0965 462.378 86.6045 462.539 86.0911 462.579C85.7012 462.603 85.312 462.527 84.9691 462.361C84.7461 462.264 84.5592 462.113 84.4305 461.925C84.3611 461.871 84.3072 461.803 84.2734 461.726Z" fill="#263238"/>
<path d="M86.0686 457.054C86.3993 456.936 86.7595 456.899 87.1121 456.945C87.9593 457.021 88.7743 457.272 89.4907 457.679C90.2375 458.055 90.8423 458.618 91.2298 459.296C91.3978 459.571 91.4901 459.877 91.4991 460.189C91.4991 460.189 91.3757 459.852 91.084 459.356C90.6712 458.729 90.0792 458.209 89.3673 457.848C88.6847 457.463 87.9216 457.203 87.1233 457.084C86.7726 457.057 86.4205 457.047 86.0686 457.054Z" fill="#263238"/>
<path d="M98.0404 453.642C97.9752 453.539 97.9261 453.429 97.8945 453.314C97.7757 453 97.682 452.678 97.614 452.352C97.4343 451.284 97.6425 450.194 98.2087 449.237C98.7612 448.272 99.6612 447.498 100.767 447.035C101.1 446.905 101.451 446.811 101.81 446.757C102.068 446.757 102.214 446.757 102.214 446.757C101.742 446.87 101.28 447.016 100.834 447.194C99.799 447.682 98.9631 448.445 98.4443 449.376C97.9055 450.291 97.6831 451.326 97.8047 452.352C97.9057 453.156 98.0852 453.632 98.0404 453.642Z" fill="#263238"/>
<path d="M102.382 444.416C102.382 444.416 102.158 445.408 101.911 446.598C101.82 447.341 101.601 448.067 101.26 448.751C101.26 448.751 101.451 447.759 101.687 446.569C101.788 445.823 102.023 445.096 102.382 444.416Z" fill="#263238"/>
<path d="M89.962 449.545C90.4936 449.41 91.0573 449.41 91.5889 449.545C92.1324 449.62 92.6393 449.834 93.0475 450.16C93.0475 450.219 92.3855 449.922 91.5328 449.743C90.6801 449.564 89.9732 449.604 89.962 449.545Z" fill="#263238"/>
<path d="M89.76 450.715C90.1952 450.556 90.6804 450.538 91.1289 450.666C91.5943 450.73 92.0192 450.937 92.3294 451.251C92.3294 451.3 91.7796 451.013 91.0727 450.864C90.3659 450.715 89.76 450.775 89.76 450.715Z" fill="#263238"/>
<path d="M88.6941 452.183C89.1288 451.979 89.6319 451.92 90.1117 452.017C90.5915 452.113 91.0162 452.359 91.3084 452.709C90.9138 452.509 90.4964 452.346 90.063 452.223C89.6099 452.164 89.1506 452.15 88.6941 452.183Z" fill="#263238"/>
<path d="M90.882 449.049C90.882 449.049 91.4655 448.91 92.3631 448.602C92.89 448.419 93.4002 448.2 93.889 447.948C94.1794 447.803 94.4604 447.644 94.7305 447.471C94.9885 447.303 95.269 447.065 95.2578 446.797C95.2466 446.529 94.8763 446.39 94.5846 446.46C94.2855 446.548 94.0183 446.706 93.8104 446.916C93.3392 447.303 92.9465 447.67 92.6211 447.987C91.9704 448.632 91.6113 449.059 91.5889 449.039C91.6374 448.919 91.7096 448.808 91.8021 448.711C92.0177 448.43 92.2499 448.158 92.4977 447.898C92.846 447.505 93.2206 447.13 93.6197 446.777C93.848 446.533 94.1523 446.354 94.4949 446.261C94.5967 446.233 94.7043 446.224 94.8102 446.236C94.916 446.248 95.0178 446.28 95.1084 446.33C95.1989 446.38 95.2762 446.447 95.335 446.526C95.3937 446.604 95.4324 446.694 95.4486 446.787C95.4274 446.963 95.3595 447.132 95.2503 447.28C95.141 447.428 94.9937 447.552 94.8202 447.64C94.5285 447.819 94.2368 447.977 93.9563 448.116C93.4486 448.361 92.9196 448.57 92.3743 448.741C92.007 448.851 91.6323 448.941 91.2523 449.009C91.131 449.035 91.0068 449.048 90.882 449.049Z" fill="#263238"/>
<path d="M91.4991 448.91C91.4991 448.91 91.4093 448.424 91.2635 447.66C91.1942 447.228 91.0661 446.805 90.882 446.4C90.7573 446.162 90.599 445.938 90.4108 445.735C90.22 445.547 89.9171 445.378 89.6927 445.507C89.4683 445.636 89.4234 445.934 89.4571 446.182C89.5034 446.441 89.5863 446.694 89.7039 446.936C89.9119 447.343 90.188 447.721 90.523 448.057C91.1176 448.632 91.5664 448.91 91.544 448.939C91.4208 448.898 91.3069 448.837 91.2074 448.761C90.9147 448.585 90.6439 448.382 90.3995 448.156C90.0305 447.819 89.7272 447.43 89.5019 447.005C89.3689 446.754 89.2782 446.486 89.2327 446.211C89.1865 446.05 89.1936 445.88 89.2532 445.722C89.3129 445.563 89.4226 445.424 89.5693 445.319C89.7496 445.259 89.9476 445.255 90.1309 445.307C90.3143 445.359 90.4723 445.465 90.5791 445.606C90.7844 445.821 90.9509 446.061 91.0727 446.321C91.2786 446.751 91.4146 447.205 91.4767 447.67C91.5328 448.057 91.544 448.374 91.5552 448.592C91.5531 448.7 91.5342 448.807 91.4991 448.91Z" fill="#263238"/>
<path d="M166.056 446.668V437.541L146.735 437.343L146.488 450.685L147.689 450.765C153.018 451.082 174.808 452.054 178.387 451.132C182.46 450.11 166.056 446.668 166.056 446.668Z" fill="#455A64"/>
<path d="M146.298 450.289H146.634L147.588 450.358L151.1 450.527C154.062 450.656 158.157 450.785 162.69 450.834C167.223 450.884 171.318 450.834 174.291 450.834L177.803 450.745H178.757H179.094H177.803H174.291C171.318 450.745 167.223 450.745 162.69 450.745C158.157 450.745 154.073 450.576 151.1 450.487L147.588 450.378H146.634L146.298 450.289Z" fill="#263238"/>
<path d="M172.328 451.052C172.486 450.538 172.712 450.042 173.001 449.574C173.351 449.14 173.762 448.746 174.224 448.404C173.616 448.584 173.11 448.964 172.81 449.465C172.432 449.923 172.26 450.489 172.328 451.052Z" fill="#263238"/>
<path d="M166.662 448.384C166.718 448.384 166.998 448.126 167.279 447.739C167.559 447.352 167.761 447.005 167.705 446.975C167.649 446.946 167.369 447.233 167.088 447.63C166.808 448.027 166.606 448.384 166.662 448.384Z" fill="#263238"/>
<path d="M165.114 447.68C165.114 447.68 165.461 447.541 165.798 447.283C166.135 447.025 166.37 446.777 166.325 446.737C166.28 446.698 165.977 446.866 165.641 447.124C165.304 447.382 165.069 447.64 165.114 447.68Z" fill="#263238"/>
<path d="M164.149 446.053C164.149 446.113 164.597 446.173 165.147 446.183C165.486 446.218 165.83 446.191 166.157 446.103C166.157 446.043 165.708 445.983 165.158 445.974C164.819 445.931 164.474 445.959 164.149 446.053Z" fill="#263238"/>
<path d="M163.812 444.912C164.141 445.115 164.533 445.223 164.934 445.22C165.314 445.279 165.706 445.234 166.056 445.091C165.685 445.034 165.31 445.008 164.934 445.011C164.565 444.945 164.189 444.912 163.812 444.912Z" fill="#263238"/>
<path d="M167.335 446.946C167.747 447.006 168.168 447.006 168.581 446.946C169.029 446.897 169.472 446.814 169.904 446.698C170.17 446.637 170.427 446.547 170.667 446.43C170.816 446.356 170.928 446.236 170.982 446.092C171.003 446.012 170.997 445.928 170.965 445.851C170.933 445.773 170.876 445.706 170.802 445.656C170.332 445.438 169.791 445.375 169.273 445.476C168.756 445.578 168.296 445.839 167.975 446.212C167.783 446.426 167.642 446.672 167.559 446.936C167.503 447.124 167.503 447.233 167.559 447.233C167.693 446.898 167.886 446.583 168.132 446.301C168.434 446.012 168.823 445.806 169.254 445.706C169.495 445.637 169.749 445.612 170.001 445.63C170.253 445.649 170.499 445.712 170.724 445.815C170.925 445.944 170.847 446.152 170.623 446.261C170.398 446.369 170.161 446.455 169.916 446.519C169.499 446.643 169.071 446.736 168.637 446.797C167.818 446.916 167.335 446.916 167.335 446.946Z" fill="#263238"/>
<path d="M167.66 447.005C167.817 446.776 167.873 446.504 167.818 446.241C167.778 445.955 167.667 445.681 167.492 445.438C167.389 445.273 167.24 445.134 167.059 445.033C166.879 444.932 166.673 444.874 166.46 444.862C166.334 444.886 166.223 444.952 166.15 445.046C166.077 445.14 166.047 445.256 166.067 445.368C166.099 445.545 166.171 445.714 166.28 445.864C166.44 446.106 166.632 446.329 166.853 446.529C167.04 446.732 167.284 446.889 167.559 446.985C167.559 446.985 167.313 446.787 166.976 446.43C166.778 446.225 166.605 446.002 166.46 445.765C166.303 445.537 166.191 445.12 166.46 445.071C166.729 445.021 167.088 445.319 167.279 445.547C167.448 445.761 167.563 446.004 167.616 446.261C167.654 446.508 167.669 446.756 167.66 447.005Z" fill="#263238"/>
<path d="M146.758 445.616C146.758 445.616 147.319 445.616 148.194 445.676C149.326 445.812 150.396 446.217 151.291 446.846C152.168 447.493 152.828 448.341 153.198 449.297C153.49 450.041 153.501 450.527 153.546 450.527C153.591 450.527 153.546 450.398 153.546 450.18C153.469 449.503 153.242 448.846 152.878 448.247C152.514 447.648 152.021 447.118 151.425 446.688C150.504 446.023 149.378 445.619 148.194 445.527C147.821 445.491 147.445 445.491 147.072 445.527C146.963 445.546 146.858 445.576 146.758 445.616Z" fill="#263238"/>
<path d="M148.867 438.533C148.65 440.866 148.583 443.208 148.665 445.547C148.897 443.215 148.964 440.873 148.867 438.533Z" fill="#263238"/>
<path d="M156.037 448.989C156.958 449.187 157.905 449.28 158.853 449.267C159.8 449.315 160.749 449.258 161.68 449.098C161.68 449.039 160.412 449.098 158.853 449.098C157.293 449.098 156.037 448.93 156.037 448.989Z" fill="#263238"/>
<path d="M152.244 448.939C152.244 448.939 152.345 449.178 152.469 449.435C152.592 449.693 152.659 449.922 152.727 449.912C152.794 449.902 152.828 449.644 152.727 449.346C152.626 449.049 152.289 448.9 152.244 448.939Z" fill="#263238"/>
<path d="M150.842 447.392C150.842 447.392 150.92 447.61 151.111 447.789C151.302 447.967 151.504 448.086 151.56 448.047C151.616 448.007 151.481 447.828 151.279 447.65C151.077 447.471 150.887 447.313 150.842 447.392Z" fill="#263238"/>
<path d="M148.811 446.608C148.811 446.668 149.08 446.668 149.361 446.757C149.641 446.846 149.843 446.985 149.899 446.946C149.955 446.906 149.787 446.678 149.439 446.569C149.091 446.46 148.788 446.559 148.811 446.608Z" fill="#263238"/>
<path d="M147.363 446.251C147.363 446.311 147.442 446.4 147.599 446.45C147.756 446.499 147.913 446.509 147.936 446.45C147.958 446.39 147.857 446.311 147.689 446.251C147.521 446.192 147.386 446.202 147.363 446.251Z" fill="#263238"/>
<path d="M179.228 265.519L170.207 442.74L140.115 443.295L145.119 294.932L111.269 444.426H82.6577L120.862 265.519" fill="#263238"/>
<path d="M89.861 441.867C90.0181 441.867 90.0854 442.234 90.0069 442.64C89.9283 443.047 89.7376 443.355 89.5805 443.335C89.4234 443.315 89.3561 442.958 89.4346 442.551C89.5132 442.144 89.76 441.837 89.861 441.867Z" fill="#455A64"/>
<path d="M90.9606 436.063C91.1176 436.063 91.1289 436.758 90.9606 437.551C90.7923 438.345 90.5566 438.99 90.3996 438.96C90.2425 438.93 90.2313 438.276 90.3996 437.472C90.5679 436.668 90.8035 436.044 90.9606 436.063Z" fill="#455A64"/>
<path d="M92.0601 430.26C92.2172 430.26 92.2284 430.955 92.0601 431.758C91.8918 432.562 91.6562 433.187 91.4991 433.157C91.342 433.127 91.3308 432.472 91.4991 431.669C91.6674 430.865 91.903 430.24 92.0601 430.26Z" fill="#455A64"/>
<path d="M93.126 424.457C93.2831 424.457 93.2831 425.151 93.126 425.955C92.9689 426.758 92.7221 427.383 92.5538 427.354C92.3855 427.324 92.3967 426.669 92.5538 425.866C92.7109 425.062 93.0026 424.437 93.126 424.457Z" fill="#455A64"/>
<path d="M94.248 418.624C94.4051 418.624 94.4163 419.318 94.248 420.112C94.0797 420.906 93.8441 421.55 93.687 421.521C93.5299 421.491 93.5187 420.836 93.687 420.033C93.8553 419.229 94.1134 418.624 94.248 418.624Z" fill="#455A64"/>
<path d="M95.37 412.851C95.5271 412.851 95.5383 413.545 95.37 414.339C95.2017 415.132 94.9661 415.777 94.809 415.747C94.6519 415.717 94.6407 415.063 94.809 414.259C94.9773 413.456 95.2241 412.821 95.37 412.851Z" fill="#455A64"/>
<path d="M96.492 407.047C96.6491 407.047 96.6603 407.742 96.492 408.535C96.3237 409.329 96.0881 409.974 95.9198 409.944C95.7515 409.914 95.7627 409.26 95.9198 408.456C96.0769 407.652 96.3349 407.018 96.492 407.047Z" fill="#455A64"/>
<path d="M97.614 401.244C97.7711 401.244 97.7823 401.939 97.614 402.742C97.4457 403.546 97.2101 404.171 97.053 404.151C96.8959 404.131 96.8847 403.456 97.053 402.653C97.2213 401.849 97.4457 401.214 97.614 401.244Z" fill="#455A64"/>
<path d="M98.736 395.441C98.8931 395.441 98.8931 396.135 98.736 396.939C98.5789 397.742 98.3208 398.367 98.1638 398.338C98.0067 398.308 98.0067 397.653 98.1638 396.85C98.3208 396.046 98.5677 395.421 98.736 395.441Z" fill="#455A64"/>
<path d="M99.858 389.638C100.015 389.638 100.015 390.332 99.858 391.136C99.7009 391.939 99.4429 392.564 99.2858 392.544C99.1287 392.524 99.1175 391.85 99.2858 391.046C99.4541 390.243 99.6897 389.618 99.858 389.638Z" fill="#455A64"/>
<path d="M100.98 383.835C101.148 383.835 101.148 384.529 100.98 385.332C100.812 386.136 100.565 386.761 100.408 386.741C100.251 386.721 100.251 386.047 100.408 385.243C100.565 384.44 100.812 383.815 100.98 383.835Z" fill="#455A64"/>
<path d="M102.102 378.041C102.27 378.041 102.27 378.736 102.102 379.529C101.934 380.323 101.698 380.928 101.541 380.928C101.384 380.928 101.384 380.234 101.541 379.43C101.698 378.627 101.945 378.012 102.102 378.041Z" fill="#455A64"/>
<path d="M103.224 372.238C103.381 372.238 103.381 372.932 103.224 373.736C103.067 374.54 102.809 375.164 102.652 375.135C102.495 375.105 102.495 374.44 102.652 373.647C102.809 372.853 103.089 372.218 103.224 372.238Z" fill="#455A64"/>
<path d="M104.346 366.445C104.503 366.445 104.503 367.129 104.346 367.933C104.189 368.736 103.931 369.361 103.774 369.341C103.617 369.322 103.617 368.647 103.774 367.844C103.931 367.04 104.234 366.415 104.346 366.445Z" fill="#455A64"/>
<path d="M105.547 360.642C105.704 360.642 105.704 361.336 105.547 362.139C105.389 362.943 105.12 363.568 104.963 363.538C104.806 363.508 104.806 362.844 104.963 362.05C105.12 361.257 105.389 360.622 105.547 360.642Z" fill="#455A64"/>
<path d="M106.702 354.848C106.859 354.848 106.859 355.543 106.702 356.346C106.545 357.15 106.287 357.775 106.119 357.745C105.95 357.715 105.962 357.051 106.119 356.247C106.276 355.443 106.59 354.819 106.702 354.848Z" fill="#455A64"/>
<path d="M107.869 349.055C108.026 349.055 108.026 349.749 107.869 350.543C107.712 351.337 107.443 351.971 107.286 351.952C107.129 351.932 107.129 351.257 107.286 350.454C107.443 349.65 107.712 349.025 107.869 349.055Z" fill="#455A64"/>
<path d="M109.047 343.232C109.204 343.232 109.204 343.926 109.047 344.72C108.89 345.514 108.621 346.148 108.464 346.129C108.307 346.109 108.307 345.434 108.464 344.631C108.621 343.827 108.89 343.232 109.047 343.232Z" fill="#455A64"/>
<path d="M110.236 337.468C110.394 337.468 110.394 338.163 110.236 338.956C110.079 339.75 109.81 340.385 109.653 340.365C109.496 340.345 109.496 339.671 109.653 338.867C109.81 338.064 110.079 337.439 110.236 337.468Z" fill="#455A64"/>
<path d="M111.426 331.675C111.594 331.675 111.583 332.37 111.426 333.173C111.269 333.977 110.999 334.602 110.842 334.572C110.685 334.542 110.685 333.877 110.842 333.074C110.999 332.27 111.269 331.655 111.426 331.675Z" fill="#455A64"/>
<path d="M112.638 325.892C112.795 325.892 112.795 326.586 112.638 327.38C112.481 328.173 112.2 328.808 112.043 328.779C111.886 328.749 111.897 328.084 112.043 327.291C112.189 326.497 112.481 325.862 112.638 325.892Z" fill="#455A64"/>
<path d="M113.861 320.099C114.018 320.099 114.006 320.793 113.861 321.596C113.715 322.4 113.423 323.025 113.266 322.995C113.109 322.965 113.12 322.301 113.266 321.497C113.412 320.694 113.692 320.079 113.861 320.099Z" fill="#455A64"/>
<path d="M115.084 314.315C115.241 314.315 115.229 315.01 115.084 315.813C114.938 316.617 114.646 317.232 114.489 317.212C114.332 317.192 114.343 316.517 114.489 315.714C114.635 314.91 114.926 314.295 115.084 314.315Z" fill="#455A64"/>
<path d="M116.329 308.512C116.486 308.512 116.475 309.206 116.329 310.01C116.183 310.813 115.88 311.428 115.723 311.409C115.566 311.389 115.577 310.714 115.723 309.911C115.869 309.107 116.172 308.512 116.329 308.512Z" fill="#455A64"/>
<path d="M117.586 302.758C117.743 302.758 117.731 303.453 117.586 304.246C117.44 305.04 117.148 305.675 116.991 305.645C116.834 305.615 116.845 304.951 116.991 304.147C117.137 303.344 117.429 302.729 117.586 302.758Z" fill="#455A64"/>
<path d="M118.853 296.975C119.011 296.975 118.999 297.669 118.853 298.473C118.708 299.276 118.405 299.892 118.248 299.862C118.091 299.832 118.102 299.167 118.248 298.374C118.393 297.58 118.696 296.945 118.853 296.975Z" fill="#455A64"/>
<path d="M120.133 291.202C120.29 291.202 120.278 291.896 120.133 292.69C119.987 293.483 119.684 294.118 119.527 294.088C119.37 294.059 119.381 293.394 119.527 292.59C119.673 291.787 119.975 291.172 120.133 291.202Z" fill="#455A64"/>
<path d="M121.434 285.428C121.591 285.428 121.58 286.123 121.434 286.926C121.288 287.73 120.974 288.345 120.817 288.315C120.66 288.285 120.671 287.62 120.817 286.817C120.963 286.013 121.277 285.398 121.434 285.428Z" fill="#455A64"/>
<path d="M122.747 279.655C122.915 279.655 122.893 280.359 122.747 281.153C122.601 281.946 122.287 282.571 122.13 282.541C121.973 282.512 121.984 281.847 122.13 281.053C122.276 280.26 122.59 279.625 122.747 279.655Z" fill="#455A64"/>
<path d="M124.082 273.891C124.239 273.891 124.228 274.586 124.082 275.379C123.936 276.173 123.577 276.768 123.42 276.768C123.263 276.768 123.285 276.064 123.42 275.27C123.555 274.476 123.925 273.861 124.082 273.891Z" fill="#455A64"/>
<path d="M125.103 269.546C125.26 269.546 125.316 269.923 125.215 270.32C125.114 270.717 124.923 271.024 124.766 270.995C124.609 270.965 124.553 270.618 124.643 270.221C124.733 269.824 124.946 269.516 125.103 269.546Z" fill="#455A64"/>
<path d="M145.31 441.847C145.467 441.847 145.579 442.194 145.557 442.601C145.535 443.007 145.378 443.335 145.22 443.335C145.063 443.335 144.951 442.988 144.974 442.571C144.996 442.154 145.142 441.837 145.31 441.847Z" fill="#455A64"/>
<path d="M145.58 435.944C145.748 435.944 145.849 436.609 145.815 437.432C145.781 438.256 145.613 438.9 145.456 438.891C145.299 438.881 145.187 438.226 145.232 437.412C145.277 436.599 145.422 435.934 145.58 435.944Z" fill="#455A64"/>
<path d="M145.793 430.032C145.95 430.032 146.062 430.707 146.028 431.52C145.995 432.333 145.849 432.988 145.692 432.988C145.535 432.988 145.422 432.324 145.445 431.5C145.467 430.677 145.624 430.032 145.793 430.032Z" fill="#455A64"/>
<path d="M145.961 424.13C146.118 424.13 146.23 424.794 146.208 425.608C146.185 426.421 146.04 427.086 145.871 427.086C145.703 427.086 145.602 426.411 145.624 425.598C145.647 424.784 145.793 424.13 145.961 424.13Z" fill="#455A64"/>
<path d="M146.118 418.217C146.275 418.217 146.387 418.892 146.365 419.705C146.342 420.519 146.197 421.183 146.04 421.173C145.882 421.164 145.759 420.509 145.781 419.695C145.804 418.882 145.95 418.217 146.118 418.217Z" fill="#455A64"/>
<path d="M146.286 412.305C146.455 412.305 146.567 412.98 146.533 413.793C146.5 414.606 146.365 415.271 146.197 415.261C146.028 415.251 145.927 414.596 145.95 413.783C145.972 412.97 146.129 412.305 146.286 412.305Z" fill="#455A64"/>
<path d="M146.511 406.403C146.668 406.403 146.78 407.067 146.746 407.891C146.713 408.714 146.556 409.359 146.387 409.349C146.219 409.339 146.129 408.684 146.163 407.871C146.197 407.057 146.354 406.393 146.511 406.403Z" fill="#455A64"/>
<path d="M146.791 400.5C146.948 400.5 147.049 401.165 147.016 401.978C146.982 402.792 146.814 403.456 146.657 403.446C146.5 403.436 146.387 402.772 146.432 401.958C146.477 401.145 146.634 400.49 146.791 400.5Z" fill="#455A64"/>
<path d="M147.049 394.588C147.218 394.588 147.319 395.262 147.285 396.076C147.251 396.889 147.083 397.544 146.926 397.544C146.769 397.544 146.657 396.869 146.702 396.056C146.746 395.243 146.892 394.588 147.049 394.588Z" fill="#455A64"/>
<path d="M147.285 388.685C147.442 388.685 147.554 389.35 147.521 390.173C147.487 390.997 147.33 391.642 147.173 391.642C147.016 391.642 146.903 390.967 146.937 390.154C146.971 389.34 147.128 388.676 147.285 388.685Z" fill="#455A64"/>
<path d="M147.487 382.773C147.655 382.773 147.756 383.438 147.734 384.261C147.711 385.084 147.554 385.729 147.386 385.729C147.218 385.729 147.117 385.055 147.15 384.241C147.184 383.428 147.33 382.773 147.487 382.773Z" fill="#455A64"/>
<path d="M147.666 376.871C147.824 376.871 147.936 377.535 147.913 378.349C147.891 379.162 147.745 379.827 147.577 379.817C147.408 379.807 147.307 379.152 147.33 378.339C147.352 377.525 147.498 376.861 147.666 376.871Z" fill="#455A64"/>
<path d="M147.812 371.008C147.969 371.008 148.082 371.673 148.07 372.486C148.059 373.3 147.902 373.964 147.745 373.964C147.588 373.964 147.464 373.3 147.487 372.476C147.509 371.653 147.644 371.008 147.812 371.008Z" fill="#455A64"/>
<path d="M147.925 365.056C148.082 365.056 148.205 365.731 148.183 366.544C148.16 367.357 148.025 368.012 147.868 368.012C147.711 368.012 147.588 367.347 147.599 366.534C147.61 365.721 147.756 365.056 147.925 365.056Z" fill="#455A64"/>
<path d="M148.003 359.104C148.16 359.104 148.284 359.769 148.272 360.582C148.261 361.395 148.104 362.08 147.969 362.08C147.835 362.08 147.678 361.415 147.689 360.592C147.7 359.769 147.835 359.104 148.003 359.104Z" fill="#455A64"/>
<path d="M148.104 353.231C148.261 353.231 148.396 353.896 148.385 354.709C148.373 355.523 148.25 356.187 148.082 356.187C147.913 356.187 147.801 355.523 147.801 354.709C147.801 353.896 147.891 353.231 148.104 353.231Z" fill="#455A64"/>
<path d="M148.104 347.329C148.272 347.329 148.396 347.984 148.396 348.797C148.396 349.611 148.261 350.275 148.104 350.275C147.947 350.275 147.812 349.62 147.812 348.797C147.812 347.974 147.902 347.329 148.104 347.329Z" fill="#455A64"/>
<path d="M148.104 341.417C148.261 341.417 148.396 342.071 148.396 342.895C148.396 343.718 148.272 344.373 148.115 344.373C147.958 344.373 147.824 343.708 147.812 342.895C147.801 342.081 147.88 341.417 148.104 341.417Z" fill="#455A64"/>
<path d="M147.992 335.504C148.149 335.504 148.295 336.169 148.295 336.982C148.295 337.796 148.183 338.46 148.025 338.46C147.868 338.46 147.723 337.806 147.711 336.982C147.7 336.159 147.835 335.504 147.992 335.504Z" fill="#455A64"/>
<path d="M147.902 329.602C148.07 329.602 148.205 330.257 148.216 331.07C148.227 331.883 148.115 332.548 147.958 332.548C147.801 332.548 147.655 331.893 147.633 331.08C147.61 330.267 147.745 329.602 147.902 329.602Z" fill="#455A64"/>
<path d="M147.79 323.69C147.947 323.69 148.093 324.344 148.115 325.168C148.138 325.991 148.014 326.646 147.846 326.646C147.678 326.646 147.543 325.991 147.532 325.178C147.521 324.364 147.622 323.699 147.79 323.69Z" fill="#455A64"/>
<path d="M147.633 317.777C147.801 317.777 147.947 318.432 147.969 319.255C147.992 320.079 147.88 320.733 147.723 320.733C147.565 320.733 147.408 320.079 147.386 319.265C147.363 318.452 147.476 317.787 147.633 317.777Z" fill="#455A64"/>
<path d="M147.397 311.865C147.565 311.865 147.723 312.52 147.756 313.333C147.79 314.147 147.689 314.821 147.532 314.821C147.375 314.821 147.206 314.176 147.173 313.353C147.139 312.53 147.24 311.875 147.397 311.865Z" fill="#455A64"/>
<path d="M146.982 305.963C147.139 305.963 147.319 306.607 147.375 307.421C147.431 308.234 147.375 308.909 147.195 308.919C147.016 308.929 146.859 308.274 146.791 307.46C146.724 306.647 146.847 305.982 146.982 305.963Z" fill="#455A64"/>
<path d="M146.399 300.08C146.556 300.08 146.769 300.715 146.859 301.528C146.948 302.342 146.859 303.006 146.735 303.026C146.612 303.046 146.376 302.391 146.275 301.578C146.174 300.764 146.241 300.1 146.399 300.08Z" fill="#455A64"/>
<path d="M145.748 295.685C145.916 295.685 146.096 295.983 146.163 296.39C146.23 296.796 146.163 297.144 145.995 297.164C145.826 297.183 145.647 296.866 145.58 296.459C145.512 296.052 145.591 295.715 145.748 295.685Z" fill="#455A64"/>
<path d="M150.124 267.761C150.178 268.126 150.178 268.496 150.124 268.862C150.124 269.556 150.068 270.578 150 271.838C149.877 274.348 149.675 277.79 149.406 281.639C149.26 283.543 149.125 285.369 149.002 287.035C148.998 288.53 148.752 290.016 148.272 291.45C148.076 291.936 147.767 292.382 147.365 292.758C146.963 293.133 146.477 293.431 145.939 293.632C145.647 293.739 145.334 293.793 145.019 293.791C144.805 293.791 144.693 293.791 144.693 293.741C145.078 293.682 145.454 293.585 145.815 293.453C146.785 293.008 147.515 292.241 147.846 291.321C148.258 289.912 148.454 288.46 148.429 287.005C148.542 285.329 148.665 283.514 148.788 281.609C149.058 277.78 149.327 274.318 149.563 271.808C149.675 270.558 149.776 269.546 149.854 268.832C149.902 268.468 149.993 268.109 150.124 267.761Z" fill="#455A64"/>
<path d="M147.038 270.112C147.038 270.052 147.543 270.112 147.723 270.717C147.774 270.888 147.778 271.067 147.735 271.239C147.692 271.412 147.603 271.573 147.476 271.709C147.302 271.873 147.074 271.985 146.825 272.029C146.576 272.074 146.317 272.049 146.084 271.957C145.866 271.894 145.672 271.776 145.528 271.617C145.384 271.458 145.296 271.266 145.275 271.063C145.253 270.861 145.299 270.657 145.407 270.477C145.515 270.298 145.681 270.15 145.882 270.052C146.477 269.745 146.892 270.003 146.847 270.052C146.803 270.102 146.466 270.052 146.118 270.36C146.026 270.432 145.951 270.52 145.899 270.619C145.847 270.718 145.818 270.826 145.815 270.935C145.825 271.059 145.876 271.178 145.962 271.277C146.048 271.376 146.164 271.45 146.298 271.491C146.426 271.542 146.568 271.559 146.707 271.542C146.846 271.524 146.976 271.472 147.083 271.391C147.166 271.309 147.23 271.214 147.27 271.11C147.311 271.006 147.327 270.896 147.319 270.786C147.285 270.36 146.982 270.181 147.038 270.112Z" fill="#455A64"/>
<path d="M118.719 274.318C118.719 274.238 119.695 274.605 121.288 274.804C123.363 275.074 125.481 274.815 127.395 274.058C129.309 273.301 130.939 272.076 132.093 270.528C132.991 269.348 133.294 268.485 133.395 268.544C133.276 269.337 132.949 270.095 132.441 270.756C131.322 272.433 129.641 273.761 127.631 274.555C125.62 275.35 123.38 275.572 121.221 275.191C120.322 275.075 119.465 274.776 118.719 274.318Z" fill="#455A64"/>
<path d="M168.771 267.761C168.861 267.761 168.883 268.495 169.276 269.586C169.76 271.014 170.69 272.292 171.958 273.275C173.226 274.257 174.781 274.904 176.446 275.141C177.725 275.339 178.544 275.26 178.555 275.349C177.86 275.565 177.115 275.62 176.39 275.508C174.605 275.356 172.919 274.712 171.57 273.667C170.221 272.622 169.278 271.23 168.872 269.685C168.644 269.063 168.609 268.399 168.771 267.761Z" fill="#455A64"/>
<path d="M185.657 271.808L119.325 267.751L121.625 239.737V224.083L115.185 232.882L95.2017 217.506L116.71 192.706C120.352 189.342 124.832 186.778 129.793 185.216C132.43 184.384 135.196 183.915 137.995 183.828C144.443 185.628 151.361 185.628 157.809 183.828C163.905 184.316 169.934 185.313 175.817 186.804L200.928 192.756L192.659 220.026L177.489 215.512C177.489 215.512 185.814 266.154 185.657 271.808Z" fill="#6A3093"/>
<path d="M121.019 224.996C122.241 222.673 123.806 220.505 125.675 218.548C125.15 219.743 124.452 220.873 123.6 221.91C122.897 223.035 122.029 224.072 121.019 224.996Z" fill="#263238"/>
<g opacity="0.6">
<path d="M200.019 193.053C200.019 193.192 181.416 193.311 158.505 193.311C135.594 193.311 116.991 193.192 116.991 193.053C116.991 192.914 135.582 192.795 158.505 192.795C181.427 192.795 200.019 192.914 200.019 193.053Z" fill="white"/>
</g>
<g opacity="0.6">
<path d="M196.002 205.711C196.002 205.86 175.941 205.969 151.189 205.969C126.438 205.969 106.366 205.86 106.366 205.711C106.366 205.562 126.427 205.453 151.246 205.453C176.064 205.453 196.002 205.572 196.002 205.711Z" fill="white"/>
</g>
<g opacity="0.6">
<path d="M178.555 219.639C178.555 219.778 160.603 219.897 138.455 219.897C116.307 219.897 98.3433 219.778 98.3433 219.639C98.3433 219.5 116.295 219.381 138.455 219.381C160.614 219.381 178.555 219.5 178.555 219.639Z" fill="white"/>
</g>
<g opacity="0.6">
<path d="M180.642 234.796C180.642 234.935 167.436 235.054 151.145 235.054C134.853 235.054 121.647 234.935 121.647 234.796C121.647 234.658 134.842 234.539 151.145 234.539C167.447 234.539 180.642 234.648 180.642 234.796Z" fill="white"/>
</g>
<g opacity="0.6">
<path d="M182.381 250.52C182.381 250.659 168.827 250.778 152.087 250.778C135.347 250.778 121.793 250.659 121.793 250.52C121.793 250.381 135.347 250.262 152.087 250.262C168.827 250.262 182.381 250.381 182.381 250.52Z" fill="white"/>
</g>
<g opacity="0.6">
<path d="M185.13 264.943C185.13 265.082 170.454 265.201 152.356 265.201C134.259 265.201 119.572 265.082 119.572 264.943C119.572 264.804 134.247 264.685 152.356 264.685C170.465 264.685 185.13 264.795 185.13 264.943Z" fill="white"/>
</g>
</svg>
